%TF.GenerationSoftware,KiCad,Pcbnew,(5.1.7)-1*%
%TF.CreationDate,2020-12-03T18:42:53-08:00*%
%TF.ProjectId,k-5,6b2d352e-6b69-4636-9164-5f7063625858,rev?*%
%TF.SameCoordinates,Original*%
%TF.FileFunction,Copper,L1,Top*%
%TF.FilePolarity,Positive*%
%FSLAX46Y46*%
G04 Gerber Fmt 4.6, Leading zero omitted, Abs format (unit mm)*
G04 Created by KiCad (PCBNEW (5.1.7)-1) date 2020-12-03 18:42:53*
%MOMM*%
%LPD*%
G01*
G04 APERTURE LIST*
%TA.AperFunction,ComponentPad*%
%ADD10C,2.500000*%
%TD*%
%TA.AperFunction,ComponentPad*%
%ADD11C,0.650000*%
%TD*%
%TA.AperFunction,ComponentPad*%
%ADD12O,0.900000X2.400000*%
%TD*%
%TA.AperFunction,ComponentPad*%
%ADD13O,0.900000X1.700000*%
%TD*%
%TA.AperFunction,ComponentPad*%
%ADD14O,0.850000X0.850000*%
%TD*%
%TA.AperFunction,ComponentPad*%
%ADD15R,0.850000X0.850000*%
%TD*%
%TA.AperFunction,SMDPad,CuDef*%
%ADD16R,1.000000X0.300000*%
%TD*%
%TA.AperFunction,SMDPad,CuDef*%
%ADD17R,0.300000X1.000000*%
%TD*%
%TA.AperFunction,SMDPad,CuDef*%
%ADD18R,5.080000X5.080000*%
%TD*%
%TA.AperFunction,SMDPad,CuDef*%
%ADD19R,1.400000X1.200000*%
%TD*%
%TA.AperFunction,ViaPad*%
%ADD20C,0.800000*%
%TD*%
%TA.AperFunction,Conductor*%
%ADD21C,0.250000*%
%TD*%
%TA.AperFunction,Conductor*%
%ADD22C,0.254000*%
%TD*%
%TA.AperFunction,Conductor*%
%ADD23C,0.100000*%
%TD*%
G04 APERTURE END LIST*
D10*
%TO.P,K5,2*%
%TO.N,Net-(D5-Pad2)*%
X172085000Y-74295000D03*
%TO.P,K5,1*%
%TO.N,/KVCC*%
X178435000Y-76835000D03*
%TD*%
%TO.P,C1,1*%
%TO.N,/XTAL1*%
%TA.AperFunction,SMDPad,CuDef*%
G36*
G01*
X113715000Y-59530000D02*
X114215000Y-59530000D01*
G75*
G02*
X114440000Y-59755000I0J-225000D01*
G01*
X114440000Y-60205000D01*
G75*
G02*
X114215000Y-60430000I-225000J0D01*
G01*
X113715000Y-60430000D01*
G75*
G02*
X113490000Y-60205000I0J225000D01*
G01*
X113490000Y-59755000D01*
G75*
G02*
X113715000Y-59530000I225000J0D01*
G01*
G37*
%TD.AperFunction*%
%TO.P,C1,2*%
%TO.N,GND*%
%TA.AperFunction,SMDPad,CuDef*%
G36*
G01*
X113715000Y-61080000D02*
X114215000Y-61080000D01*
G75*
G02*
X114440000Y-61305000I0J-225000D01*
G01*
X114440000Y-61755000D01*
G75*
G02*
X114215000Y-61980000I-225000J0D01*
G01*
X113715000Y-61980000D01*
G75*
G02*
X113490000Y-61755000I0J225000D01*
G01*
X113490000Y-61305000D01*
G75*
G02*
X113715000Y-61080000I225000J0D01*
G01*
G37*
%TD.AperFunction*%
%TD*%
%TO.P,C2,1*%
%TO.N,/XTAL2*%
%TA.AperFunction,SMDPad,CuDef*%
G36*
G01*
X109165000Y-63805000D02*
X109165000Y-63305000D01*
G75*
G02*
X109390000Y-63080000I225000J0D01*
G01*
X109840000Y-63080000D01*
G75*
G02*
X110065000Y-63305000I0J-225000D01*
G01*
X110065000Y-63805000D01*
G75*
G02*
X109840000Y-64030000I-225000J0D01*
G01*
X109390000Y-64030000D01*
G75*
G02*
X109165000Y-63805000I0J225000D01*
G01*
G37*
%TD.AperFunction*%
%TO.P,C2,2*%
%TO.N,GND*%
%TA.AperFunction,SMDPad,CuDef*%
G36*
G01*
X110715000Y-63805000D02*
X110715000Y-63305000D01*
G75*
G02*
X110940000Y-63080000I225000J0D01*
G01*
X111390000Y-63080000D01*
G75*
G02*
X111615000Y-63305000I0J-225000D01*
G01*
X111615000Y-63805000D01*
G75*
G02*
X111390000Y-64030000I-225000J0D01*
G01*
X110940000Y-64030000D01*
G75*
G02*
X110715000Y-63805000I0J225000D01*
G01*
G37*
%TD.AperFunction*%
%TD*%
%TO.P,C3,2*%
%TO.N,GND*%
%TA.AperFunction,SMDPad,CuDef*%
G36*
G01*
X136200000Y-66679000D02*
X136200000Y-67179000D01*
G75*
G02*
X135975000Y-67404000I-225000J0D01*
G01*
X135525000Y-67404000D01*
G75*
G02*
X135300000Y-67179000I0J225000D01*
G01*
X135300000Y-66679000D01*
G75*
G02*
X135525000Y-66454000I225000J0D01*
G01*
X135975000Y-66454000D01*
G75*
G02*
X136200000Y-66679000I0J-225000D01*
G01*
G37*
%TD.AperFunction*%
%TO.P,C3,1*%
%TO.N,VCC*%
%TA.AperFunction,SMDPad,CuDef*%
G36*
G01*
X137750000Y-66679000D02*
X137750000Y-67179000D01*
G75*
G02*
X137525000Y-67404000I-225000J0D01*
G01*
X137075000Y-67404000D01*
G75*
G02*
X136850000Y-67179000I0J225000D01*
G01*
X136850000Y-66679000D01*
G75*
G02*
X137075000Y-66454000I225000J0D01*
G01*
X137525000Y-66454000D01*
G75*
G02*
X137750000Y-66679000I0J-225000D01*
G01*
G37*
%TD.AperFunction*%
%TD*%
%TO.P,C4,2*%
%TO.N,GND*%
%TA.AperFunction,SMDPad,CuDef*%
G36*
G01*
X104665000Y-59305000D02*
X104665000Y-58805000D01*
G75*
G02*
X104890000Y-58580000I225000J0D01*
G01*
X105340000Y-58580000D01*
G75*
G02*
X105565000Y-58805000I0J-225000D01*
G01*
X105565000Y-59305000D01*
G75*
G02*
X105340000Y-59530000I-225000J0D01*
G01*
X104890000Y-59530000D01*
G75*
G02*
X104665000Y-59305000I0J225000D01*
G01*
G37*
%TD.AperFunction*%
%TO.P,C4,1*%
%TO.N,VCC*%
%TA.AperFunction,SMDPad,CuDef*%
G36*
G01*
X103115000Y-59305000D02*
X103115000Y-58805000D01*
G75*
G02*
X103340000Y-58580000I225000J0D01*
G01*
X103790000Y-58580000D01*
G75*
G02*
X104015000Y-58805000I0J-225000D01*
G01*
X104015000Y-59305000D01*
G75*
G02*
X103790000Y-59530000I-225000J0D01*
G01*
X103340000Y-59530000D01*
G75*
G02*
X103115000Y-59305000I0J225000D01*
G01*
G37*
%TD.AperFunction*%
%TD*%
%TO.P,C5,1*%
%TO.N,VCC*%
%TA.AperFunction,SMDPad,CuDef*%
G36*
G01*
X94840000Y-67305000D02*
X94840000Y-67805000D01*
G75*
G02*
X94615000Y-68030000I-225000J0D01*
G01*
X94165000Y-68030000D01*
G75*
G02*
X93940000Y-67805000I0J225000D01*
G01*
X93940000Y-67305000D01*
G75*
G02*
X94165000Y-67080000I225000J0D01*
G01*
X94615000Y-67080000D01*
G75*
G02*
X94840000Y-67305000I0J-225000D01*
G01*
G37*
%TD.AperFunction*%
%TO.P,C5,2*%
%TO.N,GND*%
%TA.AperFunction,SMDPad,CuDef*%
G36*
G01*
X93290000Y-67305000D02*
X93290000Y-67805000D01*
G75*
G02*
X93065000Y-68030000I-225000J0D01*
G01*
X92615000Y-68030000D01*
G75*
G02*
X92390000Y-67805000I0J225000D01*
G01*
X92390000Y-67305000D01*
G75*
G02*
X92615000Y-67080000I225000J0D01*
G01*
X93065000Y-67080000D01*
G75*
G02*
X93290000Y-67305000I0J-225000D01*
G01*
G37*
%TD.AperFunction*%
%TD*%
%TO.P,C6,2*%
%TO.N,GND*%
%TA.AperFunction,SMDPad,CuDef*%
G36*
G01*
X92765000Y-62705000D02*
X92765000Y-63205000D01*
G75*
G02*
X92540000Y-63430000I-225000J0D01*
G01*
X92090000Y-63430000D01*
G75*
G02*
X91865000Y-63205000I0J225000D01*
G01*
X91865000Y-62705000D01*
G75*
G02*
X92090000Y-62480000I225000J0D01*
G01*
X92540000Y-62480000D01*
G75*
G02*
X92765000Y-62705000I0J-225000D01*
G01*
G37*
%TD.AperFunction*%
%TO.P,C6,1*%
%TO.N,VCC*%
%TA.AperFunction,SMDPad,CuDef*%
G36*
G01*
X94315000Y-62705000D02*
X94315000Y-63205000D01*
G75*
G02*
X94090000Y-63430000I-225000J0D01*
G01*
X93640000Y-63430000D01*
G75*
G02*
X93415000Y-63205000I0J225000D01*
G01*
X93415000Y-62705000D01*
G75*
G02*
X93640000Y-62480000I225000J0D01*
G01*
X94090000Y-62480000D01*
G75*
G02*
X94315000Y-62705000I0J-225000D01*
G01*
G37*
%TD.AperFunction*%
%TD*%
%TO.P,C7,2*%
%TO.N,GND*%
%TA.AperFunction,SMDPad,CuDef*%
G36*
G01*
X95265000Y-70805000D02*
X95265000Y-71305000D01*
G75*
G02*
X95040000Y-71530000I-225000J0D01*
G01*
X94590000Y-71530000D01*
G75*
G02*
X94365000Y-71305000I0J225000D01*
G01*
X94365000Y-70805000D01*
G75*
G02*
X94590000Y-70580000I225000J0D01*
G01*
X95040000Y-70580000D01*
G75*
G02*
X95265000Y-70805000I0J-225000D01*
G01*
G37*
%TD.AperFunction*%
%TO.P,C7,1*%
%TO.N,VCC*%
%TA.AperFunction,SMDPad,CuDef*%
G36*
G01*
X96815000Y-70805000D02*
X96815000Y-71305000D01*
G75*
G02*
X96590000Y-71530000I-225000J0D01*
G01*
X96140000Y-71530000D01*
G75*
G02*
X95915000Y-71305000I0J225000D01*
G01*
X95915000Y-70805000D01*
G75*
G02*
X96140000Y-70580000I225000J0D01*
G01*
X96590000Y-70580000D01*
G75*
G02*
X96815000Y-70805000I0J-225000D01*
G01*
G37*
%TD.AperFunction*%
%TD*%
%TO.P,C8,2*%
%TO.N,GND*%
%TA.AperFunction,SMDPad,CuDef*%
G36*
G01*
X118615000Y-60230000D02*
X118115000Y-60230000D01*
G75*
G02*
X117890000Y-60005000I0J225000D01*
G01*
X117890000Y-59555000D01*
G75*
G02*
X118115000Y-59330000I225000J0D01*
G01*
X118615000Y-59330000D01*
G75*
G02*
X118840000Y-59555000I0J-225000D01*
G01*
X118840000Y-60005000D01*
G75*
G02*
X118615000Y-60230000I-225000J0D01*
G01*
G37*
%TD.AperFunction*%
%TO.P,C8,1*%
%TO.N,VCC*%
%TA.AperFunction,SMDPad,CuDef*%
G36*
G01*
X118615000Y-61780000D02*
X118115000Y-61780000D01*
G75*
G02*
X117890000Y-61555000I0J225000D01*
G01*
X117890000Y-61105000D01*
G75*
G02*
X118115000Y-60880000I225000J0D01*
G01*
X118615000Y-60880000D01*
G75*
G02*
X118840000Y-61105000I0J-225000D01*
G01*
X118840000Y-61555000D01*
G75*
G02*
X118615000Y-61780000I-225000J0D01*
G01*
G37*
%TD.AperFunction*%
%TD*%
%TO.P,C9,1*%
%TO.N,Net-(C9-Pad1)*%
%TA.AperFunction,SMDPad,CuDef*%
G36*
G01*
X101715000Y-70905000D02*
X101715000Y-70405000D01*
G75*
G02*
X101940000Y-70180000I225000J0D01*
G01*
X102390000Y-70180000D01*
G75*
G02*
X102615000Y-70405000I0J-225000D01*
G01*
X102615000Y-70905000D01*
G75*
G02*
X102390000Y-71130000I-225000J0D01*
G01*
X101940000Y-71130000D01*
G75*
G02*
X101715000Y-70905000I0J225000D01*
G01*
G37*
%TD.AperFunction*%
%TO.P,C9,2*%
%TO.N,GND*%
%TA.AperFunction,SMDPad,CuDef*%
G36*
G01*
X103265000Y-70905000D02*
X103265000Y-70405000D01*
G75*
G02*
X103490000Y-70180000I225000J0D01*
G01*
X103940000Y-70180000D01*
G75*
G02*
X104165000Y-70405000I0J-225000D01*
G01*
X104165000Y-70905000D01*
G75*
G02*
X103940000Y-71130000I-225000J0D01*
G01*
X103490000Y-71130000D01*
G75*
G02*
X103265000Y-70905000I0J225000D01*
G01*
G37*
%TD.AperFunction*%
%TD*%
%TO.P,D1,2*%
%TO.N,Net-(D1-Pad2)*%
%TA.AperFunction,SMDPad,CuDef*%
G36*
G01*
X95502500Y-88361250D02*
X95502500Y-87848750D01*
G75*
G02*
X95721250Y-87630000I218750J0D01*
G01*
X96158750Y-87630000D01*
G75*
G02*
X96377500Y-87848750I0J-218750D01*
G01*
X96377500Y-88361250D01*
G75*
G02*
X96158750Y-88580000I-218750J0D01*
G01*
X95721250Y-88580000D01*
G75*
G02*
X95502500Y-88361250I0J218750D01*
G01*
G37*
%TD.AperFunction*%
%TO.P,D1,1*%
%TO.N,/K1*%
%TA.AperFunction,SMDPad,CuDef*%
G36*
G01*
X93927500Y-88361250D02*
X93927500Y-87848750D01*
G75*
G02*
X94146250Y-87630000I218750J0D01*
G01*
X94583750Y-87630000D01*
G75*
G02*
X94802500Y-87848750I0J-218750D01*
G01*
X94802500Y-88361250D01*
G75*
G02*
X94583750Y-88580000I-218750J0D01*
G01*
X94146250Y-88580000D01*
G75*
G02*
X93927500Y-88361250I0J218750D01*
G01*
G37*
%TD.AperFunction*%
%TD*%
%TO.P,D2,1*%
%TO.N,/K2*%
%TA.AperFunction,SMDPad,CuDef*%
G36*
G01*
X112912500Y-88451250D02*
X112912500Y-87938750D01*
G75*
G02*
X113131250Y-87720000I218750J0D01*
G01*
X113568750Y-87720000D01*
G75*
G02*
X113787500Y-87938750I0J-218750D01*
G01*
X113787500Y-88451250D01*
G75*
G02*
X113568750Y-88670000I-218750J0D01*
G01*
X113131250Y-88670000D01*
G75*
G02*
X112912500Y-88451250I0J218750D01*
G01*
G37*
%TD.AperFunction*%
%TO.P,D2,2*%
%TO.N,Net-(D2-Pad2)*%
%TA.AperFunction,SMDPad,CuDef*%
G36*
G01*
X114487500Y-88451250D02*
X114487500Y-87938750D01*
G75*
G02*
X114706250Y-87720000I218750J0D01*
G01*
X115143750Y-87720000D01*
G75*
G02*
X115362500Y-87938750I0J-218750D01*
G01*
X115362500Y-88451250D01*
G75*
G02*
X115143750Y-88670000I-218750J0D01*
G01*
X114706250Y-88670000D01*
G75*
G02*
X114487500Y-88451250I0J218750D01*
G01*
G37*
%TD.AperFunction*%
%TD*%
%TO.P,D3,2*%
%TO.N,Net-(D3-Pad2)*%
%TA.AperFunction,SMDPad,CuDef*%
G36*
G01*
X133515000Y-88411250D02*
X133515000Y-87898750D01*
G75*
G02*
X133733750Y-87680000I218750J0D01*
G01*
X134171250Y-87680000D01*
G75*
G02*
X134390000Y-87898750I0J-218750D01*
G01*
X134390000Y-88411250D01*
G75*
G02*
X134171250Y-88630000I-218750J0D01*
G01*
X133733750Y-88630000D01*
G75*
G02*
X133515000Y-88411250I0J218750D01*
G01*
G37*
%TD.AperFunction*%
%TO.P,D3,1*%
%TO.N,/K3*%
%TA.AperFunction,SMDPad,CuDef*%
G36*
G01*
X131940000Y-88411250D02*
X131940000Y-87898750D01*
G75*
G02*
X132158750Y-87680000I218750J0D01*
G01*
X132596250Y-87680000D01*
G75*
G02*
X132815000Y-87898750I0J-218750D01*
G01*
X132815000Y-88411250D01*
G75*
G02*
X132596250Y-88630000I-218750J0D01*
G01*
X132158750Y-88630000D01*
G75*
G02*
X131940000Y-88411250I0J218750D01*
G01*
G37*
%TD.AperFunction*%
%TD*%
%TO.P,D4,1*%
%TO.N,/K4*%
%TA.AperFunction,SMDPad,CuDef*%
G36*
G01*
X151140000Y-88211250D02*
X151140000Y-87698750D01*
G75*
G02*
X151358750Y-87480000I218750J0D01*
G01*
X151796250Y-87480000D01*
G75*
G02*
X152015000Y-87698750I0J-218750D01*
G01*
X152015000Y-88211250D01*
G75*
G02*
X151796250Y-88430000I-218750J0D01*
G01*
X151358750Y-88430000D01*
G75*
G02*
X151140000Y-88211250I0J218750D01*
G01*
G37*
%TD.AperFunction*%
%TO.P,D4,2*%
%TO.N,Net-(D4-Pad2)*%
%TA.AperFunction,SMDPad,CuDef*%
G36*
G01*
X152715000Y-88211250D02*
X152715000Y-87698750D01*
G75*
G02*
X152933750Y-87480000I218750J0D01*
G01*
X153371250Y-87480000D01*
G75*
G02*
X153590000Y-87698750I0J-218750D01*
G01*
X153590000Y-88211250D01*
G75*
G02*
X153371250Y-88430000I-218750J0D01*
G01*
X152933750Y-88430000D01*
G75*
G02*
X152715000Y-88211250I0J218750D01*
G01*
G37*
%TD.AperFunction*%
%TD*%
%TO.P,D5,2*%
%TO.N,Net-(D5-Pad2)*%
%TA.AperFunction,SMDPad,CuDef*%
G36*
G01*
X171715000Y-88411250D02*
X171715000Y-87898750D01*
G75*
G02*
X171933750Y-87680000I218750J0D01*
G01*
X172371250Y-87680000D01*
G75*
G02*
X172590000Y-87898750I0J-218750D01*
G01*
X172590000Y-88411250D01*
G75*
G02*
X172371250Y-88630000I-218750J0D01*
G01*
X171933750Y-88630000D01*
G75*
G02*
X171715000Y-88411250I0J218750D01*
G01*
G37*
%TD.AperFunction*%
%TO.P,D5,1*%
%TO.N,/K5*%
%TA.AperFunction,SMDPad,CuDef*%
G36*
G01*
X170140000Y-88411250D02*
X170140000Y-87898750D01*
G75*
G02*
X170358750Y-87680000I218750J0D01*
G01*
X170796250Y-87680000D01*
G75*
G02*
X171015000Y-87898750I0J-218750D01*
G01*
X171015000Y-88411250D01*
G75*
G02*
X170796250Y-88630000I-218750J0D01*
G01*
X170358750Y-88630000D01*
G75*
G02*
X170140000Y-88411250I0J218750D01*
G01*
G37*
%TD.AperFunction*%
%TD*%
D11*
%TO.P,J1,A5*%
%TO.N,Net-(J1-PadA5)*%
X135250000Y-63161000D03*
%TO.P,J1,A1*%
%TO.N,GND*%
X133550000Y-63161000D03*
%TO.P,J1,A4*%
%TO.N,VCC*%
X134400000Y-63161000D03*
%TO.P,J1,A6*%
%TO.N,Net-(J1-PadA6)*%
X136100000Y-63161000D03*
%TO.P,J1,A7*%
%TO.N,Net-(J1-PadA7)*%
X136950000Y-63161000D03*
%TO.P,J1,A8*%
%TO.N,Net-(J1-PadA8)*%
X137800000Y-63161000D03*
%TO.P,J1,A9*%
%TO.N,VCC*%
X138650000Y-63161000D03*
%TO.P,J1,A12*%
%TO.N,GND*%
X139500000Y-63161000D03*
%TO.P,J1,B12*%
X133550000Y-61836000D03*
%TO.P,J1,B9*%
%TO.N,VCC*%
X134405000Y-61836000D03*
%TO.P,J1,B8*%
%TO.N,Net-(J1-PadB8)*%
X135255000Y-61836000D03*
%TO.P,J1,B7*%
%TO.N,Net-(J1-PadA7)*%
X136105000Y-61836000D03*
%TO.P,J1,B6*%
%TO.N,Net-(J1-PadA6)*%
X136955000Y-61836000D03*
%TO.P,J1,B5*%
%TO.N,Net-(J1-PadB5)*%
X137805000Y-61836000D03*
%TO.P,J1,B4*%
%TO.N,VCC*%
X138655000Y-61836000D03*
%TO.P,J1,B1*%
%TO.N,GND*%
X139505000Y-61836000D03*
D12*
%TO.P,J1,S1*%
X132200000Y-62181000D03*
X140850000Y-62181000D03*
D13*
X132200000Y-58801000D03*
X140850000Y-58801000D03*
%TD*%
D14*
%TO.P,J2,6*%
%TO.N,GND*%
X119365000Y-65555000D03*
%TO.P,J2,5*%
%TO.N,/RST*%
X119365000Y-64555000D03*
%TO.P,J2,4*%
%TO.N,/MOSI*%
X118365000Y-65555000D03*
%TO.P,J2,3*%
%TO.N,/SCK*%
X118365000Y-64555000D03*
%TO.P,J2,2*%
%TO.N,VCC*%
X117365000Y-65555000D03*
D15*
%TO.P,J2,1*%
%TO.N,/MISO*%
X117365000Y-64555000D03*
%TD*%
D14*
%TO.P,J3,2*%
%TO.N,GND*%
X125865000Y-68055000D03*
D15*
%TO.P,J3,1*%
%TO.N,/RST*%
X124865000Y-68055000D03*
%TD*%
D10*
%TO.P,K5,2*%
%TO.N,Net-(D1-Pad2)*%
X95948500Y-74295000D03*
%TO.P,K5,1*%
%TO.N,/KVCC*%
X102298500Y-76835000D03*
%TD*%
%TO.P,K2,1*%
%TO.N,/KVCC*%
X121285000Y-76835000D03*
%TO.P,K2,2*%
%TO.N,Net-(D2-Pad2)*%
X114935000Y-74295000D03*
%TD*%
%TO.P,K3,2*%
%TO.N,Net-(D3-Pad2)*%
X133985000Y-74295000D03*
%TO.P,K3,1*%
%TO.N,/KVCC*%
X140335000Y-76835000D03*
%TD*%
%TO.P,K4,1*%
%TO.N,/KVCC*%
X159385000Y-76835000D03*
%TO.P,K4,2*%
%TO.N,Net-(D4-Pad2)*%
X153035000Y-74295000D03*
%TD*%
%TO.P,R1,2*%
%TO.N,Net-(J1-PadA7)*%
%TA.AperFunction,SMDPad,CuDef*%
G36*
G01*
X109965000Y-71830000D02*
X109965000Y-71280000D01*
G75*
G02*
X110165000Y-71080000I200000J0D01*
G01*
X110565000Y-71080000D01*
G75*
G02*
X110765000Y-71280000I0J-200000D01*
G01*
X110765000Y-71830000D01*
G75*
G02*
X110565000Y-72030000I-200000J0D01*
G01*
X110165000Y-72030000D01*
G75*
G02*
X109965000Y-71830000I0J200000D01*
G01*
G37*
%TD.AperFunction*%
%TO.P,R1,1*%
%TO.N,/DATA-*%
%TA.AperFunction,SMDPad,CuDef*%
G36*
G01*
X108315000Y-71830000D02*
X108315000Y-71280000D01*
G75*
G02*
X108515000Y-71080000I200000J0D01*
G01*
X108915000Y-71080000D01*
G75*
G02*
X109115000Y-71280000I0J-200000D01*
G01*
X109115000Y-71830000D01*
G75*
G02*
X108915000Y-72030000I-200000J0D01*
G01*
X108515000Y-72030000D01*
G75*
G02*
X108315000Y-71830000I0J200000D01*
G01*
G37*
%TD.AperFunction*%
%TD*%
%TO.P,R2,1*%
%TO.N,/DATA+*%
%TA.AperFunction,SMDPad,CuDef*%
G36*
G01*
X108315000Y-70330000D02*
X108315000Y-69780000D01*
G75*
G02*
X108515000Y-69580000I200000J0D01*
G01*
X108915000Y-69580000D01*
G75*
G02*
X109115000Y-69780000I0J-200000D01*
G01*
X109115000Y-70330000D01*
G75*
G02*
X108915000Y-70530000I-200000J0D01*
G01*
X108515000Y-70530000D01*
G75*
G02*
X108315000Y-70330000I0J200000D01*
G01*
G37*
%TD.AperFunction*%
%TO.P,R2,2*%
%TO.N,Net-(J1-PadA6)*%
%TA.AperFunction,SMDPad,CuDef*%
G36*
G01*
X109965000Y-70330000D02*
X109965000Y-69780000D01*
G75*
G02*
X110165000Y-69580000I200000J0D01*
G01*
X110565000Y-69580000D01*
G75*
G02*
X110765000Y-69780000I0J-200000D01*
G01*
X110765000Y-70330000D01*
G75*
G02*
X110565000Y-70530000I-200000J0D01*
G01*
X110165000Y-70530000D01*
G75*
G02*
X109965000Y-70330000I0J200000D01*
G01*
G37*
%TD.AperFunction*%
%TD*%
%TO.P,R3,2*%
%TO.N,GND*%
%TA.AperFunction,SMDPad,CuDef*%
G36*
G01*
X147301000Y-62378000D02*
X147301000Y-61828000D01*
G75*
G02*
X147501000Y-61628000I200000J0D01*
G01*
X147901000Y-61628000D01*
G75*
G02*
X148101000Y-61828000I0J-200000D01*
G01*
X148101000Y-62378000D01*
G75*
G02*
X147901000Y-62578000I-200000J0D01*
G01*
X147501000Y-62578000D01*
G75*
G02*
X147301000Y-62378000I0J200000D01*
G01*
G37*
%TD.AperFunction*%
%TO.P,R3,1*%
%TO.N,Net-(J1-PadA5)*%
%TA.AperFunction,SMDPad,CuDef*%
G36*
G01*
X145651000Y-62378000D02*
X145651000Y-61828000D01*
G75*
G02*
X145851000Y-61628000I200000J0D01*
G01*
X146251000Y-61628000D01*
G75*
G02*
X146451000Y-61828000I0J-200000D01*
G01*
X146451000Y-62378000D01*
G75*
G02*
X146251000Y-62578000I-200000J0D01*
G01*
X145851000Y-62578000D01*
G75*
G02*
X145651000Y-62378000I0J200000D01*
G01*
G37*
%TD.AperFunction*%
%TD*%
%TO.P,R4,1*%
%TO.N,Net-(J1-PadB5)*%
%TA.AperFunction,SMDPad,CuDef*%
G36*
G01*
X145714000Y-65426000D02*
X145714000Y-64876000D01*
G75*
G02*
X145914000Y-64676000I200000J0D01*
G01*
X146314000Y-64676000D01*
G75*
G02*
X146514000Y-64876000I0J-200000D01*
G01*
X146514000Y-65426000D01*
G75*
G02*
X146314000Y-65626000I-200000J0D01*
G01*
X145914000Y-65626000D01*
G75*
G02*
X145714000Y-65426000I0J200000D01*
G01*
G37*
%TD.AperFunction*%
%TO.P,R4,2*%
%TO.N,GND*%
%TA.AperFunction,SMDPad,CuDef*%
G36*
G01*
X147364000Y-65426000D02*
X147364000Y-64876000D01*
G75*
G02*
X147564000Y-64676000I200000J0D01*
G01*
X147964000Y-64676000D01*
G75*
G02*
X148164000Y-64876000I0J-200000D01*
G01*
X148164000Y-65426000D01*
G75*
G02*
X147964000Y-65626000I-200000J0D01*
G01*
X147564000Y-65626000D01*
G75*
G02*
X147364000Y-65426000I0J200000D01*
G01*
G37*
%TD.AperFunction*%
%TD*%
D16*
%TO.P,U1,44*%
%TO.N,VCC*%
X98071000Y-67555000D03*
%TO.P,U1,43*%
%TO.N,GND*%
X98071000Y-67055000D03*
%TO.P,U1,42*%
%TO.N,Net-(U1-Pad42)*%
X98071000Y-66555000D03*
%TO.P,U1,41*%
%TO.N,/KVCC*%
X98071000Y-66055000D03*
%TO.P,U1,40*%
%TO.N,Net-(U1-Pad40)*%
X98071000Y-65555000D03*
%TO.P,U1,39*%
%TO.N,Net-(U1-Pad39)*%
X98071000Y-65055000D03*
%TO.P,U1,38*%
%TO.N,Net-(U1-Pad38)*%
X98071000Y-64555000D03*
%TO.P,U1,37*%
%TO.N,Net-(U1-Pad37)*%
X98071000Y-64055000D03*
%TO.P,U1,36*%
%TO.N,Net-(U1-Pad36)*%
X98071000Y-63555000D03*
%TO.P,U1,35*%
%TO.N,GND*%
X98071000Y-63055000D03*
%TO.P,U1,34*%
%TO.N,VCC*%
X98071000Y-62555000D03*
D17*
%TO.P,U1,33*%
%TO.N,Net-(U1-Pad33)*%
X98921000Y-61705000D03*
%TO.P,U1,32*%
%TO.N,Net-(U1-Pad32)*%
X99421000Y-61705000D03*
%TO.P,U1,31*%
%TO.N,Net-(U1-Pad31)*%
X99921000Y-61705000D03*
%TO.P,U1,30*%
%TO.N,Net-(U1-Pad30)*%
X100421000Y-61705000D03*
%TO.P,U1,29*%
%TO.N,Net-(U1-Pad29)*%
X100921000Y-61705000D03*
%TO.P,U1,28*%
%TO.N,Net-(U1-Pad28)*%
X101421000Y-61705000D03*
%TO.P,U1,27*%
%TO.N,Net-(U1-Pad27)*%
X101921000Y-61705000D03*
%TO.P,U1,26*%
%TO.N,Net-(U1-Pad26)*%
X102421000Y-61705000D03*
%TO.P,U1,25*%
%TO.N,/K5*%
X102921000Y-61705000D03*
%TO.P,U1,24*%
%TO.N,VCC*%
X103421000Y-61705000D03*
%TO.P,U1,23*%
%TO.N,GND*%
X103921000Y-61705000D03*
D16*
%TO.P,U1,22*%
%TO.N,Net-(U1-Pad22)*%
X104771000Y-62555000D03*
%TO.P,U1,21*%
%TO.N,/K4*%
X104771000Y-63055000D03*
%TO.P,U1,20*%
%TO.N,/K3*%
X104771000Y-63555000D03*
%TO.P,U1,19*%
%TO.N,/K2*%
X104771000Y-64055000D03*
%TO.P,U1,18*%
%TO.N,/K1*%
X104771000Y-64555000D03*
%TO.P,U1,17*%
%TO.N,/XTAL1*%
X104771000Y-65055000D03*
%TO.P,U1,16*%
%TO.N,/XTAL2*%
X104771000Y-65555000D03*
%TO.P,U1,15*%
%TO.N,GND*%
X104771000Y-66055000D03*
%TO.P,U1,14*%
%TO.N,VCC*%
X104771000Y-66555000D03*
%TO.P,U1,13*%
%TO.N,/RST*%
X104771000Y-67055000D03*
%TO.P,U1,12*%
%TO.N,Net-(U1-Pad12)*%
X104771000Y-67555000D03*
D17*
%TO.P,U1,11*%
%TO.N,/MISO*%
X103921000Y-68405000D03*
%TO.P,U1,10*%
%TO.N,/MOSI*%
X103421000Y-68405000D03*
%TO.P,U1,9*%
%TO.N,/SCK*%
X102921000Y-68405000D03*
%TO.P,U1,8*%
%TO.N,Net-(U1-Pad8)*%
X102421000Y-68405000D03*
%TO.P,U1,7*%
%TO.N,VCC*%
X101921000Y-68405000D03*
%TO.P,U1,6*%
%TO.N,Net-(C9-Pad1)*%
X101421000Y-68405000D03*
%TO.P,U1,5*%
%TO.N,GND*%
X100921000Y-68405000D03*
%TO.P,U1,4*%
%TO.N,/DATA+*%
X100421000Y-68405000D03*
%TO.P,U1,3*%
%TO.N,/DATA-*%
X99921000Y-68405000D03*
%TO.P,U1,2*%
%TO.N,VCC*%
X99421000Y-68405000D03*
%TO.P,U1,1*%
%TO.N,Net-(U1-Pad1)*%
X98921000Y-68405000D03*
D18*
%TO.P,U1,TAB*%
%TO.N,GND*%
X101421000Y-65055000D03*
%TD*%
D19*
%TO.P,Y1,1*%
%TO.N,/XTAL1*%
X111865000Y-60055000D03*
%TO.P,Y1,2*%
%TO.N,GND*%
X109665000Y-60055000D03*
%TO.P,Y1,3*%
%TO.N,/XTAL2*%
X109665000Y-61755000D03*
%TO.P,Y1,4*%
%TO.N,GND*%
X111865000Y-61755000D03*
%TD*%
D20*
%TO.N,VCC*%
X98435501Y-70125501D03*
X102146000Y-69491836D03*
%TO.N,/K1*%
X107877347Y-64330000D03*
X109365000Y-78055000D03*
%TO.N,Net-(D1-Pad2)*%
X95940000Y-88105000D03*
%TO.N,Net-(D2-Pad2)*%
X114925000Y-88195000D03*
%TO.N,/K2*%
X107861418Y-63330125D03*
X113350000Y-88195000D03*
%TO.N,/K3*%
X107866039Y-62330134D03*
X132377500Y-88155000D03*
%TO.N,Net-(D3-Pad2)*%
X133952500Y-88155000D03*
%TO.N,Net-(D4-Pad2)*%
X153152500Y-87955000D03*
%TO.N,/K4*%
X107864699Y-61330133D03*
X151577500Y-87955000D03*
%TO.N,/K5*%
X102365000Y-59555000D03*
X170577500Y-88155000D03*
%TO.N,Net-(D5-Pad2)*%
X172152500Y-88155000D03*
%TO.N,Net-(J1-PadB5)*%
X146114000Y-65151000D03*
%TO.N,Net-(J1-PadA5)*%
X146051000Y-62103000D03*
%TO.N,/MISO*%
X116365000Y-68055000D03*
%TO.N,/SCK*%
X120865000Y-67305000D03*
%TO.N,/MOSI*%
X118365000Y-67780000D03*
X118365000Y-67780000D03*
%TO.N,/RST*%
X119365000Y-67305000D03*
%TO.N,/KVCC*%
X95865000Y-66805000D03*
%TO.N,/DATA+*%
X100646000Y-70830000D03*
X108715000Y-70055000D03*
%TD*%
D21*
%TO.N,/XTAL1*%
X111615000Y-59805000D02*
X111865000Y-60055000D01*
X110915010Y-59105010D02*
X111865000Y-60055000D01*
X108729988Y-59105010D02*
X110915010Y-59105010D01*
X113890000Y-60055000D02*
X113965000Y-59980000D01*
X111865000Y-60055000D02*
X113890000Y-60055000D01*
X108639999Y-59194999D02*
X108639999Y-64780001D01*
X108729988Y-59105010D02*
X108639999Y-59194999D01*
X108365000Y-65055000D02*
X104771000Y-65055000D01*
X108639999Y-64780001D02*
X108365000Y-65055000D01*
%TO.N,GND*%
X99421000Y-63055000D02*
X101421000Y-65055000D01*
X98071000Y-63055000D02*
X99421000Y-63055000D01*
X103921000Y-62555000D02*
X103921000Y-61705000D01*
X101421000Y-65055000D02*
X103921000Y-62555000D01*
X100921000Y-67354000D02*
X100921000Y-68405000D01*
X101421000Y-66854000D02*
X100921000Y-67354000D01*
X101421000Y-65055000D02*
X101421000Y-66854000D01*
X99421000Y-67055000D02*
X101421000Y-65055000D01*
X98071000Y-67055000D02*
X99421000Y-67055000D01*
X102421000Y-66055000D02*
X101421000Y-65055000D01*
X104771000Y-66055000D02*
X102421000Y-66055000D01*
X105115000Y-60511000D02*
X103921000Y-61705000D01*
X105115000Y-59055000D02*
X105115000Y-60511000D01*
%TO.N,/XTAL2*%
X109615000Y-61805000D02*
X109665000Y-61755000D01*
X109615000Y-63555000D02*
X109615000Y-61805000D01*
X109615000Y-63555000D02*
X109615000Y-65305000D01*
X109615000Y-65305000D02*
X109365000Y-65555000D01*
X105686000Y-65555000D02*
X104771000Y-65555000D01*
X109365000Y-65555000D02*
X105686000Y-65555000D01*
%TO.N,VCC*%
X134405000Y-63156000D02*
X134400000Y-63161000D01*
X103396001Y-61680001D02*
X103421000Y-61705000D01*
X134405000Y-63268002D02*
X134405000Y-61836000D01*
X131093002Y-66580000D02*
X134405000Y-63268002D01*
X138655000Y-61723998D02*
X138655000Y-61836000D01*
X138117001Y-61185999D02*
X138655000Y-61723998D01*
X134595382Y-61185999D02*
X138117001Y-61185999D01*
X134405000Y-61376381D02*
X134595382Y-61185999D01*
X134405000Y-61836000D02*
X134405000Y-61376381D01*
X138655000Y-63156000D02*
X138650000Y-63161000D01*
X138655000Y-61836000D02*
X138655000Y-63156000D01*
X104796000Y-66580000D02*
X104771000Y-66555000D01*
X98265000Y-58555000D02*
X93865000Y-62955000D01*
X103565000Y-58555000D02*
X98265000Y-58555000D01*
X94265000Y-62555000D02*
X98071000Y-62555000D01*
X93865000Y-62955000D02*
X94265000Y-62555000D01*
X93865000Y-67030000D02*
X94390000Y-67555000D01*
X93865000Y-62955000D02*
X93865000Y-67030000D01*
X94390000Y-67555000D02*
X98071000Y-67555000D01*
X94390000Y-69080000D02*
X96365000Y-71055000D01*
X94390000Y-67555000D02*
X94390000Y-69080000D01*
X99421000Y-69140002D02*
X99421000Y-68405000D01*
X96365000Y-71055000D02*
X97506002Y-71055000D01*
X110665000Y-66580000D02*
X104796000Y-66580000D01*
X98435501Y-70125501D02*
X99421000Y-69140002D01*
X97506002Y-71055000D02*
X98435501Y-70125501D01*
X120690000Y-61330000D02*
X125940000Y-66580000D01*
X118365000Y-61330000D02*
X120690000Y-61330000D01*
X125940000Y-66580000D02*
X131093002Y-66580000D01*
X101921000Y-68405000D02*
X101921000Y-69216183D01*
X138650000Y-65579000D02*
X138650000Y-63161000D01*
X137300000Y-66929000D02*
X138650000Y-65579000D01*
X101921000Y-69266836D02*
X102146000Y-69491836D01*
X101921000Y-69216183D02*
X101921000Y-69266836D01*
X117365000Y-65555000D02*
X117365000Y-66555000D01*
X117340000Y-66580000D02*
X125940000Y-66580000D01*
X117365000Y-66555000D02*
X117340000Y-66580000D01*
X110665000Y-66580000D02*
X117340000Y-66580000D01*
X103565000Y-59055000D02*
X103565000Y-58555000D01*
X103421000Y-59199000D02*
X103565000Y-59055000D01*
X103421000Y-61705000D02*
X103421000Y-59199000D01*
%TO.N,Net-(C9-Pad1)*%
X101421000Y-69911000D02*
X102165000Y-70655000D01*
X101421000Y-68405000D02*
X101421000Y-69911000D01*
%TO.N,/K1*%
X107652347Y-64555000D02*
X107877347Y-64330000D01*
X104771000Y-64555000D02*
X107652347Y-64555000D01*
X98514990Y-88905010D02*
X109365000Y-78055000D01*
X95165010Y-88905010D02*
X98514990Y-88905010D01*
X94365000Y-88105000D02*
X95165010Y-88905010D01*
%TO.N,/K2*%
X107804220Y-63330125D02*
X107861418Y-63330125D01*
X107079345Y-64055000D02*
X107804220Y-63330125D01*
X104771000Y-64055000D02*
X107079345Y-64055000D01*
%TO.N,/K3*%
X107788407Y-62330134D02*
X107866039Y-62330134D01*
X106563541Y-63555000D02*
X107788407Y-62330134D01*
X104771000Y-63555000D02*
X106563541Y-63555000D01*
%TO.N,/K4*%
X107793038Y-61330133D02*
X107864699Y-61330133D01*
X106068171Y-63055000D02*
X107793038Y-61330133D01*
X104771000Y-63055000D02*
X106068171Y-63055000D01*
%TO.N,/K5*%
X102921000Y-60111000D02*
X102365000Y-59555000D01*
X102921000Y-61705000D02*
X102921000Y-60111000D01*
%TO.N,Net-(J1-PadA6)*%
X136955000Y-61723998D02*
X136955000Y-61836000D01*
X136100000Y-63048998D02*
X136100000Y-63161000D01*
X136100000Y-63273002D02*
X136100000Y-63161000D01*
X129318002Y-70055000D02*
X136100000Y-63273002D01*
X110365000Y-70055000D02*
X129318002Y-70055000D01*
X136755001Y-62035999D02*
X136955000Y-61836000D01*
X136755001Y-62148001D02*
X136755001Y-62035999D01*
X136100000Y-62803002D02*
X136755001Y-62148001D01*
X136100000Y-63161000D02*
X136100000Y-62803002D01*
%TO.N,Net-(J1-PadA7)*%
X136950000Y-63620619D02*
X136950000Y-63161000D01*
X129015619Y-71555000D02*
X136950000Y-63620619D01*
X110365000Y-71555000D02*
X129015619Y-71555000D01*
%TO.N,/MISO*%
X103927000Y-68505000D02*
X105915000Y-68505000D01*
X103921000Y-68499000D02*
X103927000Y-68505000D01*
X103921000Y-68405000D02*
X103921000Y-68499000D01*
X105915000Y-68505000D02*
X106365000Y-68055000D01*
X106365000Y-68055000D02*
X116365000Y-68055000D01*
%TO.N,/SCK*%
X103065010Y-69854990D02*
X107565010Y-69854990D01*
X108165010Y-69254990D02*
X119165010Y-69254990D01*
X107565010Y-69854990D02*
X108165010Y-69254990D01*
X120865000Y-67555000D02*
X120865000Y-67305000D01*
X119165010Y-69254990D02*
X120865000Y-67555000D01*
X102921000Y-69710980D02*
X103065010Y-69854990D01*
X102921000Y-68405000D02*
X102921000Y-69710980D01*
%TO.N,/MOSI*%
X117364999Y-68780001D02*
X118365000Y-67780000D01*
X107553589Y-69230001D02*
X108003589Y-68780001D01*
X108003589Y-68780001D02*
X117364999Y-68780001D01*
X103496001Y-69230001D02*
X107553589Y-69230001D01*
X103421000Y-69155000D02*
X103496001Y-69230001D01*
X103421000Y-68405000D02*
X103421000Y-69155000D01*
%TO.N,/RST*%
X119115000Y-67055000D02*
X119365000Y-67305000D01*
X104771000Y-67055000D02*
X119115000Y-67055000D01*
%TO.N,/KVCC*%
X102298500Y-76835000D02*
X178435000Y-76835000D01*
X96615000Y-66055000D02*
X95865000Y-66805000D01*
X98071000Y-66055000D02*
X96615000Y-66055000D01*
%TO.N,/DATA-*%
X102199588Y-71555000D02*
X108715000Y-71555000D01*
X99921000Y-68405000D02*
X99921000Y-71361000D01*
X100115000Y-71555000D02*
X102199588Y-71555000D01*
X99921000Y-71361000D02*
X100115000Y-71555000D01*
%TO.N,/DATA+*%
X100421000Y-68405000D02*
X100421000Y-69140002D01*
X100421000Y-70605000D02*
X100646000Y-70830000D01*
X100421000Y-69140002D02*
X100421000Y-70605000D01*
%TO.N,Net-(U1-Pad22)*%
X104803832Y-62555000D02*
X104771000Y-62555000D01*
%TD*%
D22*
%TO.N,GND*%
X97972753Y-57849454D02*
X97840724Y-57920026D01*
X97724999Y-58014999D01*
X97701201Y-58043997D01*
X93903271Y-61841928D01*
X93640000Y-61841928D01*
X93471623Y-61858512D01*
X93309717Y-61907625D01*
X93163649Y-61985700D01*
X93119494Y-61949463D01*
X93009180Y-61890498D01*
X92889482Y-61854188D01*
X92765000Y-61841928D01*
X92600750Y-61845000D01*
X92442000Y-62003750D01*
X92442000Y-62828000D01*
X92462000Y-62828000D01*
X92462000Y-63082000D01*
X92442000Y-63082000D01*
X92442000Y-63906250D01*
X92600750Y-64065000D01*
X92765000Y-64068072D01*
X92889482Y-64055812D01*
X93009180Y-64019502D01*
X93105000Y-63968284D01*
X93105001Y-66465749D01*
X92967000Y-66603750D01*
X92967000Y-67428000D01*
X92987000Y-67428000D01*
X92987000Y-67682000D01*
X92967000Y-67682000D01*
X92967000Y-68506250D01*
X93125750Y-68665000D01*
X93290000Y-68668072D01*
X93414482Y-68655812D01*
X93534180Y-68619502D01*
X93630001Y-68568284D01*
X93630001Y-69042668D01*
X93626324Y-69080000D01*
X93630001Y-69117333D01*
X93640998Y-69228986D01*
X93653038Y-69268676D01*
X93684454Y-69372246D01*
X93755026Y-69504276D01*
X93826201Y-69591002D01*
X93850000Y-69620001D01*
X93878998Y-69643799D01*
X94201287Y-69966089D01*
X94120820Y-69990498D01*
X94010506Y-70049463D01*
X93913815Y-70128815D01*
X93834463Y-70225506D01*
X93775498Y-70335820D01*
X93739188Y-70455518D01*
X93726928Y-70580000D01*
X93730000Y-70769250D01*
X93888750Y-70928000D01*
X94688000Y-70928000D01*
X94688000Y-70908000D01*
X94942000Y-70908000D01*
X94942000Y-70928000D01*
X94962000Y-70928000D01*
X94962000Y-71182000D01*
X94942000Y-71182000D01*
X94942000Y-72006250D01*
X95100750Y-72165000D01*
X95265000Y-72168072D01*
X95389482Y-72155812D01*
X95509180Y-72119502D01*
X95619494Y-72060537D01*
X95663649Y-72024300D01*
X95809717Y-72102375D01*
X95971623Y-72151488D01*
X96140000Y-72168072D01*
X96590000Y-72168072D01*
X96758377Y-72151488D01*
X96920283Y-72102375D01*
X97069497Y-72022618D01*
X97200284Y-71915284D01*
X97282585Y-71815000D01*
X97468680Y-71815000D01*
X97506002Y-71818676D01*
X97543324Y-71815000D01*
X97543335Y-71815000D01*
X97654988Y-71804003D01*
X97798249Y-71760546D01*
X97930278Y-71689974D01*
X98046003Y-71595001D01*
X98069805Y-71565998D01*
X98475302Y-71160501D01*
X98537440Y-71160501D01*
X98737399Y-71120727D01*
X98925757Y-71042706D01*
X99095275Y-70929438D01*
X99161001Y-70863712D01*
X99161001Y-71323668D01*
X99157324Y-71361000D01*
X99161001Y-71398333D01*
X99171998Y-71509986D01*
X99185180Y-71553442D01*
X99215454Y-71653246D01*
X99286026Y-71785276D01*
X99336884Y-71847246D01*
X99381000Y-71901001D01*
X99409997Y-71924798D01*
X99551200Y-72066002D01*
X99574999Y-72095001D01*
X99690724Y-72189974D01*
X99822753Y-72260546D01*
X99966014Y-72304003D01*
X100077667Y-72315000D01*
X100077676Y-72315000D01*
X100114999Y-72318676D01*
X100152322Y-72315000D01*
X107834084Y-72315000D01*
X107922394Y-72422606D01*
X108049392Y-72526831D01*
X108194284Y-72604278D01*
X108351500Y-72651969D01*
X108515000Y-72668072D01*
X108915000Y-72668072D01*
X109078500Y-72651969D01*
X109235716Y-72604278D01*
X109380608Y-72526831D01*
X109507606Y-72422606D01*
X109540000Y-72383134D01*
X109572394Y-72422606D01*
X109699392Y-72526831D01*
X109844284Y-72604278D01*
X110001500Y-72651969D01*
X110165000Y-72668072D01*
X110565000Y-72668072D01*
X110728500Y-72651969D01*
X110885716Y-72604278D01*
X111030608Y-72526831D01*
X111157606Y-72422606D01*
X111245916Y-72315000D01*
X128978297Y-72315000D01*
X129015619Y-72318676D01*
X129052941Y-72315000D01*
X129052952Y-72315000D01*
X129164605Y-72304003D01*
X129307866Y-72260546D01*
X129439895Y-72189974D01*
X129555620Y-72095001D01*
X129579423Y-72065997D01*
X134665000Y-66980421D01*
X134665000Y-67056002D01*
X134823748Y-67056002D01*
X134665000Y-67214750D01*
X134661928Y-67404000D01*
X134674188Y-67528482D01*
X134710498Y-67648180D01*
X134769463Y-67758494D01*
X134848815Y-67855185D01*
X134945506Y-67934537D01*
X135055820Y-67993502D01*
X135175518Y-68029812D01*
X135300000Y-68042072D01*
X135464250Y-68039000D01*
X135623000Y-67880250D01*
X135623000Y-67056000D01*
X135603000Y-67056000D01*
X135603000Y-66802000D01*
X135623000Y-66802000D01*
X135623000Y-66782000D01*
X135877000Y-66782000D01*
X135877000Y-66802000D01*
X135897000Y-66802000D01*
X135897000Y-67056000D01*
X135877000Y-67056000D01*
X135877000Y-67880250D01*
X136035750Y-68039000D01*
X136200000Y-68042072D01*
X136324482Y-68029812D01*
X136444180Y-67993502D01*
X136554494Y-67934537D01*
X136598649Y-67898300D01*
X136744717Y-67976375D01*
X136906623Y-68025488D01*
X137075000Y-68042072D01*
X137525000Y-68042072D01*
X137693377Y-68025488D01*
X137855283Y-67976375D01*
X138004497Y-67896618D01*
X138135284Y-67789284D01*
X138242618Y-67658497D01*
X138322375Y-67509283D01*
X138371488Y-67347377D01*
X138388072Y-67179000D01*
X138388072Y-66915729D01*
X139161004Y-66142798D01*
X139190001Y-66119001D01*
X139284974Y-66003276D01*
X139355546Y-65871247D01*
X139399003Y-65727986D01*
X139410000Y-65616333D01*
X139410000Y-65616324D01*
X139413676Y-65579001D01*
X139410000Y-65541678D01*
X139410000Y-64876000D01*
X145075928Y-64876000D01*
X145075928Y-65426000D01*
X145092031Y-65589500D01*
X145139722Y-65746716D01*
X145217169Y-65891608D01*
X145321394Y-66018606D01*
X145448392Y-66122831D01*
X145593284Y-66200278D01*
X145750500Y-66247969D01*
X145914000Y-66264072D01*
X146314000Y-66264072D01*
X146477500Y-66247969D01*
X146634716Y-66200278D01*
X146779608Y-66122831D01*
X146881590Y-66039137D01*
X146912815Y-66077185D01*
X147009506Y-66156537D01*
X147119820Y-66215502D01*
X147239518Y-66251812D01*
X147364000Y-66264072D01*
X147478250Y-66261000D01*
X147637000Y-66102250D01*
X147637000Y-65278000D01*
X147891000Y-65278000D01*
X147891000Y-66102250D01*
X148049750Y-66261000D01*
X148164000Y-66264072D01*
X148288482Y-66251812D01*
X148408180Y-66215502D01*
X148518494Y-66156537D01*
X148615185Y-66077185D01*
X148694537Y-65980494D01*
X148753502Y-65870180D01*
X148789812Y-65750482D01*
X148802072Y-65626000D01*
X148799000Y-65436750D01*
X148640250Y-65278000D01*
X147891000Y-65278000D01*
X147637000Y-65278000D01*
X147617000Y-65278000D01*
X147617000Y-65024000D01*
X147637000Y-65024000D01*
X147637000Y-64199750D01*
X147891000Y-64199750D01*
X147891000Y-65024000D01*
X148640250Y-65024000D01*
X148799000Y-64865250D01*
X148802072Y-64676000D01*
X148789812Y-64551518D01*
X148753502Y-64431820D01*
X148694537Y-64321506D01*
X148615185Y-64224815D01*
X148518494Y-64145463D01*
X148408180Y-64086498D01*
X148288482Y-64050188D01*
X148164000Y-64037928D01*
X148049750Y-64041000D01*
X147891000Y-64199750D01*
X147637000Y-64199750D01*
X147478250Y-64041000D01*
X147364000Y-64037928D01*
X147239518Y-64050188D01*
X147119820Y-64086498D01*
X147009506Y-64145463D01*
X146912815Y-64224815D01*
X146881590Y-64262863D01*
X146779608Y-64179169D01*
X146634716Y-64101722D01*
X146477500Y-64054031D01*
X146314000Y-64037928D01*
X145914000Y-64037928D01*
X145750500Y-64054031D01*
X145593284Y-64101722D01*
X145448392Y-64179169D01*
X145321394Y-64283394D01*
X145217169Y-64410392D01*
X145139722Y-64555284D01*
X145092031Y-64712500D01*
X145075928Y-64876000D01*
X139410000Y-64876000D01*
X139410000Y-64120528D01*
X139589361Y-64121497D01*
X139775028Y-64085608D01*
X139950126Y-64014187D01*
X139959323Y-64009270D01*
X139972931Y-63813536D01*
X139577639Y-63418244D01*
X139610000Y-63255552D01*
X139610000Y-63066448D01*
X139609171Y-63062281D01*
X139693748Y-63146858D01*
X139679605Y-63161000D01*
X139829775Y-63311170D01*
X139896191Y-63463545D01*
X140018413Y-63639391D01*
X140172592Y-63788014D01*
X140352803Y-63903702D01*
X140555999Y-63975408D01*
X140723000Y-63848502D01*
X140723000Y-62308000D01*
X140977000Y-62308000D01*
X140977000Y-63848502D01*
X141144001Y-63975408D01*
X141347197Y-63903702D01*
X141527408Y-63788014D01*
X141681587Y-63639391D01*
X141803809Y-63463545D01*
X141889376Y-63267233D01*
X141935000Y-63058000D01*
X141935000Y-62308000D01*
X140977000Y-62308000D01*
X140723000Y-62308000D01*
X140170927Y-62308000D01*
X140353270Y-62295323D01*
X140426581Y-62121008D01*
X140440287Y-62054000D01*
X140723000Y-62054000D01*
X140723000Y-60513498D01*
X140977000Y-60513498D01*
X140977000Y-62054000D01*
X141935000Y-62054000D01*
X141935000Y-61828000D01*
X145012928Y-61828000D01*
X145012928Y-62378000D01*
X145029031Y-62541500D01*
X145076722Y-62698716D01*
X145154169Y-62843608D01*
X145258394Y-62970606D01*
X145385392Y-63074831D01*
X145530284Y-63152278D01*
X145687500Y-63199969D01*
X145851000Y-63216072D01*
X146251000Y-63216072D01*
X146414500Y-63199969D01*
X146571716Y-63152278D01*
X146716608Y-63074831D01*
X146818590Y-62991137D01*
X146849815Y-63029185D01*
X146946506Y-63108537D01*
X147056820Y-63167502D01*
X147176518Y-63203812D01*
X147301000Y-63216072D01*
X147415250Y-63213000D01*
X147574000Y-63054250D01*
X147574000Y-62230000D01*
X147828000Y-62230000D01*
X147828000Y-63054250D01*
X147986750Y-63213000D01*
X148101000Y-63216072D01*
X148225482Y-63203812D01*
X148345180Y-63167502D01*
X148455494Y-63108537D01*
X148552185Y-63029185D01*
X148631537Y-62932494D01*
X148690502Y-62822180D01*
X148726812Y-62702482D01*
X148739072Y-62578000D01*
X148736000Y-62388750D01*
X148577250Y-62230000D01*
X147828000Y-62230000D01*
X147574000Y-62230000D01*
X147554000Y-62230000D01*
X147554000Y-61976000D01*
X147574000Y-61976000D01*
X147574000Y-61151750D01*
X147828000Y-61151750D01*
X147828000Y-61976000D01*
X148577250Y-61976000D01*
X148736000Y-61817250D01*
X148739072Y-61628000D01*
X148726812Y-61503518D01*
X148690502Y-61383820D01*
X148631537Y-61273506D01*
X148552185Y-61176815D01*
X148455494Y-61097463D01*
X148345180Y-61038498D01*
X148225482Y-61002188D01*
X148101000Y-60989928D01*
X147986750Y-60993000D01*
X147828000Y-61151750D01*
X147574000Y-61151750D01*
X147415250Y-60993000D01*
X147301000Y-60989928D01*
X147176518Y-61002188D01*
X147056820Y-61038498D01*
X146946506Y-61097463D01*
X146849815Y-61176815D01*
X146818590Y-61214863D01*
X146716608Y-61131169D01*
X146571716Y-61053722D01*
X146414500Y-61006031D01*
X146251000Y-60989928D01*
X145851000Y-60989928D01*
X145687500Y-61006031D01*
X145530284Y-61053722D01*
X145385392Y-61131169D01*
X145258394Y-61235394D01*
X145154169Y-61362392D01*
X145076722Y-61507284D01*
X145029031Y-61664500D01*
X145012928Y-61828000D01*
X141935000Y-61828000D01*
X141935000Y-61304000D01*
X141889376Y-61094767D01*
X141803809Y-60898455D01*
X141681587Y-60722609D01*
X141527408Y-60573986D01*
X141347197Y-60458298D01*
X141144001Y-60386592D01*
X140977000Y-60513498D01*
X140723000Y-60513498D01*
X140555999Y-60386592D01*
X140352803Y-60458298D01*
X140172592Y-60573986D01*
X140018413Y-60722609D01*
X139896191Y-60898455D01*
X139873861Y-60949685D01*
X139790008Y-60914419D01*
X139604740Y-60876525D01*
X139415639Y-60875503D01*
X139229972Y-60911392D01*
X139079538Y-60972753D01*
X138935022Y-60912892D01*
X138914642Y-60908838D01*
X138680804Y-60675001D01*
X138657002Y-60645998D01*
X138541277Y-60551025D01*
X138409248Y-60480453D01*
X138265987Y-60436996D01*
X138154334Y-60425999D01*
X138154323Y-60425999D01*
X138117001Y-60422323D01*
X138079679Y-60425999D01*
X134632705Y-60425999D01*
X134595382Y-60422323D01*
X134558059Y-60425999D01*
X134558049Y-60425999D01*
X134446396Y-60436996D01*
X134303135Y-60480453D01*
X134171106Y-60551025D01*
X134055381Y-60645998D01*
X134031578Y-60675002D01*
X133893998Y-60812582D01*
X133865000Y-60836380D01*
X133805849Y-60908455D01*
X133649740Y-60876525D01*
X133460639Y-60875503D01*
X133274972Y-60911392D01*
X133176886Y-60951400D01*
X133153809Y-60898455D01*
X133031587Y-60722609D01*
X132877408Y-60573986D01*
X132697197Y-60458298D01*
X132494001Y-60386592D01*
X132327000Y-60513498D01*
X132327000Y-62054000D01*
X132614369Y-62054000D01*
X132625392Y-62111028D01*
X132696813Y-62286126D01*
X132701730Y-62295323D01*
X132884073Y-62308000D01*
X132327000Y-62308000D01*
X132327000Y-63848502D01*
X132494001Y-63975408D01*
X132693026Y-63905174D01*
X130778201Y-65820000D01*
X126254802Y-65820000D01*
X122742802Y-62308000D01*
X131115000Y-62308000D01*
X131115000Y-63058000D01*
X131160624Y-63267233D01*
X131246191Y-63463545D01*
X131368413Y-63639391D01*
X131522592Y-63788014D01*
X131702803Y-63903702D01*
X131905999Y-63975408D01*
X132073000Y-63848502D01*
X132073000Y-62308000D01*
X131115000Y-62308000D01*
X122742802Y-62308000D01*
X121738802Y-61304000D01*
X131115000Y-61304000D01*
X131115000Y-62054000D01*
X132073000Y-62054000D01*
X132073000Y-60513498D01*
X131905999Y-60386592D01*
X131702803Y-60458298D01*
X131522592Y-60573986D01*
X131368413Y-60722609D01*
X131246191Y-60898455D01*
X131160624Y-61094767D01*
X131115000Y-61304000D01*
X121738802Y-61304000D01*
X121253804Y-60819003D01*
X121230001Y-60789999D01*
X121114276Y-60695026D01*
X120982247Y-60624454D01*
X120838986Y-60580997D01*
X120727333Y-60570000D01*
X120727322Y-60570000D01*
X120690000Y-60566324D01*
X120652678Y-60570000D01*
X119378284Y-60570000D01*
X119429502Y-60474180D01*
X119465812Y-60354482D01*
X119478072Y-60230000D01*
X119475000Y-60065750D01*
X119316250Y-59907000D01*
X118492000Y-59907000D01*
X118492000Y-59927000D01*
X118238000Y-59927000D01*
X118238000Y-59907000D01*
X117413750Y-59907000D01*
X117255000Y-60065750D01*
X117251928Y-60230000D01*
X117264188Y-60354482D01*
X117300498Y-60474180D01*
X117359463Y-60584494D01*
X117395700Y-60628649D01*
X117317625Y-60774717D01*
X117268512Y-60936623D01*
X117251928Y-61105000D01*
X117251928Y-61555000D01*
X117268512Y-61723377D01*
X117317625Y-61885283D01*
X117397382Y-62034497D01*
X117504716Y-62165284D01*
X117635503Y-62272618D01*
X117784717Y-62352375D01*
X117946623Y-62401488D01*
X118115000Y-62418072D01*
X118615000Y-62418072D01*
X118783377Y-62401488D01*
X118945283Y-62352375D01*
X119094497Y-62272618D01*
X119225284Y-62165284D01*
X119287068Y-62090000D01*
X120375199Y-62090000D01*
X124105198Y-65820000D01*
X120365191Y-65820000D01*
X120258621Y-65682000D01*
X119492000Y-65682000D01*
X119492000Y-65702000D01*
X119416527Y-65702000D01*
X119425000Y-65659401D01*
X119425000Y-65615000D01*
X119469401Y-65615000D01*
X119674191Y-65574265D01*
X119867098Y-65494360D01*
X119966413Y-65428000D01*
X120258621Y-65428000D01*
X120384547Y-65264936D01*
X120308368Y-65071606D01*
X120301647Y-65061159D01*
X120304360Y-65057098D01*
X120384265Y-64864191D01*
X120425000Y-64659401D01*
X120425000Y-64450599D01*
X120384265Y-64245809D01*
X120304360Y-64052902D01*
X120188356Y-63879289D01*
X120040711Y-63731644D01*
X119867098Y-63615640D01*
X119674191Y-63535735D01*
X119469401Y-63495000D01*
X119260599Y-63495000D01*
X119055809Y-63535735D01*
X118865000Y-63614771D01*
X118674191Y-63535735D01*
X118469401Y-63495000D01*
X118260599Y-63495000D01*
X118055809Y-63535735D01*
X118038603Y-63542862D01*
X118034180Y-63540498D01*
X117914482Y-63504188D01*
X117790000Y-63491928D01*
X116940000Y-63491928D01*
X116815518Y-63504188D01*
X116695820Y-63540498D01*
X116585506Y-63599463D01*
X116488815Y-63678815D01*
X116409463Y-63775506D01*
X116350498Y-63885820D01*
X116314188Y-64005518D01*
X116301928Y-64130000D01*
X116301928Y-64980000D01*
X116314188Y-65104482D01*
X116350498Y-65224180D01*
X116352862Y-65228603D01*
X116345735Y-65245809D01*
X116305000Y-65450599D01*
X116305000Y-65659401D01*
X116336945Y-65820000D01*
X110175519Y-65820000D01*
X110249974Y-65729276D01*
X110320546Y-65597247D01*
X110364003Y-65453986D01*
X110375000Y-65342333D01*
X110375000Y-65342324D01*
X110378676Y-65305001D01*
X110375000Y-65267678D01*
X110375000Y-64568284D01*
X110470820Y-64619502D01*
X110590518Y-64655812D01*
X110715000Y-64668072D01*
X110879250Y-64665000D01*
X111038000Y-64506250D01*
X111038000Y-63682000D01*
X111292000Y-63682000D01*
X111292000Y-64506250D01*
X111450750Y-64665000D01*
X111615000Y-64668072D01*
X111739482Y-64655812D01*
X111859180Y-64619502D01*
X111969494Y-64560537D01*
X112066185Y-64481185D01*
X112145537Y-64384494D01*
X112204502Y-64274180D01*
X112240812Y-64154482D01*
X112253072Y-64030000D01*
X112250000Y-63840750D01*
X112091250Y-63682000D01*
X111292000Y-63682000D01*
X111038000Y-63682000D01*
X111018000Y-63682000D01*
X111018000Y-63428000D01*
X111038000Y-63428000D01*
X111038000Y-63408000D01*
X111292000Y-63408000D01*
X111292000Y-63428000D01*
X112091250Y-63428000D01*
X112250000Y-63269250D01*
X112253072Y-63080000D01*
X112244276Y-62990694D01*
X112565000Y-62993072D01*
X112689482Y-62980812D01*
X112809180Y-62944502D01*
X112919494Y-62885537D01*
X113016185Y-62806185D01*
X113095537Y-62709494D01*
X113154502Y-62599180D01*
X113174990Y-62531642D01*
X113245820Y-62569502D01*
X113365518Y-62605812D01*
X113490000Y-62618072D01*
X113679250Y-62615000D01*
X113838000Y-62456250D01*
X113838000Y-61657000D01*
X114092000Y-61657000D01*
X114092000Y-62456250D01*
X114250750Y-62615000D01*
X114440000Y-62618072D01*
X114564482Y-62605812D01*
X114684180Y-62569502D01*
X114794494Y-62510537D01*
X114891185Y-62431185D01*
X114970537Y-62334494D01*
X115029502Y-62224180D01*
X115065812Y-62104482D01*
X115078072Y-61980000D01*
X115075000Y-61815750D01*
X114916250Y-61657000D01*
X114092000Y-61657000D01*
X113838000Y-61657000D01*
X113818000Y-61657000D01*
X113818000Y-61403000D01*
X113838000Y-61403000D01*
X113838000Y-61383000D01*
X114092000Y-61383000D01*
X114092000Y-61403000D01*
X114916250Y-61403000D01*
X115075000Y-61244250D01*
X115078072Y-61080000D01*
X115065812Y-60955518D01*
X115029502Y-60835820D01*
X114970537Y-60725506D01*
X114934300Y-60681351D01*
X115012375Y-60535283D01*
X115061488Y-60373377D01*
X115078072Y-60205000D01*
X115078072Y-59755000D01*
X115061488Y-59586623D01*
X115012375Y-59424717D01*
X114961748Y-59330000D01*
X117251928Y-59330000D01*
X117255000Y-59494250D01*
X117413750Y-59653000D01*
X118238000Y-59653000D01*
X118238000Y-58853750D01*
X118492000Y-58853750D01*
X118492000Y-59653000D01*
X119316250Y-59653000D01*
X119475000Y-59494250D01*
X119478072Y-59330000D01*
X119465812Y-59205518D01*
X119429502Y-59085820D01*
X119370537Y-58975506D01*
X119331550Y-58928000D01*
X131115000Y-58928000D01*
X131115000Y-59328000D01*
X131160624Y-59537233D01*
X131246191Y-59733545D01*
X131368413Y-59909391D01*
X131522592Y-60058014D01*
X131702803Y-60173702D01*
X131905999Y-60245408D01*
X132073000Y-60118502D01*
X132073000Y-58928000D01*
X132327000Y-58928000D01*
X132327000Y-60118502D01*
X132494001Y-60245408D01*
X132697197Y-60173702D01*
X132877408Y-60058014D01*
X133031587Y-59909391D01*
X133153809Y-59733545D01*
X133239376Y-59537233D01*
X133285000Y-59328000D01*
X133285000Y-58928000D01*
X139765000Y-58928000D01*
X139765000Y-59328000D01*
X139810624Y-59537233D01*
X139896191Y-59733545D01*
X140018413Y-59909391D01*
X140172592Y-60058014D01*
X140352803Y-60173702D01*
X140555999Y-60245408D01*
X140723000Y-60118502D01*
X140723000Y-58928000D01*
X140977000Y-58928000D01*
X140977000Y-60118502D01*
X141144001Y-60245408D01*
X141347197Y-60173702D01*
X141527408Y-60058014D01*
X141681587Y-59909391D01*
X141803809Y-59733545D01*
X141889376Y-59537233D01*
X141935000Y-59328000D01*
X141935000Y-58928000D01*
X140977000Y-58928000D01*
X140723000Y-58928000D01*
X139765000Y-58928000D01*
X133285000Y-58928000D01*
X132327000Y-58928000D01*
X132073000Y-58928000D01*
X131115000Y-58928000D01*
X119331550Y-58928000D01*
X119291185Y-58878815D01*
X119194494Y-58799463D01*
X119084180Y-58740498D01*
X118964482Y-58704188D01*
X118840000Y-58691928D01*
X118650750Y-58695000D01*
X118492000Y-58853750D01*
X118238000Y-58853750D01*
X118079250Y-58695000D01*
X117890000Y-58691928D01*
X117765518Y-58704188D01*
X117645820Y-58740498D01*
X117535506Y-58799463D01*
X117438815Y-58878815D01*
X117359463Y-58975506D01*
X117300498Y-59085820D01*
X117264188Y-59205518D01*
X117251928Y-59330000D01*
X114961748Y-59330000D01*
X114932618Y-59275503D01*
X114825284Y-59144716D01*
X114694497Y-59037382D01*
X114545283Y-58957625D01*
X114383377Y-58908512D01*
X114215000Y-58891928D01*
X113715000Y-58891928D01*
X113546623Y-58908512D01*
X113384717Y-58957625D01*
X113235503Y-59037382D01*
X113114761Y-59136472D01*
X113095537Y-59100506D01*
X113016185Y-59003815D01*
X112919494Y-58924463D01*
X112809180Y-58865498D01*
X112689482Y-58829188D01*
X112565000Y-58816928D01*
X111701729Y-58816928D01*
X111478814Y-58594012D01*
X111455011Y-58565009D01*
X111339286Y-58470036D01*
X111207257Y-58399464D01*
X111063996Y-58356007D01*
X110952343Y-58345010D01*
X110952332Y-58345010D01*
X110915010Y-58341334D01*
X110877688Y-58345010D01*
X108767313Y-58345010D01*
X108729988Y-58341334D01*
X108692663Y-58345010D01*
X108692655Y-58345010D01*
X108581002Y-58356007D01*
X108437741Y-58399464D01*
X108305712Y-58470036D01*
X108189987Y-58565009D01*
X108166184Y-58594013D01*
X108129002Y-58631195D01*
X108099998Y-58654998D01*
X108072916Y-58687998D01*
X108005025Y-58770723D01*
X107947248Y-58878815D01*
X107934453Y-58902753D01*
X107890996Y-59046014D01*
X107879999Y-59157667D01*
X107879999Y-59157677D01*
X107876323Y-59194999D01*
X107879999Y-59232322D01*
X107879999Y-60295133D01*
X107762760Y-60295133D01*
X107562801Y-60334907D01*
X107374443Y-60412928D01*
X107204925Y-60526196D01*
X107060762Y-60670359D01*
X106947494Y-60839877D01*
X106869473Y-61028235D01*
X106832064Y-61216306D01*
X105866797Y-62181573D01*
X105860502Y-62160820D01*
X105801537Y-62050506D01*
X105722185Y-61953815D01*
X105625494Y-61874463D01*
X105515180Y-61815498D01*
X105395482Y-61779188D01*
X105271000Y-61766928D01*
X104271000Y-61766928D01*
X104209072Y-61773027D01*
X104209072Y-61578000D01*
X104547250Y-61578000D01*
X104706000Y-61419250D01*
X104708952Y-61217388D01*
X104699111Y-61092692D01*
X104665131Y-60972312D01*
X104608320Y-60860874D01*
X104530860Y-60762660D01*
X104435728Y-60681445D01*
X104326579Y-60620350D01*
X104207609Y-60581723D01*
X104181000Y-60578748D01*
X104181000Y-60069921D01*
X104266351Y-60024300D01*
X104310506Y-60060537D01*
X104420820Y-60119502D01*
X104540518Y-60155812D01*
X104665000Y-60168072D01*
X104829250Y-60165000D01*
X104988000Y-60006250D01*
X104988000Y-59182000D01*
X105242000Y-59182000D01*
X105242000Y-60006250D01*
X105400750Y-60165000D01*
X105565000Y-60168072D01*
X105689482Y-60155812D01*
X105809180Y-60119502D01*
X105919494Y-60060537D01*
X106016185Y-59981185D01*
X106095537Y-59884494D01*
X106154502Y-59774180D01*
X106190812Y-59654482D01*
X106203072Y-59530000D01*
X106200000Y-59340750D01*
X106041250Y-59182000D01*
X105242000Y-59182000D01*
X104988000Y-59182000D01*
X104968000Y-59182000D01*
X104968000Y-58928000D01*
X104988000Y-58928000D01*
X104988000Y-58103750D01*
X105242000Y-58103750D01*
X105242000Y-58928000D01*
X106041250Y-58928000D01*
X106200000Y-58769250D01*
X106203072Y-58580000D01*
X106190812Y-58455518D01*
X106154502Y-58335820D01*
X106095537Y-58225506D01*
X106016185Y-58128815D01*
X105919494Y-58049463D01*
X105809180Y-57990498D01*
X105689482Y-57954188D01*
X105565000Y-57941928D01*
X105400750Y-57945000D01*
X105242000Y-58103750D01*
X104988000Y-58103750D01*
X104829250Y-57945000D01*
X104665000Y-57941928D01*
X104540518Y-57954188D01*
X104420820Y-57990498D01*
X104310506Y-58049463D01*
X104266351Y-58085700D01*
X104120283Y-58007625D01*
X104081787Y-57995947D01*
X103989276Y-57920026D01*
X103857247Y-57849454D01*
X103809598Y-57835000D01*
X131269444Y-57835000D01*
X131246191Y-57868455D01*
X131160624Y-58064767D01*
X131115000Y-58274000D01*
X131115000Y-58674000D01*
X132073000Y-58674000D01*
X132073000Y-58654000D01*
X132327000Y-58654000D01*
X132327000Y-58674000D01*
X133285000Y-58674000D01*
X133285000Y-58274000D01*
X133239376Y-58064767D01*
X133153809Y-57868455D01*
X133130556Y-57835000D01*
X139919444Y-57835000D01*
X139896191Y-57868455D01*
X139810624Y-58064767D01*
X139765000Y-58274000D01*
X139765000Y-58674000D01*
X140723000Y-58674000D01*
X140723000Y-58654000D01*
X140977000Y-58654000D01*
X140977000Y-58674000D01*
X141935000Y-58674000D01*
X141935000Y-58274000D01*
X141889376Y-58064767D01*
X141803809Y-57868455D01*
X141780556Y-57835000D01*
X187367307Y-57835000D01*
X187040776Y-57970254D01*
X186722933Y-58182630D01*
X186452630Y-58452933D01*
X186240254Y-58770776D01*
X186093966Y-59123945D01*
X186019390Y-59498867D01*
X186019390Y-59881133D01*
X186093966Y-60256055D01*
X186240254Y-60609224D01*
X186452630Y-60927067D01*
X186722933Y-61197370D01*
X187040776Y-61409746D01*
X187393945Y-61556034D01*
X187768867Y-61630610D01*
X188151133Y-61630610D01*
X188526055Y-61556034D01*
X188879224Y-61409746D01*
X189197067Y-61197370D01*
X189467370Y-60927067D01*
X189679746Y-60609224D01*
X189815000Y-60282693D01*
X189815001Y-92117309D01*
X189679746Y-91790776D01*
X189467370Y-91472933D01*
X189197067Y-91202630D01*
X188879224Y-90990254D01*
X188526055Y-90843966D01*
X188151133Y-90769390D01*
X187768867Y-90769390D01*
X187393945Y-90843966D01*
X187040776Y-90990254D01*
X186722933Y-91202630D01*
X186452630Y-91472933D01*
X186240254Y-91790776D01*
X186093966Y-92143945D01*
X186019390Y-92518867D01*
X186019390Y-92901133D01*
X186093966Y-93276055D01*
X186240254Y-93629224D01*
X186452630Y-93947067D01*
X186722933Y-94217370D01*
X187040776Y-94429746D01*
X187367307Y-94565000D01*
X85682693Y-94565000D01*
X86009224Y-94429746D01*
X86327067Y-94217370D01*
X86597370Y-93947067D01*
X86809746Y-93629224D01*
X86956034Y-93276055D01*
X87030610Y-92901133D01*
X87030610Y-92518867D01*
X86956034Y-92143945D01*
X86809746Y-91790776D01*
X86597370Y-91472933D01*
X86327067Y-91202630D01*
X86009224Y-90990254D01*
X85656055Y-90843966D01*
X85281133Y-90769390D01*
X84898867Y-90769390D01*
X84523945Y-90843966D01*
X84170776Y-90990254D01*
X83852933Y-91202630D01*
X83582630Y-91472933D01*
X83370254Y-91790776D01*
X83235000Y-92117307D01*
X83235000Y-87848750D01*
X93289428Y-87848750D01*
X93289428Y-88361250D01*
X93305892Y-88528408D01*
X93354650Y-88689142D01*
X93433829Y-88837275D01*
X93540385Y-88967115D01*
X93670225Y-89073671D01*
X93818358Y-89152850D01*
X93979092Y-89201608D01*
X94146250Y-89218072D01*
X94403270Y-89218072D01*
X94601211Y-89416012D01*
X94625009Y-89445011D01*
X94654007Y-89468809D01*
X94740733Y-89539984D01*
X94872763Y-89610556D01*
X95016024Y-89654013D01*
X95127677Y-89665010D01*
X95127687Y-89665010D01*
X95165010Y-89668686D01*
X95202332Y-89665010D01*
X98477668Y-89665010D01*
X98514990Y-89668686D01*
X98552312Y-89665010D01*
X98552323Y-89665010D01*
X98663976Y-89654013D01*
X98807237Y-89610556D01*
X98939266Y-89539984D01*
X99054991Y-89445011D01*
X99078794Y-89416007D01*
X100556051Y-87938750D01*
X112274428Y-87938750D01*
X112274428Y-88451250D01*
X112290892Y-88618408D01*
X112339650Y-88779142D01*
X112418829Y-88927275D01*
X112525385Y-89057115D01*
X112655225Y-89163671D01*
X112803358Y-89242850D01*
X112964092Y-89291608D01*
X113131250Y-89308072D01*
X113568750Y-89308072D01*
X113735908Y-89291608D01*
X113896642Y-89242850D01*
X114044775Y-89163671D01*
X114137500Y-89087574D01*
X114230225Y-89163671D01*
X114378358Y-89242850D01*
X114539092Y-89291608D01*
X114706250Y-89308072D01*
X115143750Y-89308072D01*
X115310908Y-89291608D01*
X115471642Y-89242850D01*
X115619775Y-89163671D01*
X115749615Y-89057115D01*
X115856171Y-88927275D01*
X115935350Y-88779142D01*
X115984108Y-88618408D01*
X116000572Y-88451250D01*
X116000572Y-87938750D01*
X115996633Y-87898750D01*
X131301928Y-87898750D01*
X131301928Y-88411250D01*
X131318392Y-88578408D01*
X131367150Y-88739142D01*
X131446329Y-88887275D01*
X131552885Y-89017115D01*
X131682725Y-89123671D01*
X131830858Y-89202850D01*
X131991592Y-89251608D01*
X132158750Y-89268072D01*
X132596250Y-89268072D01*
X132763408Y-89251608D01*
X132924142Y-89202850D01*
X133072275Y-89123671D01*
X133165000Y-89047574D01*
X133257725Y-89123671D01*
X133405858Y-89202850D01*
X133566592Y-89251608D01*
X133733750Y-89268072D01*
X134171250Y-89268072D01*
X134338408Y-89251608D01*
X134499142Y-89202850D01*
X134647275Y-89123671D01*
X134777115Y-89017115D01*
X134883671Y-88887275D01*
X134962850Y-88739142D01*
X135011608Y-88578408D01*
X135028072Y-88411250D01*
X135028072Y-87898750D01*
X135011608Y-87731592D01*
X135001646Y-87698750D01*
X150501928Y-87698750D01*
X150501928Y-88211250D01*
X150518392Y-88378408D01*
X150567150Y-88539142D01*
X150646329Y-88687275D01*
X150752885Y-88817115D01*
X150882725Y-88923671D01*
X151030858Y-89002850D01*
X151191592Y-89051608D01*
X151358750Y-89068072D01*
X151796250Y-89068072D01*
X151963408Y-89051608D01*
X152124142Y-89002850D01*
X152272275Y-88923671D01*
X152365000Y-88847574D01*
X152457725Y-88923671D01*
X152605858Y-89002850D01*
X152766592Y-89051608D01*
X152933750Y-89068072D01*
X153371250Y-89068072D01*
X153538408Y-89051608D01*
X153699142Y-89002850D01*
X153847275Y-88923671D01*
X153977115Y-88817115D01*
X154083671Y-88687275D01*
X154162850Y-88539142D01*
X154211608Y-88378408D01*
X154228072Y-88211250D01*
X154228072Y-87898750D01*
X169501928Y-87898750D01*
X169501928Y-88411250D01*
X169518392Y-88578408D01*
X169567150Y-88739142D01*
X169646329Y-88887275D01*
X169752885Y-89017115D01*
X169882725Y-89123671D01*
X170030858Y-89202850D01*
X170191592Y-89251608D01*
X170358750Y-89268072D01*
X170796250Y-89268072D01*
X170963408Y-89251608D01*
X171124142Y-89202850D01*
X171272275Y-89123671D01*
X171365000Y-89047574D01*
X171457725Y-89123671D01*
X171605858Y-89202850D01*
X171766592Y-89251608D01*
X171933750Y-89268072D01*
X172371250Y-89268072D01*
X172538408Y-89251608D01*
X172699142Y-89202850D01*
X172847275Y-89123671D01*
X172977115Y-89017115D01*
X173083671Y-88887275D01*
X173162850Y-88739142D01*
X173211608Y-88578408D01*
X173228072Y-88411250D01*
X173228072Y-87898750D01*
X173211608Y-87731592D01*
X173162850Y-87570858D01*
X173083671Y-87422725D01*
X172977115Y-87292885D01*
X172847275Y-87186329D01*
X172699142Y-87107150D01*
X172538408Y-87058392D01*
X172371250Y-87041928D01*
X171933750Y-87041928D01*
X171766592Y-87058392D01*
X171605858Y-87107150D01*
X171457725Y-87186329D01*
X171365000Y-87262426D01*
X171272275Y-87186329D01*
X171124142Y-87107150D01*
X170963408Y-87058392D01*
X170796250Y-87041928D01*
X170358750Y-87041928D01*
X170191592Y-87058392D01*
X170030858Y-87107150D01*
X169882725Y-87186329D01*
X169752885Y-87292885D01*
X169646329Y-87422725D01*
X169567150Y-87570858D01*
X169518392Y-87731592D01*
X169501928Y-87898750D01*
X154228072Y-87898750D01*
X154228072Y-87698750D01*
X154211608Y-87531592D01*
X154162850Y-87370858D01*
X154083671Y-87222725D01*
X153977115Y-87092885D01*
X153847275Y-86986329D01*
X153699142Y-86907150D01*
X153538408Y-86858392D01*
X153371250Y-86841928D01*
X152933750Y-86841928D01*
X152766592Y-86858392D01*
X152605858Y-86907150D01*
X152457725Y-86986329D01*
X152365000Y-87062426D01*
X152272275Y-86986329D01*
X152124142Y-86907150D01*
X151963408Y-86858392D01*
X151796250Y-86841928D01*
X151358750Y-86841928D01*
X151191592Y-86858392D01*
X151030858Y-86907150D01*
X150882725Y-86986329D01*
X150752885Y-87092885D01*
X150646329Y-87222725D01*
X150567150Y-87370858D01*
X150518392Y-87531592D01*
X150501928Y-87698750D01*
X135001646Y-87698750D01*
X134962850Y-87570858D01*
X134883671Y-87422725D01*
X134777115Y-87292885D01*
X134647275Y-87186329D01*
X134499142Y-87107150D01*
X134338408Y-87058392D01*
X134171250Y-87041928D01*
X133733750Y-87041928D01*
X133566592Y-87058392D01*
X133405858Y-87107150D01*
X133257725Y-87186329D01*
X133165000Y-87262426D01*
X133072275Y-87186329D01*
X132924142Y-87107150D01*
X132763408Y-87058392D01*
X132596250Y-87041928D01*
X132158750Y-87041928D01*
X131991592Y-87058392D01*
X131830858Y-87107150D01*
X131682725Y-87186329D01*
X131552885Y-87292885D01*
X131446329Y-87422725D01*
X131367150Y-87570858D01*
X131318392Y-87731592D01*
X131301928Y-87898750D01*
X115996633Y-87898750D01*
X115984108Y-87771592D01*
X115935350Y-87610858D01*
X115856171Y-87462725D01*
X115749615Y-87332885D01*
X115619775Y-87226329D01*
X115471642Y-87147150D01*
X115310908Y-87098392D01*
X115143750Y-87081928D01*
X114706250Y-87081928D01*
X114539092Y-87098392D01*
X114378358Y-87147150D01*
X114230225Y-87226329D01*
X114137500Y-87302426D01*
X114044775Y-87226329D01*
X113896642Y-87147150D01*
X113735908Y-87098392D01*
X113568750Y-87081928D01*
X113131250Y-87081928D01*
X112964092Y-87098392D01*
X112803358Y-87147150D01*
X112655225Y-87226329D01*
X112525385Y-87332885D01*
X112418829Y-87462725D01*
X112339650Y-87610858D01*
X112290892Y-87771592D01*
X112274428Y-87938750D01*
X100556051Y-87938750D01*
X109268523Y-79226278D01*
X110885000Y-79226278D01*
X110885000Y-79523722D01*
X110943029Y-79815451D01*
X111056856Y-80090253D01*
X111222107Y-80337569D01*
X111432431Y-80547893D01*
X111679747Y-80713144D01*
X111954549Y-80826971D01*
X112246278Y-80885000D01*
X112543722Y-80885000D01*
X112835451Y-80826971D01*
X113110253Y-80713144D01*
X113357569Y-80547893D01*
X113567893Y-80337569D01*
X113733144Y-80090253D01*
X113846971Y-79815451D01*
X113905000Y-79523722D01*
X113905000Y-79226278D01*
X113846971Y-78934549D01*
X113733144Y-78659747D01*
X113567893Y-78412431D01*
X113357569Y-78202107D01*
X113110253Y-78036856D01*
X112835451Y-77923029D01*
X112543722Y-77865000D01*
X112246278Y-77865000D01*
X111954549Y-77923029D01*
X111679747Y-78036856D01*
X111432431Y-78202107D01*
X111222107Y-78412431D01*
X111056856Y-78659747D01*
X110943029Y-78934549D01*
X110885000Y-79226278D01*
X109268523Y-79226278D01*
X109404802Y-79090000D01*
X109466939Y-79090000D01*
X109666898Y-79050226D01*
X109855256Y-78972205D01*
X110024774Y-78858937D01*
X110168937Y-78714774D01*
X110282205Y-78545256D01*
X110360226Y-78356898D01*
X110400000Y-78156939D01*
X110400000Y-77953061D01*
X110360226Y-77753102D01*
X110294738Y-77595000D01*
X115528547Y-77595000D01*
X115428262Y-77695285D01*
X115139893Y-78126859D01*
X114941261Y-78606399D01*
X114840000Y-79115475D01*
X114840000Y-79634525D01*
X114941261Y-80143601D01*
X115139893Y-80623141D01*
X115428262Y-81054715D01*
X115795285Y-81421738D01*
X116226859Y-81710107D01*
X116706399Y-81908739D01*
X117215475Y-82010000D01*
X117734525Y-82010000D01*
X118243601Y-81908739D01*
X118723141Y-81710107D01*
X119154715Y-81421738D01*
X119521738Y-81054715D01*
X119810107Y-80623141D01*
X120008739Y-80143601D01*
X120110000Y-79634525D01*
X120110000Y-79115475D01*
X120008739Y-78606399D01*
X119810107Y-78126859D01*
X119521738Y-77695285D01*
X119421453Y-77595000D01*
X119559493Y-77595000D01*
X119614534Y-77727882D01*
X119820825Y-78036618D01*
X120083382Y-78299175D01*
X120392118Y-78505466D01*
X120735166Y-78647561D01*
X121099344Y-78720000D01*
X121191898Y-78720000D01*
X121103029Y-78934549D01*
X121045000Y-79226278D01*
X121045000Y-79523722D01*
X121103029Y-79815451D01*
X121216856Y-80090253D01*
X121382107Y-80337569D01*
X121592431Y-80547893D01*
X121839747Y-80713144D01*
X122114549Y-80826971D01*
X122406278Y-80885000D01*
X122703722Y-80885000D01*
X122995451Y-80826971D01*
X123270253Y-80713144D01*
X123517569Y-80547893D01*
X123727893Y-80337569D01*
X123893144Y-80090253D01*
X124006971Y-79815451D01*
X124065000Y-79523722D01*
X124065000Y-79226278D01*
X129935000Y-79226278D01*
X129935000Y-79523722D01*
X129993029Y-79815451D01*
X130106856Y-80090253D01*
X130272107Y-80337569D01*
X130482431Y-80547893D01*
X130729747Y-80713144D01*
X131004549Y-80826971D01*
X131296278Y-80885000D01*
X131593722Y-80885000D01*
X131885451Y-80826971D01*
X132160253Y-80713144D01*
X132407569Y-80547893D01*
X132617893Y-80337569D01*
X132783144Y-80090253D01*
X132896971Y-79815451D01*
X132955000Y-79523722D01*
X132955000Y-79226278D01*
X132896971Y-78934549D01*
X132783144Y-78659747D01*
X132617893Y-78412431D01*
X132407569Y-78202107D01*
X132160253Y-78036856D01*
X131885451Y-77923029D01*
X131593722Y-77865000D01*
X131296278Y-77865000D01*
X131004549Y-77923029D01*
X130729747Y-78036856D01*
X130482431Y-78202107D01*
X130272107Y-78412431D01*
X130106856Y-78659747D01*
X129993029Y-78934549D01*
X129935000Y-79226278D01*
X124065000Y-79226278D01*
X124006971Y-78934549D01*
X123893144Y-78659747D01*
X123727893Y-78412431D01*
X123517569Y-78202107D01*
X123270253Y-78036856D01*
X122995451Y-77923029D01*
X122845061Y-77893114D01*
X122955466Y-77727882D01*
X123010507Y-77595000D01*
X134578547Y-77595000D01*
X134478262Y-77695285D01*
X134189893Y-78126859D01*
X133991261Y-78606399D01*
X133890000Y-79115475D01*
X133890000Y-79634525D01*
X133991261Y-80143601D01*
X134189893Y-80623141D01*
X134478262Y-81054715D01*
X134845285Y-81421738D01*
X135276859Y-81710107D01*
X135756399Y-81908739D01*
X136265475Y-82010000D01*
X136784525Y-82010000D01*
X137293601Y-81908739D01*
X137773141Y-81710107D01*
X138204715Y-81421738D01*
X138571738Y-81054715D01*
X138860107Y-80623141D01*
X139058739Y-80143601D01*
X139160000Y-79634525D01*
X139160000Y-79115475D01*
X139058739Y-78606399D01*
X138860107Y-78126859D01*
X138571738Y-77695285D01*
X138471453Y-77595000D01*
X138609493Y-77595000D01*
X138664534Y-77727882D01*
X138870825Y-78036618D01*
X139133382Y-78299175D01*
X139442118Y-78505466D01*
X139785166Y-78647561D01*
X140149344Y-78720000D01*
X140241898Y-78720000D01*
X140153029Y-78934549D01*
X140095000Y-79226278D01*
X140095000Y-79523722D01*
X140153029Y-79815451D01*
X140266856Y-80090253D01*
X140432107Y-80337569D01*
X140642431Y-80547893D01*
X140889747Y-80713144D01*
X141164549Y-80826971D01*
X141456278Y-80885000D01*
X141753722Y-80885000D01*
X142045451Y-80826971D01*
X142320253Y-80713144D01*
X142567569Y-80547893D01*
X142777893Y-80337569D01*
X142943144Y-80090253D01*
X143056971Y-79815451D01*
X143115000Y-79523722D01*
X143115000Y-79226278D01*
X148985000Y-79226278D01*
X148985000Y-79523722D01*
X149043029Y-79815451D01*
X149156856Y-80090253D01*
X149322107Y-80337569D01*
X149532431Y-80547893D01*
X149779747Y-80713144D01*
X150054549Y-80826971D01*
X150346278Y-80885000D01*
X150643722Y-80885000D01*
X150935451Y-80826971D01*
X151210253Y-80713144D01*
X151457569Y-80547893D01*
X151667893Y-80337569D01*
X151833144Y-80090253D01*
X151946971Y-79815451D01*
X152005000Y-79523722D01*
X152005000Y-79226278D01*
X151946971Y-78934549D01*
X151833144Y-78659747D01*
X151667893Y-78412431D01*
X151457569Y-78202107D01*
X151210253Y-78036856D01*
X150935451Y-77923029D01*
X150643722Y-77865000D01*
X150346278Y-77865000D01*
X150054549Y-77923029D01*
X149779747Y-78036856D01*
X149532431Y-78202107D01*
X149322107Y-78412431D01*
X149156856Y-78659747D01*
X149043029Y-78934549D01*
X148985000Y-79226278D01*
X143115000Y-79226278D01*
X143056971Y-78934549D01*
X142943144Y-78659747D01*
X142777893Y-78412431D01*
X142567569Y-78202107D01*
X142320253Y-78036856D01*
X142045451Y-77923029D01*
X141895061Y-77893114D01*
X142005466Y-77727882D01*
X142060507Y-77595000D01*
X153628547Y-77595000D01*
X153528262Y-77695285D01*
X153239893Y-78126859D01*
X153041261Y-78606399D01*
X152940000Y-79115475D01*
X152940000Y-79634525D01*
X153041261Y-80143601D01*
X153239893Y-80623141D01*
X153528262Y-81054715D01*
X153895285Y-81421738D01*
X154326859Y-81710107D01*
X154806399Y-81908739D01*
X155315475Y-82010000D01*
X155834525Y-82010000D01*
X156343601Y-81908739D01*
X156823141Y-81710107D01*
X157254715Y-81421738D01*
X157621738Y-81054715D01*
X157910107Y-80623141D01*
X158108739Y-80143601D01*
X158210000Y-79634525D01*
X158210000Y-79115475D01*
X158108739Y-78606399D01*
X157910107Y-78126859D01*
X157621738Y-77695285D01*
X157521453Y-77595000D01*
X157659493Y-77595000D01*
X157714534Y-77727882D01*
X157920825Y-78036618D01*
X158183382Y-78299175D01*
X158492118Y-78505466D01*
X158835166Y-78647561D01*
X159199344Y-78720000D01*
X159291898Y-78720000D01*
X159203029Y-78934549D01*
X159145000Y-79226278D01*
X159145000Y-79523722D01*
X159203029Y-79815451D01*
X159316856Y-80090253D01*
X159482107Y-80337569D01*
X159692431Y-80547893D01*
X159939747Y-80713144D01*
X160214549Y-80826971D01*
X160506278Y-80885000D01*
X160803722Y-80885000D01*
X161095451Y-80826971D01*
X161370253Y-80713144D01*
X161617569Y-80547893D01*
X161827893Y-80337569D01*
X161993144Y-80090253D01*
X162106971Y-79815451D01*
X162165000Y-79523722D01*
X162165000Y-79226278D01*
X168035000Y-79226278D01*
X168035000Y-79523722D01*
X168093029Y-79815451D01*
X168206856Y-80090253D01*
X168372107Y-80337569D01*
X168582431Y-80547893D01*
X168829747Y-80713144D01*
X169104549Y-80826971D01*
X169396278Y-80885000D01*
X169693722Y-80885000D01*
X169985451Y-80826971D01*
X170260253Y-80713144D01*
X170507569Y-80547893D01*
X170717893Y-80337569D01*
X170883144Y-80090253D01*
X170996971Y-79815451D01*
X171055000Y-79523722D01*
X171055000Y-79226278D01*
X170996971Y-78934549D01*
X170883144Y-78659747D01*
X170717893Y-78412431D01*
X170507569Y-78202107D01*
X170260253Y-78036856D01*
X169985451Y-77923029D01*
X169693722Y-77865000D01*
X169396278Y-77865000D01*
X169104549Y-77923029D01*
X168829747Y-78036856D01*
X168582431Y-78202107D01*
X168372107Y-78412431D01*
X168206856Y-78659747D01*
X168093029Y-78934549D01*
X168035000Y-79226278D01*
X162165000Y-79226278D01*
X162106971Y-78934549D01*
X161993144Y-78659747D01*
X161827893Y-78412431D01*
X161617569Y-78202107D01*
X161370253Y-78036856D01*
X161095451Y-77923029D01*
X160945061Y-77893114D01*
X161055466Y-77727882D01*
X161110507Y-77595000D01*
X172678547Y-77595000D01*
X172578262Y-77695285D01*
X172289893Y-78126859D01*
X172091261Y-78606399D01*
X171990000Y-79115475D01*
X171990000Y-79634525D01*
X172091261Y-80143601D01*
X172289893Y-80623141D01*
X172578262Y-81054715D01*
X172945285Y-81421738D01*
X173376859Y-81710107D01*
X173856399Y-81908739D01*
X174365475Y-82010000D01*
X174884525Y-82010000D01*
X175393601Y-81908739D01*
X175873141Y-81710107D01*
X176304715Y-81421738D01*
X176671738Y-81054715D01*
X176960107Y-80623141D01*
X177158739Y-80143601D01*
X177260000Y-79634525D01*
X177260000Y-79115475D01*
X177158739Y-78606399D01*
X176960107Y-78126859D01*
X176671738Y-77695285D01*
X176571453Y-77595000D01*
X176709493Y-77595000D01*
X176764534Y-77727882D01*
X176970825Y-78036618D01*
X177233382Y-78299175D01*
X177542118Y-78505466D01*
X177885166Y-78647561D01*
X178249344Y-78720000D01*
X178341898Y-78720000D01*
X178253029Y-78934549D01*
X178195000Y-79226278D01*
X178195000Y-79523722D01*
X178253029Y-79815451D01*
X178366856Y-80090253D01*
X178532107Y-80337569D01*
X178742431Y-80547893D01*
X178989747Y-80713144D01*
X179264549Y-80826971D01*
X179556278Y-80885000D01*
X179853722Y-80885000D01*
X180145451Y-80826971D01*
X180420253Y-80713144D01*
X180667569Y-80547893D01*
X180877893Y-80337569D01*
X181043144Y-80090253D01*
X181156971Y-79815451D01*
X181215000Y-79523722D01*
X181215000Y-79226278D01*
X181156971Y-78934549D01*
X181043144Y-78659747D01*
X180877893Y-78412431D01*
X180667569Y-78202107D01*
X180420253Y-78036856D01*
X180145451Y-77923029D01*
X179995061Y-77893114D01*
X180105466Y-77727882D01*
X180247561Y-77384834D01*
X180320000Y-77020656D01*
X180320000Y-76649344D01*
X180247561Y-76285166D01*
X180105466Y-75942118D01*
X179899175Y-75633382D01*
X179636618Y-75370825D01*
X179327882Y-75164534D01*
X178984834Y-75022439D01*
X178620656Y-74950000D01*
X178249344Y-74950000D01*
X177885166Y-75022439D01*
X177542118Y-75164534D01*
X177233382Y-75370825D01*
X176970825Y-75633382D01*
X176764534Y-75942118D01*
X176709493Y-76075000D01*
X172713443Y-76075000D01*
X172977882Y-75965466D01*
X173286618Y-75759175D01*
X173549175Y-75496618D01*
X173755466Y-75187882D01*
X173897561Y-74844834D01*
X173970000Y-74480656D01*
X173970000Y-74109344D01*
X173897561Y-73745166D01*
X173755466Y-73402118D01*
X173549175Y-73093382D01*
X173286618Y-72830825D01*
X172977882Y-72624534D01*
X172634834Y-72482439D01*
X172270656Y-72410000D01*
X171899344Y-72410000D01*
X171535166Y-72482439D01*
X171192118Y-72624534D01*
X170883382Y-72830825D01*
X170620825Y-73093382D01*
X170414534Y-73402118D01*
X170272439Y-73745166D01*
X170200000Y-74109344D01*
X170200000Y-74480656D01*
X170272439Y-74844834D01*
X170414534Y-75187882D01*
X170620825Y-75496618D01*
X170883382Y-75759175D01*
X171192118Y-75965466D01*
X171456557Y-76075000D01*
X161110507Y-76075000D01*
X161055466Y-75942118D01*
X160849175Y-75633382D01*
X160586618Y-75370825D01*
X160277882Y-75164534D01*
X159934834Y-75022439D01*
X159570656Y-74950000D01*
X159199344Y-74950000D01*
X158835166Y-75022439D01*
X158492118Y-75164534D01*
X158183382Y-75370825D01*
X157920825Y-75633382D01*
X157714534Y-75942118D01*
X157659493Y-76075000D01*
X153663443Y-76075000D01*
X153927882Y-75965466D01*
X154236618Y-75759175D01*
X154499175Y-75496618D01*
X154705466Y-75187882D01*
X154847561Y-74844834D01*
X154920000Y-74480656D01*
X154920000Y-74109344D01*
X154847561Y-73745166D01*
X154705466Y-73402118D01*
X154499175Y-73093382D01*
X154236618Y-72830825D01*
X153927882Y-72624534D01*
X153584834Y-72482439D01*
X153220656Y-72410000D01*
X152849344Y-72410000D01*
X152485166Y-72482439D01*
X152142118Y-72624534D01*
X151833382Y-72830825D01*
X151570825Y-73093382D01*
X151364534Y-73402118D01*
X151222439Y-73745166D01*
X151150000Y-74109344D01*
X151150000Y-74480656D01*
X151222439Y-74844834D01*
X151364534Y-75187882D01*
X151570825Y-75496618D01*
X151833382Y-75759175D01*
X152142118Y-75965466D01*
X152406557Y-76075000D01*
X142060507Y-76075000D01*
X142005466Y-75942118D01*
X141799175Y-75633382D01*
X141536618Y-75370825D01*
X141227882Y-75164534D01*
X140884834Y-75022439D01*
X140520656Y-74950000D01*
X140149344Y-74950000D01*
X139785166Y-75022439D01*
X139442118Y-75164534D01*
X139133382Y-75370825D01*
X138870825Y-75633382D01*
X138664534Y-75942118D01*
X138609493Y-76075000D01*
X134613443Y-76075000D01*
X134877882Y-75965466D01*
X135186618Y-75759175D01*
X135449175Y-75496618D01*
X135655466Y-75187882D01*
X135797561Y-74844834D01*
X135870000Y-74480656D01*
X135870000Y-74109344D01*
X135797561Y-73745166D01*
X135655466Y-73402118D01*
X135449175Y-73093382D01*
X135186618Y-72830825D01*
X134877882Y-72624534D01*
X134534834Y-72482439D01*
X134170656Y-72410000D01*
X133799344Y-72410000D01*
X133435166Y-72482439D01*
X133092118Y-72624534D01*
X132783382Y-72830825D01*
X132520825Y-73093382D01*
X132314534Y-73402118D01*
X132172439Y-73745166D01*
X132100000Y-74109344D01*
X132100000Y-74480656D01*
X132172439Y-74844834D01*
X132314534Y-75187882D01*
X132520825Y-75496618D01*
X132783382Y-75759175D01*
X133092118Y-75965466D01*
X133356557Y-76075000D01*
X123010507Y-76075000D01*
X122955466Y-75942118D01*
X122749175Y-75633382D01*
X122486618Y-75370825D01*
X122177882Y-75164534D01*
X121834834Y-75022439D01*
X121470656Y-74950000D01*
X121099344Y-74950000D01*
X120735166Y-75022439D01*
X120392118Y-75164534D01*
X120083382Y-75370825D01*
X119820825Y-75633382D01*
X119614534Y-75942118D01*
X119559493Y-76075000D01*
X115563443Y-76075000D01*
X115827882Y-75965466D01*
X116136618Y-75759175D01*
X116399175Y-75496618D01*
X116605466Y-75187882D01*
X116747561Y-74844834D01*
X116820000Y-74480656D01*
X116820000Y-74109344D01*
X116747561Y-73745166D01*
X116605466Y-73402118D01*
X116399175Y-73093382D01*
X116136618Y-72830825D01*
X115827882Y-72624534D01*
X115484834Y-72482439D01*
X115120656Y-72410000D01*
X114749344Y-72410000D01*
X114385166Y-72482439D01*
X114042118Y-72624534D01*
X113733382Y-72830825D01*
X113470825Y-73093382D01*
X113264534Y-73402118D01*
X113122439Y-73745166D01*
X113050000Y-74109344D01*
X113050000Y-74480656D01*
X113122439Y-74844834D01*
X113264534Y-75187882D01*
X113470825Y-75496618D01*
X113733382Y-75759175D01*
X114042118Y-75965466D01*
X114306557Y-76075000D01*
X104024007Y-76075000D01*
X103968966Y-75942118D01*
X103762675Y-75633382D01*
X103500118Y-75370825D01*
X103191382Y-75164534D01*
X102848334Y-75022439D01*
X102484156Y-74950000D01*
X102112844Y-74950000D01*
X101748666Y-75022439D01*
X101405618Y-75164534D01*
X101096882Y-75370825D01*
X100834325Y-75633382D01*
X100628034Y-75942118D01*
X100485939Y-76285166D01*
X100413500Y-76649344D01*
X100413500Y-77020656D01*
X100485939Y-77384834D01*
X100628034Y-77727882D01*
X100834325Y-78036618D01*
X101096882Y-78299175D01*
X101405618Y-78505466D01*
X101748666Y-78647561D01*
X102112844Y-78720000D01*
X102205398Y-78720000D01*
X102116529Y-78934549D01*
X102058500Y-79226278D01*
X102058500Y-79523722D01*
X102116529Y-79815451D01*
X102230356Y-80090253D01*
X102395607Y-80337569D01*
X102605931Y-80547893D01*
X102853247Y-80713144D01*
X103128049Y-80826971D01*
X103419778Y-80885000D01*
X103717222Y-80885000D01*
X104008951Y-80826971D01*
X104283753Y-80713144D01*
X104531069Y-80547893D01*
X104741393Y-80337569D01*
X104906644Y-80090253D01*
X105020471Y-79815451D01*
X105078500Y-79523722D01*
X105078500Y-79226278D01*
X105020471Y-78934549D01*
X104906644Y-78659747D01*
X104741393Y-78412431D01*
X104531069Y-78202107D01*
X104283753Y-78036856D01*
X104008951Y-77923029D01*
X103858561Y-77893114D01*
X103968966Y-77727882D01*
X104024007Y-77595000D01*
X108435262Y-77595000D01*
X108369774Y-77753102D01*
X108330000Y-77953061D01*
X108330000Y-78015198D01*
X98200189Y-88145010D01*
X97015572Y-88145010D01*
X97015572Y-87848750D01*
X96999108Y-87681592D01*
X96950350Y-87520858D01*
X96871171Y-87372725D01*
X96764615Y-87242885D01*
X96634775Y-87136329D01*
X96486642Y-87057150D01*
X96325908Y-87008392D01*
X96158750Y-86991928D01*
X95721250Y-86991928D01*
X95554092Y-87008392D01*
X95393358Y-87057150D01*
X95245225Y-87136329D01*
X95152500Y-87212426D01*
X95059775Y-87136329D01*
X94911642Y-87057150D01*
X94750908Y-87008392D01*
X94583750Y-86991928D01*
X94146250Y-86991928D01*
X93979092Y-87008392D01*
X93818358Y-87057150D01*
X93670225Y-87136329D01*
X93540385Y-87242885D01*
X93433829Y-87372725D01*
X93354650Y-87520858D01*
X93305892Y-87681592D01*
X93289428Y-87848750D01*
X83235000Y-87848750D01*
X83235000Y-79226278D01*
X91898500Y-79226278D01*
X91898500Y-79523722D01*
X91956529Y-79815451D01*
X92070356Y-80090253D01*
X92235607Y-80337569D01*
X92445931Y-80547893D01*
X92693247Y-80713144D01*
X92968049Y-80826971D01*
X93259778Y-80885000D01*
X93557222Y-80885000D01*
X93848951Y-80826971D01*
X94123753Y-80713144D01*
X94371069Y-80547893D01*
X94581393Y-80337569D01*
X94746644Y-80090253D01*
X94860471Y-79815451D01*
X94918500Y-79523722D01*
X94918500Y-79226278D01*
X94896460Y-79115475D01*
X95853500Y-79115475D01*
X95853500Y-79634525D01*
X95954761Y-80143601D01*
X96153393Y-80623141D01*
X96441762Y-81054715D01*
X96808785Y-81421738D01*
X97240359Y-81710107D01*
X97719899Y-81908739D01*
X98228975Y-82010000D01*
X98748025Y-82010000D01*
X99257101Y-81908739D01*
X99736641Y-81710107D01*
X100168215Y-81421738D01*
X100535238Y-81054715D01*
X100823607Y-80623141D01*
X101022239Y-80143601D01*
X101123500Y-79634525D01*
X101123500Y-79115475D01*
X101022239Y-78606399D01*
X100823607Y-78126859D01*
X100535238Y-77695285D01*
X100168215Y-77328262D01*
X99736641Y-77039893D01*
X99257101Y-76841261D01*
X98748025Y-76740000D01*
X98228975Y-76740000D01*
X97719899Y-76841261D01*
X97240359Y-77039893D01*
X96808785Y-77328262D01*
X96441762Y-77695285D01*
X96153393Y-78126859D01*
X95954761Y-78606399D01*
X95853500Y-79115475D01*
X94896460Y-79115475D01*
X94860471Y-78934549D01*
X94746644Y-78659747D01*
X94581393Y-78412431D01*
X94371069Y-78202107D01*
X94123753Y-78036856D01*
X93848951Y-77923029D01*
X93557222Y-77865000D01*
X93259778Y-77865000D01*
X92968049Y-77923029D01*
X92693247Y-78036856D01*
X92445931Y-78202107D01*
X92235607Y-78412431D01*
X92070356Y-78659747D01*
X91956529Y-78934549D01*
X91898500Y-79226278D01*
X83235000Y-79226278D01*
X83235000Y-74109344D01*
X94063500Y-74109344D01*
X94063500Y-74480656D01*
X94135939Y-74844834D01*
X94278034Y-75187882D01*
X94484325Y-75496618D01*
X94746882Y-75759175D01*
X95055618Y-75965466D01*
X95398666Y-76107561D01*
X95762844Y-76180000D01*
X96134156Y-76180000D01*
X96498334Y-76107561D01*
X96841382Y-75965466D01*
X97150118Y-75759175D01*
X97412675Y-75496618D01*
X97618966Y-75187882D01*
X97761061Y-74844834D01*
X97833500Y-74480656D01*
X97833500Y-74109344D01*
X97761061Y-73745166D01*
X97618966Y-73402118D01*
X97412675Y-73093382D01*
X97150118Y-72830825D01*
X96841382Y-72624534D01*
X96498334Y-72482439D01*
X96134156Y-72410000D01*
X95762844Y-72410000D01*
X95398666Y-72482439D01*
X95055618Y-72624534D01*
X94746882Y-72830825D01*
X94484325Y-73093382D01*
X94278034Y-73402118D01*
X94135939Y-73745166D01*
X94063500Y-74109344D01*
X83235000Y-74109344D01*
X83235000Y-71530000D01*
X93726928Y-71530000D01*
X93739188Y-71654482D01*
X93775498Y-71774180D01*
X93834463Y-71884494D01*
X93913815Y-71981185D01*
X94010506Y-72060537D01*
X94120820Y-72119502D01*
X94240518Y-72155812D01*
X94365000Y-72168072D01*
X94529250Y-72165000D01*
X94688000Y-72006250D01*
X94688000Y-71182000D01*
X93888750Y-71182000D01*
X93730000Y-71340750D01*
X93726928Y-71530000D01*
X83235000Y-71530000D01*
X83235000Y-68030000D01*
X91751928Y-68030000D01*
X91764188Y-68154482D01*
X91800498Y-68274180D01*
X91859463Y-68384494D01*
X91938815Y-68481185D01*
X92035506Y-68560537D01*
X92145820Y-68619502D01*
X92265518Y-68655812D01*
X92390000Y-68668072D01*
X92554250Y-68665000D01*
X92713000Y-68506250D01*
X92713000Y-67682000D01*
X91913750Y-67682000D01*
X91755000Y-67840750D01*
X91751928Y-68030000D01*
X83235000Y-68030000D01*
X83235000Y-67080000D01*
X91751928Y-67080000D01*
X91755000Y-67269250D01*
X91913750Y-67428000D01*
X92713000Y-67428000D01*
X92713000Y-66603750D01*
X92554250Y-66445000D01*
X92390000Y-66441928D01*
X92265518Y-66454188D01*
X92145820Y-66490498D01*
X92035506Y-66549463D01*
X91938815Y-66628815D01*
X91859463Y-66725506D01*
X91800498Y-66835820D01*
X91764188Y-66955518D01*
X91751928Y-67080000D01*
X83235000Y-67080000D01*
X83235000Y-63430000D01*
X91226928Y-63430000D01*
X91239188Y-63554482D01*
X91275498Y-63674180D01*
X91334463Y-63784494D01*
X91413815Y-63881185D01*
X91510506Y-63960537D01*
X91620820Y-64019502D01*
X91740518Y-64055812D01*
X91865000Y-64068072D01*
X92029250Y-64065000D01*
X92188000Y-63906250D01*
X92188000Y-63082000D01*
X91388750Y-63082000D01*
X91230000Y-63240750D01*
X91226928Y-63430000D01*
X83235000Y-63430000D01*
X83235000Y-62480000D01*
X91226928Y-62480000D01*
X91230000Y-62669250D01*
X91388750Y-62828000D01*
X92188000Y-62828000D01*
X92188000Y-62003750D01*
X92029250Y-61845000D01*
X91865000Y-61841928D01*
X91740518Y-61854188D01*
X91620820Y-61890498D01*
X91510506Y-61949463D01*
X91413815Y-62028815D01*
X91334463Y-62125506D01*
X91275498Y-62235820D01*
X91239188Y-62355518D01*
X91226928Y-62480000D01*
X83235000Y-62480000D01*
X83235000Y-60282693D01*
X83370254Y-60609224D01*
X83582630Y-60927067D01*
X83852933Y-61197370D01*
X84170776Y-61409746D01*
X84523945Y-61556034D01*
X84898867Y-61630610D01*
X85281133Y-61630610D01*
X85656055Y-61556034D01*
X86009224Y-61409746D01*
X86327067Y-61197370D01*
X86597370Y-60927067D01*
X86809746Y-60609224D01*
X86956034Y-60256055D01*
X87030610Y-59881133D01*
X87030610Y-59498867D01*
X86956034Y-59123945D01*
X86809746Y-58770776D01*
X86597370Y-58452933D01*
X86327067Y-58182630D01*
X86009224Y-57970254D01*
X85682693Y-57835000D01*
X98020402Y-57835000D01*
X97972753Y-57849454D01*
%TA.AperFunction,Conductor*%
D23*
G36*
X97972753Y-57849454D02*
G01*
X97840724Y-57920026D01*
X97724999Y-58014999D01*
X97701201Y-58043997D01*
X93903271Y-61841928D01*
X93640000Y-61841928D01*
X93471623Y-61858512D01*
X93309717Y-61907625D01*
X93163649Y-61985700D01*
X93119494Y-61949463D01*
X93009180Y-61890498D01*
X92889482Y-61854188D01*
X92765000Y-61841928D01*
X92600750Y-61845000D01*
X92442000Y-62003750D01*
X92442000Y-62828000D01*
X92462000Y-62828000D01*
X92462000Y-63082000D01*
X92442000Y-63082000D01*
X92442000Y-63906250D01*
X92600750Y-64065000D01*
X92765000Y-64068072D01*
X92889482Y-64055812D01*
X93009180Y-64019502D01*
X93105000Y-63968284D01*
X93105001Y-66465749D01*
X92967000Y-66603750D01*
X92967000Y-67428000D01*
X92987000Y-67428000D01*
X92987000Y-67682000D01*
X92967000Y-67682000D01*
X92967000Y-68506250D01*
X93125750Y-68665000D01*
X93290000Y-68668072D01*
X93414482Y-68655812D01*
X93534180Y-68619502D01*
X93630001Y-68568284D01*
X93630001Y-69042668D01*
X93626324Y-69080000D01*
X93630001Y-69117333D01*
X93640998Y-69228986D01*
X93653038Y-69268676D01*
X93684454Y-69372246D01*
X93755026Y-69504276D01*
X93826201Y-69591002D01*
X93850000Y-69620001D01*
X93878998Y-69643799D01*
X94201287Y-69966089D01*
X94120820Y-69990498D01*
X94010506Y-70049463D01*
X93913815Y-70128815D01*
X93834463Y-70225506D01*
X93775498Y-70335820D01*
X93739188Y-70455518D01*
X93726928Y-70580000D01*
X93730000Y-70769250D01*
X93888750Y-70928000D01*
X94688000Y-70928000D01*
X94688000Y-70908000D01*
X94942000Y-70908000D01*
X94942000Y-70928000D01*
X94962000Y-70928000D01*
X94962000Y-71182000D01*
X94942000Y-71182000D01*
X94942000Y-72006250D01*
X95100750Y-72165000D01*
X95265000Y-72168072D01*
X95389482Y-72155812D01*
X95509180Y-72119502D01*
X95619494Y-72060537D01*
X95663649Y-72024300D01*
X95809717Y-72102375D01*
X95971623Y-72151488D01*
X96140000Y-72168072D01*
X96590000Y-72168072D01*
X96758377Y-72151488D01*
X96920283Y-72102375D01*
X97069497Y-72022618D01*
X97200284Y-71915284D01*
X97282585Y-71815000D01*
X97468680Y-71815000D01*
X97506002Y-71818676D01*
X97543324Y-71815000D01*
X97543335Y-71815000D01*
X97654988Y-71804003D01*
X97798249Y-71760546D01*
X97930278Y-71689974D01*
X98046003Y-71595001D01*
X98069805Y-71565998D01*
X98475302Y-71160501D01*
X98537440Y-71160501D01*
X98737399Y-71120727D01*
X98925757Y-71042706D01*
X99095275Y-70929438D01*
X99161001Y-70863712D01*
X99161001Y-71323668D01*
X99157324Y-71361000D01*
X99161001Y-71398333D01*
X99171998Y-71509986D01*
X99185180Y-71553442D01*
X99215454Y-71653246D01*
X99286026Y-71785276D01*
X99336884Y-71847246D01*
X99381000Y-71901001D01*
X99409997Y-71924798D01*
X99551200Y-72066002D01*
X99574999Y-72095001D01*
X99690724Y-72189974D01*
X99822753Y-72260546D01*
X99966014Y-72304003D01*
X100077667Y-72315000D01*
X100077676Y-72315000D01*
X100114999Y-72318676D01*
X100152322Y-72315000D01*
X107834084Y-72315000D01*
X107922394Y-72422606D01*
X108049392Y-72526831D01*
X108194284Y-72604278D01*
X108351500Y-72651969D01*
X108515000Y-72668072D01*
X108915000Y-72668072D01*
X109078500Y-72651969D01*
X109235716Y-72604278D01*
X109380608Y-72526831D01*
X109507606Y-72422606D01*
X109540000Y-72383134D01*
X109572394Y-72422606D01*
X109699392Y-72526831D01*
X109844284Y-72604278D01*
X110001500Y-72651969D01*
X110165000Y-72668072D01*
X110565000Y-72668072D01*
X110728500Y-72651969D01*
X110885716Y-72604278D01*
X111030608Y-72526831D01*
X111157606Y-72422606D01*
X111245916Y-72315000D01*
X128978297Y-72315000D01*
X129015619Y-72318676D01*
X129052941Y-72315000D01*
X129052952Y-72315000D01*
X129164605Y-72304003D01*
X129307866Y-72260546D01*
X129439895Y-72189974D01*
X129555620Y-72095001D01*
X129579423Y-72065997D01*
X134665000Y-66980421D01*
X134665000Y-67056002D01*
X134823748Y-67056002D01*
X134665000Y-67214750D01*
X134661928Y-67404000D01*
X134674188Y-67528482D01*
X134710498Y-67648180D01*
X134769463Y-67758494D01*
X134848815Y-67855185D01*
X134945506Y-67934537D01*
X135055820Y-67993502D01*
X135175518Y-68029812D01*
X135300000Y-68042072D01*
X135464250Y-68039000D01*
X135623000Y-67880250D01*
X135623000Y-67056000D01*
X135603000Y-67056000D01*
X135603000Y-66802000D01*
X135623000Y-66802000D01*
X135623000Y-66782000D01*
X135877000Y-66782000D01*
X135877000Y-66802000D01*
X135897000Y-66802000D01*
X135897000Y-67056000D01*
X135877000Y-67056000D01*
X135877000Y-67880250D01*
X136035750Y-68039000D01*
X136200000Y-68042072D01*
X136324482Y-68029812D01*
X136444180Y-67993502D01*
X136554494Y-67934537D01*
X136598649Y-67898300D01*
X136744717Y-67976375D01*
X136906623Y-68025488D01*
X137075000Y-68042072D01*
X137525000Y-68042072D01*
X137693377Y-68025488D01*
X137855283Y-67976375D01*
X138004497Y-67896618D01*
X138135284Y-67789284D01*
X138242618Y-67658497D01*
X138322375Y-67509283D01*
X138371488Y-67347377D01*
X138388072Y-67179000D01*
X138388072Y-66915729D01*
X139161004Y-66142798D01*
X139190001Y-66119001D01*
X139284974Y-66003276D01*
X139355546Y-65871247D01*
X139399003Y-65727986D01*
X139410000Y-65616333D01*
X139410000Y-65616324D01*
X139413676Y-65579001D01*
X139410000Y-65541678D01*
X139410000Y-64876000D01*
X145075928Y-64876000D01*
X145075928Y-65426000D01*
X145092031Y-65589500D01*
X145139722Y-65746716D01*
X145217169Y-65891608D01*
X145321394Y-66018606D01*
X145448392Y-66122831D01*
X145593284Y-66200278D01*
X145750500Y-66247969D01*
X145914000Y-66264072D01*
X146314000Y-66264072D01*
X146477500Y-66247969D01*
X146634716Y-66200278D01*
X146779608Y-66122831D01*
X146881590Y-66039137D01*
X146912815Y-66077185D01*
X147009506Y-66156537D01*
X147119820Y-66215502D01*
X147239518Y-66251812D01*
X147364000Y-66264072D01*
X147478250Y-66261000D01*
X147637000Y-66102250D01*
X147637000Y-65278000D01*
X147891000Y-65278000D01*
X147891000Y-66102250D01*
X148049750Y-66261000D01*
X148164000Y-66264072D01*
X148288482Y-66251812D01*
X148408180Y-66215502D01*
X148518494Y-66156537D01*
X148615185Y-66077185D01*
X148694537Y-65980494D01*
X148753502Y-65870180D01*
X148789812Y-65750482D01*
X148802072Y-65626000D01*
X148799000Y-65436750D01*
X148640250Y-65278000D01*
X147891000Y-65278000D01*
X147637000Y-65278000D01*
X147617000Y-65278000D01*
X147617000Y-65024000D01*
X147637000Y-65024000D01*
X147637000Y-64199750D01*
X147891000Y-64199750D01*
X147891000Y-65024000D01*
X148640250Y-65024000D01*
X148799000Y-64865250D01*
X148802072Y-64676000D01*
X148789812Y-64551518D01*
X148753502Y-64431820D01*
X148694537Y-64321506D01*
X148615185Y-64224815D01*
X148518494Y-64145463D01*
X148408180Y-64086498D01*
X148288482Y-64050188D01*
X148164000Y-64037928D01*
X148049750Y-64041000D01*
X147891000Y-64199750D01*
X147637000Y-64199750D01*
X147478250Y-64041000D01*
X147364000Y-64037928D01*
X147239518Y-64050188D01*
X147119820Y-64086498D01*
X147009506Y-64145463D01*
X146912815Y-64224815D01*
X146881590Y-64262863D01*
X146779608Y-64179169D01*
X146634716Y-64101722D01*
X146477500Y-64054031D01*
X146314000Y-64037928D01*
X145914000Y-64037928D01*
X145750500Y-64054031D01*
X145593284Y-64101722D01*
X145448392Y-64179169D01*
X145321394Y-64283394D01*
X145217169Y-64410392D01*
X145139722Y-64555284D01*
X145092031Y-64712500D01*
X145075928Y-64876000D01*
X139410000Y-64876000D01*
X139410000Y-64120528D01*
X139589361Y-64121497D01*
X139775028Y-64085608D01*
X139950126Y-64014187D01*
X139959323Y-64009270D01*
X139972931Y-63813536D01*
X139577639Y-63418244D01*
X139610000Y-63255552D01*
X139610000Y-63066448D01*
X139609171Y-63062281D01*
X139693748Y-63146858D01*
X139679605Y-63161000D01*
X139829775Y-63311170D01*
X139896191Y-63463545D01*
X140018413Y-63639391D01*
X140172592Y-63788014D01*
X140352803Y-63903702D01*
X140555999Y-63975408D01*
X140723000Y-63848502D01*
X140723000Y-62308000D01*
X140977000Y-62308000D01*
X140977000Y-63848502D01*
X141144001Y-63975408D01*
X141347197Y-63903702D01*
X141527408Y-63788014D01*
X141681587Y-63639391D01*
X141803809Y-63463545D01*
X141889376Y-63267233D01*
X141935000Y-63058000D01*
X141935000Y-62308000D01*
X140977000Y-62308000D01*
X140723000Y-62308000D01*
X140170927Y-62308000D01*
X140353270Y-62295323D01*
X140426581Y-62121008D01*
X140440287Y-62054000D01*
X140723000Y-62054000D01*
X140723000Y-60513498D01*
X140977000Y-60513498D01*
X140977000Y-62054000D01*
X141935000Y-62054000D01*
X141935000Y-61828000D01*
X145012928Y-61828000D01*
X145012928Y-62378000D01*
X145029031Y-62541500D01*
X145076722Y-62698716D01*
X145154169Y-62843608D01*
X145258394Y-62970606D01*
X145385392Y-63074831D01*
X145530284Y-63152278D01*
X145687500Y-63199969D01*
X145851000Y-63216072D01*
X146251000Y-63216072D01*
X146414500Y-63199969D01*
X146571716Y-63152278D01*
X146716608Y-63074831D01*
X146818590Y-62991137D01*
X146849815Y-63029185D01*
X146946506Y-63108537D01*
X147056820Y-63167502D01*
X147176518Y-63203812D01*
X147301000Y-63216072D01*
X147415250Y-63213000D01*
X147574000Y-63054250D01*
X147574000Y-62230000D01*
X147828000Y-62230000D01*
X147828000Y-63054250D01*
X147986750Y-63213000D01*
X148101000Y-63216072D01*
X148225482Y-63203812D01*
X148345180Y-63167502D01*
X148455494Y-63108537D01*
X148552185Y-63029185D01*
X148631537Y-62932494D01*
X148690502Y-62822180D01*
X148726812Y-62702482D01*
X148739072Y-62578000D01*
X148736000Y-62388750D01*
X148577250Y-62230000D01*
X147828000Y-62230000D01*
X147574000Y-62230000D01*
X147554000Y-62230000D01*
X147554000Y-61976000D01*
X147574000Y-61976000D01*
X147574000Y-61151750D01*
X147828000Y-61151750D01*
X147828000Y-61976000D01*
X148577250Y-61976000D01*
X148736000Y-61817250D01*
X148739072Y-61628000D01*
X148726812Y-61503518D01*
X148690502Y-61383820D01*
X148631537Y-61273506D01*
X148552185Y-61176815D01*
X148455494Y-61097463D01*
X148345180Y-61038498D01*
X148225482Y-61002188D01*
X148101000Y-60989928D01*
X147986750Y-60993000D01*
X147828000Y-61151750D01*
X147574000Y-61151750D01*
X147415250Y-60993000D01*
X147301000Y-60989928D01*
X147176518Y-61002188D01*
X147056820Y-61038498D01*
X146946506Y-61097463D01*
X146849815Y-61176815D01*
X146818590Y-61214863D01*
X146716608Y-61131169D01*
X146571716Y-61053722D01*
X146414500Y-61006031D01*
X146251000Y-60989928D01*
X145851000Y-60989928D01*
X145687500Y-61006031D01*
X145530284Y-61053722D01*
X145385392Y-61131169D01*
X145258394Y-61235394D01*
X145154169Y-61362392D01*
X145076722Y-61507284D01*
X145029031Y-61664500D01*
X145012928Y-61828000D01*
X141935000Y-61828000D01*
X141935000Y-61304000D01*
X141889376Y-61094767D01*
X141803809Y-60898455D01*
X141681587Y-60722609D01*
X141527408Y-60573986D01*
X141347197Y-60458298D01*
X141144001Y-60386592D01*
X140977000Y-60513498D01*
X140723000Y-60513498D01*
X140555999Y-60386592D01*
X140352803Y-60458298D01*
X140172592Y-60573986D01*
X140018413Y-60722609D01*
X139896191Y-60898455D01*
X139873861Y-60949685D01*
X139790008Y-60914419D01*
X139604740Y-60876525D01*
X139415639Y-60875503D01*
X139229972Y-60911392D01*
X139079538Y-60972753D01*
X138935022Y-60912892D01*
X138914642Y-60908838D01*
X138680804Y-60675001D01*
X138657002Y-60645998D01*
X138541277Y-60551025D01*
X138409248Y-60480453D01*
X138265987Y-60436996D01*
X138154334Y-60425999D01*
X138154323Y-60425999D01*
X138117001Y-60422323D01*
X138079679Y-60425999D01*
X134632705Y-60425999D01*
X134595382Y-60422323D01*
X134558059Y-60425999D01*
X134558049Y-60425999D01*
X134446396Y-60436996D01*
X134303135Y-60480453D01*
X134171106Y-60551025D01*
X134055381Y-60645998D01*
X134031578Y-60675002D01*
X133893998Y-60812582D01*
X133865000Y-60836380D01*
X133805849Y-60908455D01*
X133649740Y-60876525D01*
X133460639Y-60875503D01*
X133274972Y-60911392D01*
X133176886Y-60951400D01*
X133153809Y-60898455D01*
X133031587Y-60722609D01*
X132877408Y-60573986D01*
X132697197Y-60458298D01*
X132494001Y-60386592D01*
X132327000Y-60513498D01*
X132327000Y-62054000D01*
X132614369Y-62054000D01*
X132625392Y-62111028D01*
X132696813Y-62286126D01*
X132701730Y-62295323D01*
X132884073Y-62308000D01*
X132327000Y-62308000D01*
X132327000Y-63848502D01*
X132494001Y-63975408D01*
X132693026Y-63905174D01*
X130778201Y-65820000D01*
X126254802Y-65820000D01*
X122742802Y-62308000D01*
X131115000Y-62308000D01*
X131115000Y-63058000D01*
X131160624Y-63267233D01*
X131246191Y-63463545D01*
X131368413Y-63639391D01*
X131522592Y-63788014D01*
X131702803Y-63903702D01*
X131905999Y-63975408D01*
X132073000Y-63848502D01*
X132073000Y-62308000D01*
X131115000Y-62308000D01*
X122742802Y-62308000D01*
X121738802Y-61304000D01*
X131115000Y-61304000D01*
X131115000Y-62054000D01*
X132073000Y-62054000D01*
X132073000Y-60513498D01*
X131905999Y-60386592D01*
X131702803Y-60458298D01*
X131522592Y-60573986D01*
X131368413Y-60722609D01*
X131246191Y-60898455D01*
X131160624Y-61094767D01*
X131115000Y-61304000D01*
X121738802Y-61304000D01*
X121253804Y-60819003D01*
X121230001Y-60789999D01*
X121114276Y-60695026D01*
X120982247Y-60624454D01*
X120838986Y-60580997D01*
X120727333Y-60570000D01*
X120727322Y-60570000D01*
X120690000Y-60566324D01*
X120652678Y-60570000D01*
X119378284Y-60570000D01*
X119429502Y-60474180D01*
X119465812Y-60354482D01*
X119478072Y-60230000D01*
X119475000Y-60065750D01*
X119316250Y-59907000D01*
X118492000Y-59907000D01*
X118492000Y-59927000D01*
X118238000Y-59927000D01*
X118238000Y-59907000D01*
X117413750Y-59907000D01*
X117255000Y-60065750D01*
X117251928Y-60230000D01*
X117264188Y-60354482D01*
X117300498Y-60474180D01*
X117359463Y-60584494D01*
X117395700Y-60628649D01*
X117317625Y-60774717D01*
X117268512Y-60936623D01*
X117251928Y-61105000D01*
X117251928Y-61555000D01*
X117268512Y-61723377D01*
X117317625Y-61885283D01*
X117397382Y-62034497D01*
X117504716Y-62165284D01*
X117635503Y-62272618D01*
X117784717Y-62352375D01*
X117946623Y-62401488D01*
X118115000Y-62418072D01*
X118615000Y-62418072D01*
X118783377Y-62401488D01*
X118945283Y-62352375D01*
X119094497Y-62272618D01*
X119225284Y-62165284D01*
X119287068Y-62090000D01*
X120375199Y-62090000D01*
X124105198Y-65820000D01*
X120365191Y-65820000D01*
X120258621Y-65682000D01*
X119492000Y-65682000D01*
X119492000Y-65702000D01*
X119416527Y-65702000D01*
X119425000Y-65659401D01*
X119425000Y-65615000D01*
X119469401Y-65615000D01*
X119674191Y-65574265D01*
X119867098Y-65494360D01*
X119966413Y-65428000D01*
X120258621Y-65428000D01*
X120384547Y-65264936D01*
X120308368Y-65071606D01*
X120301647Y-65061159D01*
X120304360Y-65057098D01*
X120384265Y-64864191D01*
X120425000Y-64659401D01*
X120425000Y-64450599D01*
X120384265Y-64245809D01*
X120304360Y-64052902D01*
X120188356Y-63879289D01*
X120040711Y-63731644D01*
X119867098Y-63615640D01*
X119674191Y-63535735D01*
X119469401Y-63495000D01*
X119260599Y-63495000D01*
X119055809Y-63535735D01*
X118865000Y-63614771D01*
X118674191Y-63535735D01*
X118469401Y-63495000D01*
X118260599Y-63495000D01*
X118055809Y-63535735D01*
X118038603Y-63542862D01*
X118034180Y-63540498D01*
X117914482Y-63504188D01*
X117790000Y-63491928D01*
X116940000Y-63491928D01*
X116815518Y-63504188D01*
X116695820Y-63540498D01*
X116585506Y-63599463D01*
X116488815Y-63678815D01*
X116409463Y-63775506D01*
X116350498Y-63885820D01*
X116314188Y-64005518D01*
X116301928Y-64130000D01*
X116301928Y-64980000D01*
X116314188Y-65104482D01*
X116350498Y-65224180D01*
X116352862Y-65228603D01*
X116345735Y-65245809D01*
X116305000Y-65450599D01*
X116305000Y-65659401D01*
X116336945Y-65820000D01*
X110175519Y-65820000D01*
X110249974Y-65729276D01*
X110320546Y-65597247D01*
X110364003Y-65453986D01*
X110375000Y-65342333D01*
X110375000Y-65342324D01*
X110378676Y-65305001D01*
X110375000Y-65267678D01*
X110375000Y-64568284D01*
X110470820Y-64619502D01*
X110590518Y-64655812D01*
X110715000Y-64668072D01*
X110879250Y-64665000D01*
X111038000Y-64506250D01*
X111038000Y-63682000D01*
X111292000Y-63682000D01*
X111292000Y-64506250D01*
X111450750Y-64665000D01*
X111615000Y-64668072D01*
X111739482Y-64655812D01*
X111859180Y-64619502D01*
X111969494Y-64560537D01*
X112066185Y-64481185D01*
X112145537Y-64384494D01*
X112204502Y-64274180D01*
X112240812Y-64154482D01*
X112253072Y-64030000D01*
X112250000Y-63840750D01*
X112091250Y-63682000D01*
X111292000Y-63682000D01*
X111038000Y-63682000D01*
X111018000Y-63682000D01*
X111018000Y-63428000D01*
X111038000Y-63428000D01*
X111038000Y-63408000D01*
X111292000Y-63408000D01*
X111292000Y-63428000D01*
X112091250Y-63428000D01*
X112250000Y-63269250D01*
X112253072Y-63080000D01*
X112244276Y-62990694D01*
X112565000Y-62993072D01*
X112689482Y-62980812D01*
X112809180Y-62944502D01*
X112919494Y-62885537D01*
X113016185Y-62806185D01*
X113095537Y-62709494D01*
X113154502Y-62599180D01*
X113174990Y-62531642D01*
X113245820Y-62569502D01*
X113365518Y-62605812D01*
X113490000Y-62618072D01*
X113679250Y-62615000D01*
X113838000Y-62456250D01*
X113838000Y-61657000D01*
X114092000Y-61657000D01*
X114092000Y-62456250D01*
X114250750Y-62615000D01*
X114440000Y-62618072D01*
X114564482Y-62605812D01*
X114684180Y-62569502D01*
X114794494Y-62510537D01*
X114891185Y-62431185D01*
X114970537Y-62334494D01*
X115029502Y-62224180D01*
X115065812Y-62104482D01*
X115078072Y-61980000D01*
X115075000Y-61815750D01*
X114916250Y-61657000D01*
X114092000Y-61657000D01*
X113838000Y-61657000D01*
X113818000Y-61657000D01*
X113818000Y-61403000D01*
X113838000Y-61403000D01*
X113838000Y-61383000D01*
X114092000Y-61383000D01*
X114092000Y-61403000D01*
X114916250Y-61403000D01*
X115075000Y-61244250D01*
X115078072Y-61080000D01*
X115065812Y-60955518D01*
X115029502Y-60835820D01*
X114970537Y-60725506D01*
X114934300Y-60681351D01*
X115012375Y-60535283D01*
X115061488Y-60373377D01*
X115078072Y-60205000D01*
X115078072Y-59755000D01*
X115061488Y-59586623D01*
X115012375Y-59424717D01*
X114961748Y-59330000D01*
X117251928Y-59330000D01*
X117255000Y-59494250D01*
X117413750Y-59653000D01*
X118238000Y-59653000D01*
X118238000Y-58853750D01*
X118492000Y-58853750D01*
X118492000Y-59653000D01*
X119316250Y-59653000D01*
X119475000Y-59494250D01*
X119478072Y-59330000D01*
X119465812Y-59205518D01*
X119429502Y-59085820D01*
X119370537Y-58975506D01*
X119331550Y-58928000D01*
X131115000Y-58928000D01*
X131115000Y-59328000D01*
X131160624Y-59537233D01*
X131246191Y-59733545D01*
X131368413Y-59909391D01*
X131522592Y-60058014D01*
X131702803Y-60173702D01*
X131905999Y-60245408D01*
X132073000Y-60118502D01*
X132073000Y-58928000D01*
X132327000Y-58928000D01*
X132327000Y-60118502D01*
X132494001Y-60245408D01*
X132697197Y-60173702D01*
X132877408Y-60058014D01*
X133031587Y-59909391D01*
X133153809Y-59733545D01*
X133239376Y-59537233D01*
X133285000Y-59328000D01*
X133285000Y-58928000D01*
X139765000Y-58928000D01*
X139765000Y-59328000D01*
X139810624Y-59537233D01*
X139896191Y-59733545D01*
X140018413Y-59909391D01*
X140172592Y-60058014D01*
X140352803Y-60173702D01*
X140555999Y-60245408D01*
X140723000Y-60118502D01*
X140723000Y-58928000D01*
X140977000Y-58928000D01*
X140977000Y-60118502D01*
X141144001Y-60245408D01*
X141347197Y-60173702D01*
X141527408Y-60058014D01*
X141681587Y-59909391D01*
X141803809Y-59733545D01*
X141889376Y-59537233D01*
X141935000Y-59328000D01*
X141935000Y-58928000D01*
X140977000Y-58928000D01*
X140723000Y-58928000D01*
X139765000Y-58928000D01*
X133285000Y-58928000D01*
X132327000Y-58928000D01*
X132073000Y-58928000D01*
X131115000Y-58928000D01*
X119331550Y-58928000D01*
X119291185Y-58878815D01*
X119194494Y-58799463D01*
X119084180Y-58740498D01*
X118964482Y-58704188D01*
X118840000Y-58691928D01*
X118650750Y-58695000D01*
X118492000Y-58853750D01*
X118238000Y-58853750D01*
X118079250Y-58695000D01*
X117890000Y-58691928D01*
X117765518Y-58704188D01*
X117645820Y-58740498D01*
X117535506Y-58799463D01*
X117438815Y-58878815D01*
X117359463Y-58975506D01*
X117300498Y-59085820D01*
X117264188Y-59205518D01*
X117251928Y-59330000D01*
X114961748Y-59330000D01*
X114932618Y-59275503D01*
X114825284Y-59144716D01*
X114694497Y-59037382D01*
X114545283Y-58957625D01*
X114383377Y-58908512D01*
X114215000Y-58891928D01*
X113715000Y-58891928D01*
X113546623Y-58908512D01*
X113384717Y-58957625D01*
X113235503Y-59037382D01*
X113114761Y-59136472D01*
X113095537Y-59100506D01*
X113016185Y-59003815D01*
X112919494Y-58924463D01*
X112809180Y-58865498D01*
X112689482Y-58829188D01*
X112565000Y-58816928D01*
X111701729Y-58816928D01*
X111478814Y-58594012D01*
X111455011Y-58565009D01*
X111339286Y-58470036D01*
X111207257Y-58399464D01*
X111063996Y-58356007D01*
X110952343Y-58345010D01*
X110952332Y-58345010D01*
X110915010Y-58341334D01*
X110877688Y-58345010D01*
X108767313Y-58345010D01*
X108729988Y-58341334D01*
X108692663Y-58345010D01*
X108692655Y-58345010D01*
X108581002Y-58356007D01*
X108437741Y-58399464D01*
X108305712Y-58470036D01*
X108189987Y-58565009D01*
X108166184Y-58594013D01*
X108129002Y-58631195D01*
X108099998Y-58654998D01*
X108072916Y-58687998D01*
X108005025Y-58770723D01*
X107947248Y-58878815D01*
X107934453Y-58902753D01*
X107890996Y-59046014D01*
X107879999Y-59157667D01*
X107879999Y-59157677D01*
X107876323Y-59194999D01*
X107879999Y-59232322D01*
X107879999Y-60295133D01*
X107762760Y-60295133D01*
X107562801Y-60334907D01*
X107374443Y-60412928D01*
X107204925Y-60526196D01*
X107060762Y-60670359D01*
X106947494Y-60839877D01*
X106869473Y-61028235D01*
X106832064Y-61216306D01*
X105866797Y-62181573D01*
X105860502Y-62160820D01*
X105801537Y-62050506D01*
X105722185Y-61953815D01*
X105625494Y-61874463D01*
X105515180Y-61815498D01*
X105395482Y-61779188D01*
X105271000Y-61766928D01*
X104271000Y-61766928D01*
X104209072Y-61773027D01*
X104209072Y-61578000D01*
X104547250Y-61578000D01*
X104706000Y-61419250D01*
X104708952Y-61217388D01*
X104699111Y-61092692D01*
X104665131Y-60972312D01*
X104608320Y-60860874D01*
X104530860Y-60762660D01*
X104435728Y-60681445D01*
X104326579Y-60620350D01*
X104207609Y-60581723D01*
X104181000Y-60578748D01*
X104181000Y-60069921D01*
X104266351Y-60024300D01*
X104310506Y-60060537D01*
X104420820Y-60119502D01*
X104540518Y-60155812D01*
X104665000Y-60168072D01*
X104829250Y-60165000D01*
X104988000Y-60006250D01*
X104988000Y-59182000D01*
X105242000Y-59182000D01*
X105242000Y-60006250D01*
X105400750Y-60165000D01*
X105565000Y-60168072D01*
X105689482Y-60155812D01*
X105809180Y-60119502D01*
X105919494Y-60060537D01*
X106016185Y-59981185D01*
X106095537Y-59884494D01*
X106154502Y-59774180D01*
X106190812Y-59654482D01*
X106203072Y-59530000D01*
X106200000Y-59340750D01*
X106041250Y-59182000D01*
X105242000Y-59182000D01*
X104988000Y-59182000D01*
X104968000Y-59182000D01*
X104968000Y-58928000D01*
X104988000Y-58928000D01*
X104988000Y-58103750D01*
X105242000Y-58103750D01*
X105242000Y-58928000D01*
X106041250Y-58928000D01*
X106200000Y-58769250D01*
X106203072Y-58580000D01*
X106190812Y-58455518D01*
X106154502Y-58335820D01*
X106095537Y-58225506D01*
X106016185Y-58128815D01*
X105919494Y-58049463D01*
X105809180Y-57990498D01*
X105689482Y-57954188D01*
X105565000Y-57941928D01*
X105400750Y-57945000D01*
X105242000Y-58103750D01*
X104988000Y-58103750D01*
X104829250Y-57945000D01*
X104665000Y-57941928D01*
X104540518Y-57954188D01*
X104420820Y-57990498D01*
X104310506Y-58049463D01*
X104266351Y-58085700D01*
X104120283Y-58007625D01*
X104081787Y-57995947D01*
X103989276Y-57920026D01*
X103857247Y-57849454D01*
X103809598Y-57835000D01*
X131269444Y-57835000D01*
X131246191Y-57868455D01*
X131160624Y-58064767D01*
X131115000Y-58274000D01*
X131115000Y-58674000D01*
X132073000Y-58674000D01*
X132073000Y-58654000D01*
X132327000Y-58654000D01*
X132327000Y-58674000D01*
X133285000Y-58674000D01*
X133285000Y-58274000D01*
X133239376Y-58064767D01*
X133153809Y-57868455D01*
X133130556Y-57835000D01*
X139919444Y-57835000D01*
X139896191Y-57868455D01*
X139810624Y-58064767D01*
X139765000Y-58274000D01*
X139765000Y-58674000D01*
X140723000Y-58674000D01*
X140723000Y-58654000D01*
X140977000Y-58654000D01*
X140977000Y-58674000D01*
X141935000Y-58674000D01*
X141935000Y-58274000D01*
X141889376Y-58064767D01*
X141803809Y-57868455D01*
X141780556Y-57835000D01*
X187367307Y-57835000D01*
X187040776Y-57970254D01*
X186722933Y-58182630D01*
X186452630Y-58452933D01*
X186240254Y-58770776D01*
X186093966Y-59123945D01*
X186019390Y-59498867D01*
X186019390Y-59881133D01*
X186093966Y-60256055D01*
X186240254Y-60609224D01*
X186452630Y-60927067D01*
X186722933Y-61197370D01*
X187040776Y-61409746D01*
X187393945Y-61556034D01*
X187768867Y-61630610D01*
X188151133Y-61630610D01*
X188526055Y-61556034D01*
X188879224Y-61409746D01*
X189197067Y-61197370D01*
X189467370Y-60927067D01*
X189679746Y-60609224D01*
X189815000Y-60282693D01*
X189815001Y-92117309D01*
X189679746Y-91790776D01*
X189467370Y-91472933D01*
X189197067Y-91202630D01*
X188879224Y-90990254D01*
X188526055Y-90843966D01*
X188151133Y-90769390D01*
X187768867Y-90769390D01*
X187393945Y-90843966D01*
X187040776Y-90990254D01*
X186722933Y-91202630D01*
X186452630Y-91472933D01*
X186240254Y-91790776D01*
X186093966Y-92143945D01*
X186019390Y-92518867D01*
X186019390Y-92901133D01*
X186093966Y-93276055D01*
X186240254Y-93629224D01*
X186452630Y-93947067D01*
X186722933Y-94217370D01*
X187040776Y-94429746D01*
X187367307Y-94565000D01*
X85682693Y-94565000D01*
X86009224Y-94429746D01*
X86327067Y-94217370D01*
X86597370Y-93947067D01*
X86809746Y-93629224D01*
X86956034Y-93276055D01*
X87030610Y-92901133D01*
X87030610Y-92518867D01*
X86956034Y-92143945D01*
X86809746Y-91790776D01*
X86597370Y-91472933D01*
X86327067Y-91202630D01*
X86009224Y-90990254D01*
X85656055Y-90843966D01*
X85281133Y-90769390D01*
X84898867Y-90769390D01*
X84523945Y-90843966D01*
X84170776Y-90990254D01*
X83852933Y-91202630D01*
X83582630Y-91472933D01*
X83370254Y-91790776D01*
X83235000Y-92117307D01*
X83235000Y-87848750D01*
X93289428Y-87848750D01*
X93289428Y-88361250D01*
X93305892Y-88528408D01*
X93354650Y-88689142D01*
X93433829Y-88837275D01*
X93540385Y-88967115D01*
X93670225Y-89073671D01*
X93818358Y-89152850D01*
X93979092Y-89201608D01*
X94146250Y-89218072D01*
X94403270Y-89218072D01*
X94601211Y-89416012D01*
X94625009Y-89445011D01*
X94654007Y-89468809D01*
X94740733Y-89539984D01*
X94872763Y-89610556D01*
X95016024Y-89654013D01*
X95127677Y-89665010D01*
X95127687Y-89665010D01*
X95165010Y-89668686D01*
X95202332Y-89665010D01*
X98477668Y-89665010D01*
X98514990Y-89668686D01*
X98552312Y-89665010D01*
X98552323Y-89665010D01*
X98663976Y-89654013D01*
X98807237Y-89610556D01*
X98939266Y-89539984D01*
X99054991Y-89445011D01*
X99078794Y-89416007D01*
X100556051Y-87938750D01*
X112274428Y-87938750D01*
X112274428Y-88451250D01*
X112290892Y-88618408D01*
X112339650Y-88779142D01*
X112418829Y-88927275D01*
X112525385Y-89057115D01*
X112655225Y-89163671D01*
X112803358Y-89242850D01*
X112964092Y-89291608D01*
X113131250Y-89308072D01*
X113568750Y-89308072D01*
X113735908Y-89291608D01*
X113896642Y-89242850D01*
X114044775Y-89163671D01*
X114137500Y-89087574D01*
X114230225Y-89163671D01*
X114378358Y-89242850D01*
X114539092Y-89291608D01*
X114706250Y-89308072D01*
X115143750Y-89308072D01*
X115310908Y-89291608D01*
X115471642Y-89242850D01*
X115619775Y-89163671D01*
X115749615Y-89057115D01*
X115856171Y-88927275D01*
X115935350Y-88779142D01*
X115984108Y-88618408D01*
X116000572Y-88451250D01*
X116000572Y-87938750D01*
X115996633Y-87898750D01*
X131301928Y-87898750D01*
X131301928Y-88411250D01*
X131318392Y-88578408D01*
X131367150Y-88739142D01*
X131446329Y-88887275D01*
X131552885Y-89017115D01*
X131682725Y-89123671D01*
X131830858Y-89202850D01*
X131991592Y-89251608D01*
X132158750Y-89268072D01*
X132596250Y-89268072D01*
X132763408Y-89251608D01*
X132924142Y-89202850D01*
X133072275Y-89123671D01*
X133165000Y-89047574D01*
X133257725Y-89123671D01*
X133405858Y-89202850D01*
X133566592Y-89251608D01*
X133733750Y-89268072D01*
X134171250Y-89268072D01*
X134338408Y-89251608D01*
X134499142Y-89202850D01*
X134647275Y-89123671D01*
X134777115Y-89017115D01*
X134883671Y-88887275D01*
X134962850Y-88739142D01*
X135011608Y-88578408D01*
X135028072Y-88411250D01*
X135028072Y-87898750D01*
X135011608Y-87731592D01*
X135001646Y-87698750D01*
X150501928Y-87698750D01*
X150501928Y-88211250D01*
X150518392Y-88378408D01*
X150567150Y-88539142D01*
X150646329Y-88687275D01*
X150752885Y-88817115D01*
X150882725Y-88923671D01*
X151030858Y-89002850D01*
X151191592Y-89051608D01*
X151358750Y-89068072D01*
X151796250Y-89068072D01*
X151963408Y-89051608D01*
X152124142Y-89002850D01*
X152272275Y-88923671D01*
X152365000Y-88847574D01*
X152457725Y-88923671D01*
X152605858Y-89002850D01*
X152766592Y-89051608D01*
X152933750Y-89068072D01*
X153371250Y-89068072D01*
X153538408Y-89051608D01*
X153699142Y-89002850D01*
X153847275Y-88923671D01*
X153977115Y-88817115D01*
X154083671Y-88687275D01*
X154162850Y-88539142D01*
X154211608Y-88378408D01*
X154228072Y-88211250D01*
X154228072Y-87898750D01*
X169501928Y-87898750D01*
X169501928Y-88411250D01*
X169518392Y-88578408D01*
X169567150Y-88739142D01*
X169646329Y-88887275D01*
X169752885Y-89017115D01*
X169882725Y-89123671D01*
X170030858Y-89202850D01*
X170191592Y-89251608D01*
X170358750Y-89268072D01*
X170796250Y-89268072D01*
X170963408Y-89251608D01*
X171124142Y-89202850D01*
X171272275Y-89123671D01*
X171365000Y-89047574D01*
X171457725Y-89123671D01*
X171605858Y-89202850D01*
X171766592Y-89251608D01*
X171933750Y-89268072D01*
X172371250Y-89268072D01*
X172538408Y-89251608D01*
X172699142Y-89202850D01*
X172847275Y-89123671D01*
X172977115Y-89017115D01*
X173083671Y-88887275D01*
X173162850Y-88739142D01*
X173211608Y-88578408D01*
X173228072Y-88411250D01*
X173228072Y-87898750D01*
X173211608Y-87731592D01*
X173162850Y-87570858D01*
X173083671Y-87422725D01*
X172977115Y-87292885D01*
X172847275Y-87186329D01*
X172699142Y-87107150D01*
X172538408Y-87058392D01*
X172371250Y-87041928D01*
X171933750Y-87041928D01*
X171766592Y-87058392D01*
X171605858Y-87107150D01*
X171457725Y-87186329D01*
X171365000Y-87262426D01*
X171272275Y-87186329D01*
X171124142Y-87107150D01*
X170963408Y-87058392D01*
X170796250Y-87041928D01*
X170358750Y-87041928D01*
X170191592Y-87058392D01*
X170030858Y-87107150D01*
X169882725Y-87186329D01*
X169752885Y-87292885D01*
X169646329Y-87422725D01*
X169567150Y-87570858D01*
X169518392Y-87731592D01*
X169501928Y-87898750D01*
X154228072Y-87898750D01*
X154228072Y-87698750D01*
X154211608Y-87531592D01*
X154162850Y-87370858D01*
X154083671Y-87222725D01*
X153977115Y-87092885D01*
X153847275Y-86986329D01*
X153699142Y-86907150D01*
X153538408Y-86858392D01*
X153371250Y-86841928D01*
X152933750Y-86841928D01*
X152766592Y-86858392D01*
X152605858Y-86907150D01*
X152457725Y-86986329D01*
X152365000Y-87062426D01*
X152272275Y-86986329D01*
X152124142Y-86907150D01*
X151963408Y-86858392D01*
X151796250Y-86841928D01*
X151358750Y-86841928D01*
X151191592Y-86858392D01*
X151030858Y-86907150D01*
X150882725Y-86986329D01*
X150752885Y-87092885D01*
X150646329Y-87222725D01*
X150567150Y-87370858D01*
X150518392Y-87531592D01*
X150501928Y-87698750D01*
X135001646Y-87698750D01*
X134962850Y-87570858D01*
X134883671Y-87422725D01*
X134777115Y-87292885D01*
X134647275Y-87186329D01*
X134499142Y-87107150D01*
X134338408Y-87058392D01*
X134171250Y-87041928D01*
X133733750Y-87041928D01*
X133566592Y-87058392D01*
X133405858Y-87107150D01*
X133257725Y-87186329D01*
X133165000Y-87262426D01*
X133072275Y-87186329D01*
X132924142Y-87107150D01*
X132763408Y-87058392D01*
X132596250Y-87041928D01*
X132158750Y-87041928D01*
X131991592Y-87058392D01*
X131830858Y-87107150D01*
X131682725Y-87186329D01*
X131552885Y-87292885D01*
X131446329Y-87422725D01*
X131367150Y-87570858D01*
X131318392Y-87731592D01*
X131301928Y-87898750D01*
X115996633Y-87898750D01*
X115984108Y-87771592D01*
X115935350Y-87610858D01*
X115856171Y-87462725D01*
X115749615Y-87332885D01*
X115619775Y-87226329D01*
X115471642Y-87147150D01*
X115310908Y-87098392D01*
X115143750Y-87081928D01*
X114706250Y-87081928D01*
X114539092Y-87098392D01*
X114378358Y-87147150D01*
X114230225Y-87226329D01*
X114137500Y-87302426D01*
X114044775Y-87226329D01*
X113896642Y-87147150D01*
X113735908Y-87098392D01*
X113568750Y-87081928D01*
X113131250Y-87081928D01*
X112964092Y-87098392D01*
X112803358Y-87147150D01*
X112655225Y-87226329D01*
X112525385Y-87332885D01*
X112418829Y-87462725D01*
X112339650Y-87610858D01*
X112290892Y-87771592D01*
X112274428Y-87938750D01*
X100556051Y-87938750D01*
X109268523Y-79226278D01*
X110885000Y-79226278D01*
X110885000Y-79523722D01*
X110943029Y-79815451D01*
X111056856Y-80090253D01*
X111222107Y-80337569D01*
X111432431Y-80547893D01*
X111679747Y-80713144D01*
X111954549Y-80826971D01*
X112246278Y-80885000D01*
X112543722Y-80885000D01*
X112835451Y-80826971D01*
X113110253Y-80713144D01*
X113357569Y-80547893D01*
X113567893Y-80337569D01*
X113733144Y-80090253D01*
X113846971Y-79815451D01*
X113905000Y-79523722D01*
X113905000Y-79226278D01*
X113846971Y-78934549D01*
X113733144Y-78659747D01*
X113567893Y-78412431D01*
X113357569Y-78202107D01*
X113110253Y-78036856D01*
X112835451Y-77923029D01*
X112543722Y-77865000D01*
X112246278Y-77865000D01*
X111954549Y-77923029D01*
X111679747Y-78036856D01*
X111432431Y-78202107D01*
X111222107Y-78412431D01*
X111056856Y-78659747D01*
X110943029Y-78934549D01*
X110885000Y-79226278D01*
X109268523Y-79226278D01*
X109404802Y-79090000D01*
X109466939Y-79090000D01*
X109666898Y-79050226D01*
X109855256Y-78972205D01*
X110024774Y-78858937D01*
X110168937Y-78714774D01*
X110282205Y-78545256D01*
X110360226Y-78356898D01*
X110400000Y-78156939D01*
X110400000Y-77953061D01*
X110360226Y-77753102D01*
X110294738Y-77595000D01*
X115528547Y-77595000D01*
X115428262Y-77695285D01*
X115139893Y-78126859D01*
X114941261Y-78606399D01*
X114840000Y-79115475D01*
X114840000Y-79634525D01*
X114941261Y-80143601D01*
X115139893Y-80623141D01*
X115428262Y-81054715D01*
X115795285Y-81421738D01*
X116226859Y-81710107D01*
X116706399Y-81908739D01*
X117215475Y-82010000D01*
X117734525Y-82010000D01*
X118243601Y-81908739D01*
X118723141Y-81710107D01*
X119154715Y-81421738D01*
X119521738Y-81054715D01*
X119810107Y-80623141D01*
X120008739Y-80143601D01*
X120110000Y-79634525D01*
X120110000Y-79115475D01*
X120008739Y-78606399D01*
X119810107Y-78126859D01*
X119521738Y-77695285D01*
X119421453Y-77595000D01*
X119559493Y-77595000D01*
X119614534Y-77727882D01*
X119820825Y-78036618D01*
X120083382Y-78299175D01*
X120392118Y-78505466D01*
X120735166Y-78647561D01*
X121099344Y-78720000D01*
X121191898Y-78720000D01*
X121103029Y-78934549D01*
X121045000Y-79226278D01*
X121045000Y-79523722D01*
X121103029Y-79815451D01*
X121216856Y-80090253D01*
X121382107Y-80337569D01*
X121592431Y-80547893D01*
X121839747Y-80713144D01*
X122114549Y-80826971D01*
X122406278Y-80885000D01*
X122703722Y-80885000D01*
X122995451Y-80826971D01*
X123270253Y-80713144D01*
X123517569Y-80547893D01*
X123727893Y-80337569D01*
X123893144Y-80090253D01*
X124006971Y-79815451D01*
X124065000Y-79523722D01*
X124065000Y-79226278D01*
X129935000Y-79226278D01*
X129935000Y-79523722D01*
X129993029Y-79815451D01*
X130106856Y-80090253D01*
X130272107Y-80337569D01*
X130482431Y-80547893D01*
X130729747Y-80713144D01*
X131004549Y-80826971D01*
X131296278Y-80885000D01*
X131593722Y-80885000D01*
X131885451Y-80826971D01*
X132160253Y-80713144D01*
X132407569Y-80547893D01*
X132617893Y-80337569D01*
X132783144Y-80090253D01*
X132896971Y-79815451D01*
X132955000Y-79523722D01*
X132955000Y-79226278D01*
X132896971Y-78934549D01*
X132783144Y-78659747D01*
X132617893Y-78412431D01*
X132407569Y-78202107D01*
X132160253Y-78036856D01*
X131885451Y-77923029D01*
X131593722Y-77865000D01*
X131296278Y-77865000D01*
X131004549Y-77923029D01*
X130729747Y-78036856D01*
X130482431Y-78202107D01*
X130272107Y-78412431D01*
X130106856Y-78659747D01*
X129993029Y-78934549D01*
X129935000Y-79226278D01*
X124065000Y-79226278D01*
X124006971Y-78934549D01*
X123893144Y-78659747D01*
X123727893Y-78412431D01*
X123517569Y-78202107D01*
X123270253Y-78036856D01*
X122995451Y-77923029D01*
X122845061Y-77893114D01*
X122955466Y-77727882D01*
X123010507Y-77595000D01*
X134578547Y-77595000D01*
X134478262Y-77695285D01*
X134189893Y-78126859D01*
X133991261Y-78606399D01*
X133890000Y-79115475D01*
X133890000Y-79634525D01*
X133991261Y-80143601D01*
X134189893Y-80623141D01*
X134478262Y-81054715D01*
X134845285Y-81421738D01*
X135276859Y-81710107D01*
X135756399Y-81908739D01*
X136265475Y-82010000D01*
X136784525Y-82010000D01*
X137293601Y-81908739D01*
X137773141Y-81710107D01*
X138204715Y-81421738D01*
X138571738Y-81054715D01*
X138860107Y-80623141D01*
X139058739Y-80143601D01*
X139160000Y-79634525D01*
X139160000Y-79115475D01*
X139058739Y-78606399D01*
X138860107Y-78126859D01*
X138571738Y-77695285D01*
X138471453Y-77595000D01*
X138609493Y-77595000D01*
X138664534Y-77727882D01*
X138870825Y-78036618D01*
X139133382Y-78299175D01*
X139442118Y-78505466D01*
X139785166Y-78647561D01*
X140149344Y-78720000D01*
X140241898Y-78720000D01*
X140153029Y-78934549D01*
X140095000Y-79226278D01*
X140095000Y-79523722D01*
X140153029Y-79815451D01*
X140266856Y-80090253D01*
X140432107Y-80337569D01*
X140642431Y-80547893D01*
X140889747Y-80713144D01*
X141164549Y-80826971D01*
X141456278Y-80885000D01*
X141753722Y-80885000D01*
X142045451Y-80826971D01*
X142320253Y-80713144D01*
X142567569Y-80547893D01*
X142777893Y-80337569D01*
X142943144Y-80090253D01*
X143056971Y-79815451D01*
X143115000Y-79523722D01*
X143115000Y-79226278D01*
X148985000Y-79226278D01*
X148985000Y-79523722D01*
X149043029Y-79815451D01*
X149156856Y-80090253D01*
X149322107Y-80337569D01*
X149532431Y-80547893D01*
X149779747Y-80713144D01*
X150054549Y-80826971D01*
X150346278Y-80885000D01*
X150643722Y-80885000D01*
X150935451Y-80826971D01*
X151210253Y-80713144D01*
X151457569Y-80547893D01*
X151667893Y-80337569D01*
X151833144Y-80090253D01*
X151946971Y-79815451D01*
X152005000Y-79523722D01*
X152005000Y-79226278D01*
X151946971Y-78934549D01*
X151833144Y-78659747D01*
X151667893Y-78412431D01*
X151457569Y-78202107D01*
X151210253Y-78036856D01*
X150935451Y-77923029D01*
X150643722Y-77865000D01*
X150346278Y-77865000D01*
X150054549Y-77923029D01*
X149779747Y-78036856D01*
X149532431Y-78202107D01*
X149322107Y-78412431D01*
X149156856Y-78659747D01*
X149043029Y-78934549D01*
X148985000Y-79226278D01*
X143115000Y-79226278D01*
X143056971Y-78934549D01*
X142943144Y-78659747D01*
X142777893Y-78412431D01*
X142567569Y-78202107D01*
X142320253Y-78036856D01*
X142045451Y-77923029D01*
X141895061Y-77893114D01*
X142005466Y-77727882D01*
X142060507Y-77595000D01*
X153628547Y-77595000D01*
X153528262Y-77695285D01*
X153239893Y-78126859D01*
X153041261Y-78606399D01*
X152940000Y-79115475D01*
X152940000Y-79634525D01*
X153041261Y-80143601D01*
X153239893Y-80623141D01*
X153528262Y-81054715D01*
X153895285Y-81421738D01*
X154326859Y-81710107D01*
X154806399Y-81908739D01*
X155315475Y-82010000D01*
X155834525Y-82010000D01*
X156343601Y-81908739D01*
X156823141Y-81710107D01*
X157254715Y-81421738D01*
X157621738Y-81054715D01*
X157910107Y-80623141D01*
X158108739Y-80143601D01*
X158210000Y-79634525D01*
X158210000Y-79115475D01*
X158108739Y-78606399D01*
X157910107Y-78126859D01*
X157621738Y-77695285D01*
X157521453Y-77595000D01*
X157659493Y-77595000D01*
X157714534Y-77727882D01*
X157920825Y-78036618D01*
X158183382Y-78299175D01*
X158492118Y-78505466D01*
X158835166Y-78647561D01*
X159199344Y-78720000D01*
X159291898Y-78720000D01*
X159203029Y-78934549D01*
X159145000Y-79226278D01*
X159145000Y-79523722D01*
X159203029Y-79815451D01*
X159316856Y-80090253D01*
X159482107Y-80337569D01*
X159692431Y-80547893D01*
X159939747Y-80713144D01*
X160214549Y-80826971D01*
X160506278Y-80885000D01*
X160803722Y-80885000D01*
X161095451Y-80826971D01*
X161370253Y-80713144D01*
X161617569Y-80547893D01*
X161827893Y-80337569D01*
X161993144Y-80090253D01*
X162106971Y-79815451D01*
X162165000Y-79523722D01*
X162165000Y-79226278D01*
X168035000Y-79226278D01*
X168035000Y-79523722D01*
X168093029Y-79815451D01*
X168206856Y-80090253D01*
X168372107Y-80337569D01*
X168582431Y-80547893D01*
X168829747Y-80713144D01*
X169104549Y-80826971D01*
X169396278Y-80885000D01*
X169693722Y-80885000D01*
X169985451Y-80826971D01*
X170260253Y-80713144D01*
X170507569Y-80547893D01*
X170717893Y-80337569D01*
X170883144Y-80090253D01*
X170996971Y-79815451D01*
X171055000Y-79523722D01*
X171055000Y-79226278D01*
X170996971Y-78934549D01*
X170883144Y-78659747D01*
X170717893Y-78412431D01*
X170507569Y-78202107D01*
X170260253Y-78036856D01*
X169985451Y-77923029D01*
X169693722Y-77865000D01*
X169396278Y-77865000D01*
X169104549Y-77923029D01*
X168829747Y-78036856D01*
X168582431Y-78202107D01*
X168372107Y-78412431D01*
X168206856Y-78659747D01*
X168093029Y-78934549D01*
X168035000Y-79226278D01*
X162165000Y-79226278D01*
X162106971Y-78934549D01*
X161993144Y-78659747D01*
X161827893Y-78412431D01*
X161617569Y-78202107D01*
X161370253Y-78036856D01*
X161095451Y-77923029D01*
X160945061Y-77893114D01*
X161055466Y-77727882D01*
X161110507Y-77595000D01*
X172678547Y-77595000D01*
X172578262Y-77695285D01*
X172289893Y-78126859D01*
X172091261Y-78606399D01*
X171990000Y-79115475D01*
X171990000Y-79634525D01*
X172091261Y-80143601D01*
X172289893Y-80623141D01*
X172578262Y-81054715D01*
X172945285Y-81421738D01*
X173376859Y-81710107D01*
X173856399Y-81908739D01*
X174365475Y-82010000D01*
X174884525Y-82010000D01*
X175393601Y-81908739D01*
X175873141Y-81710107D01*
X176304715Y-81421738D01*
X176671738Y-81054715D01*
X176960107Y-80623141D01*
X177158739Y-80143601D01*
X177260000Y-79634525D01*
X177260000Y-79115475D01*
X177158739Y-78606399D01*
X176960107Y-78126859D01*
X176671738Y-77695285D01*
X176571453Y-77595000D01*
X176709493Y-77595000D01*
X176764534Y-77727882D01*
X176970825Y-78036618D01*
X177233382Y-78299175D01*
X177542118Y-78505466D01*
X177885166Y-78647561D01*
X178249344Y-78720000D01*
X178341898Y-78720000D01*
X178253029Y-78934549D01*
X178195000Y-79226278D01*
X178195000Y-79523722D01*
X178253029Y-79815451D01*
X178366856Y-80090253D01*
X178532107Y-80337569D01*
X178742431Y-80547893D01*
X178989747Y-80713144D01*
X179264549Y-80826971D01*
X179556278Y-80885000D01*
X179853722Y-80885000D01*
X180145451Y-80826971D01*
X180420253Y-80713144D01*
X180667569Y-80547893D01*
X180877893Y-80337569D01*
X181043144Y-80090253D01*
X181156971Y-79815451D01*
X181215000Y-79523722D01*
X181215000Y-79226278D01*
X181156971Y-78934549D01*
X181043144Y-78659747D01*
X180877893Y-78412431D01*
X180667569Y-78202107D01*
X180420253Y-78036856D01*
X180145451Y-77923029D01*
X179995061Y-77893114D01*
X180105466Y-77727882D01*
X180247561Y-77384834D01*
X180320000Y-77020656D01*
X180320000Y-76649344D01*
X180247561Y-76285166D01*
X180105466Y-75942118D01*
X179899175Y-75633382D01*
X179636618Y-75370825D01*
X179327882Y-75164534D01*
X178984834Y-75022439D01*
X178620656Y-74950000D01*
X178249344Y-74950000D01*
X177885166Y-75022439D01*
X177542118Y-75164534D01*
X177233382Y-75370825D01*
X176970825Y-75633382D01*
X176764534Y-75942118D01*
X176709493Y-76075000D01*
X172713443Y-76075000D01*
X172977882Y-75965466D01*
X173286618Y-75759175D01*
X173549175Y-75496618D01*
X173755466Y-75187882D01*
X173897561Y-74844834D01*
X173970000Y-74480656D01*
X173970000Y-74109344D01*
X173897561Y-73745166D01*
X173755466Y-73402118D01*
X173549175Y-73093382D01*
X173286618Y-72830825D01*
X172977882Y-72624534D01*
X172634834Y-72482439D01*
X172270656Y-72410000D01*
X171899344Y-72410000D01*
X171535166Y-72482439D01*
X171192118Y-72624534D01*
X170883382Y-72830825D01*
X170620825Y-73093382D01*
X170414534Y-73402118D01*
X170272439Y-73745166D01*
X170200000Y-74109344D01*
X170200000Y-74480656D01*
X170272439Y-74844834D01*
X170414534Y-75187882D01*
X170620825Y-75496618D01*
X170883382Y-75759175D01*
X171192118Y-75965466D01*
X171456557Y-76075000D01*
X161110507Y-76075000D01*
X161055466Y-75942118D01*
X160849175Y-75633382D01*
X160586618Y-75370825D01*
X160277882Y-75164534D01*
X159934834Y-75022439D01*
X159570656Y-74950000D01*
X159199344Y-74950000D01*
X158835166Y-75022439D01*
X158492118Y-75164534D01*
X158183382Y-75370825D01*
X157920825Y-75633382D01*
X157714534Y-75942118D01*
X157659493Y-76075000D01*
X153663443Y-76075000D01*
X153927882Y-75965466D01*
X154236618Y-75759175D01*
X154499175Y-75496618D01*
X154705466Y-75187882D01*
X154847561Y-74844834D01*
X154920000Y-74480656D01*
X154920000Y-74109344D01*
X154847561Y-73745166D01*
X154705466Y-73402118D01*
X154499175Y-73093382D01*
X154236618Y-72830825D01*
X153927882Y-72624534D01*
X153584834Y-72482439D01*
X153220656Y-72410000D01*
X152849344Y-72410000D01*
X152485166Y-72482439D01*
X152142118Y-72624534D01*
X151833382Y-72830825D01*
X151570825Y-73093382D01*
X151364534Y-73402118D01*
X151222439Y-73745166D01*
X151150000Y-74109344D01*
X151150000Y-74480656D01*
X151222439Y-74844834D01*
X151364534Y-75187882D01*
X151570825Y-75496618D01*
X151833382Y-75759175D01*
X152142118Y-75965466D01*
X152406557Y-76075000D01*
X142060507Y-76075000D01*
X142005466Y-75942118D01*
X141799175Y-75633382D01*
X141536618Y-75370825D01*
X141227882Y-75164534D01*
X140884834Y-75022439D01*
X140520656Y-74950000D01*
X140149344Y-74950000D01*
X139785166Y-75022439D01*
X139442118Y-75164534D01*
X139133382Y-75370825D01*
X138870825Y-75633382D01*
X138664534Y-75942118D01*
X138609493Y-76075000D01*
X134613443Y-76075000D01*
X134877882Y-75965466D01*
X135186618Y-75759175D01*
X135449175Y-75496618D01*
X135655466Y-75187882D01*
X135797561Y-74844834D01*
X135870000Y-74480656D01*
X135870000Y-74109344D01*
X135797561Y-73745166D01*
X135655466Y-73402118D01*
X135449175Y-73093382D01*
X135186618Y-72830825D01*
X134877882Y-72624534D01*
X134534834Y-72482439D01*
X134170656Y-72410000D01*
X133799344Y-72410000D01*
X133435166Y-72482439D01*
X133092118Y-72624534D01*
X132783382Y-72830825D01*
X132520825Y-73093382D01*
X132314534Y-73402118D01*
X132172439Y-73745166D01*
X132100000Y-74109344D01*
X132100000Y-74480656D01*
X132172439Y-74844834D01*
X132314534Y-75187882D01*
X132520825Y-75496618D01*
X132783382Y-75759175D01*
X133092118Y-75965466D01*
X133356557Y-76075000D01*
X123010507Y-76075000D01*
X122955466Y-75942118D01*
X122749175Y-75633382D01*
X122486618Y-75370825D01*
X122177882Y-75164534D01*
X121834834Y-75022439D01*
X121470656Y-74950000D01*
X121099344Y-74950000D01*
X120735166Y-75022439D01*
X120392118Y-75164534D01*
X120083382Y-75370825D01*
X119820825Y-75633382D01*
X119614534Y-75942118D01*
X119559493Y-76075000D01*
X115563443Y-76075000D01*
X115827882Y-75965466D01*
X116136618Y-75759175D01*
X116399175Y-75496618D01*
X116605466Y-75187882D01*
X116747561Y-74844834D01*
X116820000Y-74480656D01*
X116820000Y-74109344D01*
X116747561Y-73745166D01*
X116605466Y-73402118D01*
X116399175Y-73093382D01*
X116136618Y-72830825D01*
X115827882Y-72624534D01*
X115484834Y-72482439D01*
X115120656Y-72410000D01*
X114749344Y-72410000D01*
X114385166Y-72482439D01*
X114042118Y-72624534D01*
X113733382Y-72830825D01*
X113470825Y-73093382D01*
X113264534Y-73402118D01*
X113122439Y-73745166D01*
X113050000Y-74109344D01*
X113050000Y-74480656D01*
X113122439Y-74844834D01*
X113264534Y-75187882D01*
X113470825Y-75496618D01*
X113733382Y-75759175D01*
X114042118Y-75965466D01*
X114306557Y-76075000D01*
X104024007Y-76075000D01*
X103968966Y-75942118D01*
X103762675Y-75633382D01*
X103500118Y-75370825D01*
X103191382Y-75164534D01*
X102848334Y-75022439D01*
X102484156Y-74950000D01*
X102112844Y-74950000D01*
X101748666Y-75022439D01*
X101405618Y-75164534D01*
X101096882Y-75370825D01*
X100834325Y-75633382D01*
X100628034Y-75942118D01*
X100485939Y-76285166D01*
X100413500Y-76649344D01*
X100413500Y-77020656D01*
X100485939Y-77384834D01*
X100628034Y-77727882D01*
X100834325Y-78036618D01*
X101096882Y-78299175D01*
X101405618Y-78505466D01*
X101748666Y-78647561D01*
X102112844Y-78720000D01*
X102205398Y-78720000D01*
X102116529Y-78934549D01*
X102058500Y-79226278D01*
X102058500Y-79523722D01*
X102116529Y-79815451D01*
X102230356Y-80090253D01*
X102395607Y-80337569D01*
X102605931Y-80547893D01*
X102853247Y-80713144D01*
X103128049Y-80826971D01*
X103419778Y-80885000D01*
X103717222Y-80885000D01*
X104008951Y-80826971D01*
X104283753Y-80713144D01*
X104531069Y-80547893D01*
X104741393Y-80337569D01*
X104906644Y-80090253D01*
X105020471Y-79815451D01*
X105078500Y-79523722D01*
X105078500Y-79226278D01*
X105020471Y-78934549D01*
X104906644Y-78659747D01*
X104741393Y-78412431D01*
X104531069Y-78202107D01*
X104283753Y-78036856D01*
X104008951Y-77923029D01*
X103858561Y-77893114D01*
X103968966Y-77727882D01*
X104024007Y-77595000D01*
X108435262Y-77595000D01*
X108369774Y-77753102D01*
X108330000Y-77953061D01*
X108330000Y-78015198D01*
X98200189Y-88145010D01*
X97015572Y-88145010D01*
X97015572Y-87848750D01*
X96999108Y-87681592D01*
X96950350Y-87520858D01*
X96871171Y-87372725D01*
X96764615Y-87242885D01*
X96634775Y-87136329D01*
X96486642Y-87057150D01*
X96325908Y-87008392D01*
X96158750Y-86991928D01*
X95721250Y-86991928D01*
X95554092Y-87008392D01*
X95393358Y-87057150D01*
X95245225Y-87136329D01*
X95152500Y-87212426D01*
X95059775Y-87136329D01*
X94911642Y-87057150D01*
X94750908Y-87008392D01*
X94583750Y-86991928D01*
X94146250Y-86991928D01*
X93979092Y-87008392D01*
X93818358Y-87057150D01*
X93670225Y-87136329D01*
X93540385Y-87242885D01*
X93433829Y-87372725D01*
X93354650Y-87520858D01*
X93305892Y-87681592D01*
X93289428Y-87848750D01*
X83235000Y-87848750D01*
X83235000Y-79226278D01*
X91898500Y-79226278D01*
X91898500Y-79523722D01*
X91956529Y-79815451D01*
X92070356Y-80090253D01*
X92235607Y-80337569D01*
X92445931Y-80547893D01*
X92693247Y-80713144D01*
X92968049Y-80826971D01*
X93259778Y-80885000D01*
X93557222Y-80885000D01*
X93848951Y-80826971D01*
X94123753Y-80713144D01*
X94371069Y-80547893D01*
X94581393Y-80337569D01*
X94746644Y-80090253D01*
X94860471Y-79815451D01*
X94918500Y-79523722D01*
X94918500Y-79226278D01*
X94896460Y-79115475D01*
X95853500Y-79115475D01*
X95853500Y-79634525D01*
X95954761Y-80143601D01*
X96153393Y-80623141D01*
X96441762Y-81054715D01*
X96808785Y-81421738D01*
X97240359Y-81710107D01*
X97719899Y-81908739D01*
X98228975Y-82010000D01*
X98748025Y-82010000D01*
X99257101Y-81908739D01*
X99736641Y-81710107D01*
X100168215Y-81421738D01*
X100535238Y-81054715D01*
X100823607Y-80623141D01*
X101022239Y-80143601D01*
X101123500Y-79634525D01*
X101123500Y-79115475D01*
X101022239Y-78606399D01*
X100823607Y-78126859D01*
X100535238Y-77695285D01*
X100168215Y-77328262D01*
X99736641Y-77039893D01*
X99257101Y-76841261D01*
X98748025Y-76740000D01*
X98228975Y-76740000D01*
X97719899Y-76841261D01*
X97240359Y-77039893D01*
X96808785Y-77328262D01*
X96441762Y-77695285D01*
X96153393Y-78126859D01*
X95954761Y-78606399D01*
X95853500Y-79115475D01*
X94896460Y-79115475D01*
X94860471Y-78934549D01*
X94746644Y-78659747D01*
X94581393Y-78412431D01*
X94371069Y-78202107D01*
X94123753Y-78036856D01*
X93848951Y-77923029D01*
X93557222Y-77865000D01*
X93259778Y-77865000D01*
X92968049Y-77923029D01*
X92693247Y-78036856D01*
X92445931Y-78202107D01*
X92235607Y-78412431D01*
X92070356Y-78659747D01*
X91956529Y-78934549D01*
X91898500Y-79226278D01*
X83235000Y-79226278D01*
X83235000Y-74109344D01*
X94063500Y-74109344D01*
X94063500Y-74480656D01*
X94135939Y-74844834D01*
X94278034Y-75187882D01*
X94484325Y-75496618D01*
X94746882Y-75759175D01*
X95055618Y-75965466D01*
X95398666Y-76107561D01*
X95762844Y-76180000D01*
X96134156Y-76180000D01*
X96498334Y-76107561D01*
X96841382Y-75965466D01*
X97150118Y-75759175D01*
X97412675Y-75496618D01*
X97618966Y-75187882D01*
X97761061Y-74844834D01*
X97833500Y-74480656D01*
X97833500Y-74109344D01*
X97761061Y-73745166D01*
X97618966Y-73402118D01*
X97412675Y-73093382D01*
X97150118Y-72830825D01*
X96841382Y-72624534D01*
X96498334Y-72482439D01*
X96134156Y-72410000D01*
X95762844Y-72410000D01*
X95398666Y-72482439D01*
X95055618Y-72624534D01*
X94746882Y-72830825D01*
X94484325Y-73093382D01*
X94278034Y-73402118D01*
X94135939Y-73745166D01*
X94063500Y-74109344D01*
X83235000Y-74109344D01*
X83235000Y-71530000D01*
X93726928Y-71530000D01*
X93739188Y-71654482D01*
X93775498Y-71774180D01*
X93834463Y-71884494D01*
X93913815Y-71981185D01*
X94010506Y-72060537D01*
X94120820Y-72119502D01*
X94240518Y-72155812D01*
X94365000Y-72168072D01*
X94529250Y-72165000D01*
X94688000Y-72006250D01*
X94688000Y-71182000D01*
X93888750Y-71182000D01*
X93730000Y-71340750D01*
X93726928Y-71530000D01*
X83235000Y-71530000D01*
X83235000Y-68030000D01*
X91751928Y-68030000D01*
X91764188Y-68154482D01*
X91800498Y-68274180D01*
X91859463Y-68384494D01*
X91938815Y-68481185D01*
X92035506Y-68560537D01*
X92145820Y-68619502D01*
X92265518Y-68655812D01*
X92390000Y-68668072D01*
X92554250Y-68665000D01*
X92713000Y-68506250D01*
X92713000Y-67682000D01*
X91913750Y-67682000D01*
X91755000Y-67840750D01*
X91751928Y-68030000D01*
X83235000Y-68030000D01*
X83235000Y-67080000D01*
X91751928Y-67080000D01*
X91755000Y-67269250D01*
X91913750Y-67428000D01*
X92713000Y-67428000D01*
X92713000Y-66603750D01*
X92554250Y-66445000D01*
X92390000Y-66441928D01*
X92265518Y-66454188D01*
X92145820Y-66490498D01*
X92035506Y-66549463D01*
X91938815Y-66628815D01*
X91859463Y-66725506D01*
X91800498Y-66835820D01*
X91764188Y-66955518D01*
X91751928Y-67080000D01*
X83235000Y-67080000D01*
X83235000Y-63430000D01*
X91226928Y-63430000D01*
X91239188Y-63554482D01*
X91275498Y-63674180D01*
X91334463Y-63784494D01*
X91413815Y-63881185D01*
X91510506Y-63960537D01*
X91620820Y-64019502D01*
X91740518Y-64055812D01*
X91865000Y-64068072D01*
X92029250Y-64065000D01*
X92188000Y-63906250D01*
X92188000Y-63082000D01*
X91388750Y-63082000D01*
X91230000Y-63240750D01*
X91226928Y-63430000D01*
X83235000Y-63430000D01*
X83235000Y-62480000D01*
X91226928Y-62480000D01*
X91230000Y-62669250D01*
X91388750Y-62828000D01*
X92188000Y-62828000D01*
X92188000Y-62003750D01*
X92029250Y-61845000D01*
X91865000Y-61841928D01*
X91740518Y-61854188D01*
X91620820Y-61890498D01*
X91510506Y-61949463D01*
X91413815Y-62028815D01*
X91334463Y-62125506D01*
X91275498Y-62235820D01*
X91239188Y-62355518D01*
X91226928Y-62480000D01*
X83235000Y-62480000D01*
X83235000Y-60282693D01*
X83370254Y-60609224D01*
X83582630Y-60927067D01*
X83852933Y-61197370D01*
X84170776Y-61409746D01*
X84523945Y-61556034D01*
X84898867Y-61630610D01*
X85281133Y-61630610D01*
X85656055Y-61556034D01*
X86009224Y-61409746D01*
X86327067Y-61197370D01*
X86597370Y-60927067D01*
X86809746Y-60609224D01*
X86956034Y-60256055D01*
X87030610Y-59881133D01*
X87030610Y-59498867D01*
X86956034Y-59123945D01*
X86809746Y-58770776D01*
X86597370Y-58452933D01*
X86327067Y-58182630D01*
X86009224Y-57970254D01*
X85682693Y-57835000D01*
X98020402Y-57835000D01*
X97972753Y-57849454D01*
G37*
%TD.AperFunction*%
D22*
X107740722Y-70650716D02*
X107817844Y-70795000D01*
X104654250Y-70795000D01*
X104641250Y-70782000D01*
X103842000Y-70782000D01*
X103842000Y-70795000D01*
X103588000Y-70795000D01*
X103588000Y-70782000D01*
X103568000Y-70782000D01*
X103568000Y-70614990D01*
X107527688Y-70614990D01*
X107565010Y-70618666D01*
X107602332Y-70614990D01*
X107602343Y-70614990D01*
X107713996Y-70603993D01*
X107725491Y-70600506D01*
X107740722Y-70650716D01*
%TA.AperFunction,Conductor*%
D23*
G36*
X107740722Y-70650716D02*
G01*
X107817844Y-70795000D01*
X104654250Y-70795000D01*
X104641250Y-70782000D01*
X103842000Y-70782000D01*
X103842000Y-70795000D01*
X103588000Y-70795000D01*
X103588000Y-70782000D01*
X103568000Y-70782000D01*
X103568000Y-70614990D01*
X107527688Y-70614990D01*
X107565010Y-70618666D01*
X107602332Y-70614990D01*
X107602343Y-70614990D01*
X107713996Y-70603993D01*
X107725491Y-70600506D01*
X107740722Y-70650716D01*
G37*
%TD.AperFunction*%
D22*
X123850498Y-67385820D02*
X123814188Y-67505518D01*
X123801928Y-67630000D01*
X123801928Y-68480000D01*
X123814188Y-68604482D01*
X123850498Y-68724180D01*
X123909463Y-68834494D01*
X123988815Y-68931185D01*
X124085506Y-69010537D01*
X124195820Y-69069502D01*
X124315518Y-69105812D01*
X124440000Y-69118072D01*
X125290000Y-69118072D01*
X125414482Y-69105812D01*
X125534180Y-69069502D01*
X125542917Y-69064832D01*
X125574938Y-69074540D01*
X125738000Y-68947257D01*
X125738000Y-68933799D01*
X125741185Y-68931185D01*
X125820537Y-68834494D01*
X125879502Y-68724180D01*
X125915812Y-68604482D01*
X125928072Y-68480000D01*
X125928072Y-68182000D01*
X125992000Y-68182000D01*
X125992000Y-68947257D01*
X126155062Y-69074540D01*
X126190250Y-69063872D01*
X126380822Y-68981034D01*
X126551571Y-68862609D01*
X126695936Y-68713148D01*
X126808368Y-68538394D01*
X126884547Y-68345064D01*
X126758621Y-68182000D01*
X125992000Y-68182000D01*
X125928072Y-68182000D01*
X125928072Y-67908000D01*
X125992000Y-67908000D01*
X125992000Y-67928000D01*
X126758621Y-67928000D01*
X126884547Y-67764936D01*
X126808368Y-67571606D01*
X126695936Y-67396852D01*
X126641022Y-67340000D01*
X130958201Y-67340000D01*
X129003201Y-69295000D01*
X120199801Y-69295000D01*
X121214147Y-68280655D01*
X121355256Y-68222205D01*
X121524774Y-68108937D01*
X121668937Y-67964774D01*
X121782205Y-67795256D01*
X121860226Y-67606898D01*
X121900000Y-67406939D01*
X121900000Y-67340000D01*
X123874990Y-67340000D01*
X123850498Y-67385820D01*
%TA.AperFunction,Conductor*%
D23*
G36*
X123850498Y-67385820D02*
G01*
X123814188Y-67505518D01*
X123801928Y-67630000D01*
X123801928Y-68480000D01*
X123814188Y-68604482D01*
X123850498Y-68724180D01*
X123909463Y-68834494D01*
X123988815Y-68931185D01*
X124085506Y-69010537D01*
X124195820Y-69069502D01*
X124315518Y-69105812D01*
X124440000Y-69118072D01*
X125290000Y-69118072D01*
X125414482Y-69105812D01*
X125534180Y-69069502D01*
X125542917Y-69064832D01*
X125574938Y-69074540D01*
X125738000Y-68947257D01*
X125738000Y-68933799D01*
X125741185Y-68931185D01*
X125820537Y-68834494D01*
X125879502Y-68724180D01*
X125915812Y-68604482D01*
X125928072Y-68480000D01*
X125928072Y-68182000D01*
X125992000Y-68182000D01*
X125992000Y-68947257D01*
X126155062Y-69074540D01*
X126190250Y-69063872D01*
X126380822Y-68981034D01*
X126551571Y-68862609D01*
X126695936Y-68713148D01*
X126808368Y-68538394D01*
X126884547Y-68345064D01*
X126758621Y-68182000D01*
X125992000Y-68182000D01*
X125928072Y-68182000D01*
X125928072Y-67908000D01*
X125992000Y-67908000D01*
X125992000Y-67928000D01*
X126758621Y-67928000D01*
X126884547Y-67764936D01*
X126808368Y-67571606D01*
X126695936Y-67396852D01*
X126641022Y-67340000D01*
X130958201Y-67340000D01*
X129003201Y-69295000D01*
X120199801Y-69295000D01*
X121214147Y-68280655D01*
X121355256Y-68222205D01*
X121524774Y-68108937D01*
X121668937Y-67964774D01*
X121782205Y-67795256D01*
X121860226Y-67606898D01*
X121900000Y-67406939D01*
X121900000Y-67340000D01*
X123874990Y-67340000D01*
X123850498Y-67385820D01*
G37*
%TD.AperFunction*%
D22*
X101548000Y-64928000D02*
X101568000Y-64928000D01*
X101568000Y-65182000D01*
X101548000Y-65182000D01*
X101548000Y-65202000D01*
X101294000Y-65202000D01*
X101294000Y-65182000D01*
X101274000Y-65182000D01*
X101274000Y-64928000D01*
X101294000Y-64928000D01*
X101294000Y-64908000D01*
X101548000Y-64908000D01*
X101548000Y-64928000D01*
%TA.AperFunction,Conductor*%
D23*
G36*
X101548000Y-64928000D02*
G01*
X101568000Y-64928000D01*
X101568000Y-65182000D01*
X101548000Y-65182000D01*
X101548000Y-65202000D01*
X101294000Y-65202000D01*
X101294000Y-65182000D01*
X101274000Y-65182000D01*
X101274000Y-64928000D01*
X101294000Y-64928000D01*
X101294000Y-64908000D01*
X101548000Y-64908000D01*
X101548000Y-64928000D01*
G37*
%TD.AperFunction*%
D22*
X133440000Y-63066448D02*
X133440000Y-63158199D01*
X133389655Y-63208545D01*
X133356253Y-63175143D01*
X133370395Y-63161000D01*
X133356253Y-63146858D01*
X133440829Y-63062281D01*
X133440000Y-63066448D01*
%TA.AperFunction,Conductor*%
D23*
G36*
X133440000Y-63066448D02*
G01*
X133440000Y-63158199D01*
X133389655Y-63208545D01*
X133356253Y-63175143D01*
X133370395Y-63161000D01*
X133356253Y-63146858D01*
X133440829Y-63062281D01*
X133440000Y-63066448D01*
G37*
%TD.AperFunction*%
D22*
X133445000Y-61741448D02*
X133445000Y-61930552D01*
X133447070Y-61940960D01*
X133356253Y-61850143D01*
X133370395Y-61836000D01*
X133356253Y-61821858D01*
X133447070Y-61731040D01*
X133445000Y-61741448D01*
%TA.AperFunction,Conductor*%
D23*
G36*
X133445000Y-61741448D02*
G01*
X133445000Y-61930552D01*
X133447070Y-61940960D01*
X133356253Y-61850143D01*
X133370395Y-61836000D01*
X133356253Y-61821858D01*
X133447070Y-61731040D01*
X133445000Y-61741448D01*
G37*
%TD.AperFunction*%
D22*
X139698748Y-61821858D02*
X139684605Y-61836000D01*
X139698748Y-61850143D01*
X139614171Y-61934719D01*
X139615000Y-61930552D01*
X139615000Y-61741448D01*
X139614171Y-61737281D01*
X139698748Y-61821858D01*
%TA.AperFunction,Conductor*%
D23*
G36*
X139698748Y-61821858D02*
G01*
X139684605Y-61836000D01*
X139698748Y-61850143D01*
X139614171Y-61934719D01*
X139615000Y-61930552D01*
X139615000Y-61741448D01*
X139614171Y-61737281D01*
X139698748Y-61821858D01*
G37*
%TD.AperFunction*%
D22*
X111992000Y-61628000D02*
X112012000Y-61628000D01*
X112012000Y-61882000D01*
X111992000Y-61882000D01*
X111992000Y-61902000D01*
X111738000Y-61902000D01*
X111738000Y-61882000D01*
X111718000Y-61882000D01*
X111718000Y-61628000D01*
X111738000Y-61628000D01*
X111738000Y-61608000D01*
X111992000Y-61608000D01*
X111992000Y-61628000D01*
%TA.AperFunction,Conductor*%
D23*
G36*
X111992000Y-61628000D02*
G01*
X112012000Y-61628000D01*
X112012000Y-61882000D01*
X111992000Y-61882000D01*
X111992000Y-61902000D01*
X111738000Y-61902000D01*
X111738000Y-61882000D01*
X111718000Y-61882000D01*
X111718000Y-61628000D01*
X111738000Y-61628000D01*
X111738000Y-61608000D01*
X111992000Y-61608000D01*
X111992000Y-61628000D01*
G37*
%TD.AperFunction*%
D22*
X109792000Y-59928000D02*
X109812000Y-59928000D01*
X109812000Y-60182000D01*
X109792000Y-60182000D01*
X109792000Y-60202000D01*
X109538000Y-60202000D01*
X109538000Y-60182000D01*
X109518000Y-60182000D01*
X109518000Y-59928000D01*
X109538000Y-59928000D01*
X109538000Y-59908000D01*
X109792000Y-59908000D01*
X109792000Y-59928000D01*
%TA.AperFunction,Conductor*%
D23*
G36*
X109792000Y-59928000D02*
G01*
X109812000Y-59928000D01*
X109812000Y-60182000D01*
X109792000Y-60182000D01*
X109792000Y-60202000D01*
X109538000Y-60202000D01*
X109538000Y-60182000D01*
X109518000Y-60182000D01*
X109518000Y-59928000D01*
X109538000Y-59928000D01*
X109538000Y-59908000D01*
X109792000Y-59908000D01*
X109792000Y-59928000D01*
G37*
%TD.AperFunction*%
%TD*%
M02*
