M48
; DRILL file {KiCad (5.1.7)-1} date 12/03/20 18:43:06
; FORMAT={-:-/ absolute / inch / decimal}
; #@! TF.CreationDate,2020-12-03T18:43:06-08:00
; #@! TF.GenerationSoftware,Kicad,Pcbnew,(5.1.7)-1
; #@! TF.FileFunction,Plated,1,2,PTH
FMAT,2
INCH
T1C0.0157
T2C0.0197
T3C0.0236
T4C0.0591
%
G90
G05
T1
X3.7742Y-2.6301
X3.7772Y-3.4687
X3.8754Y-2.7608
X3.9624Y-2.7886
X4.0215Y-2.7359
X4.0301Y-2.3447
X4.2465Y-2.4933
X4.2466Y-2.4146
X4.2467Y-2.4539
X4.2471Y-2.5327
X4.2801Y-2.7581
X4.3057Y-3.073
X4.4626Y-3.4722
X4.5246Y-3.4722
X4.5813Y-2.6793
X4.66Y-2.6685
X4.66Y-2.6685
X4.6994Y-2.6498
X4.7585Y-2.6498
X5.2117Y-3.4707
X5.2737Y-3.4707
X5.75Y-2.445
X5.7525Y-2.565
X5.9676Y-3.4628
X6.0296Y-3.4628
X6.7156Y-3.4707
X6.7777Y-3.4707
X5.2579Y-2.4345
X5.2579Y-2.4867
X5.2913Y-2.4867
X5.2915Y-2.4345
X5.3248Y-2.4867
X5.325Y-2.4345
X5.3583Y-2.4867
X5.3585Y-2.4345
X5.3917Y-2.4867
X5.3919Y-2.4345
X5.4252Y-2.4867
X5.4254Y-2.4345
X5.4587Y-2.4867
X5.4589Y-2.4345
X5.4921Y-2.4867
X5.4923Y-2.4345
T2
X4.6207Y-2.5415
X4.6207Y-2.5809
X4.66Y-2.5415
X4.66Y-2.5809
X4.6994Y-2.5415
X4.6994Y-2.5809
X4.9159Y-2.6793
X4.9553Y-2.6793
T4
X3.7775Y-2.925
X4.0275Y-3.025
X4.525Y-2.925
X4.775Y-3.025
X6.775Y-2.925
X7.025Y-3.025
X6.025Y-2.925
X6.275Y-3.025
X5.275Y-2.925
X5.525Y-3.025
T3
G00X5.2047Y-2.2993
M15
G01X5.2047Y-2.3307
M16
G05
G00X5.2047Y-2.4185
M15
G01X5.2047Y-2.4776
M16
G05
G00X5.5453Y-2.2993
M15
G01X5.5453Y-2.3307
M16
G05
G00X5.5453Y-2.4185
M15
G01X5.5453Y-2.4776
M16
G05
T0
M30
