%TF.GenerationSoftware,KiCad,Pcbnew,(5.1.7)-1*%
%TF.CreationDate,2021-01-12T02:41:31-08:00*%
%TF.ProjectId,pain5,7061696e-352e-46b6-9963-61645f706362,rev?*%
%TF.SameCoordinates,Original*%
%TF.FileFunction,Paste,Top*%
%TF.FilePolarity,Positive*%
%FSLAX46Y46*%
G04 Gerber Fmt 4.6, Leading zero omitted, Abs format (unit mm)*
G04 Created by KiCad (PCBNEW (5.1.7)-1) date 2021-01-12 02:41:31*
%MOMM*%
%LPD*%
G01*
G04 APERTURE LIST*
%ADD10R,5.080000X5.080000*%
%ADD11R,0.300000X1.000000*%
%ADD12R,1.000000X0.300000*%
%ADD13R,1.200000X1.400000*%
G04 APERTURE END LIST*
%TO.C,C1*%
G36*
G01*
X130550000Y-76270000D02*
X130550000Y-76770000D01*
G75*
G02*
X130325000Y-76995000I-225000J0D01*
G01*
X129875000Y-76995000D01*
G75*
G02*
X129650000Y-76770000I0J225000D01*
G01*
X129650000Y-76270000D01*
G75*
G02*
X129875000Y-76045000I225000J0D01*
G01*
X130325000Y-76045000D01*
G75*
G02*
X130550000Y-76270000I0J-225000D01*
G01*
G37*
G36*
G01*
X129000000Y-76270000D02*
X129000000Y-76770000D01*
G75*
G02*
X128775000Y-76995000I-225000J0D01*
G01*
X128325000Y-76995000D01*
G75*
G02*
X128100000Y-76770000I0J225000D01*
G01*
X128100000Y-76270000D01*
G75*
G02*
X128325000Y-76045000I225000J0D01*
G01*
X128775000Y-76045000D01*
G75*
G02*
X129000000Y-76270000I0J-225000D01*
G01*
G37*
%TD*%
%TO.C,C2*%
G36*
G01*
X130600000Y-69412000D02*
X130600000Y-69912000D01*
G75*
G02*
X130375000Y-70137000I-225000J0D01*
G01*
X129925000Y-70137000D01*
G75*
G02*
X129700000Y-69912000I0J225000D01*
G01*
X129700000Y-69412000D01*
G75*
G02*
X129925000Y-69187000I225000J0D01*
G01*
X130375000Y-69187000D01*
G75*
G02*
X130600000Y-69412000I0J-225000D01*
G01*
G37*
G36*
G01*
X129050000Y-69412000D02*
X129050000Y-69912000D01*
G75*
G02*
X128825000Y-70137000I-225000J0D01*
G01*
X128375000Y-70137000D01*
G75*
G02*
X128150000Y-69912000I0J225000D01*
G01*
X128150000Y-69412000D01*
G75*
G02*
X128375000Y-69187000I225000J0D01*
G01*
X128825000Y-69187000D01*
G75*
G02*
X129050000Y-69412000I0J-225000D01*
G01*
G37*
%TD*%
%TO.C,C3*%
G36*
G01*
X133350000Y-76500000D02*
X133350000Y-77000000D01*
G75*
G02*
X133125000Y-77225000I-225000J0D01*
G01*
X132675000Y-77225000D01*
G75*
G02*
X132450000Y-77000000I0J225000D01*
G01*
X132450000Y-76500000D01*
G75*
G02*
X132675000Y-76275000I225000J0D01*
G01*
X133125000Y-76275000D01*
G75*
G02*
X133350000Y-76500000I0J-225000D01*
G01*
G37*
G36*
G01*
X134900000Y-76500000D02*
X134900000Y-77000000D01*
G75*
G02*
X134675000Y-77225000I-225000J0D01*
G01*
X134225000Y-77225000D01*
G75*
G02*
X134000000Y-77000000I0J225000D01*
G01*
X134000000Y-76500000D01*
G75*
G02*
X134225000Y-76275000I225000J0D01*
G01*
X134675000Y-76275000D01*
G75*
G02*
X134900000Y-76500000I0J-225000D01*
G01*
G37*
%TD*%
%TO.C,C4*%
G36*
G01*
X138050000Y-78900000D02*
X138050000Y-79400000D01*
G75*
G02*
X137825000Y-79625000I-225000J0D01*
G01*
X137375000Y-79625000D01*
G75*
G02*
X137150000Y-79400000I0J225000D01*
G01*
X137150000Y-78900000D01*
G75*
G02*
X137375000Y-78675000I225000J0D01*
G01*
X137825000Y-78675000D01*
G75*
G02*
X138050000Y-78900000I0J-225000D01*
G01*
G37*
G36*
G01*
X136500000Y-78900000D02*
X136500000Y-79400000D01*
G75*
G02*
X136275000Y-79625000I-225000J0D01*
G01*
X135825000Y-79625000D01*
G75*
G02*
X135600000Y-79400000I0J225000D01*
G01*
X135600000Y-78900000D01*
G75*
G02*
X135825000Y-78675000I225000J0D01*
G01*
X136275000Y-78675000D01*
G75*
G02*
X136500000Y-78900000I0J-225000D01*
G01*
G37*
%TD*%
%TO.C,C5*%
G36*
G01*
X145750000Y-73050000D02*
X146250000Y-73050000D01*
G75*
G02*
X146475000Y-73275000I0J-225000D01*
G01*
X146475000Y-73725000D01*
G75*
G02*
X146250000Y-73950000I-225000J0D01*
G01*
X145750000Y-73950000D01*
G75*
G02*
X145525000Y-73725000I0J225000D01*
G01*
X145525000Y-73275000D01*
G75*
G02*
X145750000Y-73050000I225000J0D01*
G01*
G37*
G36*
G01*
X145750000Y-71500000D02*
X146250000Y-71500000D01*
G75*
G02*
X146475000Y-71725000I0J-225000D01*
G01*
X146475000Y-72175000D01*
G75*
G02*
X146250000Y-72400000I-225000J0D01*
G01*
X145750000Y-72400000D01*
G75*
G02*
X145525000Y-72175000I0J225000D01*
G01*
X145525000Y-71725000D01*
G75*
G02*
X145750000Y-71500000I225000J0D01*
G01*
G37*
%TD*%
%TO.C,C6*%
G36*
G01*
X146250000Y-77025000D02*
X145750000Y-77025000D01*
G75*
G02*
X145525000Y-76800000I0J225000D01*
G01*
X145525000Y-76350000D01*
G75*
G02*
X145750000Y-76125000I225000J0D01*
G01*
X146250000Y-76125000D01*
G75*
G02*
X146475000Y-76350000I0J-225000D01*
G01*
X146475000Y-76800000D01*
G75*
G02*
X146250000Y-77025000I-225000J0D01*
G01*
G37*
G36*
G01*
X146250000Y-75475000D02*
X145750000Y-75475000D01*
G75*
G02*
X145525000Y-75250000I0J225000D01*
G01*
X145525000Y-74800000D01*
G75*
G02*
X145750000Y-74575000I225000J0D01*
G01*
X146250000Y-74575000D01*
G75*
G02*
X146475000Y-74800000I0J-225000D01*
G01*
X146475000Y-75250000D01*
G75*
G02*
X146250000Y-75475000I-225000J0D01*
G01*
G37*
%TD*%
%TO.C,C7*%
G36*
G01*
X147525000Y-66100000D02*
X147525000Y-66600000D01*
G75*
G02*
X147300000Y-66825000I-225000J0D01*
G01*
X146850000Y-66825000D01*
G75*
G02*
X146625000Y-66600000I0J225000D01*
G01*
X146625000Y-66100000D01*
G75*
G02*
X146850000Y-65875000I225000J0D01*
G01*
X147300000Y-65875000D01*
G75*
G02*
X147525000Y-66100000I0J-225000D01*
G01*
G37*
G36*
G01*
X149075000Y-66100000D02*
X149075000Y-66600000D01*
G75*
G02*
X148850000Y-66825000I-225000J0D01*
G01*
X148400000Y-66825000D01*
G75*
G02*
X148175000Y-66600000I0J225000D01*
G01*
X148175000Y-66100000D01*
G75*
G02*
X148400000Y-65875000I225000J0D01*
G01*
X148850000Y-65875000D01*
G75*
G02*
X149075000Y-66100000I0J-225000D01*
G01*
G37*
%TD*%
%TO.C,C8*%
G36*
G01*
X163300000Y-71400000D02*
X163300000Y-71900000D01*
G75*
G02*
X163075000Y-72125000I-225000J0D01*
G01*
X162625000Y-72125000D01*
G75*
G02*
X162400000Y-71900000I0J225000D01*
G01*
X162400000Y-71400000D01*
G75*
G02*
X162625000Y-71175000I225000J0D01*
G01*
X163075000Y-71175000D01*
G75*
G02*
X163300000Y-71400000I0J-225000D01*
G01*
G37*
G36*
G01*
X161750000Y-71400000D02*
X161750000Y-71900000D01*
G75*
G02*
X161525000Y-72125000I-225000J0D01*
G01*
X161075000Y-72125000D01*
G75*
G02*
X160850000Y-71900000I0J225000D01*
G01*
X160850000Y-71400000D01*
G75*
G02*
X161075000Y-71175000I225000J0D01*
G01*
X161525000Y-71175000D01*
G75*
G02*
X161750000Y-71400000I0J-225000D01*
G01*
G37*
%TD*%
%TO.C,C9*%
G36*
G01*
X145175000Y-68150000D02*
X145175000Y-67650000D01*
G75*
G02*
X145400000Y-67425000I225000J0D01*
G01*
X145850000Y-67425000D01*
G75*
G02*
X146075000Y-67650000I0J-225000D01*
G01*
X146075000Y-68150000D01*
G75*
G02*
X145850000Y-68375000I-225000J0D01*
G01*
X145400000Y-68375000D01*
G75*
G02*
X145175000Y-68150000I0J225000D01*
G01*
G37*
G36*
G01*
X143625000Y-68150000D02*
X143625000Y-67650000D01*
G75*
G02*
X143850000Y-67425000I225000J0D01*
G01*
X144300000Y-67425000D01*
G75*
G02*
X144525000Y-67650000I0J-225000D01*
G01*
X144525000Y-68150000D01*
G75*
G02*
X144300000Y-68375000I-225000J0D01*
G01*
X143850000Y-68375000D01*
G75*
G02*
X143625000Y-68150000I0J225000D01*
G01*
G37*
%TD*%
%TO.C,D1*%
G36*
G01*
X126225000Y-81343750D02*
X126225000Y-81856250D01*
G75*
G02*
X126006250Y-82075000I-218750J0D01*
G01*
X125568750Y-82075000D01*
G75*
G02*
X125350000Y-81856250I0J218750D01*
G01*
X125350000Y-81343750D01*
G75*
G02*
X125568750Y-81125000I218750J0D01*
G01*
X126006250Y-81125000D01*
G75*
G02*
X126225000Y-81343750I0J-218750D01*
G01*
G37*
G36*
G01*
X124650000Y-81343750D02*
X124650000Y-81856250D01*
G75*
G02*
X124431250Y-82075000I-218750J0D01*
G01*
X123993750Y-82075000D01*
G75*
G02*
X123775000Y-81856250I0J218750D01*
G01*
X123775000Y-81343750D01*
G75*
G02*
X123993750Y-81125000I218750J0D01*
G01*
X124431250Y-81125000D01*
G75*
G02*
X124650000Y-81343750I0J-218750D01*
G01*
G37*
%TD*%
%TO.C,D2*%
G36*
G01*
X141287500Y-81656250D02*
X141287500Y-81143750D01*
G75*
G02*
X141506250Y-80925000I218750J0D01*
G01*
X141943750Y-80925000D01*
G75*
G02*
X142162500Y-81143750I0J-218750D01*
G01*
X142162500Y-81656250D01*
G75*
G02*
X141943750Y-81875000I-218750J0D01*
G01*
X141506250Y-81875000D01*
G75*
G02*
X141287500Y-81656250I0J218750D01*
G01*
G37*
G36*
G01*
X142862500Y-81656250D02*
X142862500Y-81143750D01*
G75*
G02*
X143081250Y-80925000I218750J0D01*
G01*
X143518750Y-80925000D01*
G75*
G02*
X143737500Y-81143750I0J-218750D01*
G01*
X143737500Y-81656250D01*
G75*
G02*
X143518750Y-81875000I-218750J0D01*
G01*
X143081250Y-81875000D01*
G75*
G02*
X142862500Y-81656250I0J218750D01*
G01*
G37*
%TD*%
%TO.C,D3*%
G36*
G01*
X162950000Y-81143750D02*
X162950000Y-81656250D01*
G75*
G02*
X162731250Y-81875000I-218750J0D01*
G01*
X162293750Y-81875000D01*
G75*
G02*
X162075000Y-81656250I0J218750D01*
G01*
X162075000Y-81143750D01*
G75*
G02*
X162293750Y-80925000I218750J0D01*
G01*
X162731250Y-80925000D01*
G75*
G02*
X162950000Y-81143750I0J-218750D01*
G01*
G37*
G36*
G01*
X164525000Y-81143750D02*
X164525000Y-81656250D01*
G75*
G02*
X164306250Y-81875000I-218750J0D01*
G01*
X163868750Y-81875000D01*
G75*
G02*
X163650000Y-81656250I0J218750D01*
G01*
X163650000Y-81143750D01*
G75*
G02*
X163868750Y-80925000I218750J0D01*
G01*
X164306250Y-80925000D01*
G75*
G02*
X164525000Y-81143750I0J-218750D01*
G01*
G37*
%TD*%
%TO.C,D4*%
G36*
G01*
X183625000Y-81143750D02*
X183625000Y-81656250D01*
G75*
G02*
X183406250Y-81875000I-218750J0D01*
G01*
X182968750Y-81875000D01*
G75*
G02*
X182750000Y-81656250I0J218750D01*
G01*
X182750000Y-81143750D01*
G75*
G02*
X182968750Y-80925000I218750J0D01*
G01*
X183406250Y-80925000D01*
G75*
G02*
X183625000Y-81143750I0J-218750D01*
G01*
G37*
G36*
G01*
X182050000Y-81143750D02*
X182050000Y-81656250D01*
G75*
G02*
X181831250Y-81875000I-218750J0D01*
G01*
X181393750Y-81875000D01*
G75*
G02*
X181175000Y-81656250I0J218750D01*
G01*
X181175000Y-81143750D01*
G75*
G02*
X181393750Y-80925000I218750J0D01*
G01*
X181831250Y-80925000D01*
G75*
G02*
X182050000Y-81143750I0J-218750D01*
G01*
G37*
%TD*%
%TO.C,D5*%
G36*
G01*
X201150000Y-81143750D02*
X201150000Y-81656250D01*
G75*
G02*
X200931250Y-81875000I-218750J0D01*
G01*
X200493750Y-81875000D01*
G75*
G02*
X200275000Y-81656250I0J218750D01*
G01*
X200275000Y-81143750D01*
G75*
G02*
X200493750Y-80925000I218750J0D01*
G01*
X200931250Y-80925000D01*
G75*
G02*
X201150000Y-81143750I0J-218750D01*
G01*
G37*
G36*
G01*
X202725000Y-81143750D02*
X202725000Y-81656250D01*
G75*
G02*
X202506250Y-81875000I-218750J0D01*
G01*
X202068750Y-81875000D01*
G75*
G02*
X201850000Y-81656250I0J218750D01*
G01*
X201850000Y-81143750D01*
G75*
G02*
X202068750Y-80925000I218750J0D01*
G01*
X202506250Y-80925000D01*
G75*
G02*
X202725000Y-81143750I0J-218750D01*
G01*
G37*
%TD*%
%TO.C,D6*%
G36*
G01*
X177456250Y-70037500D02*
X176943750Y-70037500D01*
G75*
G02*
X176725000Y-69818750I0J218750D01*
G01*
X176725000Y-69381250D01*
G75*
G02*
X176943750Y-69162500I218750J0D01*
G01*
X177456250Y-69162500D01*
G75*
G02*
X177675000Y-69381250I0J-218750D01*
G01*
X177675000Y-69818750D01*
G75*
G02*
X177456250Y-70037500I-218750J0D01*
G01*
G37*
G36*
G01*
X177456250Y-68462500D02*
X176943750Y-68462500D01*
G75*
G02*
X176725000Y-68243750I0J218750D01*
G01*
X176725000Y-67806250D01*
G75*
G02*
X176943750Y-67587500I218750J0D01*
G01*
X177456250Y-67587500D01*
G75*
G02*
X177675000Y-67806250I0J-218750D01*
G01*
X177675000Y-68243750D01*
G75*
G02*
X177456250Y-68462500I-218750J0D01*
G01*
G37*
%TD*%
%TO.C,R1*%
G36*
G01*
X151175000Y-71175000D02*
X151175000Y-70625000D01*
G75*
G02*
X151375000Y-70425000I200000J0D01*
G01*
X151775000Y-70425000D01*
G75*
G02*
X151975000Y-70625000I0J-200000D01*
G01*
X151975000Y-71175000D01*
G75*
G02*
X151775000Y-71375000I-200000J0D01*
G01*
X151375000Y-71375000D01*
G75*
G02*
X151175000Y-71175000I0J200000D01*
G01*
G37*
G36*
G01*
X152825000Y-71175000D02*
X152825000Y-70625000D01*
G75*
G02*
X153025000Y-70425000I200000J0D01*
G01*
X153425000Y-70425000D01*
G75*
G02*
X153625000Y-70625000I0J-200000D01*
G01*
X153625000Y-71175000D01*
G75*
G02*
X153425000Y-71375000I-200000J0D01*
G01*
X153025000Y-71375000D01*
G75*
G02*
X152825000Y-71175000I0J200000D01*
G01*
G37*
%TD*%
%TO.C,R2*%
G36*
G01*
X151200000Y-69275000D02*
X151200000Y-68725000D01*
G75*
G02*
X151400000Y-68525000I200000J0D01*
G01*
X151800000Y-68525000D01*
G75*
G02*
X152000000Y-68725000I0J-200000D01*
G01*
X152000000Y-69275000D01*
G75*
G02*
X151800000Y-69475000I-200000J0D01*
G01*
X151400000Y-69475000D01*
G75*
G02*
X151200000Y-69275000I0J200000D01*
G01*
G37*
G36*
G01*
X152850000Y-69275000D02*
X152850000Y-68725000D01*
G75*
G02*
X153050000Y-68525000I200000J0D01*
G01*
X153450000Y-68525000D01*
G75*
G02*
X153650000Y-68725000I0J-200000D01*
G01*
X153650000Y-69275000D01*
G75*
G02*
X153450000Y-69475000I-200000J0D01*
G01*
X153050000Y-69475000D01*
G75*
G02*
X152850000Y-69275000I0J200000D01*
G01*
G37*
%TD*%
%TO.C,R3*%
G36*
G01*
X172500000Y-74725000D02*
X172500000Y-74175000D01*
G75*
G02*
X172700000Y-73975000I200000J0D01*
G01*
X173100000Y-73975000D01*
G75*
G02*
X173300000Y-74175000I0J-200000D01*
G01*
X173300000Y-74725000D01*
G75*
G02*
X173100000Y-74925000I-200000J0D01*
G01*
X172700000Y-74925000D01*
G75*
G02*
X172500000Y-74725000I0J200000D01*
G01*
G37*
G36*
G01*
X170850000Y-74725000D02*
X170850000Y-74175000D01*
G75*
G02*
X171050000Y-73975000I200000J0D01*
G01*
X171450000Y-73975000D01*
G75*
G02*
X171650000Y-74175000I0J-200000D01*
G01*
X171650000Y-74725000D01*
G75*
G02*
X171450000Y-74925000I-200000J0D01*
G01*
X171050000Y-74925000D01*
G75*
G02*
X170850000Y-74725000I0J200000D01*
G01*
G37*
%TD*%
%TO.C,R4*%
G36*
G01*
X170850000Y-72025000D02*
X170850000Y-71475000D01*
G75*
G02*
X171050000Y-71275000I200000J0D01*
G01*
X171450000Y-71275000D01*
G75*
G02*
X171650000Y-71475000I0J-200000D01*
G01*
X171650000Y-72025000D01*
G75*
G02*
X171450000Y-72225000I-200000J0D01*
G01*
X171050000Y-72225000D01*
G75*
G02*
X170850000Y-72025000I0J200000D01*
G01*
G37*
G36*
G01*
X172500000Y-72025000D02*
X172500000Y-71475000D01*
G75*
G02*
X172700000Y-71275000I200000J0D01*
G01*
X173100000Y-71275000D01*
G75*
G02*
X173300000Y-71475000I0J-200000D01*
G01*
X173300000Y-72025000D01*
G75*
G02*
X173100000Y-72225000I-200000J0D01*
G01*
X172700000Y-72225000D01*
G75*
G02*
X172500000Y-72025000I0J200000D01*
G01*
G37*
%TD*%
%TO.C,R5*%
G36*
G01*
X136825000Y-68475000D02*
X136275000Y-68475000D01*
G75*
G02*
X136075000Y-68275000I0J200000D01*
G01*
X136075000Y-67875000D01*
G75*
G02*
X136275000Y-67675000I200000J0D01*
G01*
X136825000Y-67675000D01*
G75*
G02*
X137025000Y-67875000I0J-200000D01*
G01*
X137025000Y-68275000D01*
G75*
G02*
X136825000Y-68475000I-200000J0D01*
G01*
G37*
G36*
G01*
X136825000Y-70125000D02*
X136275000Y-70125000D01*
G75*
G02*
X136075000Y-69925000I0J200000D01*
G01*
X136075000Y-69525000D01*
G75*
G02*
X136275000Y-69325000I200000J0D01*
G01*
X136825000Y-69325000D01*
G75*
G02*
X137025000Y-69525000I0J-200000D01*
G01*
X137025000Y-69925000D01*
G75*
G02*
X136825000Y-70125000I-200000J0D01*
G01*
G37*
%TD*%
D10*
%TO.C,U1*%
X140750000Y-74050000D03*
D11*
X143250000Y-70700000D03*
X142750000Y-70700000D03*
X142250000Y-70700000D03*
X141750000Y-70700000D03*
X141250000Y-70700000D03*
X140750000Y-70700000D03*
X140250000Y-70700000D03*
X139750000Y-70700000D03*
X139250000Y-70700000D03*
X138750000Y-70700000D03*
X138250000Y-70700000D03*
D12*
X137400000Y-71550000D03*
X137400000Y-72050000D03*
X137400000Y-72550000D03*
X137400000Y-73050000D03*
X137400000Y-73550000D03*
X137400000Y-74050000D03*
X137400000Y-74550000D03*
X137400000Y-75050000D03*
X137400000Y-75550000D03*
X137400000Y-76050000D03*
X137400000Y-76550000D03*
D11*
X138250000Y-77400000D03*
X138750000Y-77400000D03*
X139250000Y-77400000D03*
X139750000Y-77400000D03*
X140250000Y-77400000D03*
X140750000Y-77400000D03*
X141250000Y-77400000D03*
X141750000Y-77400000D03*
X142250000Y-77400000D03*
X142750000Y-77400000D03*
X143250000Y-77400000D03*
D12*
X144100000Y-76550000D03*
X144100000Y-76050000D03*
X144100000Y-75550000D03*
X144100000Y-75050000D03*
X144100000Y-74550000D03*
X144100000Y-74050000D03*
X144100000Y-73550000D03*
X144100000Y-73050000D03*
X144100000Y-72550000D03*
X144100000Y-72050000D03*
X144100000Y-71550000D03*
%TD*%
D13*
%TO.C,Y1*%
X130150000Y-74175000D03*
X130150000Y-71975000D03*
X128450000Y-71975000D03*
X128450000Y-74175000D03*
%TD*%
%TO.C,R6*%
G36*
G01*
X174200000Y-66675000D02*
X174200000Y-66125000D01*
G75*
G02*
X174400000Y-65925000I200000J0D01*
G01*
X174800000Y-65925000D01*
G75*
G02*
X175000000Y-66125000I0J-200000D01*
G01*
X175000000Y-66675000D01*
G75*
G02*
X174800000Y-66875000I-200000J0D01*
G01*
X174400000Y-66875000D01*
G75*
G02*
X174200000Y-66675000I0J200000D01*
G01*
G37*
G36*
G01*
X172550000Y-66675000D02*
X172550000Y-66125000D01*
G75*
G02*
X172750000Y-65925000I200000J0D01*
G01*
X173150000Y-65925000D01*
G75*
G02*
X173350000Y-66125000I0J-200000D01*
G01*
X173350000Y-66675000D01*
G75*
G02*
X173150000Y-66875000I-200000J0D01*
G01*
X172750000Y-66875000D01*
G75*
G02*
X172550000Y-66675000I0J200000D01*
G01*
G37*
%TD*%
%TO.C,R7*%
G36*
G01*
X179350000Y-66675000D02*
X179350000Y-66125000D01*
G75*
G02*
X179550000Y-65925000I200000J0D01*
G01*
X179950000Y-65925000D01*
G75*
G02*
X180150000Y-66125000I0J-200000D01*
G01*
X180150000Y-66675000D01*
G75*
G02*
X179950000Y-66875000I-200000J0D01*
G01*
X179550000Y-66875000D01*
G75*
G02*
X179350000Y-66675000I0J200000D01*
G01*
G37*
G36*
G01*
X181000000Y-66675000D02*
X181000000Y-66125000D01*
G75*
G02*
X181200000Y-65925000I200000J0D01*
G01*
X181600000Y-65925000D01*
G75*
G02*
X181800000Y-66125000I0J-200000D01*
G01*
X181800000Y-66675000D01*
G75*
G02*
X181600000Y-66875000I-200000J0D01*
G01*
X181200000Y-66875000D01*
G75*
G02*
X181000000Y-66675000I0J200000D01*
G01*
G37*
%TD*%
M02*
