%TF.GenerationSoftware,KiCad,Pcbnew,(5.1.7)-1*%
%TF.CreationDate,2021-01-12T02:41:31-08:00*%
%TF.ProjectId,pain5,7061696e-352e-46b6-9963-61645f706362,rev?*%
%TF.SameCoordinates,Original*%
%TF.FileFunction,Copper,L2,Bot*%
%TF.FilePolarity,Positive*%
%FSLAX46Y46*%
G04 Gerber Fmt 4.6, Leading zero omitted, Abs format (unit mm)*
G04 Created by KiCad (PCBNEW (5.1.7)-1) date 2021-01-12 02:41:31*
%MOMM*%
%LPD*%
G01*
G04 APERTURE LIST*
%TA.AperFunction,ComponentPad*%
%ADD10O,0.900000X1.700000*%
%TD*%
%TA.AperFunction,ComponentPad*%
%ADD11O,0.900000X2.400000*%
%TD*%
%TA.AperFunction,ComponentPad*%
%ADD12C,0.650000*%
%TD*%
%TA.AperFunction,ComponentPad*%
%ADD13O,0.850000X0.850000*%
%TD*%
%TA.AperFunction,ComponentPad*%
%ADD14R,0.850000X0.850000*%
%TD*%
%TA.AperFunction,ComponentPad*%
%ADD15C,2.500000*%
%TD*%
%TA.AperFunction,ViaPad*%
%ADD16C,0.800000*%
%TD*%
%TA.AperFunction,Conductor*%
%ADD17C,0.250000*%
%TD*%
%TA.AperFunction,Conductor*%
%ADD18C,0.254000*%
%TD*%
%TA.AperFunction,Conductor*%
%ADD19C,0.100000*%
%TD*%
G04 APERTURE END LIST*
D10*
%TO.P,J1,S1*%
%TO.N,GND*%
X169325000Y-64740000D03*
X160675000Y-64740000D03*
D11*
X169325000Y-68120000D03*
X160675000Y-68120000D03*
D12*
%TO.P,J1,B1*%
X167980000Y-67775000D03*
%TO.P,J1,B4*%
%TO.N,VCC*%
X167130000Y-67775000D03*
%TO.P,J1,B5*%
%TO.N,Net-(J1-PadB5)*%
X166280000Y-67775000D03*
%TO.P,J1,B6*%
%TO.N,Net-(J1-PadA6)*%
X165430000Y-67775000D03*
%TO.P,J1,B7*%
%TO.N,Net-(J1-PadA7)*%
X164580000Y-67775000D03*
%TO.P,J1,B8*%
%TO.N,Net-(J1-PadB8)*%
X163730000Y-67775000D03*
%TO.P,J1,B9*%
%TO.N,VCC*%
X162880000Y-67775000D03*
%TO.P,J1,B12*%
%TO.N,GND*%
X162025000Y-67775000D03*
%TO.P,J1,A12*%
X167975000Y-69100000D03*
%TO.P,J1,A9*%
%TO.N,VCC*%
X167125000Y-69100000D03*
%TO.P,J1,A8*%
%TO.N,Net-(J1-PadA8)*%
X166275000Y-69100000D03*
%TO.P,J1,A7*%
%TO.N,Net-(J1-PadA7)*%
X165425000Y-69100000D03*
%TO.P,J1,A6*%
%TO.N,Net-(J1-PadA6)*%
X164575000Y-69100000D03*
%TO.P,J1,A4*%
%TO.N,VCC*%
X162875000Y-69100000D03*
%TO.P,J1,A1*%
%TO.N,GND*%
X162025000Y-69100000D03*
%TO.P,J1,A5*%
%TO.N,Net-(J1-PadA5)*%
X163725000Y-69100000D03*
%TD*%
D13*
%TO.P,J2,6*%
%TO.N,GND*%
X142350000Y-66150000D03*
%TO.P,J2,5*%
%TO.N,/RST*%
X141350000Y-66150000D03*
%TO.P,J2,4*%
%TO.N,/MOSI*%
X140350000Y-66150000D03*
%TO.P,J2,3*%
%TO.N,/SCK*%
X139350000Y-66150000D03*
%TO.P,J2,2*%
%TO.N,VCC*%
X138350000Y-66150000D03*
D14*
%TO.P,J2,1*%
%TO.N,/MISO*%
X137350000Y-66150000D03*
%TD*%
%TO.P,J3,1*%
%TO.N,/RST*%
X133500000Y-70200000D03*
D13*
%TO.P,J3,2*%
%TO.N,GND*%
X133500000Y-69200000D03*
%TD*%
D15*
%TO.P,K1,1*%
%TO.N,/KVCC*%
X130550000Y-87685000D03*
%TO.P,K1,2*%
%TO.N,Net-(D1-Pad2)*%
X124200000Y-85145000D03*
%TD*%
%TO.P,K2,2*%
%TO.N,Net-(D2-Pad2)*%
X143350000Y-85145000D03*
%TO.P,K2,1*%
%TO.N,/KVCC*%
X149700000Y-87685000D03*
%TD*%
%TO.P,K3,1*%
%TO.N,/KVCC*%
X168825000Y-87685000D03*
%TO.P,K3,2*%
%TO.N,Net-(D3-Pad2)*%
X162475000Y-85145000D03*
%TD*%
%TO.P,K4,2*%
%TO.N,Net-(D4-Pad2)*%
X181625000Y-85145000D03*
%TO.P,K4,1*%
%TO.N,/KVCC*%
X187975000Y-87685000D03*
%TD*%
%TO.P,K5,1*%
%TO.N,/KVCC*%
X207115000Y-87680000D03*
%TO.P,K5,2*%
%TO.N,Net-(D5-Pad2)*%
X200765000Y-85140000D03*
%TD*%
D16*
%TO.N,GND*%
X147075000Y-66325000D03*
X130159000Y-71932800D03*
X141219985Y-68855319D03*
X135350000Y-72825000D03*
%TO.N,VCC*%
X135350000Y-71750000D03*
X136550000Y-69725000D03*
X137600000Y-79150000D03*
X146000000Y-76575000D03*
X146000000Y-71950000D03*
X162850000Y-71650000D03*
X134450000Y-76750000D03*
%TO.N,Net-(J1-PadB5)*%
X171250000Y-71750000D03*
%TO.N,Net-(J1-PadA5)*%
X171250000Y-74450000D03*
%TO.N,/MOSI*%
X138075153Y-69499847D03*
%TD*%
D17*
%TO.N,GND*%
X133500000Y-69200000D02*
X133500000Y-68190000D01*
%TO.N,VCC*%
X135550000Y-77100000D02*
X137600000Y-79150000D01*
X143425000Y-79150000D02*
X146000000Y-76575000D01*
X137600000Y-79150000D02*
X143425000Y-79150000D01*
X146000000Y-76575000D02*
X146000000Y-71950000D01*
X161475000Y-76575000D02*
X146000000Y-76575000D01*
X162870000Y-71630000D02*
X162850000Y-71650000D01*
X162850000Y-75200000D02*
X161475000Y-76575000D01*
X162850000Y-71650000D02*
X162850000Y-75200000D01*
X138350000Y-65540000D02*
X138350000Y-66150000D01*
X136664999Y-65399999D02*
X138209999Y-65399999D01*
X136550000Y-65514998D02*
X136664999Y-65399999D01*
X138209999Y-65399999D02*
X138350000Y-65540000D01*
X136550000Y-69725000D02*
X136550000Y-65514998D01*
X134800000Y-77100000D02*
X134450000Y-76750000D01*
X135550000Y-77100000D02*
X134800000Y-77100000D01*
X165034619Y-71650000D02*
X162850000Y-71650000D01*
X136550000Y-69725000D02*
X136550000Y-70550000D01*
X134450000Y-76750000D02*
X134450000Y-72650000D01*
X134450000Y-72650000D02*
X135350000Y-71750000D01*
X135350000Y-71750000D02*
X136550000Y-70550000D01*
X167125000Y-69559619D02*
X167125000Y-69100000D01*
X165034619Y-71650000D02*
X167125000Y-69559619D01*
%TO.N,Net-(J1-PadB5)*%
X171250000Y-68198971D02*
X169646019Y-66594990D01*
X171250000Y-71750000D02*
X171250000Y-68198971D01*
X166280000Y-67662998D02*
X166280000Y-67775000D01*
X167348008Y-66594990D02*
X166280000Y-67662998D01*
X169646019Y-66594990D02*
X167348008Y-66594990D01*
%TO.N,Net-(J1-PadA6)*%
X165420000Y-67887002D02*
X165420000Y-67775000D01*
%TO.N,Net-(J1-PadA7)*%
X165425000Y-68987998D02*
X165425000Y-69100000D01*
X164580000Y-68142998D02*
X165425000Y-68987998D01*
X164580000Y-67775000D02*
X164580000Y-68142998D01*
%TO.N,/MOSI*%
X140350000Y-67225000D02*
X140350000Y-66150000D01*
X138075153Y-69499847D02*
X140350000Y-67225000D01*
%TD*%
D18*
%TO.N,GND*%
X159721191Y-63807455D02*
X159635624Y-64003767D01*
X159590000Y-64213000D01*
X159590000Y-64613000D01*
X160548000Y-64613000D01*
X160548000Y-64593000D01*
X160802000Y-64593000D01*
X160802000Y-64613000D01*
X161760000Y-64613000D01*
X161760000Y-64213000D01*
X161714376Y-64003767D01*
X161628809Y-63807455D01*
X161526320Y-63660000D01*
X168473680Y-63660000D01*
X168371191Y-63807455D01*
X168285624Y-64003767D01*
X168240000Y-64213000D01*
X168240000Y-64613000D01*
X169198000Y-64613000D01*
X169198000Y-64593000D01*
X169452000Y-64593000D01*
X169452000Y-64613000D01*
X170410000Y-64613000D01*
X170410000Y-64213000D01*
X170364376Y-64003767D01*
X170278809Y-63807455D01*
X170176320Y-63660000D01*
X219315000Y-63660000D01*
X219315001Y-104315000D01*
X110685000Y-104315000D01*
X110685000Y-100737314D01*
X111332905Y-100737314D01*
X111332905Y-101262686D01*
X111435400Y-101777963D01*
X111636451Y-102263343D01*
X111928332Y-102700174D01*
X112299826Y-103071668D01*
X112736657Y-103363549D01*
X113222037Y-103564600D01*
X113737314Y-103667095D01*
X114262686Y-103667095D01*
X114777963Y-103564600D01*
X115263343Y-103363549D01*
X115700174Y-103071668D01*
X116071668Y-102700174D01*
X116363549Y-102263343D01*
X116564600Y-101777963D01*
X116667095Y-101262686D01*
X116667095Y-100737314D01*
X213332905Y-100737314D01*
X213332905Y-101262686D01*
X213435400Y-101777963D01*
X213636451Y-102263343D01*
X213928332Y-102700174D01*
X214299826Y-103071668D01*
X214736657Y-103363549D01*
X215222037Y-103564600D01*
X215737314Y-103667095D01*
X216262686Y-103667095D01*
X216777963Y-103564600D01*
X217263343Y-103363549D01*
X217700174Y-103071668D01*
X218071668Y-102700174D01*
X218363549Y-102263343D01*
X218564600Y-101777963D01*
X218667095Y-101262686D01*
X218667095Y-100737314D01*
X218564600Y-100222037D01*
X218363549Y-99736657D01*
X218071668Y-99299826D01*
X217700174Y-98928332D01*
X217263343Y-98636451D01*
X216777963Y-98435400D01*
X216262686Y-98332905D01*
X215737314Y-98332905D01*
X215222037Y-98435400D01*
X214736657Y-98636451D01*
X214299826Y-98928332D01*
X213928332Y-99299826D01*
X213636451Y-99736657D01*
X213435400Y-100222037D01*
X213332905Y-100737314D01*
X116667095Y-100737314D01*
X116564600Y-100222037D01*
X116363549Y-99736657D01*
X116071668Y-99299826D01*
X115700174Y-98928332D01*
X115263343Y-98636451D01*
X114777963Y-98435400D01*
X114262686Y-98332905D01*
X113737314Y-98332905D01*
X113222037Y-98435400D01*
X112736657Y-98636451D01*
X112299826Y-98928332D01*
X111928332Y-99299826D01*
X111636451Y-99736657D01*
X111435400Y-100222037D01*
X111332905Y-100737314D01*
X110685000Y-100737314D01*
X110685000Y-90076278D01*
X120150000Y-90076278D01*
X120150000Y-90373722D01*
X120208029Y-90665451D01*
X120321856Y-90940253D01*
X120487107Y-91187569D01*
X120697431Y-91397893D01*
X120944747Y-91563144D01*
X121219549Y-91676971D01*
X121511278Y-91735000D01*
X121808722Y-91735000D01*
X122100451Y-91676971D01*
X122375253Y-91563144D01*
X122622569Y-91397893D01*
X122832893Y-91187569D01*
X122998144Y-90940253D01*
X123111971Y-90665451D01*
X123170000Y-90373722D01*
X123170000Y-90076278D01*
X123147960Y-89965475D01*
X124105000Y-89965475D01*
X124105000Y-90484525D01*
X124206261Y-90993601D01*
X124404893Y-91473141D01*
X124693262Y-91904715D01*
X125060285Y-92271738D01*
X125491859Y-92560107D01*
X125971399Y-92758739D01*
X126480475Y-92860000D01*
X126999525Y-92860000D01*
X127508601Y-92758739D01*
X127988141Y-92560107D01*
X128419715Y-92271738D01*
X128786738Y-91904715D01*
X129075107Y-91473141D01*
X129273739Y-90993601D01*
X129375000Y-90484525D01*
X129375000Y-89965475D01*
X129273739Y-89456399D01*
X129075107Y-88976859D01*
X128786738Y-88545285D01*
X128419715Y-88178262D01*
X127988141Y-87889893D01*
X127508601Y-87691261D01*
X126999525Y-87590000D01*
X126480475Y-87590000D01*
X125971399Y-87691261D01*
X125491859Y-87889893D01*
X125060285Y-88178262D01*
X124693262Y-88545285D01*
X124404893Y-88976859D01*
X124206261Y-89456399D01*
X124105000Y-89965475D01*
X123147960Y-89965475D01*
X123111971Y-89784549D01*
X122998144Y-89509747D01*
X122832893Y-89262431D01*
X122622569Y-89052107D01*
X122375253Y-88886856D01*
X122100451Y-88773029D01*
X121808722Y-88715000D01*
X121511278Y-88715000D01*
X121219549Y-88773029D01*
X120944747Y-88886856D01*
X120697431Y-89052107D01*
X120487107Y-89262431D01*
X120321856Y-89509747D01*
X120208029Y-89784549D01*
X120150000Y-90076278D01*
X110685000Y-90076278D01*
X110685000Y-87499344D01*
X128665000Y-87499344D01*
X128665000Y-87870656D01*
X128737439Y-88234834D01*
X128879534Y-88577882D01*
X129085825Y-88886618D01*
X129348382Y-89149175D01*
X129657118Y-89355466D01*
X130000166Y-89497561D01*
X130364344Y-89570000D01*
X130456898Y-89570000D01*
X130368029Y-89784549D01*
X130310000Y-90076278D01*
X130310000Y-90373722D01*
X130368029Y-90665451D01*
X130481856Y-90940253D01*
X130647107Y-91187569D01*
X130857431Y-91397893D01*
X131104747Y-91563144D01*
X131379549Y-91676971D01*
X131671278Y-91735000D01*
X131968722Y-91735000D01*
X132260451Y-91676971D01*
X132535253Y-91563144D01*
X132782569Y-91397893D01*
X132992893Y-91187569D01*
X133158144Y-90940253D01*
X133271971Y-90665451D01*
X133330000Y-90373722D01*
X133330000Y-90076278D01*
X139300000Y-90076278D01*
X139300000Y-90373722D01*
X139358029Y-90665451D01*
X139471856Y-90940253D01*
X139637107Y-91187569D01*
X139847431Y-91397893D01*
X140094747Y-91563144D01*
X140369549Y-91676971D01*
X140661278Y-91735000D01*
X140958722Y-91735000D01*
X141250451Y-91676971D01*
X141525253Y-91563144D01*
X141772569Y-91397893D01*
X141982893Y-91187569D01*
X142148144Y-90940253D01*
X142261971Y-90665451D01*
X142320000Y-90373722D01*
X142320000Y-90076278D01*
X142297960Y-89965475D01*
X143255000Y-89965475D01*
X143255000Y-90484525D01*
X143356261Y-90993601D01*
X143554893Y-91473141D01*
X143843262Y-91904715D01*
X144210285Y-92271738D01*
X144641859Y-92560107D01*
X145121399Y-92758739D01*
X145630475Y-92860000D01*
X146149525Y-92860000D01*
X146658601Y-92758739D01*
X147138141Y-92560107D01*
X147569715Y-92271738D01*
X147936738Y-91904715D01*
X148225107Y-91473141D01*
X148423739Y-90993601D01*
X148525000Y-90484525D01*
X148525000Y-89965475D01*
X148423739Y-89456399D01*
X148225107Y-88976859D01*
X147936738Y-88545285D01*
X147569715Y-88178262D01*
X147138141Y-87889893D01*
X146658601Y-87691261D01*
X146149525Y-87590000D01*
X145630475Y-87590000D01*
X145121399Y-87691261D01*
X144641859Y-87889893D01*
X144210285Y-88178262D01*
X143843262Y-88545285D01*
X143554893Y-88976859D01*
X143356261Y-89456399D01*
X143255000Y-89965475D01*
X142297960Y-89965475D01*
X142261971Y-89784549D01*
X142148144Y-89509747D01*
X141982893Y-89262431D01*
X141772569Y-89052107D01*
X141525253Y-88886856D01*
X141250451Y-88773029D01*
X140958722Y-88715000D01*
X140661278Y-88715000D01*
X140369549Y-88773029D01*
X140094747Y-88886856D01*
X139847431Y-89052107D01*
X139637107Y-89262431D01*
X139471856Y-89509747D01*
X139358029Y-89784549D01*
X139300000Y-90076278D01*
X133330000Y-90076278D01*
X133271971Y-89784549D01*
X133158144Y-89509747D01*
X132992893Y-89262431D01*
X132782569Y-89052107D01*
X132535253Y-88886856D01*
X132260451Y-88773029D01*
X132110061Y-88743114D01*
X132220466Y-88577882D01*
X132362561Y-88234834D01*
X132435000Y-87870656D01*
X132435000Y-87499344D01*
X147815000Y-87499344D01*
X147815000Y-87870656D01*
X147887439Y-88234834D01*
X148029534Y-88577882D01*
X148235825Y-88886618D01*
X148498382Y-89149175D01*
X148807118Y-89355466D01*
X149150166Y-89497561D01*
X149514344Y-89570000D01*
X149606898Y-89570000D01*
X149518029Y-89784549D01*
X149460000Y-90076278D01*
X149460000Y-90373722D01*
X149518029Y-90665451D01*
X149631856Y-90940253D01*
X149797107Y-91187569D01*
X150007431Y-91397893D01*
X150254747Y-91563144D01*
X150529549Y-91676971D01*
X150821278Y-91735000D01*
X151118722Y-91735000D01*
X151410451Y-91676971D01*
X151685253Y-91563144D01*
X151932569Y-91397893D01*
X152142893Y-91187569D01*
X152308144Y-90940253D01*
X152421971Y-90665451D01*
X152480000Y-90373722D01*
X152480000Y-90076278D01*
X158425000Y-90076278D01*
X158425000Y-90373722D01*
X158483029Y-90665451D01*
X158596856Y-90940253D01*
X158762107Y-91187569D01*
X158972431Y-91397893D01*
X159219747Y-91563144D01*
X159494549Y-91676971D01*
X159786278Y-91735000D01*
X160083722Y-91735000D01*
X160375451Y-91676971D01*
X160650253Y-91563144D01*
X160897569Y-91397893D01*
X161107893Y-91187569D01*
X161273144Y-90940253D01*
X161386971Y-90665451D01*
X161445000Y-90373722D01*
X161445000Y-90076278D01*
X161422960Y-89965475D01*
X162380000Y-89965475D01*
X162380000Y-90484525D01*
X162481261Y-90993601D01*
X162679893Y-91473141D01*
X162968262Y-91904715D01*
X163335285Y-92271738D01*
X163766859Y-92560107D01*
X164246399Y-92758739D01*
X164755475Y-92860000D01*
X165274525Y-92860000D01*
X165783601Y-92758739D01*
X166263141Y-92560107D01*
X166694715Y-92271738D01*
X167061738Y-91904715D01*
X167350107Y-91473141D01*
X167548739Y-90993601D01*
X167650000Y-90484525D01*
X167650000Y-89965475D01*
X167548739Y-89456399D01*
X167350107Y-88976859D01*
X167061738Y-88545285D01*
X166694715Y-88178262D01*
X166263141Y-87889893D01*
X165783601Y-87691261D01*
X165274525Y-87590000D01*
X164755475Y-87590000D01*
X164246399Y-87691261D01*
X163766859Y-87889893D01*
X163335285Y-88178262D01*
X162968262Y-88545285D01*
X162679893Y-88976859D01*
X162481261Y-89456399D01*
X162380000Y-89965475D01*
X161422960Y-89965475D01*
X161386971Y-89784549D01*
X161273144Y-89509747D01*
X161107893Y-89262431D01*
X160897569Y-89052107D01*
X160650253Y-88886856D01*
X160375451Y-88773029D01*
X160083722Y-88715000D01*
X159786278Y-88715000D01*
X159494549Y-88773029D01*
X159219747Y-88886856D01*
X158972431Y-89052107D01*
X158762107Y-89262431D01*
X158596856Y-89509747D01*
X158483029Y-89784549D01*
X158425000Y-90076278D01*
X152480000Y-90076278D01*
X152421971Y-89784549D01*
X152308144Y-89509747D01*
X152142893Y-89262431D01*
X151932569Y-89052107D01*
X151685253Y-88886856D01*
X151410451Y-88773029D01*
X151260061Y-88743114D01*
X151370466Y-88577882D01*
X151512561Y-88234834D01*
X151585000Y-87870656D01*
X151585000Y-87499344D01*
X166940000Y-87499344D01*
X166940000Y-87870656D01*
X167012439Y-88234834D01*
X167154534Y-88577882D01*
X167360825Y-88886618D01*
X167623382Y-89149175D01*
X167932118Y-89355466D01*
X168275166Y-89497561D01*
X168639344Y-89570000D01*
X168731898Y-89570000D01*
X168643029Y-89784549D01*
X168585000Y-90076278D01*
X168585000Y-90373722D01*
X168643029Y-90665451D01*
X168756856Y-90940253D01*
X168922107Y-91187569D01*
X169132431Y-91397893D01*
X169379747Y-91563144D01*
X169654549Y-91676971D01*
X169946278Y-91735000D01*
X170243722Y-91735000D01*
X170535451Y-91676971D01*
X170810253Y-91563144D01*
X171057569Y-91397893D01*
X171267893Y-91187569D01*
X171433144Y-90940253D01*
X171546971Y-90665451D01*
X171605000Y-90373722D01*
X171605000Y-90076278D01*
X177575000Y-90076278D01*
X177575000Y-90373722D01*
X177633029Y-90665451D01*
X177746856Y-90940253D01*
X177912107Y-91187569D01*
X178122431Y-91397893D01*
X178369747Y-91563144D01*
X178644549Y-91676971D01*
X178936278Y-91735000D01*
X179233722Y-91735000D01*
X179525451Y-91676971D01*
X179800253Y-91563144D01*
X180047569Y-91397893D01*
X180257893Y-91187569D01*
X180423144Y-90940253D01*
X180536971Y-90665451D01*
X180595000Y-90373722D01*
X180595000Y-90076278D01*
X180572960Y-89965475D01*
X181530000Y-89965475D01*
X181530000Y-90484525D01*
X181631261Y-90993601D01*
X181829893Y-91473141D01*
X182118262Y-91904715D01*
X182485285Y-92271738D01*
X182916859Y-92560107D01*
X183396399Y-92758739D01*
X183905475Y-92860000D01*
X184424525Y-92860000D01*
X184933601Y-92758739D01*
X185413141Y-92560107D01*
X185844715Y-92271738D01*
X186211738Y-91904715D01*
X186500107Y-91473141D01*
X186698739Y-90993601D01*
X186800000Y-90484525D01*
X186800000Y-89965475D01*
X186698739Y-89456399D01*
X186500107Y-88976859D01*
X186211738Y-88545285D01*
X185844715Y-88178262D01*
X185413141Y-87889893D01*
X184933601Y-87691261D01*
X184424525Y-87590000D01*
X183905475Y-87590000D01*
X183396399Y-87691261D01*
X182916859Y-87889893D01*
X182485285Y-88178262D01*
X182118262Y-88545285D01*
X181829893Y-88976859D01*
X181631261Y-89456399D01*
X181530000Y-89965475D01*
X180572960Y-89965475D01*
X180536971Y-89784549D01*
X180423144Y-89509747D01*
X180257893Y-89262431D01*
X180047569Y-89052107D01*
X179800253Y-88886856D01*
X179525451Y-88773029D01*
X179233722Y-88715000D01*
X178936278Y-88715000D01*
X178644549Y-88773029D01*
X178369747Y-88886856D01*
X178122431Y-89052107D01*
X177912107Y-89262431D01*
X177746856Y-89509747D01*
X177633029Y-89784549D01*
X177575000Y-90076278D01*
X171605000Y-90076278D01*
X171546971Y-89784549D01*
X171433144Y-89509747D01*
X171267893Y-89262431D01*
X171057569Y-89052107D01*
X170810253Y-88886856D01*
X170535451Y-88773029D01*
X170385061Y-88743114D01*
X170495466Y-88577882D01*
X170637561Y-88234834D01*
X170710000Y-87870656D01*
X170710000Y-87499344D01*
X186090000Y-87499344D01*
X186090000Y-87870656D01*
X186162439Y-88234834D01*
X186304534Y-88577882D01*
X186510825Y-88886618D01*
X186773382Y-89149175D01*
X187082118Y-89355466D01*
X187425166Y-89497561D01*
X187789344Y-89570000D01*
X187881898Y-89570000D01*
X187793029Y-89784549D01*
X187735000Y-90076278D01*
X187735000Y-90373722D01*
X187793029Y-90665451D01*
X187906856Y-90940253D01*
X188072107Y-91187569D01*
X188282431Y-91397893D01*
X188529747Y-91563144D01*
X188804549Y-91676971D01*
X189096278Y-91735000D01*
X189393722Y-91735000D01*
X189685451Y-91676971D01*
X189960253Y-91563144D01*
X190207569Y-91397893D01*
X190417893Y-91187569D01*
X190583144Y-90940253D01*
X190696971Y-90665451D01*
X190755000Y-90373722D01*
X190755000Y-90076278D01*
X190754006Y-90071278D01*
X196715000Y-90071278D01*
X196715000Y-90368722D01*
X196773029Y-90660451D01*
X196886856Y-90935253D01*
X197052107Y-91182569D01*
X197262431Y-91392893D01*
X197509747Y-91558144D01*
X197784549Y-91671971D01*
X198076278Y-91730000D01*
X198373722Y-91730000D01*
X198665451Y-91671971D01*
X198940253Y-91558144D01*
X199187569Y-91392893D01*
X199397893Y-91182569D01*
X199563144Y-90935253D01*
X199676971Y-90660451D01*
X199735000Y-90368722D01*
X199735000Y-90071278D01*
X199712960Y-89960475D01*
X200670000Y-89960475D01*
X200670000Y-90479525D01*
X200771261Y-90988601D01*
X200969893Y-91468141D01*
X201258262Y-91899715D01*
X201625285Y-92266738D01*
X202056859Y-92555107D01*
X202536399Y-92753739D01*
X203045475Y-92855000D01*
X203564525Y-92855000D01*
X204073601Y-92753739D01*
X204553141Y-92555107D01*
X204984715Y-92266738D01*
X205351738Y-91899715D01*
X205640107Y-91468141D01*
X205838739Y-90988601D01*
X205940000Y-90479525D01*
X205940000Y-89960475D01*
X205838739Y-89451399D01*
X205640107Y-88971859D01*
X205351738Y-88540285D01*
X204984715Y-88173262D01*
X204553141Y-87884893D01*
X204073601Y-87686261D01*
X203564525Y-87585000D01*
X203045475Y-87585000D01*
X202536399Y-87686261D01*
X202056859Y-87884893D01*
X201625285Y-88173262D01*
X201258262Y-88540285D01*
X200969893Y-88971859D01*
X200771261Y-89451399D01*
X200670000Y-89960475D01*
X199712960Y-89960475D01*
X199676971Y-89779549D01*
X199563144Y-89504747D01*
X199397893Y-89257431D01*
X199187569Y-89047107D01*
X198940253Y-88881856D01*
X198665451Y-88768029D01*
X198373722Y-88710000D01*
X198076278Y-88710000D01*
X197784549Y-88768029D01*
X197509747Y-88881856D01*
X197262431Y-89047107D01*
X197052107Y-89257431D01*
X196886856Y-89504747D01*
X196773029Y-89779549D01*
X196715000Y-90071278D01*
X190754006Y-90071278D01*
X190696971Y-89784549D01*
X190583144Y-89509747D01*
X190417893Y-89262431D01*
X190207569Y-89052107D01*
X189960253Y-88886856D01*
X189685451Y-88773029D01*
X189535061Y-88743114D01*
X189645466Y-88577882D01*
X189787561Y-88234834D01*
X189860000Y-87870656D01*
X189860000Y-87499344D01*
X189859006Y-87494344D01*
X205230000Y-87494344D01*
X205230000Y-87865656D01*
X205302439Y-88229834D01*
X205444534Y-88572882D01*
X205650825Y-88881618D01*
X205913382Y-89144175D01*
X206222118Y-89350466D01*
X206565166Y-89492561D01*
X206929344Y-89565000D01*
X207021898Y-89565000D01*
X206933029Y-89779549D01*
X206875000Y-90071278D01*
X206875000Y-90368722D01*
X206933029Y-90660451D01*
X207046856Y-90935253D01*
X207212107Y-91182569D01*
X207422431Y-91392893D01*
X207669747Y-91558144D01*
X207944549Y-91671971D01*
X208236278Y-91730000D01*
X208533722Y-91730000D01*
X208825451Y-91671971D01*
X209100253Y-91558144D01*
X209347569Y-91392893D01*
X209557893Y-91182569D01*
X209723144Y-90935253D01*
X209836971Y-90660451D01*
X209895000Y-90368722D01*
X209895000Y-90071278D01*
X209836971Y-89779549D01*
X209723144Y-89504747D01*
X209557893Y-89257431D01*
X209347569Y-89047107D01*
X209100253Y-88881856D01*
X208825451Y-88768029D01*
X208675061Y-88738114D01*
X208785466Y-88572882D01*
X208927561Y-88229834D01*
X209000000Y-87865656D01*
X209000000Y-87494344D01*
X208927561Y-87130166D01*
X208785466Y-86787118D01*
X208579175Y-86478382D01*
X208316618Y-86215825D01*
X208007882Y-86009534D01*
X207664834Y-85867439D01*
X207300656Y-85795000D01*
X206929344Y-85795000D01*
X206565166Y-85867439D01*
X206222118Y-86009534D01*
X205913382Y-86215825D01*
X205650825Y-86478382D01*
X205444534Y-86787118D01*
X205302439Y-87130166D01*
X205230000Y-87494344D01*
X189859006Y-87494344D01*
X189787561Y-87135166D01*
X189645466Y-86792118D01*
X189439175Y-86483382D01*
X189176618Y-86220825D01*
X188867882Y-86014534D01*
X188524834Y-85872439D01*
X188160656Y-85800000D01*
X187789344Y-85800000D01*
X187425166Y-85872439D01*
X187082118Y-86014534D01*
X186773382Y-86220825D01*
X186510825Y-86483382D01*
X186304534Y-86792118D01*
X186162439Y-87135166D01*
X186090000Y-87499344D01*
X170710000Y-87499344D01*
X170637561Y-87135166D01*
X170495466Y-86792118D01*
X170289175Y-86483382D01*
X170026618Y-86220825D01*
X169717882Y-86014534D01*
X169374834Y-85872439D01*
X169010656Y-85800000D01*
X168639344Y-85800000D01*
X168275166Y-85872439D01*
X167932118Y-86014534D01*
X167623382Y-86220825D01*
X167360825Y-86483382D01*
X167154534Y-86792118D01*
X167012439Y-87135166D01*
X166940000Y-87499344D01*
X151585000Y-87499344D01*
X151512561Y-87135166D01*
X151370466Y-86792118D01*
X151164175Y-86483382D01*
X150901618Y-86220825D01*
X150592882Y-86014534D01*
X150249834Y-85872439D01*
X149885656Y-85800000D01*
X149514344Y-85800000D01*
X149150166Y-85872439D01*
X148807118Y-86014534D01*
X148498382Y-86220825D01*
X148235825Y-86483382D01*
X148029534Y-86792118D01*
X147887439Y-87135166D01*
X147815000Y-87499344D01*
X132435000Y-87499344D01*
X132362561Y-87135166D01*
X132220466Y-86792118D01*
X132014175Y-86483382D01*
X131751618Y-86220825D01*
X131442882Y-86014534D01*
X131099834Y-85872439D01*
X130735656Y-85800000D01*
X130364344Y-85800000D01*
X130000166Y-85872439D01*
X129657118Y-86014534D01*
X129348382Y-86220825D01*
X129085825Y-86483382D01*
X128879534Y-86792118D01*
X128737439Y-87135166D01*
X128665000Y-87499344D01*
X110685000Y-87499344D01*
X110685000Y-84959344D01*
X122315000Y-84959344D01*
X122315000Y-85330656D01*
X122387439Y-85694834D01*
X122529534Y-86037882D01*
X122735825Y-86346618D01*
X122998382Y-86609175D01*
X123307118Y-86815466D01*
X123650166Y-86957561D01*
X124014344Y-87030000D01*
X124385656Y-87030000D01*
X124749834Y-86957561D01*
X125092882Y-86815466D01*
X125401618Y-86609175D01*
X125664175Y-86346618D01*
X125870466Y-86037882D01*
X126012561Y-85694834D01*
X126085000Y-85330656D01*
X126085000Y-84959344D01*
X141465000Y-84959344D01*
X141465000Y-85330656D01*
X141537439Y-85694834D01*
X141679534Y-86037882D01*
X141885825Y-86346618D01*
X142148382Y-86609175D01*
X142457118Y-86815466D01*
X142800166Y-86957561D01*
X143164344Y-87030000D01*
X143535656Y-87030000D01*
X143899834Y-86957561D01*
X144242882Y-86815466D01*
X144551618Y-86609175D01*
X144814175Y-86346618D01*
X145020466Y-86037882D01*
X145162561Y-85694834D01*
X145235000Y-85330656D01*
X145235000Y-84959344D01*
X160590000Y-84959344D01*
X160590000Y-85330656D01*
X160662439Y-85694834D01*
X160804534Y-86037882D01*
X161010825Y-86346618D01*
X161273382Y-86609175D01*
X161582118Y-86815466D01*
X161925166Y-86957561D01*
X162289344Y-87030000D01*
X162660656Y-87030000D01*
X163024834Y-86957561D01*
X163367882Y-86815466D01*
X163676618Y-86609175D01*
X163939175Y-86346618D01*
X164145466Y-86037882D01*
X164287561Y-85694834D01*
X164360000Y-85330656D01*
X164360000Y-84959344D01*
X179740000Y-84959344D01*
X179740000Y-85330656D01*
X179812439Y-85694834D01*
X179954534Y-86037882D01*
X180160825Y-86346618D01*
X180423382Y-86609175D01*
X180732118Y-86815466D01*
X181075166Y-86957561D01*
X181439344Y-87030000D01*
X181810656Y-87030000D01*
X182174834Y-86957561D01*
X182517882Y-86815466D01*
X182826618Y-86609175D01*
X183089175Y-86346618D01*
X183295466Y-86037882D01*
X183437561Y-85694834D01*
X183510000Y-85330656D01*
X183510000Y-84959344D01*
X183509006Y-84954344D01*
X198880000Y-84954344D01*
X198880000Y-85325656D01*
X198952439Y-85689834D01*
X199094534Y-86032882D01*
X199300825Y-86341618D01*
X199563382Y-86604175D01*
X199872118Y-86810466D01*
X200215166Y-86952561D01*
X200579344Y-87025000D01*
X200950656Y-87025000D01*
X201314834Y-86952561D01*
X201657882Y-86810466D01*
X201966618Y-86604175D01*
X202229175Y-86341618D01*
X202435466Y-86032882D01*
X202577561Y-85689834D01*
X202650000Y-85325656D01*
X202650000Y-84954344D01*
X202577561Y-84590166D01*
X202435466Y-84247118D01*
X202229175Y-83938382D01*
X201966618Y-83675825D01*
X201657882Y-83469534D01*
X201314834Y-83327439D01*
X200950656Y-83255000D01*
X200579344Y-83255000D01*
X200215166Y-83327439D01*
X199872118Y-83469534D01*
X199563382Y-83675825D01*
X199300825Y-83938382D01*
X199094534Y-84247118D01*
X198952439Y-84590166D01*
X198880000Y-84954344D01*
X183509006Y-84954344D01*
X183437561Y-84595166D01*
X183295466Y-84252118D01*
X183089175Y-83943382D01*
X182826618Y-83680825D01*
X182517882Y-83474534D01*
X182174834Y-83332439D01*
X181810656Y-83260000D01*
X181439344Y-83260000D01*
X181075166Y-83332439D01*
X180732118Y-83474534D01*
X180423382Y-83680825D01*
X180160825Y-83943382D01*
X179954534Y-84252118D01*
X179812439Y-84595166D01*
X179740000Y-84959344D01*
X164360000Y-84959344D01*
X164287561Y-84595166D01*
X164145466Y-84252118D01*
X163939175Y-83943382D01*
X163676618Y-83680825D01*
X163367882Y-83474534D01*
X163024834Y-83332439D01*
X162660656Y-83260000D01*
X162289344Y-83260000D01*
X161925166Y-83332439D01*
X161582118Y-83474534D01*
X161273382Y-83680825D01*
X161010825Y-83943382D01*
X160804534Y-84252118D01*
X160662439Y-84595166D01*
X160590000Y-84959344D01*
X145235000Y-84959344D01*
X145162561Y-84595166D01*
X145020466Y-84252118D01*
X144814175Y-83943382D01*
X144551618Y-83680825D01*
X144242882Y-83474534D01*
X143899834Y-83332439D01*
X143535656Y-83260000D01*
X143164344Y-83260000D01*
X142800166Y-83332439D01*
X142457118Y-83474534D01*
X142148382Y-83680825D01*
X141885825Y-83943382D01*
X141679534Y-84252118D01*
X141537439Y-84595166D01*
X141465000Y-84959344D01*
X126085000Y-84959344D01*
X126012561Y-84595166D01*
X125870466Y-84252118D01*
X125664175Y-83943382D01*
X125401618Y-83680825D01*
X125092882Y-83474534D01*
X124749834Y-83332439D01*
X124385656Y-83260000D01*
X124014344Y-83260000D01*
X123650166Y-83332439D01*
X123307118Y-83474534D01*
X122998382Y-83680825D01*
X122735825Y-83943382D01*
X122529534Y-84252118D01*
X122387439Y-84595166D01*
X122315000Y-84959344D01*
X110685000Y-84959344D01*
X110685000Y-76648061D01*
X133415000Y-76648061D01*
X133415000Y-76851939D01*
X133454774Y-77051898D01*
X133532795Y-77240256D01*
X133646063Y-77409774D01*
X133790226Y-77553937D01*
X133959744Y-77667205D01*
X134148102Y-77745226D01*
X134348061Y-77785000D01*
X134469315Y-77785000D01*
X134507753Y-77805546D01*
X134651014Y-77849003D01*
X134762667Y-77860000D01*
X134762675Y-77860000D01*
X134800000Y-77863676D01*
X134837325Y-77860000D01*
X135235199Y-77860000D01*
X136565000Y-79189802D01*
X136565000Y-79251939D01*
X136604774Y-79451898D01*
X136682795Y-79640256D01*
X136796063Y-79809774D01*
X136940226Y-79953937D01*
X137109744Y-80067205D01*
X137298102Y-80145226D01*
X137498061Y-80185000D01*
X137701939Y-80185000D01*
X137901898Y-80145226D01*
X138090256Y-80067205D01*
X138259774Y-79953937D01*
X138303711Y-79910000D01*
X143387678Y-79910000D01*
X143425000Y-79913676D01*
X143462322Y-79910000D01*
X143462333Y-79910000D01*
X143573986Y-79899003D01*
X143717247Y-79855546D01*
X143849276Y-79784974D01*
X143965001Y-79690001D01*
X143988804Y-79660997D01*
X146039802Y-77610000D01*
X146101939Y-77610000D01*
X146301898Y-77570226D01*
X146490256Y-77492205D01*
X146659774Y-77378937D01*
X146703711Y-77335000D01*
X161437678Y-77335000D01*
X161475000Y-77338676D01*
X161512322Y-77335000D01*
X161512333Y-77335000D01*
X161623986Y-77324003D01*
X161767247Y-77280546D01*
X161899276Y-77209974D01*
X162015001Y-77115001D01*
X162038804Y-77085997D01*
X163361003Y-75763799D01*
X163390001Y-75740001D01*
X163484974Y-75624276D01*
X163555546Y-75492247D01*
X163599003Y-75348986D01*
X163610000Y-75237333D01*
X163610000Y-75237325D01*
X163613676Y-75200000D01*
X163610000Y-75162675D01*
X163610000Y-74348061D01*
X170215000Y-74348061D01*
X170215000Y-74551939D01*
X170254774Y-74751898D01*
X170332795Y-74940256D01*
X170446063Y-75109774D01*
X170590226Y-75253937D01*
X170759744Y-75367205D01*
X170948102Y-75445226D01*
X171148061Y-75485000D01*
X171351939Y-75485000D01*
X171551898Y-75445226D01*
X171740256Y-75367205D01*
X171909774Y-75253937D01*
X172053937Y-75109774D01*
X172167205Y-74940256D01*
X172245226Y-74751898D01*
X172285000Y-74551939D01*
X172285000Y-74348061D01*
X172245226Y-74148102D01*
X172167205Y-73959744D01*
X172053937Y-73790226D01*
X171909774Y-73646063D01*
X171740256Y-73532795D01*
X171551898Y-73454774D01*
X171351939Y-73415000D01*
X171148061Y-73415000D01*
X170948102Y-73454774D01*
X170759744Y-73532795D01*
X170590226Y-73646063D01*
X170446063Y-73790226D01*
X170332795Y-73959744D01*
X170254774Y-74148102D01*
X170215000Y-74348061D01*
X163610000Y-74348061D01*
X163610000Y-72410000D01*
X164997297Y-72410000D01*
X165034619Y-72413676D01*
X165071941Y-72410000D01*
X165071952Y-72410000D01*
X165183605Y-72399003D01*
X165326866Y-72355546D01*
X165458895Y-72284974D01*
X165574620Y-72190001D01*
X165598423Y-72160997D01*
X167636004Y-70123417D01*
X167665001Y-70099620D01*
X167723433Y-70028421D01*
X167875260Y-70059475D01*
X168064361Y-70060497D01*
X168250028Y-70024608D01*
X168425126Y-69953187D01*
X168434323Y-69948270D01*
X168447931Y-69752536D01*
X168052639Y-69357244D01*
X168085000Y-69194552D01*
X168085000Y-69005448D01*
X168084171Y-69001281D01*
X168168748Y-69085858D01*
X168154605Y-69100000D01*
X168304775Y-69250170D01*
X168371191Y-69402545D01*
X168493413Y-69578391D01*
X168647592Y-69727014D01*
X168827803Y-69842702D01*
X169030999Y-69914408D01*
X169198000Y-69787502D01*
X169198000Y-68247000D01*
X168645927Y-68247000D01*
X168828270Y-68234323D01*
X168901581Y-68060008D01*
X168915287Y-67993000D01*
X169198000Y-67993000D01*
X169198000Y-67973000D01*
X169452000Y-67973000D01*
X169452000Y-67993000D01*
X169472000Y-67993000D01*
X169472000Y-68247000D01*
X169452000Y-68247000D01*
X169452000Y-69787502D01*
X169619001Y-69914408D01*
X169822197Y-69842702D01*
X170002408Y-69727014D01*
X170156587Y-69578391D01*
X170278809Y-69402545D01*
X170364376Y-69206233D01*
X170410000Y-68997000D01*
X170410000Y-68433773D01*
X170490001Y-68513774D01*
X170490000Y-71046289D01*
X170446063Y-71090226D01*
X170332795Y-71259744D01*
X170254774Y-71448102D01*
X170215000Y-71648061D01*
X170215000Y-71851939D01*
X170254774Y-72051898D01*
X170332795Y-72240256D01*
X170446063Y-72409774D01*
X170590226Y-72553937D01*
X170759744Y-72667205D01*
X170948102Y-72745226D01*
X171148061Y-72785000D01*
X171351939Y-72785000D01*
X171551898Y-72745226D01*
X171740256Y-72667205D01*
X171909774Y-72553937D01*
X172053937Y-72409774D01*
X172167205Y-72240256D01*
X172245226Y-72051898D01*
X172285000Y-71851939D01*
X172285000Y-71648061D01*
X172245226Y-71448102D01*
X172167205Y-71259744D01*
X172053937Y-71090226D01*
X172010000Y-71046289D01*
X172010000Y-68236296D01*
X172013676Y-68198971D01*
X172010000Y-68161646D01*
X172010000Y-68161638D01*
X171999003Y-68049985D01*
X171955546Y-67906724D01*
X171884974Y-67774695D01*
X171790001Y-67658970D01*
X171761003Y-67635172D01*
X170863145Y-66737314D01*
X213332905Y-66737314D01*
X213332905Y-67262686D01*
X213435400Y-67777963D01*
X213636451Y-68263343D01*
X213928332Y-68700174D01*
X214299826Y-69071668D01*
X214736657Y-69363549D01*
X215222037Y-69564600D01*
X215737314Y-69667095D01*
X216262686Y-69667095D01*
X216777963Y-69564600D01*
X217263343Y-69363549D01*
X217700174Y-69071668D01*
X218071668Y-68700174D01*
X218363549Y-68263343D01*
X218564600Y-67777963D01*
X218667095Y-67262686D01*
X218667095Y-66737314D01*
X218564600Y-66222037D01*
X218363549Y-65736657D01*
X218071668Y-65299826D01*
X217700174Y-64928332D01*
X217263343Y-64636451D01*
X216777963Y-64435400D01*
X216262686Y-64332905D01*
X215737314Y-64332905D01*
X215222037Y-64435400D01*
X214736657Y-64636451D01*
X214299826Y-64928332D01*
X213928332Y-65299826D01*
X213636451Y-65736657D01*
X213435400Y-66222037D01*
X213332905Y-66737314D01*
X170863145Y-66737314D01*
X170209823Y-66083993D01*
X170186020Y-66054989D01*
X170070295Y-65960016D01*
X170051314Y-65949870D01*
X170156587Y-65848391D01*
X170278809Y-65672545D01*
X170364376Y-65476233D01*
X170410000Y-65267000D01*
X170410000Y-64867000D01*
X169452000Y-64867000D01*
X169452000Y-64887000D01*
X169198000Y-64887000D01*
X169198000Y-64867000D01*
X168240000Y-64867000D01*
X168240000Y-65267000D01*
X168285624Y-65476233D01*
X168371191Y-65672545D01*
X168484099Y-65834990D01*
X167385330Y-65834990D01*
X167348007Y-65831314D01*
X167310684Y-65834990D01*
X167310675Y-65834990D01*
X167199022Y-65845987D01*
X167055761Y-65889444D01*
X166923732Y-65960016D01*
X166907693Y-65973179D01*
X166837004Y-66031191D01*
X166837000Y-66031195D01*
X166808007Y-66054989D01*
X166784213Y-66083982D01*
X166020358Y-66847838D01*
X165999978Y-66851892D01*
X165855000Y-66911944D01*
X165710022Y-66851892D01*
X165524552Y-66815000D01*
X165335448Y-66815000D01*
X165149978Y-66851892D01*
X165005000Y-66911944D01*
X164860022Y-66851892D01*
X164674552Y-66815000D01*
X164485448Y-66815000D01*
X164299978Y-66851892D01*
X164155000Y-66911944D01*
X164010022Y-66851892D01*
X163824552Y-66815000D01*
X163635448Y-66815000D01*
X163449978Y-66851892D01*
X163305000Y-66911944D01*
X163160022Y-66851892D01*
X162974552Y-66815000D01*
X162785448Y-66815000D01*
X162599978Y-66851892D01*
X162452061Y-66913162D01*
X162310008Y-66853419D01*
X162124740Y-66815525D01*
X161935639Y-66814503D01*
X161749972Y-66850392D01*
X161651886Y-66890400D01*
X161628809Y-66837455D01*
X161506587Y-66661609D01*
X161352408Y-66512986D01*
X161172197Y-66397298D01*
X160969001Y-66325592D01*
X160802000Y-66452498D01*
X160802000Y-67993000D01*
X161089369Y-67993000D01*
X161100392Y-68050028D01*
X161171813Y-68225126D01*
X161176730Y-68234323D01*
X161359073Y-68247000D01*
X160802000Y-68247000D01*
X160802000Y-69787502D01*
X160969001Y-69914408D01*
X161172197Y-69842702D01*
X161352408Y-69727014D01*
X161506587Y-69578391D01*
X161628809Y-69402545D01*
X161695225Y-69250170D01*
X161845395Y-69100000D01*
X161831253Y-69085858D01*
X161915829Y-69001281D01*
X161915000Y-69005448D01*
X161915000Y-69194552D01*
X161947361Y-69357244D01*
X161552069Y-69752536D01*
X161565677Y-69948270D01*
X161739992Y-70021581D01*
X161925260Y-70059475D01*
X162114361Y-70060497D01*
X162300028Y-70024608D01*
X162450462Y-69963247D01*
X162594978Y-70023108D01*
X162780448Y-70060000D01*
X162969552Y-70060000D01*
X163155022Y-70023108D01*
X163300000Y-69963056D01*
X163444978Y-70023108D01*
X163630448Y-70060000D01*
X163819552Y-70060000D01*
X164005022Y-70023108D01*
X164150000Y-69963056D01*
X164294978Y-70023108D01*
X164480448Y-70060000D01*
X164669552Y-70060000D01*
X164855022Y-70023108D01*
X165000000Y-69963056D01*
X165144978Y-70023108D01*
X165330448Y-70060000D01*
X165519552Y-70060000D01*
X165557332Y-70052485D01*
X164719818Y-70890000D01*
X163553711Y-70890000D01*
X163509774Y-70846063D01*
X163340256Y-70732795D01*
X163151898Y-70654774D01*
X162951939Y-70615000D01*
X162748061Y-70615000D01*
X162548102Y-70654774D01*
X162359744Y-70732795D01*
X162190226Y-70846063D01*
X162046063Y-70990226D01*
X161932795Y-71159744D01*
X161854774Y-71348102D01*
X161815000Y-71548061D01*
X161815000Y-71751939D01*
X161854774Y-71951898D01*
X161932795Y-72140256D01*
X162046063Y-72309774D01*
X162090000Y-72353711D01*
X162090001Y-74885197D01*
X161160199Y-75815000D01*
X146760000Y-75815000D01*
X146760000Y-72653711D01*
X146803937Y-72609774D01*
X146917205Y-72440256D01*
X146995226Y-72251898D01*
X147035000Y-72051939D01*
X147035000Y-71848061D01*
X146995226Y-71648102D01*
X146917205Y-71459744D01*
X146803937Y-71290226D01*
X146659774Y-71146063D01*
X146490256Y-71032795D01*
X146301898Y-70954774D01*
X146101939Y-70915000D01*
X145898061Y-70915000D01*
X145698102Y-70954774D01*
X145509744Y-71032795D01*
X145340226Y-71146063D01*
X145196063Y-71290226D01*
X145082795Y-71459744D01*
X145004774Y-71648102D01*
X144965000Y-71848061D01*
X144965000Y-72051939D01*
X145004774Y-72251898D01*
X145082795Y-72440256D01*
X145196063Y-72609774D01*
X145240001Y-72653712D01*
X145240000Y-75871289D01*
X145196063Y-75915226D01*
X145082795Y-76084744D01*
X145004774Y-76273102D01*
X144965000Y-76473061D01*
X144965000Y-76535198D01*
X143110199Y-78390000D01*
X138303711Y-78390000D01*
X138259774Y-78346063D01*
X138090256Y-78232795D01*
X137901898Y-78154774D01*
X137701939Y-78115000D01*
X137639802Y-78115000D01*
X136113804Y-76589003D01*
X136090001Y-76559999D01*
X135974276Y-76465026D01*
X135842247Y-76394454D01*
X135698986Y-76350997D01*
X135587333Y-76340000D01*
X135587322Y-76340000D01*
X135550000Y-76336324D01*
X135512678Y-76340000D01*
X135400448Y-76340000D01*
X135367205Y-76259744D01*
X135253937Y-76090226D01*
X135210000Y-76046289D01*
X135210000Y-72964801D01*
X135389801Y-72785000D01*
X135451939Y-72785000D01*
X135651898Y-72745226D01*
X135840256Y-72667205D01*
X136009774Y-72553937D01*
X136153937Y-72409774D01*
X136267205Y-72240256D01*
X136345226Y-72051898D01*
X136385000Y-71851939D01*
X136385000Y-71789801D01*
X137061003Y-71113799D01*
X137090001Y-71090001D01*
X137184974Y-70974276D01*
X137255546Y-70842247D01*
X137299003Y-70698986D01*
X137310000Y-70587333D01*
X137310000Y-70587324D01*
X137313676Y-70550001D01*
X137310000Y-70512678D01*
X137310000Y-70428711D01*
X137353937Y-70384774D01*
X137410987Y-70299392D01*
X137415379Y-70303784D01*
X137584897Y-70417052D01*
X137773255Y-70495073D01*
X137973214Y-70534847D01*
X138177092Y-70534847D01*
X138377051Y-70495073D01*
X138565409Y-70417052D01*
X138734927Y-70303784D01*
X138879090Y-70159621D01*
X138992358Y-69990103D01*
X139070379Y-69801745D01*
X139110153Y-69601786D01*
X139110153Y-69539648D01*
X140402802Y-68247000D01*
X159590000Y-68247000D01*
X159590000Y-68997000D01*
X159635624Y-69206233D01*
X159721191Y-69402545D01*
X159843413Y-69578391D01*
X159997592Y-69727014D01*
X160177803Y-69842702D01*
X160380999Y-69914408D01*
X160548000Y-69787502D01*
X160548000Y-68247000D01*
X159590000Y-68247000D01*
X140402802Y-68247000D01*
X140861009Y-67788794D01*
X140890001Y-67765001D01*
X140913795Y-67736008D01*
X140913799Y-67736004D01*
X140984973Y-67649277D01*
X140984974Y-67649276D01*
X141055546Y-67517247D01*
X141099003Y-67373986D01*
X141110000Y-67262333D01*
X141110000Y-67262324D01*
X141111903Y-67243000D01*
X159590000Y-67243000D01*
X159590000Y-67993000D01*
X160548000Y-67993000D01*
X160548000Y-66452498D01*
X160380999Y-66325592D01*
X160177803Y-66397298D01*
X159997592Y-66512986D01*
X159843413Y-66661609D01*
X159721191Y-66837455D01*
X159635624Y-67033767D01*
X159590000Y-67243000D01*
X141111903Y-67243000D01*
X141113676Y-67225001D01*
X141110000Y-67187678D01*
X141110000Y-67183028D01*
X141245599Y-67210000D01*
X141454401Y-67210000D01*
X141659191Y-67169265D01*
X141852098Y-67089360D01*
X141857118Y-67086006D01*
X142024750Y-67158872D01*
X142059938Y-67169540D01*
X142223000Y-67042257D01*
X142223000Y-66751413D01*
X142289360Y-66652098D01*
X142369265Y-66459191D01*
X142405504Y-66277000D01*
X142477000Y-66277000D01*
X142477000Y-67042257D01*
X142640062Y-67169540D01*
X142675250Y-67158872D01*
X142865822Y-67076034D01*
X143036571Y-66957609D01*
X143180936Y-66808148D01*
X143293368Y-66633394D01*
X143369547Y-66440064D01*
X143243621Y-66277000D01*
X142477000Y-66277000D01*
X142405504Y-66277000D01*
X142410000Y-66254401D01*
X142410000Y-66045599D01*
X142369265Y-65840809D01*
X142289360Y-65647902D01*
X142223000Y-65548587D01*
X142223000Y-65257743D01*
X142477000Y-65257743D01*
X142477000Y-66023000D01*
X143243621Y-66023000D01*
X143369547Y-65859936D01*
X143293368Y-65666606D01*
X143180936Y-65491852D01*
X143036571Y-65342391D01*
X142865822Y-65223966D01*
X142675250Y-65141128D01*
X142640062Y-65130460D01*
X142477000Y-65257743D01*
X142223000Y-65257743D01*
X142059938Y-65130460D01*
X142024750Y-65141128D01*
X141857118Y-65213994D01*
X141852098Y-65210640D01*
X141659191Y-65130735D01*
X141454401Y-65090000D01*
X141245599Y-65090000D01*
X141040809Y-65130735D01*
X140850000Y-65209771D01*
X140659191Y-65130735D01*
X140454401Y-65090000D01*
X140245599Y-65090000D01*
X140040809Y-65130735D01*
X139850000Y-65209771D01*
X139659191Y-65130735D01*
X139454401Y-65090000D01*
X139245599Y-65090000D01*
X139040809Y-65130735D01*
X139001664Y-65146949D01*
X138984974Y-65115724D01*
X138890001Y-64999999D01*
X138860998Y-64976197D01*
X138773803Y-64889002D01*
X138755747Y-64867000D01*
X159590000Y-64867000D01*
X159590000Y-65267000D01*
X159635624Y-65476233D01*
X159721191Y-65672545D01*
X159843413Y-65848391D01*
X159997592Y-65997014D01*
X160177803Y-66112702D01*
X160380999Y-66184408D01*
X160548000Y-66057502D01*
X160548000Y-64867000D01*
X160802000Y-64867000D01*
X160802000Y-66057502D01*
X160969001Y-66184408D01*
X161172197Y-66112702D01*
X161352408Y-65997014D01*
X161506587Y-65848391D01*
X161628809Y-65672545D01*
X161714376Y-65476233D01*
X161760000Y-65267000D01*
X161760000Y-64867000D01*
X160802000Y-64867000D01*
X160548000Y-64867000D01*
X159590000Y-64867000D01*
X138755747Y-64867000D01*
X138750000Y-64859998D01*
X138634275Y-64765025D01*
X138502246Y-64694453D01*
X138358985Y-64650996D01*
X138247332Y-64639999D01*
X138247321Y-64639999D01*
X138209999Y-64636323D01*
X138172677Y-64639999D01*
X136702321Y-64639999D01*
X136664998Y-64636323D01*
X136627676Y-64639999D01*
X136627666Y-64639999D01*
X136516013Y-64650996D01*
X136372752Y-64694453D01*
X136240723Y-64765025D01*
X136124998Y-64859998D01*
X136101195Y-64889002D01*
X136038998Y-64951199D01*
X136010000Y-64974997D01*
X135986202Y-65003995D01*
X135986201Y-65003996D01*
X135915026Y-65090722D01*
X135844454Y-65222752D01*
X135833840Y-65257743D01*
X135800998Y-65366012D01*
X135797552Y-65400997D01*
X135786324Y-65514998D01*
X135790001Y-65552330D01*
X135790000Y-69021289D01*
X135746063Y-69065226D01*
X135632795Y-69234744D01*
X135554774Y-69423102D01*
X135515000Y-69623061D01*
X135515000Y-69826939D01*
X135554774Y-70026898D01*
X135632795Y-70215256D01*
X135703750Y-70321448D01*
X135310199Y-70715000D01*
X135248061Y-70715000D01*
X135048102Y-70754774D01*
X134859744Y-70832795D01*
X134690226Y-70946063D01*
X134546063Y-71090226D01*
X134432795Y-71259744D01*
X134354774Y-71448102D01*
X134315000Y-71648061D01*
X134315000Y-71710199D01*
X133938998Y-72086201D01*
X133910000Y-72109999D01*
X133886202Y-72138997D01*
X133886201Y-72138998D01*
X133815026Y-72225724D01*
X133744454Y-72357754D01*
X133731942Y-72399002D01*
X133700998Y-72501014D01*
X133694479Y-72567205D01*
X133686324Y-72650000D01*
X133690001Y-72687332D01*
X133690000Y-76046289D01*
X133646063Y-76090226D01*
X133532795Y-76259744D01*
X133454774Y-76448102D01*
X133415000Y-76648061D01*
X110685000Y-76648061D01*
X110685000Y-69775000D01*
X132436928Y-69775000D01*
X132436928Y-70625000D01*
X132449188Y-70749482D01*
X132485498Y-70869180D01*
X132544463Y-70979494D01*
X132623815Y-71076185D01*
X132720506Y-71155537D01*
X132830820Y-71214502D01*
X132950518Y-71250812D01*
X133075000Y-71263072D01*
X133925000Y-71263072D01*
X134049482Y-71250812D01*
X134169180Y-71214502D01*
X134279494Y-71155537D01*
X134376185Y-71076185D01*
X134455537Y-70979494D01*
X134514502Y-70869180D01*
X134550812Y-70749482D01*
X134563072Y-70625000D01*
X134563072Y-69775000D01*
X134550812Y-69650518D01*
X134514502Y-69530820D01*
X134509832Y-69522083D01*
X134519540Y-69490062D01*
X134392257Y-69327000D01*
X134378799Y-69327000D01*
X134376185Y-69323815D01*
X134279494Y-69244463D01*
X134169180Y-69185498D01*
X134049482Y-69149188D01*
X133925000Y-69136928D01*
X133075000Y-69136928D01*
X132950518Y-69149188D01*
X132830820Y-69185498D01*
X132720506Y-69244463D01*
X132623815Y-69323815D01*
X132621201Y-69327000D01*
X132607743Y-69327000D01*
X132480460Y-69490062D01*
X132490168Y-69522083D01*
X132485498Y-69530820D01*
X132449188Y-69650518D01*
X132436928Y-69775000D01*
X110685000Y-69775000D01*
X110685000Y-66737314D01*
X111332905Y-66737314D01*
X111332905Y-67262686D01*
X111435400Y-67777963D01*
X111636451Y-68263343D01*
X111928332Y-68700174D01*
X112299826Y-69071668D01*
X112736657Y-69363549D01*
X113222037Y-69564600D01*
X113737314Y-69667095D01*
X114262686Y-69667095D01*
X114777963Y-69564600D01*
X115263343Y-69363549D01*
X115700174Y-69071668D01*
X115861904Y-68909938D01*
X132480460Y-68909938D01*
X132607743Y-69073000D01*
X133373000Y-69073000D01*
X133373000Y-68306379D01*
X133627000Y-68306379D01*
X133627000Y-69073000D01*
X134392257Y-69073000D01*
X134519540Y-68909938D01*
X134508872Y-68874750D01*
X134426034Y-68684178D01*
X134307609Y-68513429D01*
X134158148Y-68369064D01*
X133983394Y-68256632D01*
X133790064Y-68180453D01*
X133627000Y-68306379D01*
X133373000Y-68306379D01*
X133209936Y-68180453D01*
X133016606Y-68256632D01*
X132841852Y-68369064D01*
X132692391Y-68513429D01*
X132573966Y-68684178D01*
X132491128Y-68874750D01*
X132480460Y-68909938D01*
X115861904Y-68909938D01*
X116071668Y-68700174D01*
X116363549Y-68263343D01*
X116564600Y-67777963D01*
X116667095Y-67262686D01*
X116667095Y-66737314D01*
X116564600Y-66222037D01*
X116363549Y-65736657D01*
X116071668Y-65299826D01*
X115700174Y-64928332D01*
X115263343Y-64636451D01*
X114777963Y-64435400D01*
X114262686Y-64332905D01*
X113737314Y-64332905D01*
X113222037Y-64435400D01*
X112736657Y-64636451D01*
X112299826Y-64928332D01*
X111928332Y-65299826D01*
X111636451Y-65736657D01*
X111435400Y-66222037D01*
X111332905Y-66737314D01*
X110685000Y-66737314D01*
X110685000Y-63660000D01*
X159823680Y-63660000D01*
X159721191Y-63807455D01*
%TA.AperFunction,Conductor*%
D19*
G36*
X159721191Y-63807455D02*
G01*
X159635624Y-64003767D01*
X159590000Y-64213000D01*
X159590000Y-64613000D01*
X160548000Y-64613000D01*
X160548000Y-64593000D01*
X160802000Y-64593000D01*
X160802000Y-64613000D01*
X161760000Y-64613000D01*
X161760000Y-64213000D01*
X161714376Y-64003767D01*
X161628809Y-63807455D01*
X161526320Y-63660000D01*
X168473680Y-63660000D01*
X168371191Y-63807455D01*
X168285624Y-64003767D01*
X168240000Y-64213000D01*
X168240000Y-64613000D01*
X169198000Y-64613000D01*
X169198000Y-64593000D01*
X169452000Y-64593000D01*
X169452000Y-64613000D01*
X170410000Y-64613000D01*
X170410000Y-64213000D01*
X170364376Y-64003767D01*
X170278809Y-63807455D01*
X170176320Y-63660000D01*
X219315000Y-63660000D01*
X219315001Y-104315000D01*
X110685000Y-104315000D01*
X110685000Y-100737314D01*
X111332905Y-100737314D01*
X111332905Y-101262686D01*
X111435400Y-101777963D01*
X111636451Y-102263343D01*
X111928332Y-102700174D01*
X112299826Y-103071668D01*
X112736657Y-103363549D01*
X113222037Y-103564600D01*
X113737314Y-103667095D01*
X114262686Y-103667095D01*
X114777963Y-103564600D01*
X115263343Y-103363549D01*
X115700174Y-103071668D01*
X116071668Y-102700174D01*
X116363549Y-102263343D01*
X116564600Y-101777963D01*
X116667095Y-101262686D01*
X116667095Y-100737314D01*
X213332905Y-100737314D01*
X213332905Y-101262686D01*
X213435400Y-101777963D01*
X213636451Y-102263343D01*
X213928332Y-102700174D01*
X214299826Y-103071668D01*
X214736657Y-103363549D01*
X215222037Y-103564600D01*
X215737314Y-103667095D01*
X216262686Y-103667095D01*
X216777963Y-103564600D01*
X217263343Y-103363549D01*
X217700174Y-103071668D01*
X218071668Y-102700174D01*
X218363549Y-102263343D01*
X218564600Y-101777963D01*
X218667095Y-101262686D01*
X218667095Y-100737314D01*
X218564600Y-100222037D01*
X218363549Y-99736657D01*
X218071668Y-99299826D01*
X217700174Y-98928332D01*
X217263343Y-98636451D01*
X216777963Y-98435400D01*
X216262686Y-98332905D01*
X215737314Y-98332905D01*
X215222037Y-98435400D01*
X214736657Y-98636451D01*
X214299826Y-98928332D01*
X213928332Y-99299826D01*
X213636451Y-99736657D01*
X213435400Y-100222037D01*
X213332905Y-100737314D01*
X116667095Y-100737314D01*
X116564600Y-100222037D01*
X116363549Y-99736657D01*
X116071668Y-99299826D01*
X115700174Y-98928332D01*
X115263343Y-98636451D01*
X114777963Y-98435400D01*
X114262686Y-98332905D01*
X113737314Y-98332905D01*
X113222037Y-98435400D01*
X112736657Y-98636451D01*
X112299826Y-98928332D01*
X111928332Y-99299826D01*
X111636451Y-99736657D01*
X111435400Y-100222037D01*
X111332905Y-100737314D01*
X110685000Y-100737314D01*
X110685000Y-90076278D01*
X120150000Y-90076278D01*
X120150000Y-90373722D01*
X120208029Y-90665451D01*
X120321856Y-90940253D01*
X120487107Y-91187569D01*
X120697431Y-91397893D01*
X120944747Y-91563144D01*
X121219549Y-91676971D01*
X121511278Y-91735000D01*
X121808722Y-91735000D01*
X122100451Y-91676971D01*
X122375253Y-91563144D01*
X122622569Y-91397893D01*
X122832893Y-91187569D01*
X122998144Y-90940253D01*
X123111971Y-90665451D01*
X123170000Y-90373722D01*
X123170000Y-90076278D01*
X123147960Y-89965475D01*
X124105000Y-89965475D01*
X124105000Y-90484525D01*
X124206261Y-90993601D01*
X124404893Y-91473141D01*
X124693262Y-91904715D01*
X125060285Y-92271738D01*
X125491859Y-92560107D01*
X125971399Y-92758739D01*
X126480475Y-92860000D01*
X126999525Y-92860000D01*
X127508601Y-92758739D01*
X127988141Y-92560107D01*
X128419715Y-92271738D01*
X128786738Y-91904715D01*
X129075107Y-91473141D01*
X129273739Y-90993601D01*
X129375000Y-90484525D01*
X129375000Y-89965475D01*
X129273739Y-89456399D01*
X129075107Y-88976859D01*
X128786738Y-88545285D01*
X128419715Y-88178262D01*
X127988141Y-87889893D01*
X127508601Y-87691261D01*
X126999525Y-87590000D01*
X126480475Y-87590000D01*
X125971399Y-87691261D01*
X125491859Y-87889893D01*
X125060285Y-88178262D01*
X124693262Y-88545285D01*
X124404893Y-88976859D01*
X124206261Y-89456399D01*
X124105000Y-89965475D01*
X123147960Y-89965475D01*
X123111971Y-89784549D01*
X122998144Y-89509747D01*
X122832893Y-89262431D01*
X122622569Y-89052107D01*
X122375253Y-88886856D01*
X122100451Y-88773029D01*
X121808722Y-88715000D01*
X121511278Y-88715000D01*
X121219549Y-88773029D01*
X120944747Y-88886856D01*
X120697431Y-89052107D01*
X120487107Y-89262431D01*
X120321856Y-89509747D01*
X120208029Y-89784549D01*
X120150000Y-90076278D01*
X110685000Y-90076278D01*
X110685000Y-87499344D01*
X128665000Y-87499344D01*
X128665000Y-87870656D01*
X128737439Y-88234834D01*
X128879534Y-88577882D01*
X129085825Y-88886618D01*
X129348382Y-89149175D01*
X129657118Y-89355466D01*
X130000166Y-89497561D01*
X130364344Y-89570000D01*
X130456898Y-89570000D01*
X130368029Y-89784549D01*
X130310000Y-90076278D01*
X130310000Y-90373722D01*
X130368029Y-90665451D01*
X130481856Y-90940253D01*
X130647107Y-91187569D01*
X130857431Y-91397893D01*
X131104747Y-91563144D01*
X131379549Y-91676971D01*
X131671278Y-91735000D01*
X131968722Y-91735000D01*
X132260451Y-91676971D01*
X132535253Y-91563144D01*
X132782569Y-91397893D01*
X132992893Y-91187569D01*
X133158144Y-90940253D01*
X133271971Y-90665451D01*
X133330000Y-90373722D01*
X133330000Y-90076278D01*
X139300000Y-90076278D01*
X139300000Y-90373722D01*
X139358029Y-90665451D01*
X139471856Y-90940253D01*
X139637107Y-91187569D01*
X139847431Y-91397893D01*
X140094747Y-91563144D01*
X140369549Y-91676971D01*
X140661278Y-91735000D01*
X140958722Y-91735000D01*
X141250451Y-91676971D01*
X141525253Y-91563144D01*
X141772569Y-91397893D01*
X141982893Y-91187569D01*
X142148144Y-90940253D01*
X142261971Y-90665451D01*
X142320000Y-90373722D01*
X142320000Y-90076278D01*
X142297960Y-89965475D01*
X143255000Y-89965475D01*
X143255000Y-90484525D01*
X143356261Y-90993601D01*
X143554893Y-91473141D01*
X143843262Y-91904715D01*
X144210285Y-92271738D01*
X144641859Y-92560107D01*
X145121399Y-92758739D01*
X145630475Y-92860000D01*
X146149525Y-92860000D01*
X146658601Y-92758739D01*
X147138141Y-92560107D01*
X147569715Y-92271738D01*
X147936738Y-91904715D01*
X148225107Y-91473141D01*
X148423739Y-90993601D01*
X148525000Y-90484525D01*
X148525000Y-89965475D01*
X148423739Y-89456399D01*
X148225107Y-88976859D01*
X147936738Y-88545285D01*
X147569715Y-88178262D01*
X147138141Y-87889893D01*
X146658601Y-87691261D01*
X146149525Y-87590000D01*
X145630475Y-87590000D01*
X145121399Y-87691261D01*
X144641859Y-87889893D01*
X144210285Y-88178262D01*
X143843262Y-88545285D01*
X143554893Y-88976859D01*
X143356261Y-89456399D01*
X143255000Y-89965475D01*
X142297960Y-89965475D01*
X142261971Y-89784549D01*
X142148144Y-89509747D01*
X141982893Y-89262431D01*
X141772569Y-89052107D01*
X141525253Y-88886856D01*
X141250451Y-88773029D01*
X140958722Y-88715000D01*
X140661278Y-88715000D01*
X140369549Y-88773029D01*
X140094747Y-88886856D01*
X139847431Y-89052107D01*
X139637107Y-89262431D01*
X139471856Y-89509747D01*
X139358029Y-89784549D01*
X139300000Y-90076278D01*
X133330000Y-90076278D01*
X133271971Y-89784549D01*
X133158144Y-89509747D01*
X132992893Y-89262431D01*
X132782569Y-89052107D01*
X132535253Y-88886856D01*
X132260451Y-88773029D01*
X132110061Y-88743114D01*
X132220466Y-88577882D01*
X132362561Y-88234834D01*
X132435000Y-87870656D01*
X132435000Y-87499344D01*
X147815000Y-87499344D01*
X147815000Y-87870656D01*
X147887439Y-88234834D01*
X148029534Y-88577882D01*
X148235825Y-88886618D01*
X148498382Y-89149175D01*
X148807118Y-89355466D01*
X149150166Y-89497561D01*
X149514344Y-89570000D01*
X149606898Y-89570000D01*
X149518029Y-89784549D01*
X149460000Y-90076278D01*
X149460000Y-90373722D01*
X149518029Y-90665451D01*
X149631856Y-90940253D01*
X149797107Y-91187569D01*
X150007431Y-91397893D01*
X150254747Y-91563144D01*
X150529549Y-91676971D01*
X150821278Y-91735000D01*
X151118722Y-91735000D01*
X151410451Y-91676971D01*
X151685253Y-91563144D01*
X151932569Y-91397893D01*
X152142893Y-91187569D01*
X152308144Y-90940253D01*
X152421971Y-90665451D01*
X152480000Y-90373722D01*
X152480000Y-90076278D01*
X158425000Y-90076278D01*
X158425000Y-90373722D01*
X158483029Y-90665451D01*
X158596856Y-90940253D01*
X158762107Y-91187569D01*
X158972431Y-91397893D01*
X159219747Y-91563144D01*
X159494549Y-91676971D01*
X159786278Y-91735000D01*
X160083722Y-91735000D01*
X160375451Y-91676971D01*
X160650253Y-91563144D01*
X160897569Y-91397893D01*
X161107893Y-91187569D01*
X161273144Y-90940253D01*
X161386971Y-90665451D01*
X161445000Y-90373722D01*
X161445000Y-90076278D01*
X161422960Y-89965475D01*
X162380000Y-89965475D01*
X162380000Y-90484525D01*
X162481261Y-90993601D01*
X162679893Y-91473141D01*
X162968262Y-91904715D01*
X163335285Y-92271738D01*
X163766859Y-92560107D01*
X164246399Y-92758739D01*
X164755475Y-92860000D01*
X165274525Y-92860000D01*
X165783601Y-92758739D01*
X166263141Y-92560107D01*
X166694715Y-92271738D01*
X167061738Y-91904715D01*
X167350107Y-91473141D01*
X167548739Y-90993601D01*
X167650000Y-90484525D01*
X167650000Y-89965475D01*
X167548739Y-89456399D01*
X167350107Y-88976859D01*
X167061738Y-88545285D01*
X166694715Y-88178262D01*
X166263141Y-87889893D01*
X165783601Y-87691261D01*
X165274525Y-87590000D01*
X164755475Y-87590000D01*
X164246399Y-87691261D01*
X163766859Y-87889893D01*
X163335285Y-88178262D01*
X162968262Y-88545285D01*
X162679893Y-88976859D01*
X162481261Y-89456399D01*
X162380000Y-89965475D01*
X161422960Y-89965475D01*
X161386971Y-89784549D01*
X161273144Y-89509747D01*
X161107893Y-89262431D01*
X160897569Y-89052107D01*
X160650253Y-88886856D01*
X160375451Y-88773029D01*
X160083722Y-88715000D01*
X159786278Y-88715000D01*
X159494549Y-88773029D01*
X159219747Y-88886856D01*
X158972431Y-89052107D01*
X158762107Y-89262431D01*
X158596856Y-89509747D01*
X158483029Y-89784549D01*
X158425000Y-90076278D01*
X152480000Y-90076278D01*
X152421971Y-89784549D01*
X152308144Y-89509747D01*
X152142893Y-89262431D01*
X151932569Y-89052107D01*
X151685253Y-88886856D01*
X151410451Y-88773029D01*
X151260061Y-88743114D01*
X151370466Y-88577882D01*
X151512561Y-88234834D01*
X151585000Y-87870656D01*
X151585000Y-87499344D01*
X166940000Y-87499344D01*
X166940000Y-87870656D01*
X167012439Y-88234834D01*
X167154534Y-88577882D01*
X167360825Y-88886618D01*
X167623382Y-89149175D01*
X167932118Y-89355466D01*
X168275166Y-89497561D01*
X168639344Y-89570000D01*
X168731898Y-89570000D01*
X168643029Y-89784549D01*
X168585000Y-90076278D01*
X168585000Y-90373722D01*
X168643029Y-90665451D01*
X168756856Y-90940253D01*
X168922107Y-91187569D01*
X169132431Y-91397893D01*
X169379747Y-91563144D01*
X169654549Y-91676971D01*
X169946278Y-91735000D01*
X170243722Y-91735000D01*
X170535451Y-91676971D01*
X170810253Y-91563144D01*
X171057569Y-91397893D01*
X171267893Y-91187569D01*
X171433144Y-90940253D01*
X171546971Y-90665451D01*
X171605000Y-90373722D01*
X171605000Y-90076278D01*
X177575000Y-90076278D01*
X177575000Y-90373722D01*
X177633029Y-90665451D01*
X177746856Y-90940253D01*
X177912107Y-91187569D01*
X178122431Y-91397893D01*
X178369747Y-91563144D01*
X178644549Y-91676971D01*
X178936278Y-91735000D01*
X179233722Y-91735000D01*
X179525451Y-91676971D01*
X179800253Y-91563144D01*
X180047569Y-91397893D01*
X180257893Y-91187569D01*
X180423144Y-90940253D01*
X180536971Y-90665451D01*
X180595000Y-90373722D01*
X180595000Y-90076278D01*
X180572960Y-89965475D01*
X181530000Y-89965475D01*
X181530000Y-90484525D01*
X181631261Y-90993601D01*
X181829893Y-91473141D01*
X182118262Y-91904715D01*
X182485285Y-92271738D01*
X182916859Y-92560107D01*
X183396399Y-92758739D01*
X183905475Y-92860000D01*
X184424525Y-92860000D01*
X184933601Y-92758739D01*
X185413141Y-92560107D01*
X185844715Y-92271738D01*
X186211738Y-91904715D01*
X186500107Y-91473141D01*
X186698739Y-90993601D01*
X186800000Y-90484525D01*
X186800000Y-89965475D01*
X186698739Y-89456399D01*
X186500107Y-88976859D01*
X186211738Y-88545285D01*
X185844715Y-88178262D01*
X185413141Y-87889893D01*
X184933601Y-87691261D01*
X184424525Y-87590000D01*
X183905475Y-87590000D01*
X183396399Y-87691261D01*
X182916859Y-87889893D01*
X182485285Y-88178262D01*
X182118262Y-88545285D01*
X181829893Y-88976859D01*
X181631261Y-89456399D01*
X181530000Y-89965475D01*
X180572960Y-89965475D01*
X180536971Y-89784549D01*
X180423144Y-89509747D01*
X180257893Y-89262431D01*
X180047569Y-89052107D01*
X179800253Y-88886856D01*
X179525451Y-88773029D01*
X179233722Y-88715000D01*
X178936278Y-88715000D01*
X178644549Y-88773029D01*
X178369747Y-88886856D01*
X178122431Y-89052107D01*
X177912107Y-89262431D01*
X177746856Y-89509747D01*
X177633029Y-89784549D01*
X177575000Y-90076278D01*
X171605000Y-90076278D01*
X171546971Y-89784549D01*
X171433144Y-89509747D01*
X171267893Y-89262431D01*
X171057569Y-89052107D01*
X170810253Y-88886856D01*
X170535451Y-88773029D01*
X170385061Y-88743114D01*
X170495466Y-88577882D01*
X170637561Y-88234834D01*
X170710000Y-87870656D01*
X170710000Y-87499344D01*
X186090000Y-87499344D01*
X186090000Y-87870656D01*
X186162439Y-88234834D01*
X186304534Y-88577882D01*
X186510825Y-88886618D01*
X186773382Y-89149175D01*
X187082118Y-89355466D01*
X187425166Y-89497561D01*
X187789344Y-89570000D01*
X187881898Y-89570000D01*
X187793029Y-89784549D01*
X187735000Y-90076278D01*
X187735000Y-90373722D01*
X187793029Y-90665451D01*
X187906856Y-90940253D01*
X188072107Y-91187569D01*
X188282431Y-91397893D01*
X188529747Y-91563144D01*
X188804549Y-91676971D01*
X189096278Y-91735000D01*
X189393722Y-91735000D01*
X189685451Y-91676971D01*
X189960253Y-91563144D01*
X190207569Y-91397893D01*
X190417893Y-91187569D01*
X190583144Y-90940253D01*
X190696971Y-90665451D01*
X190755000Y-90373722D01*
X190755000Y-90076278D01*
X190754006Y-90071278D01*
X196715000Y-90071278D01*
X196715000Y-90368722D01*
X196773029Y-90660451D01*
X196886856Y-90935253D01*
X197052107Y-91182569D01*
X197262431Y-91392893D01*
X197509747Y-91558144D01*
X197784549Y-91671971D01*
X198076278Y-91730000D01*
X198373722Y-91730000D01*
X198665451Y-91671971D01*
X198940253Y-91558144D01*
X199187569Y-91392893D01*
X199397893Y-91182569D01*
X199563144Y-90935253D01*
X199676971Y-90660451D01*
X199735000Y-90368722D01*
X199735000Y-90071278D01*
X199712960Y-89960475D01*
X200670000Y-89960475D01*
X200670000Y-90479525D01*
X200771261Y-90988601D01*
X200969893Y-91468141D01*
X201258262Y-91899715D01*
X201625285Y-92266738D01*
X202056859Y-92555107D01*
X202536399Y-92753739D01*
X203045475Y-92855000D01*
X203564525Y-92855000D01*
X204073601Y-92753739D01*
X204553141Y-92555107D01*
X204984715Y-92266738D01*
X205351738Y-91899715D01*
X205640107Y-91468141D01*
X205838739Y-90988601D01*
X205940000Y-90479525D01*
X205940000Y-89960475D01*
X205838739Y-89451399D01*
X205640107Y-88971859D01*
X205351738Y-88540285D01*
X204984715Y-88173262D01*
X204553141Y-87884893D01*
X204073601Y-87686261D01*
X203564525Y-87585000D01*
X203045475Y-87585000D01*
X202536399Y-87686261D01*
X202056859Y-87884893D01*
X201625285Y-88173262D01*
X201258262Y-88540285D01*
X200969893Y-88971859D01*
X200771261Y-89451399D01*
X200670000Y-89960475D01*
X199712960Y-89960475D01*
X199676971Y-89779549D01*
X199563144Y-89504747D01*
X199397893Y-89257431D01*
X199187569Y-89047107D01*
X198940253Y-88881856D01*
X198665451Y-88768029D01*
X198373722Y-88710000D01*
X198076278Y-88710000D01*
X197784549Y-88768029D01*
X197509747Y-88881856D01*
X197262431Y-89047107D01*
X197052107Y-89257431D01*
X196886856Y-89504747D01*
X196773029Y-89779549D01*
X196715000Y-90071278D01*
X190754006Y-90071278D01*
X190696971Y-89784549D01*
X190583144Y-89509747D01*
X190417893Y-89262431D01*
X190207569Y-89052107D01*
X189960253Y-88886856D01*
X189685451Y-88773029D01*
X189535061Y-88743114D01*
X189645466Y-88577882D01*
X189787561Y-88234834D01*
X189860000Y-87870656D01*
X189860000Y-87499344D01*
X189859006Y-87494344D01*
X205230000Y-87494344D01*
X205230000Y-87865656D01*
X205302439Y-88229834D01*
X205444534Y-88572882D01*
X205650825Y-88881618D01*
X205913382Y-89144175D01*
X206222118Y-89350466D01*
X206565166Y-89492561D01*
X206929344Y-89565000D01*
X207021898Y-89565000D01*
X206933029Y-89779549D01*
X206875000Y-90071278D01*
X206875000Y-90368722D01*
X206933029Y-90660451D01*
X207046856Y-90935253D01*
X207212107Y-91182569D01*
X207422431Y-91392893D01*
X207669747Y-91558144D01*
X207944549Y-91671971D01*
X208236278Y-91730000D01*
X208533722Y-91730000D01*
X208825451Y-91671971D01*
X209100253Y-91558144D01*
X209347569Y-91392893D01*
X209557893Y-91182569D01*
X209723144Y-90935253D01*
X209836971Y-90660451D01*
X209895000Y-90368722D01*
X209895000Y-90071278D01*
X209836971Y-89779549D01*
X209723144Y-89504747D01*
X209557893Y-89257431D01*
X209347569Y-89047107D01*
X209100253Y-88881856D01*
X208825451Y-88768029D01*
X208675061Y-88738114D01*
X208785466Y-88572882D01*
X208927561Y-88229834D01*
X209000000Y-87865656D01*
X209000000Y-87494344D01*
X208927561Y-87130166D01*
X208785466Y-86787118D01*
X208579175Y-86478382D01*
X208316618Y-86215825D01*
X208007882Y-86009534D01*
X207664834Y-85867439D01*
X207300656Y-85795000D01*
X206929344Y-85795000D01*
X206565166Y-85867439D01*
X206222118Y-86009534D01*
X205913382Y-86215825D01*
X205650825Y-86478382D01*
X205444534Y-86787118D01*
X205302439Y-87130166D01*
X205230000Y-87494344D01*
X189859006Y-87494344D01*
X189787561Y-87135166D01*
X189645466Y-86792118D01*
X189439175Y-86483382D01*
X189176618Y-86220825D01*
X188867882Y-86014534D01*
X188524834Y-85872439D01*
X188160656Y-85800000D01*
X187789344Y-85800000D01*
X187425166Y-85872439D01*
X187082118Y-86014534D01*
X186773382Y-86220825D01*
X186510825Y-86483382D01*
X186304534Y-86792118D01*
X186162439Y-87135166D01*
X186090000Y-87499344D01*
X170710000Y-87499344D01*
X170637561Y-87135166D01*
X170495466Y-86792118D01*
X170289175Y-86483382D01*
X170026618Y-86220825D01*
X169717882Y-86014534D01*
X169374834Y-85872439D01*
X169010656Y-85800000D01*
X168639344Y-85800000D01*
X168275166Y-85872439D01*
X167932118Y-86014534D01*
X167623382Y-86220825D01*
X167360825Y-86483382D01*
X167154534Y-86792118D01*
X167012439Y-87135166D01*
X166940000Y-87499344D01*
X151585000Y-87499344D01*
X151512561Y-87135166D01*
X151370466Y-86792118D01*
X151164175Y-86483382D01*
X150901618Y-86220825D01*
X150592882Y-86014534D01*
X150249834Y-85872439D01*
X149885656Y-85800000D01*
X149514344Y-85800000D01*
X149150166Y-85872439D01*
X148807118Y-86014534D01*
X148498382Y-86220825D01*
X148235825Y-86483382D01*
X148029534Y-86792118D01*
X147887439Y-87135166D01*
X147815000Y-87499344D01*
X132435000Y-87499344D01*
X132362561Y-87135166D01*
X132220466Y-86792118D01*
X132014175Y-86483382D01*
X131751618Y-86220825D01*
X131442882Y-86014534D01*
X131099834Y-85872439D01*
X130735656Y-85800000D01*
X130364344Y-85800000D01*
X130000166Y-85872439D01*
X129657118Y-86014534D01*
X129348382Y-86220825D01*
X129085825Y-86483382D01*
X128879534Y-86792118D01*
X128737439Y-87135166D01*
X128665000Y-87499344D01*
X110685000Y-87499344D01*
X110685000Y-84959344D01*
X122315000Y-84959344D01*
X122315000Y-85330656D01*
X122387439Y-85694834D01*
X122529534Y-86037882D01*
X122735825Y-86346618D01*
X122998382Y-86609175D01*
X123307118Y-86815466D01*
X123650166Y-86957561D01*
X124014344Y-87030000D01*
X124385656Y-87030000D01*
X124749834Y-86957561D01*
X125092882Y-86815466D01*
X125401618Y-86609175D01*
X125664175Y-86346618D01*
X125870466Y-86037882D01*
X126012561Y-85694834D01*
X126085000Y-85330656D01*
X126085000Y-84959344D01*
X141465000Y-84959344D01*
X141465000Y-85330656D01*
X141537439Y-85694834D01*
X141679534Y-86037882D01*
X141885825Y-86346618D01*
X142148382Y-86609175D01*
X142457118Y-86815466D01*
X142800166Y-86957561D01*
X143164344Y-87030000D01*
X143535656Y-87030000D01*
X143899834Y-86957561D01*
X144242882Y-86815466D01*
X144551618Y-86609175D01*
X144814175Y-86346618D01*
X145020466Y-86037882D01*
X145162561Y-85694834D01*
X145235000Y-85330656D01*
X145235000Y-84959344D01*
X160590000Y-84959344D01*
X160590000Y-85330656D01*
X160662439Y-85694834D01*
X160804534Y-86037882D01*
X161010825Y-86346618D01*
X161273382Y-86609175D01*
X161582118Y-86815466D01*
X161925166Y-86957561D01*
X162289344Y-87030000D01*
X162660656Y-87030000D01*
X163024834Y-86957561D01*
X163367882Y-86815466D01*
X163676618Y-86609175D01*
X163939175Y-86346618D01*
X164145466Y-86037882D01*
X164287561Y-85694834D01*
X164360000Y-85330656D01*
X164360000Y-84959344D01*
X179740000Y-84959344D01*
X179740000Y-85330656D01*
X179812439Y-85694834D01*
X179954534Y-86037882D01*
X180160825Y-86346618D01*
X180423382Y-86609175D01*
X180732118Y-86815466D01*
X181075166Y-86957561D01*
X181439344Y-87030000D01*
X181810656Y-87030000D01*
X182174834Y-86957561D01*
X182517882Y-86815466D01*
X182826618Y-86609175D01*
X183089175Y-86346618D01*
X183295466Y-86037882D01*
X183437561Y-85694834D01*
X183510000Y-85330656D01*
X183510000Y-84959344D01*
X183509006Y-84954344D01*
X198880000Y-84954344D01*
X198880000Y-85325656D01*
X198952439Y-85689834D01*
X199094534Y-86032882D01*
X199300825Y-86341618D01*
X199563382Y-86604175D01*
X199872118Y-86810466D01*
X200215166Y-86952561D01*
X200579344Y-87025000D01*
X200950656Y-87025000D01*
X201314834Y-86952561D01*
X201657882Y-86810466D01*
X201966618Y-86604175D01*
X202229175Y-86341618D01*
X202435466Y-86032882D01*
X202577561Y-85689834D01*
X202650000Y-85325656D01*
X202650000Y-84954344D01*
X202577561Y-84590166D01*
X202435466Y-84247118D01*
X202229175Y-83938382D01*
X201966618Y-83675825D01*
X201657882Y-83469534D01*
X201314834Y-83327439D01*
X200950656Y-83255000D01*
X200579344Y-83255000D01*
X200215166Y-83327439D01*
X199872118Y-83469534D01*
X199563382Y-83675825D01*
X199300825Y-83938382D01*
X199094534Y-84247118D01*
X198952439Y-84590166D01*
X198880000Y-84954344D01*
X183509006Y-84954344D01*
X183437561Y-84595166D01*
X183295466Y-84252118D01*
X183089175Y-83943382D01*
X182826618Y-83680825D01*
X182517882Y-83474534D01*
X182174834Y-83332439D01*
X181810656Y-83260000D01*
X181439344Y-83260000D01*
X181075166Y-83332439D01*
X180732118Y-83474534D01*
X180423382Y-83680825D01*
X180160825Y-83943382D01*
X179954534Y-84252118D01*
X179812439Y-84595166D01*
X179740000Y-84959344D01*
X164360000Y-84959344D01*
X164287561Y-84595166D01*
X164145466Y-84252118D01*
X163939175Y-83943382D01*
X163676618Y-83680825D01*
X163367882Y-83474534D01*
X163024834Y-83332439D01*
X162660656Y-83260000D01*
X162289344Y-83260000D01*
X161925166Y-83332439D01*
X161582118Y-83474534D01*
X161273382Y-83680825D01*
X161010825Y-83943382D01*
X160804534Y-84252118D01*
X160662439Y-84595166D01*
X160590000Y-84959344D01*
X145235000Y-84959344D01*
X145162561Y-84595166D01*
X145020466Y-84252118D01*
X144814175Y-83943382D01*
X144551618Y-83680825D01*
X144242882Y-83474534D01*
X143899834Y-83332439D01*
X143535656Y-83260000D01*
X143164344Y-83260000D01*
X142800166Y-83332439D01*
X142457118Y-83474534D01*
X142148382Y-83680825D01*
X141885825Y-83943382D01*
X141679534Y-84252118D01*
X141537439Y-84595166D01*
X141465000Y-84959344D01*
X126085000Y-84959344D01*
X126012561Y-84595166D01*
X125870466Y-84252118D01*
X125664175Y-83943382D01*
X125401618Y-83680825D01*
X125092882Y-83474534D01*
X124749834Y-83332439D01*
X124385656Y-83260000D01*
X124014344Y-83260000D01*
X123650166Y-83332439D01*
X123307118Y-83474534D01*
X122998382Y-83680825D01*
X122735825Y-83943382D01*
X122529534Y-84252118D01*
X122387439Y-84595166D01*
X122315000Y-84959344D01*
X110685000Y-84959344D01*
X110685000Y-76648061D01*
X133415000Y-76648061D01*
X133415000Y-76851939D01*
X133454774Y-77051898D01*
X133532795Y-77240256D01*
X133646063Y-77409774D01*
X133790226Y-77553937D01*
X133959744Y-77667205D01*
X134148102Y-77745226D01*
X134348061Y-77785000D01*
X134469315Y-77785000D01*
X134507753Y-77805546D01*
X134651014Y-77849003D01*
X134762667Y-77860000D01*
X134762675Y-77860000D01*
X134800000Y-77863676D01*
X134837325Y-77860000D01*
X135235199Y-77860000D01*
X136565000Y-79189802D01*
X136565000Y-79251939D01*
X136604774Y-79451898D01*
X136682795Y-79640256D01*
X136796063Y-79809774D01*
X136940226Y-79953937D01*
X137109744Y-80067205D01*
X137298102Y-80145226D01*
X137498061Y-80185000D01*
X137701939Y-80185000D01*
X137901898Y-80145226D01*
X138090256Y-80067205D01*
X138259774Y-79953937D01*
X138303711Y-79910000D01*
X143387678Y-79910000D01*
X143425000Y-79913676D01*
X143462322Y-79910000D01*
X143462333Y-79910000D01*
X143573986Y-79899003D01*
X143717247Y-79855546D01*
X143849276Y-79784974D01*
X143965001Y-79690001D01*
X143988804Y-79660997D01*
X146039802Y-77610000D01*
X146101939Y-77610000D01*
X146301898Y-77570226D01*
X146490256Y-77492205D01*
X146659774Y-77378937D01*
X146703711Y-77335000D01*
X161437678Y-77335000D01*
X161475000Y-77338676D01*
X161512322Y-77335000D01*
X161512333Y-77335000D01*
X161623986Y-77324003D01*
X161767247Y-77280546D01*
X161899276Y-77209974D01*
X162015001Y-77115001D01*
X162038804Y-77085997D01*
X163361003Y-75763799D01*
X163390001Y-75740001D01*
X163484974Y-75624276D01*
X163555546Y-75492247D01*
X163599003Y-75348986D01*
X163610000Y-75237333D01*
X163610000Y-75237325D01*
X163613676Y-75200000D01*
X163610000Y-75162675D01*
X163610000Y-74348061D01*
X170215000Y-74348061D01*
X170215000Y-74551939D01*
X170254774Y-74751898D01*
X170332795Y-74940256D01*
X170446063Y-75109774D01*
X170590226Y-75253937D01*
X170759744Y-75367205D01*
X170948102Y-75445226D01*
X171148061Y-75485000D01*
X171351939Y-75485000D01*
X171551898Y-75445226D01*
X171740256Y-75367205D01*
X171909774Y-75253937D01*
X172053937Y-75109774D01*
X172167205Y-74940256D01*
X172245226Y-74751898D01*
X172285000Y-74551939D01*
X172285000Y-74348061D01*
X172245226Y-74148102D01*
X172167205Y-73959744D01*
X172053937Y-73790226D01*
X171909774Y-73646063D01*
X171740256Y-73532795D01*
X171551898Y-73454774D01*
X171351939Y-73415000D01*
X171148061Y-73415000D01*
X170948102Y-73454774D01*
X170759744Y-73532795D01*
X170590226Y-73646063D01*
X170446063Y-73790226D01*
X170332795Y-73959744D01*
X170254774Y-74148102D01*
X170215000Y-74348061D01*
X163610000Y-74348061D01*
X163610000Y-72410000D01*
X164997297Y-72410000D01*
X165034619Y-72413676D01*
X165071941Y-72410000D01*
X165071952Y-72410000D01*
X165183605Y-72399003D01*
X165326866Y-72355546D01*
X165458895Y-72284974D01*
X165574620Y-72190001D01*
X165598423Y-72160997D01*
X167636004Y-70123417D01*
X167665001Y-70099620D01*
X167723433Y-70028421D01*
X167875260Y-70059475D01*
X168064361Y-70060497D01*
X168250028Y-70024608D01*
X168425126Y-69953187D01*
X168434323Y-69948270D01*
X168447931Y-69752536D01*
X168052639Y-69357244D01*
X168085000Y-69194552D01*
X168085000Y-69005448D01*
X168084171Y-69001281D01*
X168168748Y-69085858D01*
X168154605Y-69100000D01*
X168304775Y-69250170D01*
X168371191Y-69402545D01*
X168493413Y-69578391D01*
X168647592Y-69727014D01*
X168827803Y-69842702D01*
X169030999Y-69914408D01*
X169198000Y-69787502D01*
X169198000Y-68247000D01*
X168645927Y-68247000D01*
X168828270Y-68234323D01*
X168901581Y-68060008D01*
X168915287Y-67993000D01*
X169198000Y-67993000D01*
X169198000Y-67973000D01*
X169452000Y-67973000D01*
X169452000Y-67993000D01*
X169472000Y-67993000D01*
X169472000Y-68247000D01*
X169452000Y-68247000D01*
X169452000Y-69787502D01*
X169619001Y-69914408D01*
X169822197Y-69842702D01*
X170002408Y-69727014D01*
X170156587Y-69578391D01*
X170278809Y-69402545D01*
X170364376Y-69206233D01*
X170410000Y-68997000D01*
X170410000Y-68433773D01*
X170490001Y-68513774D01*
X170490000Y-71046289D01*
X170446063Y-71090226D01*
X170332795Y-71259744D01*
X170254774Y-71448102D01*
X170215000Y-71648061D01*
X170215000Y-71851939D01*
X170254774Y-72051898D01*
X170332795Y-72240256D01*
X170446063Y-72409774D01*
X170590226Y-72553937D01*
X170759744Y-72667205D01*
X170948102Y-72745226D01*
X171148061Y-72785000D01*
X171351939Y-72785000D01*
X171551898Y-72745226D01*
X171740256Y-72667205D01*
X171909774Y-72553937D01*
X172053937Y-72409774D01*
X172167205Y-72240256D01*
X172245226Y-72051898D01*
X172285000Y-71851939D01*
X172285000Y-71648061D01*
X172245226Y-71448102D01*
X172167205Y-71259744D01*
X172053937Y-71090226D01*
X172010000Y-71046289D01*
X172010000Y-68236296D01*
X172013676Y-68198971D01*
X172010000Y-68161646D01*
X172010000Y-68161638D01*
X171999003Y-68049985D01*
X171955546Y-67906724D01*
X171884974Y-67774695D01*
X171790001Y-67658970D01*
X171761003Y-67635172D01*
X170863145Y-66737314D01*
X213332905Y-66737314D01*
X213332905Y-67262686D01*
X213435400Y-67777963D01*
X213636451Y-68263343D01*
X213928332Y-68700174D01*
X214299826Y-69071668D01*
X214736657Y-69363549D01*
X215222037Y-69564600D01*
X215737314Y-69667095D01*
X216262686Y-69667095D01*
X216777963Y-69564600D01*
X217263343Y-69363549D01*
X217700174Y-69071668D01*
X218071668Y-68700174D01*
X218363549Y-68263343D01*
X218564600Y-67777963D01*
X218667095Y-67262686D01*
X218667095Y-66737314D01*
X218564600Y-66222037D01*
X218363549Y-65736657D01*
X218071668Y-65299826D01*
X217700174Y-64928332D01*
X217263343Y-64636451D01*
X216777963Y-64435400D01*
X216262686Y-64332905D01*
X215737314Y-64332905D01*
X215222037Y-64435400D01*
X214736657Y-64636451D01*
X214299826Y-64928332D01*
X213928332Y-65299826D01*
X213636451Y-65736657D01*
X213435400Y-66222037D01*
X213332905Y-66737314D01*
X170863145Y-66737314D01*
X170209823Y-66083993D01*
X170186020Y-66054989D01*
X170070295Y-65960016D01*
X170051314Y-65949870D01*
X170156587Y-65848391D01*
X170278809Y-65672545D01*
X170364376Y-65476233D01*
X170410000Y-65267000D01*
X170410000Y-64867000D01*
X169452000Y-64867000D01*
X169452000Y-64887000D01*
X169198000Y-64887000D01*
X169198000Y-64867000D01*
X168240000Y-64867000D01*
X168240000Y-65267000D01*
X168285624Y-65476233D01*
X168371191Y-65672545D01*
X168484099Y-65834990D01*
X167385330Y-65834990D01*
X167348007Y-65831314D01*
X167310684Y-65834990D01*
X167310675Y-65834990D01*
X167199022Y-65845987D01*
X167055761Y-65889444D01*
X166923732Y-65960016D01*
X166907693Y-65973179D01*
X166837004Y-66031191D01*
X166837000Y-66031195D01*
X166808007Y-66054989D01*
X166784213Y-66083982D01*
X166020358Y-66847838D01*
X165999978Y-66851892D01*
X165855000Y-66911944D01*
X165710022Y-66851892D01*
X165524552Y-66815000D01*
X165335448Y-66815000D01*
X165149978Y-66851892D01*
X165005000Y-66911944D01*
X164860022Y-66851892D01*
X164674552Y-66815000D01*
X164485448Y-66815000D01*
X164299978Y-66851892D01*
X164155000Y-66911944D01*
X164010022Y-66851892D01*
X163824552Y-66815000D01*
X163635448Y-66815000D01*
X163449978Y-66851892D01*
X163305000Y-66911944D01*
X163160022Y-66851892D01*
X162974552Y-66815000D01*
X162785448Y-66815000D01*
X162599978Y-66851892D01*
X162452061Y-66913162D01*
X162310008Y-66853419D01*
X162124740Y-66815525D01*
X161935639Y-66814503D01*
X161749972Y-66850392D01*
X161651886Y-66890400D01*
X161628809Y-66837455D01*
X161506587Y-66661609D01*
X161352408Y-66512986D01*
X161172197Y-66397298D01*
X160969001Y-66325592D01*
X160802000Y-66452498D01*
X160802000Y-67993000D01*
X161089369Y-67993000D01*
X161100392Y-68050028D01*
X161171813Y-68225126D01*
X161176730Y-68234323D01*
X161359073Y-68247000D01*
X160802000Y-68247000D01*
X160802000Y-69787502D01*
X160969001Y-69914408D01*
X161172197Y-69842702D01*
X161352408Y-69727014D01*
X161506587Y-69578391D01*
X161628809Y-69402545D01*
X161695225Y-69250170D01*
X161845395Y-69100000D01*
X161831253Y-69085858D01*
X161915829Y-69001281D01*
X161915000Y-69005448D01*
X161915000Y-69194552D01*
X161947361Y-69357244D01*
X161552069Y-69752536D01*
X161565677Y-69948270D01*
X161739992Y-70021581D01*
X161925260Y-70059475D01*
X162114361Y-70060497D01*
X162300028Y-70024608D01*
X162450462Y-69963247D01*
X162594978Y-70023108D01*
X162780448Y-70060000D01*
X162969552Y-70060000D01*
X163155022Y-70023108D01*
X163300000Y-69963056D01*
X163444978Y-70023108D01*
X163630448Y-70060000D01*
X163819552Y-70060000D01*
X164005022Y-70023108D01*
X164150000Y-69963056D01*
X164294978Y-70023108D01*
X164480448Y-70060000D01*
X164669552Y-70060000D01*
X164855022Y-70023108D01*
X165000000Y-69963056D01*
X165144978Y-70023108D01*
X165330448Y-70060000D01*
X165519552Y-70060000D01*
X165557332Y-70052485D01*
X164719818Y-70890000D01*
X163553711Y-70890000D01*
X163509774Y-70846063D01*
X163340256Y-70732795D01*
X163151898Y-70654774D01*
X162951939Y-70615000D01*
X162748061Y-70615000D01*
X162548102Y-70654774D01*
X162359744Y-70732795D01*
X162190226Y-70846063D01*
X162046063Y-70990226D01*
X161932795Y-71159744D01*
X161854774Y-71348102D01*
X161815000Y-71548061D01*
X161815000Y-71751939D01*
X161854774Y-71951898D01*
X161932795Y-72140256D01*
X162046063Y-72309774D01*
X162090000Y-72353711D01*
X162090001Y-74885197D01*
X161160199Y-75815000D01*
X146760000Y-75815000D01*
X146760000Y-72653711D01*
X146803937Y-72609774D01*
X146917205Y-72440256D01*
X146995226Y-72251898D01*
X147035000Y-72051939D01*
X147035000Y-71848061D01*
X146995226Y-71648102D01*
X146917205Y-71459744D01*
X146803937Y-71290226D01*
X146659774Y-71146063D01*
X146490256Y-71032795D01*
X146301898Y-70954774D01*
X146101939Y-70915000D01*
X145898061Y-70915000D01*
X145698102Y-70954774D01*
X145509744Y-71032795D01*
X145340226Y-71146063D01*
X145196063Y-71290226D01*
X145082795Y-71459744D01*
X145004774Y-71648102D01*
X144965000Y-71848061D01*
X144965000Y-72051939D01*
X145004774Y-72251898D01*
X145082795Y-72440256D01*
X145196063Y-72609774D01*
X145240001Y-72653712D01*
X145240000Y-75871289D01*
X145196063Y-75915226D01*
X145082795Y-76084744D01*
X145004774Y-76273102D01*
X144965000Y-76473061D01*
X144965000Y-76535198D01*
X143110199Y-78390000D01*
X138303711Y-78390000D01*
X138259774Y-78346063D01*
X138090256Y-78232795D01*
X137901898Y-78154774D01*
X137701939Y-78115000D01*
X137639802Y-78115000D01*
X136113804Y-76589003D01*
X136090001Y-76559999D01*
X135974276Y-76465026D01*
X135842247Y-76394454D01*
X135698986Y-76350997D01*
X135587333Y-76340000D01*
X135587322Y-76340000D01*
X135550000Y-76336324D01*
X135512678Y-76340000D01*
X135400448Y-76340000D01*
X135367205Y-76259744D01*
X135253937Y-76090226D01*
X135210000Y-76046289D01*
X135210000Y-72964801D01*
X135389801Y-72785000D01*
X135451939Y-72785000D01*
X135651898Y-72745226D01*
X135840256Y-72667205D01*
X136009774Y-72553937D01*
X136153937Y-72409774D01*
X136267205Y-72240256D01*
X136345226Y-72051898D01*
X136385000Y-71851939D01*
X136385000Y-71789801D01*
X137061003Y-71113799D01*
X137090001Y-71090001D01*
X137184974Y-70974276D01*
X137255546Y-70842247D01*
X137299003Y-70698986D01*
X137310000Y-70587333D01*
X137310000Y-70587324D01*
X137313676Y-70550001D01*
X137310000Y-70512678D01*
X137310000Y-70428711D01*
X137353937Y-70384774D01*
X137410987Y-70299392D01*
X137415379Y-70303784D01*
X137584897Y-70417052D01*
X137773255Y-70495073D01*
X137973214Y-70534847D01*
X138177092Y-70534847D01*
X138377051Y-70495073D01*
X138565409Y-70417052D01*
X138734927Y-70303784D01*
X138879090Y-70159621D01*
X138992358Y-69990103D01*
X139070379Y-69801745D01*
X139110153Y-69601786D01*
X139110153Y-69539648D01*
X140402802Y-68247000D01*
X159590000Y-68247000D01*
X159590000Y-68997000D01*
X159635624Y-69206233D01*
X159721191Y-69402545D01*
X159843413Y-69578391D01*
X159997592Y-69727014D01*
X160177803Y-69842702D01*
X160380999Y-69914408D01*
X160548000Y-69787502D01*
X160548000Y-68247000D01*
X159590000Y-68247000D01*
X140402802Y-68247000D01*
X140861009Y-67788794D01*
X140890001Y-67765001D01*
X140913795Y-67736008D01*
X140913799Y-67736004D01*
X140984973Y-67649277D01*
X140984974Y-67649276D01*
X141055546Y-67517247D01*
X141099003Y-67373986D01*
X141110000Y-67262333D01*
X141110000Y-67262324D01*
X141111903Y-67243000D01*
X159590000Y-67243000D01*
X159590000Y-67993000D01*
X160548000Y-67993000D01*
X160548000Y-66452498D01*
X160380999Y-66325592D01*
X160177803Y-66397298D01*
X159997592Y-66512986D01*
X159843413Y-66661609D01*
X159721191Y-66837455D01*
X159635624Y-67033767D01*
X159590000Y-67243000D01*
X141111903Y-67243000D01*
X141113676Y-67225001D01*
X141110000Y-67187678D01*
X141110000Y-67183028D01*
X141245599Y-67210000D01*
X141454401Y-67210000D01*
X141659191Y-67169265D01*
X141852098Y-67089360D01*
X141857118Y-67086006D01*
X142024750Y-67158872D01*
X142059938Y-67169540D01*
X142223000Y-67042257D01*
X142223000Y-66751413D01*
X142289360Y-66652098D01*
X142369265Y-66459191D01*
X142405504Y-66277000D01*
X142477000Y-66277000D01*
X142477000Y-67042257D01*
X142640062Y-67169540D01*
X142675250Y-67158872D01*
X142865822Y-67076034D01*
X143036571Y-66957609D01*
X143180936Y-66808148D01*
X143293368Y-66633394D01*
X143369547Y-66440064D01*
X143243621Y-66277000D01*
X142477000Y-66277000D01*
X142405504Y-66277000D01*
X142410000Y-66254401D01*
X142410000Y-66045599D01*
X142369265Y-65840809D01*
X142289360Y-65647902D01*
X142223000Y-65548587D01*
X142223000Y-65257743D01*
X142477000Y-65257743D01*
X142477000Y-66023000D01*
X143243621Y-66023000D01*
X143369547Y-65859936D01*
X143293368Y-65666606D01*
X143180936Y-65491852D01*
X143036571Y-65342391D01*
X142865822Y-65223966D01*
X142675250Y-65141128D01*
X142640062Y-65130460D01*
X142477000Y-65257743D01*
X142223000Y-65257743D01*
X142059938Y-65130460D01*
X142024750Y-65141128D01*
X141857118Y-65213994D01*
X141852098Y-65210640D01*
X141659191Y-65130735D01*
X141454401Y-65090000D01*
X141245599Y-65090000D01*
X141040809Y-65130735D01*
X140850000Y-65209771D01*
X140659191Y-65130735D01*
X140454401Y-65090000D01*
X140245599Y-65090000D01*
X140040809Y-65130735D01*
X139850000Y-65209771D01*
X139659191Y-65130735D01*
X139454401Y-65090000D01*
X139245599Y-65090000D01*
X139040809Y-65130735D01*
X139001664Y-65146949D01*
X138984974Y-65115724D01*
X138890001Y-64999999D01*
X138860998Y-64976197D01*
X138773803Y-64889002D01*
X138755747Y-64867000D01*
X159590000Y-64867000D01*
X159590000Y-65267000D01*
X159635624Y-65476233D01*
X159721191Y-65672545D01*
X159843413Y-65848391D01*
X159997592Y-65997014D01*
X160177803Y-66112702D01*
X160380999Y-66184408D01*
X160548000Y-66057502D01*
X160548000Y-64867000D01*
X160802000Y-64867000D01*
X160802000Y-66057502D01*
X160969001Y-66184408D01*
X161172197Y-66112702D01*
X161352408Y-65997014D01*
X161506587Y-65848391D01*
X161628809Y-65672545D01*
X161714376Y-65476233D01*
X161760000Y-65267000D01*
X161760000Y-64867000D01*
X160802000Y-64867000D01*
X160548000Y-64867000D01*
X159590000Y-64867000D01*
X138755747Y-64867000D01*
X138750000Y-64859998D01*
X138634275Y-64765025D01*
X138502246Y-64694453D01*
X138358985Y-64650996D01*
X138247332Y-64639999D01*
X138247321Y-64639999D01*
X138209999Y-64636323D01*
X138172677Y-64639999D01*
X136702321Y-64639999D01*
X136664998Y-64636323D01*
X136627676Y-64639999D01*
X136627666Y-64639999D01*
X136516013Y-64650996D01*
X136372752Y-64694453D01*
X136240723Y-64765025D01*
X136124998Y-64859998D01*
X136101195Y-64889002D01*
X136038998Y-64951199D01*
X136010000Y-64974997D01*
X135986202Y-65003995D01*
X135986201Y-65003996D01*
X135915026Y-65090722D01*
X135844454Y-65222752D01*
X135833840Y-65257743D01*
X135800998Y-65366012D01*
X135797552Y-65400997D01*
X135786324Y-65514998D01*
X135790001Y-65552330D01*
X135790000Y-69021289D01*
X135746063Y-69065226D01*
X135632795Y-69234744D01*
X135554774Y-69423102D01*
X135515000Y-69623061D01*
X135515000Y-69826939D01*
X135554774Y-70026898D01*
X135632795Y-70215256D01*
X135703750Y-70321448D01*
X135310199Y-70715000D01*
X135248061Y-70715000D01*
X135048102Y-70754774D01*
X134859744Y-70832795D01*
X134690226Y-70946063D01*
X134546063Y-71090226D01*
X134432795Y-71259744D01*
X134354774Y-71448102D01*
X134315000Y-71648061D01*
X134315000Y-71710199D01*
X133938998Y-72086201D01*
X133910000Y-72109999D01*
X133886202Y-72138997D01*
X133886201Y-72138998D01*
X133815026Y-72225724D01*
X133744454Y-72357754D01*
X133731942Y-72399002D01*
X133700998Y-72501014D01*
X133694479Y-72567205D01*
X133686324Y-72650000D01*
X133690001Y-72687332D01*
X133690000Y-76046289D01*
X133646063Y-76090226D01*
X133532795Y-76259744D01*
X133454774Y-76448102D01*
X133415000Y-76648061D01*
X110685000Y-76648061D01*
X110685000Y-69775000D01*
X132436928Y-69775000D01*
X132436928Y-70625000D01*
X132449188Y-70749482D01*
X132485498Y-70869180D01*
X132544463Y-70979494D01*
X132623815Y-71076185D01*
X132720506Y-71155537D01*
X132830820Y-71214502D01*
X132950518Y-71250812D01*
X133075000Y-71263072D01*
X133925000Y-71263072D01*
X134049482Y-71250812D01*
X134169180Y-71214502D01*
X134279494Y-71155537D01*
X134376185Y-71076185D01*
X134455537Y-70979494D01*
X134514502Y-70869180D01*
X134550812Y-70749482D01*
X134563072Y-70625000D01*
X134563072Y-69775000D01*
X134550812Y-69650518D01*
X134514502Y-69530820D01*
X134509832Y-69522083D01*
X134519540Y-69490062D01*
X134392257Y-69327000D01*
X134378799Y-69327000D01*
X134376185Y-69323815D01*
X134279494Y-69244463D01*
X134169180Y-69185498D01*
X134049482Y-69149188D01*
X133925000Y-69136928D01*
X133075000Y-69136928D01*
X132950518Y-69149188D01*
X132830820Y-69185498D01*
X132720506Y-69244463D01*
X132623815Y-69323815D01*
X132621201Y-69327000D01*
X132607743Y-69327000D01*
X132480460Y-69490062D01*
X132490168Y-69522083D01*
X132485498Y-69530820D01*
X132449188Y-69650518D01*
X132436928Y-69775000D01*
X110685000Y-69775000D01*
X110685000Y-66737314D01*
X111332905Y-66737314D01*
X111332905Y-67262686D01*
X111435400Y-67777963D01*
X111636451Y-68263343D01*
X111928332Y-68700174D01*
X112299826Y-69071668D01*
X112736657Y-69363549D01*
X113222037Y-69564600D01*
X113737314Y-69667095D01*
X114262686Y-69667095D01*
X114777963Y-69564600D01*
X115263343Y-69363549D01*
X115700174Y-69071668D01*
X115861904Y-68909938D01*
X132480460Y-68909938D01*
X132607743Y-69073000D01*
X133373000Y-69073000D01*
X133373000Y-68306379D01*
X133627000Y-68306379D01*
X133627000Y-69073000D01*
X134392257Y-69073000D01*
X134519540Y-68909938D01*
X134508872Y-68874750D01*
X134426034Y-68684178D01*
X134307609Y-68513429D01*
X134158148Y-68369064D01*
X133983394Y-68256632D01*
X133790064Y-68180453D01*
X133627000Y-68306379D01*
X133373000Y-68306379D01*
X133209936Y-68180453D01*
X133016606Y-68256632D01*
X132841852Y-68369064D01*
X132692391Y-68513429D01*
X132573966Y-68684178D01*
X132491128Y-68874750D01*
X132480460Y-68909938D01*
X115861904Y-68909938D01*
X116071668Y-68700174D01*
X116363549Y-68263343D01*
X116564600Y-67777963D01*
X116667095Y-67262686D01*
X116667095Y-66737314D01*
X116564600Y-66222037D01*
X116363549Y-65736657D01*
X116071668Y-65299826D01*
X115700174Y-64928332D01*
X115263343Y-64636451D01*
X114777963Y-64435400D01*
X114262686Y-64332905D01*
X113737314Y-64332905D01*
X113222037Y-64435400D01*
X112736657Y-64636451D01*
X112299826Y-64928332D01*
X111928332Y-65299826D01*
X111636451Y-65736657D01*
X111435400Y-66222037D01*
X111332905Y-66737314D01*
X110685000Y-66737314D01*
X110685000Y-63660000D01*
X159823680Y-63660000D01*
X159721191Y-63807455D01*
G37*
%TD.AperFunction*%
D18*
X161920000Y-67680448D02*
X161920000Y-67869552D01*
X161922070Y-67879960D01*
X161831253Y-67789143D01*
X161845395Y-67775000D01*
X161831253Y-67760858D01*
X161922070Y-67670040D01*
X161920000Y-67680448D01*
%TA.AperFunction,Conductor*%
D19*
G36*
X161920000Y-67680448D02*
G01*
X161920000Y-67869552D01*
X161922070Y-67879960D01*
X161831253Y-67789143D01*
X161845395Y-67775000D01*
X161831253Y-67760858D01*
X161922070Y-67670040D01*
X161920000Y-67680448D01*
G37*
%TD.AperFunction*%
D18*
X168173748Y-67760858D02*
X168159605Y-67775000D01*
X168173748Y-67789143D01*
X168089171Y-67873719D01*
X168090000Y-67869552D01*
X168090000Y-67680448D01*
X168089171Y-67676281D01*
X168173748Y-67760858D01*
%TA.AperFunction,Conductor*%
D19*
G36*
X168173748Y-67760858D02*
G01*
X168159605Y-67775000D01*
X168173748Y-67789143D01*
X168089171Y-67873719D01*
X168090000Y-67869552D01*
X168090000Y-67680448D01*
X168089171Y-67676281D01*
X168173748Y-67760858D01*
G37*
%TD.AperFunction*%
%TD*%
M02*
