%TF.GenerationSoftware,KiCad,Pcbnew,(5.1.7)-1*%
%TF.CreationDate,2021-01-12T02:41:31-08:00*%
%TF.ProjectId,pain5,7061696e-352e-46b6-9963-61645f706362,rev?*%
%TF.SameCoordinates,Original*%
%TF.FileFunction,Copper,L1,Top*%
%TF.FilePolarity,Positive*%
%FSLAX46Y46*%
G04 Gerber Fmt 4.6, Leading zero omitted, Abs format (unit mm)*
G04 Created by KiCad (PCBNEW (5.1.7)-1) date 2021-01-12 02:41:31*
%MOMM*%
%LPD*%
G01*
G04 APERTURE LIST*
%TA.AperFunction,ComponentPad*%
%ADD10O,0.900000X1.700000*%
%TD*%
%TA.AperFunction,ComponentPad*%
%ADD11O,0.900000X2.400000*%
%TD*%
%TA.AperFunction,ComponentPad*%
%ADD12C,0.650000*%
%TD*%
%TA.AperFunction,ComponentPad*%
%ADD13O,0.850000X0.850000*%
%TD*%
%TA.AperFunction,ComponentPad*%
%ADD14R,0.850000X0.850000*%
%TD*%
%TA.AperFunction,ComponentPad*%
%ADD15C,2.500000*%
%TD*%
%TA.AperFunction,SMDPad,CuDef*%
%ADD16R,5.080000X5.080000*%
%TD*%
%TA.AperFunction,SMDPad,CuDef*%
%ADD17R,0.300000X1.000000*%
%TD*%
%TA.AperFunction,SMDPad,CuDef*%
%ADD18R,1.000000X0.300000*%
%TD*%
%TA.AperFunction,SMDPad,CuDef*%
%ADD19R,1.200000X1.400000*%
%TD*%
%TA.AperFunction,ViaPad*%
%ADD20C,0.800000*%
%TD*%
%TA.AperFunction,Conductor*%
%ADD21C,0.250000*%
%TD*%
%TA.AperFunction,Conductor*%
%ADD22C,0.254000*%
%TD*%
%TA.AperFunction,Conductor*%
%ADD23C,0.100000*%
%TD*%
G04 APERTURE END LIST*
D10*
%TO.P,J1,S1*%
%TO.N,GND*%
X169325000Y-64740000D03*
X160675000Y-64740000D03*
D11*
X169325000Y-68120000D03*
X160675000Y-68120000D03*
D12*
%TO.P,J1,B1*%
X167980000Y-67775000D03*
%TO.P,J1,B4*%
%TO.N,VCC*%
X167130000Y-67775000D03*
%TO.P,J1,B5*%
%TO.N,Net-(J1-PadB5)*%
X166280000Y-67775000D03*
%TO.P,J1,B6*%
%TO.N,Net-(J1-PadA6)*%
X165430000Y-67775000D03*
%TO.P,J1,B7*%
%TO.N,Net-(J1-PadA7)*%
X164580000Y-67775000D03*
%TO.P,J1,B8*%
%TO.N,Net-(J1-PadB8)*%
X163730000Y-67775000D03*
%TO.P,J1,B9*%
%TO.N,VCC*%
X162880000Y-67775000D03*
%TO.P,J1,B12*%
%TO.N,GND*%
X162025000Y-67775000D03*
%TO.P,J1,A12*%
X167975000Y-69100000D03*
%TO.P,J1,A9*%
%TO.N,VCC*%
X167125000Y-69100000D03*
%TO.P,J1,A8*%
%TO.N,Net-(J1-PadA8)*%
X166275000Y-69100000D03*
%TO.P,J1,A7*%
%TO.N,Net-(J1-PadA7)*%
X165425000Y-69100000D03*
%TO.P,J1,A6*%
%TO.N,Net-(J1-PadA6)*%
X164575000Y-69100000D03*
%TO.P,J1,A4*%
%TO.N,VCC*%
X162875000Y-69100000D03*
%TO.P,J1,A1*%
%TO.N,GND*%
X162025000Y-69100000D03*
%TO.P,J1,A5*%
%TO.N,Net-(J1-PadA5)*%
X163725000Y-69100000D03*
%TD*%
D13*
%TO.P,J2,6*%
%TO.N,GND*%
X142350000Y-66150000D03*
%TO.P,J2,5*%
%TO.N,/RST*%
X141350000Y-66150000D03*
%TO.P,J2,4*%
%TO.N,/MOSI*%
X140350000Y-66150000D03*
%TO.P,J2,3*%
%TO.N,/SCK*%
X139350000Y-66150000D03*
%TO.P,J2,2*%
%TO.N,VCC*%
X138350000Y-66150000D03*
D14*
%TO.P,J2,1*%
%TO.N,/MISO*%
X137350000Y-66150000D03*
%TD*%
%TO.P,C1,1*%
%TO.N,/XTAL1*%
%TA.AperFunction,SMDPad,CuDef*%
G36*
G01*
X130550000Y-76270000D02*
X130550000Y-76770000D01*
G75*
G02*
X130325000Y-76995000I-225000J0D01*
G01*
X129875000Y-76995000D01*
G75*
G02*
X129650000Y-76770000I0J225000D01*
G01*
X129650000Y-76270000D01*
G75*
G02*
X129875000Y-76045000I225000J0D01*
G01*
X130325000Y-76045000D01*
G75*
G02*
X130550000Y-76270000I0J-225000D01*
G01*
G37*
%TD.AperFunction*%
%TO.P,C1,2*%
%TO.N,GND*%
%TA.AperFunction,SMDPad,CuDef*%
G36*
G01*
X129000000Y-76270000D02*
X129000000Y-76770000D01*
G75*
G02*
X128775000Y-76995000I-225000J0D01*
G01*
X128325000Y-76995000D01*
G75*
G02*
X128100000Y-76770000I0J225000D01*
G01*
X128100000Y-76270000D01*
G75*
G02*
X128325000Y-76045000I225000J0D01*
G01*
X128775000Y-76045000D01*
G75*
G02*
X129000000Y-76270000I0J-225000D01*
G01*
G37*
%TD.AperFunction*%
%TD*%
%TO.P,C2,1*%
%TO.N,/XTAL2*%
%TA.AperFunction,SMDPad,CuDef*%
G36*
G01*
X130600000Y-69412000D02*
X130600000Y-69912000D01*
G75*
G02*
X130375000Y-70137000I-225000J0D01*
G01*
X129925000Y-70137000D01*
G75*
G02*
X129700000Y-69912000I0J225000D01*
G01*
X129700000Y-69412000D01*
G75*
G02*
X129925000Y-69187000I225000J0D01*
G01*
X130375000Y-69187000D01*
G75*
G02*
X130600000Y-69412000I0J-225000D01*
G01*
G37*
%TD.AperFunction*%
%TO.P,C2,2*%
%TO.N,GND*%
%TA.AperFunction,SMDPad,CuDef*%
G36*
G01*
X129050000Y-69412000D02*
X129050000Y-69912000D01*
G75*
G02*
X128825000Y-70137000I-225000J0D01*
G01*
X128375000Y-70137000D01*
G75*
G02*
X128150000Y-69912000I0J225000D01*
G01*
X128150000Y-69412000D01*
G75*
G02*
X128375000Y-69187000I225000J0D01*
G01*
X128825000Y-69187000D01*
G75*
G02*
X129050000Y-69412000I0J-225000D01*
G01*
G37*
%TD.AperFunction*%
%TD*%
%TO.P,C3,2*%
%TO.N,GND*%
%TA.AperFunction,SMDPad,CuDef*%
G36*
G01*
X133350000Y-76500000D02*
X133350000Y-77000000D01*
G75*
G02*
X133125000Y-77225000I-225000J0D01*
G01*
X132675000Y-77225000D01*
G75*
G02*
X132450000Y-77000000I0J225000D01*
G01*
X132450000Y-76500000D01*
G75*
G02*
X132675000Y-76275000I225000J0D01*
G01*
X133125000Y-76275000D01*
G75*
G02*
X133350000Y-76500000I0J-225000D01*
G01*
G37*
%TD.AperFunction*%
%TO.P,C3,1*%
%TO.N,VCC*%
%TA.AperFunction,SMDPad,CuDef*%
G36*
G01*
X134900000Y-76500000D02*
X134900000Y-77000000D01*
G75*
G02*
X134675000Y-77225000I-225000J0D01*
G01*
X134225000Y-77225000D01*
G75*
G02*
X134000000Y-77000000I0J225000D01*
G01*
X134000000Y-76500000D01*
G75*
G02*
X134225000Y-76275000I225000J0D01*
G01*
X134675000Y-76275000D01*
G75*
G02*
X134900000Y-76500000I0J-225000D01*
G01*
G37*
%TD.AperFunction*%
%TD*%
%TO.P,C4,1*%
%TO.N,VCC*%
%TA.AperFunction,SMDPad,CuDef*%
G36*
G01*
X138050000Y-78900000D02*
X138050000Y-79400000D01*
G75*
G02*
X137825000Y-79625000I-225000J0D01*
G01*
X137375000Y-79625000D01*
G75*
G02*
X137150000Y-79400000I0J225000D01*
G01*
X137150000Y-78900000D01*
G75*
G02*
X137375000Y-78675000I225000J0D01*
G01*
X137825000Y-78675000D01*
G75*
G02*
X138050000Y-78900000I0J-225000D01*
G01*
G37*
%TD.AperFunction*%
%TO.P,C4,2*%
%TO.N,GND*%
%TA.AperFunction,SMDPad,CuDef*%
G36*
G01*
X136500000Y-78900000D02*
X136500000Y-79400000D01*
G75*
G02*
X136275000Y-79625000I-225000J0D01*
G01*
X135825000Y-79625000D01*
G75*
G02*
X135600000Y-79400000I0J225000D01*
G01*
X135600000Y-78900000D01*
G75*
G02*
X135825000Y-78675000I225000J0D01*
G01*
X136275000Y-78675000D01*
G75*
G02*
X136500000Y-78900000I0J-225000D01*
G01*
G37*
%TD.AperFunction*%
%TD*%
%TO.P,C5,2*%
%TO.N,GND*%
%TA.AperFunction,SMDPad,CuDef*%
G36*
G01*
X145750000Y-73050000D02*
X146250000Y-73050000D01*
G75*
G02*
X146475000Y-73275000I0J-225000D01*
G01*
X146475000Y-73725000D01*
G75*
G02*
X146250000Y-73950000I-225000J0D01*
G01*
X145750000Y-73950000D01*
G75*
G02*
X145525000Y-73725000I0J225000D01*
G01*
X145525000Y-73275000D01*
G75*
G02*
X145750000Y-73050000I225000J0D01*
G01*
G37*
%TD.AperFunction*%
%TO.P,C5,1*%
%TO.N,VCC*%
%TA.AperFunction,SMDPad,CuDef*%
G36*
G01*
X145750000Y-71500000D02*
X146250000Y-71500000D01*
G75*
G02*
X146475000Y-71725000I0J-225000D01*
G01*
X146475000Y-72175000D01*
G75*
G02*
X146250000Y-72400000I-225000J0D01*
G01*
X145750000Y-72400000D01*
G75*
G02*
X145525000Y-72175000I0J225000D01*
G01*
X145525000Y-71725000D01*
G75*
G02*
X145750000Y-71500000I225000J0D01*
G01*
G37*
%TD.AperFunction*%
%TD*%
%TO.P,C6,1*%
%TO.N,VCC*%
%TA.AperFunction,SMDPad,CuDef*%
G36*
G01*
X146250000Y-77025000D02*
X145750000Y-77025000D01*
G75*
G02*
X145525000Y-76800000I0J225000D01*
G01*
X145525000Y-76350000D01*
G75*
G02*
X145750000Y-76125000I225000J0D01*
G01*
X146250000Y-76125000D01*
G75*
G02*
X146475000Y-76350000I0J-225000D01*
G01*
X146475000Y-76800000D01*
G75*
G02*
X146250000Y-77025000I-225000J0D01*
G01*
G37*
%TD.AperFunction*%
%TO.P,C6,2*%
%TO.N,GND*%
%TA.AperFunction,SMDPad,CuDef*%
G36*
G01*
X146250000Y-75475000D02*
X145750000Y-75475000D01*
G75*
G02*
X145525000Y-75250000I0J225000D01*
G01*
X145525000Y-74800000D01*
G75*
G02*
X145750000Y-74575000I225000J0D01*
G01*
X146250000Y-74575000D01*
G75*
G02*
X146475000Y-74800000I0J-225000D01*
G01*
X146475000Y-75250000D01*
G75*
G02*
X146250000Y-75475000I-225000J0D01*
G01*
G37*
%TD.AperFunction*%
%TD*%
%TO.P,C7,2*%
%TO.N,GND*%
%TA.AperFunction,SMDPad,CuDef*%
G36*
G01*
X147525000Y-66100000D02*
X147525000Y-66600000D01*
G75*
G02*
X147300000Y-66825000I-225000J0D01*
G01*
X146850000Y-66825000D01*
G75*
G02*
X146625000Y-66600000I0J225000D01*
G01*
X146625000Y-66100000D01*
G75*
G02*
X146850000Y-65875000I225000J0D01*
G01*
X147300000Y-65875000D01*
G75*
G02*
X147525000Y-66100000I0J-225000D01*
G01*
G37*
%TD.AperFunction*%
%TO.P,C7,1*%
%TO.N,VCC*%
%TA.AperFunction,SMDPad,CuDef*%
G36*
G01*
X149075000Y-66100000D02*
X149075000Y-66600000D01*
G75*
G02*
X148850000Y-66825000I-225000J0D01*
G01*
X148400000Y-66825000D01*
G75*
G02*
X148175000Y-66600000I0J225000D01*
G01*
X148175000Y-66100000D01*
G75*
G02*
X148400000Y-65875000I225000J0D01*
G01*
X148850000Y-65875000D01*
G75*
G02*
X149075000Y-66100000I0J-225000D01*
G01*
G37*
%TD.AperFunction*%
%TD*%
%TO.P,C8,1*%
%TO.N,VCC*%
%TA.AperFunction,SMDPad,CuDef*%
G36*
G01*
X163300000Y-71400000D02*
X163300000Y-71900000D01*
G75*
G02*
X163075000Y-72125000I-225000J0D01*
G01*
X162625000Y-72125000D01*
G75*
G02*
X162400000Y-71900000I0J225000D01*
G01*
X162400000Y-71400000D01*
G75*
G02*
X162625000Y-71175000I225000J0D01*
G01*
X163075000Y-71175000D01*
G75*
G02*
X163300000Y-71400000I0J-225000D01*
G01*
G37*
%TD.AperFunction*%
%TO.P,C8,2*%
%TO.N,GND*%
%TA.AperFunction,SMDPad,CuDef*%
G36*
G01*
X161750000Y-71400000D02*
X161750000Y-71900000D01*
G75*
G02*
X161525000Y-72125000I-225000J0D01*
G01*
X161075000Y-72125000D01*
G75*
G02*
X160850000Y-71900000I0J225000D01*
G01*
X160850000Y-71400000D01*
G75*
G02*
X161075000Y-71175000I225000J0D01*
G01*
X161525000Y-71175000D01*
G75*
G02*
X161750000Y-71400000I0J-225000D01*
G01*
G37*
%TD.AperFunction*%
%TD*%
%TO.P,C9,2*%
%TO.N,GND*%
%TA.AperFunction,SMDPad,CuDef*%
G36*
G01*
X145175000Y-68150000D02*
X145175000Y-67650000D01*
G75*
G02*
X145400000Y-67425000I225000J0D01*
G01*
X145850000Y-67425000D01*
G75*
G02*
X146075000Y-67650000I0J-225000D01*
G01*
X146075000Y-68150000D01*
G75*
G02*
X145850000Y-68375000I-225000J0D01*
G01*
X145400000Y-68375000D01*
G75*
G02*
X145175000Y-68150000I0J225000D01*
G01*
G37*
%TD.AperFunction*%
%TO.P,C9,1*%
%TO.N,Net-(C9-Pad1)*%
%TA.AperFunction,SMDPad,CuDef*%
G36*
G01*
X143625000Y-68150000D02*
X143625000Y-67650000D01*
G75*
G02*
X143850000Y-67425000I225000J0D01*
G01*
X144300000Y-67425000D01*
G75*
G02*
X144525000Y-67650000I0J-225000D01*
G01*
X144525000Y-68150000D01*
G75*
G02*
X144300000Y-68375000I-225000J0D01*
G01*
X143850000Y-68375000D01*
G75*
G02*
X143625000Y-68150000I0J225000D01*
G01*
G37*
%TD.AperFunction*%
%TD*%
%TO.P,D1,1*%
%TO.N,/K1*%
%TA.AperFunction,SMDPad,CuDef*%
G36*
G01*
X126225000Y-81343750D02*
X126225000Y-81856250D01*
G75*
G02*
X126006250Y-82075000I-218750J0D01*
G01*
X125568750Y-82075000D01*
G75*
G02*
X125350000Y-81856250I0J218750D01*
G01*
X125350000Y-81343750D01*
G75*
G02*
X125568750Y-81125000I218750J0D01*
G01*
X126006250Y-81125000D01*
G75*
G02*
X126225000Y-81343750I0J-218750D01*
G01*
G37*
%TD.AperFunction*%
%TO.P,D1,2*%
%TO.N,Net-(D1-Pad2)*%
%TA.AperFunction,SMDPad,CuDef*%
G36*
G01*
X124650000Y-81343750D02*
X124650000Y-81856250D01*
G75*
G02*
X124431250Y-82075000I-218750J0D01*
G01*
X123993750Y-82075000D01*
G75*
G02*
X123775000Y-81856250I0J218750D01*
G01*
X123775000Y-81343750D01*
G75*
G02*
X123993750Y-81125000I218750J0D01*
G01*
X124431250Y-81125000D01*
G75*
G02*
X124650000Y-81343750I0J-218750D01*
G01*
G37*
%TD.AperFunction*%
%TD*%
%TO.P,D2,1*%
%TO.N,/K2*%
%TA.AperFunction,SMDPad,CuDef*%
G36*
G01*
X141287500Y-81656250D02*
X141287500Y-81143750D01*
G75*
G02*
X141506250Y-80925000I218750J0D01*
G01*
X141943750Y-80925000D01*
G75*
G02*
X142162500Y-81143750I0J-218750D01*
G01*
X142162500Y-81656250D01*
G75*
G02*
X141943750Y-81875000I-218750J0D01*
G01*
X141506250Y-81875000D01*
G75*
G02*
X141287500Y-81656250I0J218750D01*
G01*
G37*
%TD.AperFunction*%
%TO.P,D2,2*%
%TO.N,Net-(D2-Pad2)*%
%TA.AperFunction,SMDPad,CuDef*%
G36*
G01*
X142862500Y-81656250D02*
X142862500Y-81143750D01*
G75*
G02*
X143081250Y-80925000I218750J0D01*
G01*
X143518750Y-80925000D01*
G75*
G02*
X143737500Y-81143750I0J-218750D01*
G01*
X143737500Y-81656250D01*
G75*
G02*
X143518750Y-81875000I-218750J0D01*
G01*
X143081250Y-81875000D01*
G75*
G02*
X142862500Y-81656250I0J218750D01*
G01*
G37*
%TD.AperFunction*%
%TD*%
%TO.P,D3,2*%
%TO.N,Net-(D3-Pad2)*%
%TA.AperFunction,SMDPad,CuDef*%
G36*
G01*
X162950000Y-81143750D02*
X162950000Y-81656250D01*
G75*
G02*
X162731250Y-81875000I-218750J0D01*
G01*
X162293750Y-81875000D01*
G75*
G02*
X162075000Y-81656250I0J218750D01*
G01*
X162075000Y-81143750D01*
G75*
G02*
X162293750Y-80925000I218750J0D01*
G01*
X162731250Y-80925000D01*
G75*
G02*
X162950000Y-81143750I0J-218750D01*
G01*
G37*
%TD.AperFunction*%
%TO.P,D3,1*%
%TO.N,/K3*%
%TA.AperFunction,SMDPad,CuDef*%
G36*
G01*
X164525000Y-81143750D02*
X164525000Y-81656250D01*
G75*
G02*
X164306250Y-81875000I-218750J0D01*
G01*
X163868750Y-81875000D01*
G75*
G02*
X163650000Y-81656250I0J218750D01*
G01*
X163650000Y-81143750D01*
G75*
G02*
X163868750Y-80925000I218750J0D01*
G01*
X164306250Y-80925000D01*
G75*
G02*
X164525000Y-81143750I0J-218750D01*
G01*
G37*
%TD.AperFunction*%
%TD*%
%TO.P,D4,1*%
%TO.N,/K4*%
%TA.AperFunction,SMDPad,CuDef*%
G36*
G01*
X183625000Y-81143750D02*
X183625000Y-81656250D01*
G75*
G02*
X183406250Y-81875000I-218750J0D01*
G01*
X182968750Y-81875000D01*
G75*
G02*
X182750000Y-81656250I0J218750D01*
G01*
X182750000Y-81143750D01*
G75*
G02*
X182968750Y-80925000I218750J0D01*
G01*
X183406250Y-80925000D01*
G75*
G02*
X183625000Y-81143750I0J-218750D01*
G01*
G37*
%TD.AperFunction*%
%TO.P,D4,2*%
%TO.N,Net-(D4-Pad2)*%
%TA.AperFunction,SMDPad,CuDef*%
G36*
G01*
X182050000Y-81143750D02*
X182050000Y-81656250D01*
G75*
G02*
X181831250Y-81875000I-218750J0D01*
G01*
X181393750Y-81875000D01*
G75*
G02*
X181175000Y-81656250I0J218750D01*
G01*
X181175000Y-81143750D01*
G75*
G02*
X181393750Y-80925000I218750J0D01*
G01*
X181831250Y-80925000D01*
G75*
G02*
X182050000Y-81143750I0J-218750D01*
G01*
G37*
%TD.AperFunction*%
%TD*%
%TO.P,D5,2*%
%TO.N,Net-(D5-Pad2)*%
%TA.AperFunction,SMDPad,CuDef*%
G36*
G01*
X201150000Y-81143750D02*
X201150000Y-81656250D01*
G75*
G02*
X200931250Y-81875000I-218750J0D01*
G01*
X200493750Y-81875000D01*
G75*
G02*
X200275000Y-81656250I0J218750D01*
G01*
X200275000Y-81143750D01*
G75*
G02*
X200493750Y-80925000I218750J0D01*
G01*
X200931250Y-80925000D01*
G75*
G02*
X201150000Y-81143750I0J-218750D01*
G01*
G37*
%TD.AperFunction*%
%TO.P,D5,1*%
%TO.N,/K5*%
%TA.AperFunction,SMDPad,CuDef*%
G36*
G01*
X202725000Y-81143750D02*
X202725000Y-81656250D01*
G75*
G02*
X202506250Y-81875000I-218750J0D01*
G01*
X202068750Y-81875000D01*
G75*
G02*
X201850000Y-81656250I0J218750D01*
G01*
X201850000Y-81143750D01*
G75*
G02*
X202068750Y-80925000I218750J0D01*
G01*
X202506250Y-80925000D01*
G75*
G02*
X202725000Y-81143750I0J-218750D01*
G01*
G37*
%TD.AperFunction*%
%TD*%
%TO.P,D6,1*%
%TO.N,GND*%
%TA.AperFunction,SMDPad,CuDef*%
G36*
G01*
X177456250Y-70037500D02*
X176943750Y-70037500D01*
G75*
G02*
X176725000Y-69818750I0J218750D01*
G01*
X176725000Y-69381250D01*
G75*
G02*
X176943750Y-69162500I218750J0D01*
G01*
X177456250Y-69162500D01*
G75*
G02*
X177675000Y-69381250I0J-218750D01*
G01*
X177675000Y-69818750D01*
G75*
G02*
X177456250Y-70037500I-218750J0D01*
G01*
G37*
%TD.AperFunction*%
%TO.P,D6,2*%
%TO.N,Net-(D6-Pad2)*%
%TA.AperFunction,SMDPad,CuDef*%
G36*
G01*
X177456250Y-68462500D02*
X176943750Y-68462500D01*
G75*
G02*
X176725000Y-68243750I0J218750D01*
G01*
X176725000Y-67806250D01*
G75*
G02*
X176943750Y-67587500I218750J0D01*
G01*
X177456250Y-67587500D01*
G75*
G02*
X177675000Y-67806250I0J-218750D01*
G01*
X177675000Y-68243750D01*
G75*
G02*
X177456250Y-68462500I-218750J0D01*
G01*
G37*
%TD.AperFunction*%
%TD*%
%TO.P,J3,1*%
%TO.N,/RST*%
X133500000Y-70200000D03*
D13*
%TO.P,J3,2*%
%TO.N,GND*%
X133500000Y-69200000D03*
%TD*%
D15*
%TO.P,K1,1*%
%TO.N,/KVCC*%
X130550000Y-87685000D03*
%TO.P,K1,2*%
%TO.N,Net-(D1-Pad2)*%
X124200000Y-85145000D03*
%TD*%
%TO.P,K2,2*%
%TO.N,Net-(D2-Pad2)*%
X143350000Y-85145000D03*
%TO.P,K2,1*%
%TO.N,/KVCC*%
X149700000Y-87685000D03*
%TD*%
%TO.P,K3,1*%
%TO.N,/KVCC*%
X168825000Y-87685000D03*
%TO.P,K3,2*%
%TO.N,Net-(D3-Pad2)*%
X162475000Y-85145000D03*
%TD*%
%TO.P,K4,2*%
%TO.N,Net-(D4-Pad2)*%
X181625000Y-85145000D03*
%TO.P,K4,1*%
%TO.N,/KVCC*%
X187975000Y-87685000D03*
%TD*%
%TO.P,K5,1*%
%TO.N,/KVCC*%
X207115000Y-87680000D03*
%TO.P,K5,2*%
%TO.N,Net-(D5-Pad2)*%
X200765000Y-85140000D03*
%TD*%
%TO.P,R1,1*%
%TO.N,/DATA-*%
%TA.AperFunction,SMDPad,CuDef*%
G36*
G01*
X151175000Y-71175000D02*
X151175000Y-70625000D01*
G75*
G02*
X151375000Y-70425000I200000J0D01*
G01*
X151775000Y-70425000D01*
G75*
G02*
X151975000Y-70625000I0J-200000D01*
G01*
X151975000Y-71175000D01*
G75*
G02*
X151775000Y-71375000I-200000J0D01*
G01*
X151375000Y-71375000D01*
G75*
G02*
X151175000Y-71175000I0J200000D01*
G01*
G37*
%TD.AperFunction*%
%TO.P,R1,2*%
%TO.N,Net-(J1-PadA7)*%
%TA.AperFunction,SMDPad,CuDef*%
G36*
G01*
X152825000Y-71175000D02*
X152825000Y-70625000D01*
G75*
G02*
X153025000Y-70425000I200000J0D01*
G01*
X153425000Y-70425000D01*
G75*
G02*
X153625000Y-70625000I0J-200000D01*
G01*
X153625000Y-71175000D01*
G75*
G02*
X153425000Y-71375000I-200000J0D01*
G01*
X153025000Y-71375000D01*
G75*
G02*
X152825000Y-71175000I0J200000D01*
G01*
G37*
%TD.AperFunction*%
%TD*%
%TO.P,R2,1*%
%TO.N,/DATA+*%
%TA.AperFunction,SMDPad,CuDef*%
G36*
G01*
X151200000Y-69275000D02*
X151200000Y-68725000D01*
G75*
G02*
X151400000Y-68525000I200000J0D01*
G01*
X151800000Y-68525000D01*
G75*
G02*
X152000000Y-68725000I0J-200000D01*
G01*
X152000000Y-69275000D01*
G75*
G02*
X151800000Y-69475000I-200000J0D01*
G01*
X151400000Y-69475000D01*
G75*
G02*
X151200000Y-69275000I0J200000D01*
G01*
G37*
%TD.AperFunction*%
%TO.P,R2,2*%
%TO.N,Net-(J1-PadA6)*%
%TA.AperFunction,SMDPad,CuDef*%
G36*
G01*
X152850000Y-69275000D02*
X152850000Y-68725000D01*
G75*
G02*
X153050000Y-68525000I200000J0D01*
G01*
X153450000Y-68525000D01*
G75*
G02*
X153650000Y-68725000I0J-200000D01*
G01*
X153650000Y-69275000D01*
G75*
G02*
X153450000Y-69475000I-200000J0D01*
G01*
X153050000Y-69475000D01*
G75*
G02*
X152850000Y-69275000I0J200000D01*
G01*
G37*
%TD.AperFunction*%
%TD*%
%TO.P,R3,2*%
%TO.N,GND*%
%TA.AperFunction,SMDPad,CuDef*%
G36*
G01*
X172500000Y-74725000D02*
X172500000Y-74175000D01*
G75*
G02*
X172700000Y-73975000I200000J0D01*
G01*
X173100000Y-73975000D01*
G75*
G02*
X173300000Y-74175000I0J-200000D01*
G01*
X173300000Y-74725000D01*
G75*
G02*
X173100000Y-74925000I-200000J0D01*
G01*
X172700000Y-74925000D01*
G75*
G02*
X172500000Y-74725000I0J200000D01*
G01*
G37*
%TD.AperFunction*%
%TO.P,R3,1*%
%TO.N,Net-(J1-PadA5)*%
%TA.AperFunction,SMDPad,CuDef*%
G36*
G01*
X170850000Y-74725000D02*
X170850000Y-74175000D01*
G75*
G02*
X171050000Y-73975000I200000J0D01*
G01*
X171450000Y-73975000D01*
G75*
G02*
X171650000Y-74175000I0J-200000D01*
G01*
X171650000Y-74725000D01*
G75*
G02*
X171450000Y-74925000I-200000J0D01*
G01*
X171050000Y-74925000D01*
G75*
G02*
X170850000Y-74725000I0J200000D01*
G01*
G37*
%TD.AperFunction*%
%TD*%
%TO.P,R4,1*%
%TO.N,Net-(J1-PadB5)*%
%TA.AperFunction,SMDPad,CuDef*%
G36*
G01*
X170850000Y-72025000D02*
X170850000Y-71475000D01*
G75*
G02*
X171050000Y-71275000I200000J0D01*
G01*
X171450000Y-71275000D01*
G75*
G02*
X171650000Y-71475000I0J-200000D01*
G01*
X171650000Y-72025000D01*
G75*
G02*
X171450000Y-72225000I-200000J0D01*
G01*
X171050000Y-72225000D01*
G75*
G02*
X170850000Y-72025000I0J200000D01*
G01*
G37*
%TD.AperFunction*%
%TO.P,R4,2*%
%TO.N,GND*%
%TA.AperFunction,SMDPad,CuDef*%
G36*
G01*
X172500000Y-72025000D02*
X172500000Y-71475000D01*
G75*
G02*
X172700000Y-71275000I200000J0D01*
G01*
X173100000Y-71275000D01*
G75*
G02*
X173300000Y-71475000I0J-200000D01*
G01*
X173300000Y-72025000D01*
G75*
G02*
X173100000Y-72225000I-200000J0D01*
G01*
X172700000Y-72225000D01*
G75*
G02*
X172500000Y-72025000I0J200000D01*
G01*
G37*
%TD.AperFunction*%
%TD*%
%TO.P,R5,2*%
%TO.N,/RST*%
%TA.AperFunction,SMDPad,CuDef*%
G36*
G01*
X136825000Y-68475000D02*
X136275000Y-68475000D01*
G75*
G02*
X136075000Y-68275000I0J200000D01*
G01*
X136075000Y-67875000D01*
G75*
G02*
X136275000Y-67675000I200000J0D01*
G01*
X136825000Y-67675000D01*
G75*
G02*
X137025000Y-67875000I0J-200000D01*
G01*
X137025000Y-68275000D01*
G75*
G02*
X136825000Y-68475000I-200000J0D01*
G01*
G37*
%TD.AperFunction*%
%TO.P,R5,1*%
%TO.N,VCC*%
%TA.AperFunction,SMDPad,CuDef*%
G36*
G01*
X136825000Y-70125000D02*
X136275000Y-70125000D01*
G75*
G02*
X136075000Y-69925000I0J200000D01*
G01*
X136075000Y-69525000D01*
G75*
G02*
X136275000Y-69325000I200000J0D01*
G01*
X136825000Y-69325000D01*
G75*
G02*
X137025000Y-69525000I0J-200000D01*
G01*
X137025000Y-69925000D01*
G75*
G02*
X136825000Y-70125000I-200000J0D01*
G01*
G37*
%TD.AperFunction*%
%TD*%
D16*
%TO.P,U1,TAB*%
%TO.N,GND*%
X140750000Y-74050000D03*
D17*
%TO.P,U1,1*%
%TO.N,Net-(U1-Pad1)*%
X143250000Y-70700000D03*
%TO.P,U1,2*%
%TO.N,VCC*%
X142750000Y-70700000D03*
%TO.P,U1,3*%
%TO.N,/DATA-*%
X142250000Y-70700000D03*
%TO.P,U1,4*%
%TO.N,/DATA+*%
X141750000Y-70700000D03*
%TO.P,U1,5*%
%TO.N,GND*%
X141250000Y-70700000D03*
%TO.P,U1,6*%
%TO.N,Net-(C9-Pad1)*%
X140750000Y-70700000D03*
%TO.P,U1,7*%
%TO.N,VCC*%
X140250000Y-70700000D03*
%TO.P,U1,8*%
%TO.N,Net-(U1-Pad8)*%
X139750000Y-70700000D03*
%TO.P,U1,9*%
%TO.N,/SCK*%
X139250000Y-70700000D03*
%TO.P,U1,10*%
%TO.N,/MOSI*%
X138750000Y-70700000D03*
%TO.P,U1,11*%
%TO.N,/MISO*%
X138250000Y-70700000D03*
D18*
%TO.P,U1,12*%
%TO.N,Net-(U1-Pad12)*%
X137400000Y-71550000D03*
%TO.P,U1,13*%
%TO.N,/RST*%
X137400000Y-72050000D03*
%TO.P,U1,14*%
%TO.N,VCC*%
X137400000Y-72550000D03*
%TO.P,U1,15*%
%TO.N,GND*%
X137400000Y-73050000D03*
%TO.P,U1,16*%
%TO.N,/XTAL2*%
X137400000Y-73550000D03*
%TO.P,U1,17*%
%TO.N,/XTAL1*%
X137400000Y-74050000D03*
%TO.P,U1,18*%
%TO.N,/K1*%
X137400000Y-74550000D03*
%TO.P,U1,19*%
%TO.N,Net-(U1-Pad19)*%
X137400000Y-75050000D03*
%TO.P,U1,20*%
%TO.N,Net-(U1-Pad20)*%
X137400000Y-75550000D03*
%TO.P,U1,21*%
%TO.N,Net-(U1-Pad21)*%
X137400000Y-76050000D03*
%TO.P,U1,22*%
%TO.N,Net-(U1-Pad22)*%
X137400000Y-76550000D03*
D17*
%TO.P,U1,23*%
%TO.N,GND*%
X138250000Y-77400000D03*
%TO.P,U1,24*%
%TO.N,VCC*%
X138750000Y-77400000D03*
%TO.P,U1,25*%
%TO.N,/KVCC*%
X139250000Y-77400000D03*
%TO.P,U1,26*%
%TO.N,/K2*%
X139750000Y-77400000D03*
%TO.P,U1,27*%
%TO.N,/K3*%
X140250000Y-77400000D03*
%TO.P,U1,28*%
%TO.N,/K4*%
X140750000Y-77400000D03*
%TO.P,U1,29*%
%TO.N,Net-(U1-Pad29)*%
X141250000Y-77400000D03*
%TO.P,U1,30*%
%TO.N,/K5*%
X141750000Y-77400000D03*
%TO.P,U1,31*%
%TO.N,Net-(U1-Pad31)*%
X142250000Y-77400000D03*
%TO.P,U1,32*%
%TO.N,Net-(U1-Pad32)*%
X142750000Y-77400000D03*
%TO.P,U1,33*%
%TO.N,Net-(U1-Pad33)*%
X143250000Y-77400000D03*
D18*
%TO.P,U1,34*%
%TO.N,VCC*%
X144100000Y-76550000D03*
%TO.P,U1,35*%
%TO.N,GND*%
X144100000Y-76050000D03*
%TO.P,U1,36*%
%TO.N,Net-(U1-Pad36)*%
X144100000Y-75550000D03*
%TO.P,U1,37*%
%TO.N,Net-(U1-Pad37)*%
X144100000Y-75050000D03*
%TO.P,U1,38*%
%TO.N,Net-(U1-Pad38)*%
X144100000Y-74550000D03*
%TO.P,U1,39*%
%TO.N,Net-(U1-Pad39)*%
X144100000Y-74050000D03*
%TO.P,U1,40*%
%TO.N,Net-(U1-Pad40)*%
X144100000Y-73550000D03*
%TO.P,U1,41*%
%TO.N,Net-(U1-Pad41)*%
X144100000Y-73050000D03*
%TO.P,U1,42*%
%TO.N,Net-(U1-Pad42)*%
X144100000Y-72550000D03*
%TO.P,U1,43*%
%TO.N,GND*%
X144100000Y-72050000D03*
%TO.P,U1,44*%
%TO.N,VCC*%
X144100000Y-71550000D03*
%TD*%
D19*
%TO.P,Y1,1*%
%TO.N,/XTAL1*%
X130150000Y-74175000D03*
%TO.P,Y1,2*%
%TO.N,GND*%
X130150000Y-71975000D03*
%TO.P,Y1,3*%
%TO.N,/XTAL2*%
X128450000Y-71975000D03*
%TO.P,Y1,4*%
%TO.N,GND*%
X128450000Y-74175000D03*
%TD*%
%TO.P,R6,2*%
%TO.N,Net-(D6-Pad2)*%
%TA.AperFunction,SMDPad,CuDef*%
G36*
G01*
X174200000Y-66675000D02*
X174200000Y-66125000D01*
G75*
G02*
X174400000Y-65925000I200000J0D01*
G01*
X174800000Y-65925000D01*
G75*
G02*
X175000000Y-66125000I0J-200000D01*
G01*
X175000000Y-66675000D01*
G75*
G02*
X174800000Y-66875000I-200000J0D01*
G01*
X174400000Y-66875000D01*
G75*
G02*
X174200000Y-66675000I0J200000D01*
G01*
G37*
%TD.AperFunction*%
%TO.P,R6,1*%
%TO.N,VCC*%
%TA.AperFunction,SMDPad,CuDef*%
G36*
G01*
X172550000Y-66675000D02*
X172550000Y-66125000D01*
G75*
G02*
X172750000Y-65925000I200000J0D01*
G01*
X173150000Y-65925000D01*
G75*
G02*
X173350000Y-66125000I0J-200000D01*
G01*
X173350000Y-66675000D01*
G75*
G02*
X173150000Y-66875000I-200000J0D01*
G01*
X172750000Y-66875000D01*
G75*
G02*
X172550000Y-66675000I0J200000D01*
G01*
G37*
%TD.AperFunction*%
%TD*%
%TO.P,R7,1*%
%TO.N,Net-(D6-Pad2)*%
%TA.AperFunction,SMDPad,CuDef*%
G36*
G01*
X179350000Y-66675000D02*
X179350000Y-66125000D01*
G75*
G02*
X179550000Y-65925000I200000J0D01*
G01*
X179950000Y-65925000D01*
G75*
G02*
X180150000Y-66125000I0J-200000D01*
G01*
X180150000Y-66675000D01*
G75*
G02*
X179950000Y-66875000I-200000J0D01*
G01*
X179550000Y-66875000D01*
G75*
G02*
X179350000Y-66675000I0J200000D01*
G01*
G37*
%TD.AperFunction*%
%TO.P,R7,2*%
%TO.N,GND*%
%TA.AperFunction,SMDPad,CuDef*%
G36*
G01*
X181000000Y-66675000D02*
X181000000Y-66125000D01*
G75*
G02*
X181200000Y-65925000I200000J0D01*
G01*
X181600000Y-65925000D01*
G75*
G02*
X181800000Y-66125000I0J-200000D01*
G01*
X181800000Y-66675000D01*
G75*
G02*
X181600000Y-66875000I-200000J0D01*
G01*
X181200000Y-66875000D01*
G75*
G02*
X181000000Y-66675000I0J200000D01*
G01*
G37*
%TD.AperFunction*%
%TD*%
D20*
%TO.N,GND*%
X147075000Y-66325000D03*
X130159000Y-71932800D03*
X141219985Y-68855319D03*
X135350000Y-72825000D03*
%TO.N,VCC*%
X135350000Y-71750000D03*
X136550000Y-69725000D03*
X137600000Y-79150000D03*
X146000000Y-76575000D03*
X146000000Y-71950000D03*
X162850000Y-71650000D03*
X134450000Y-76750000D03*
%TO.N,Net-(J1-PadB5)*%
X171250000Y-71750000D03*
%TO.N,Net-(J1-PadA5)*%
X171250000Y-74450000D03*
%TO.N,/MOSI*%
X138075153Y-69499847D03*
%TD*%
D21*
%TO.N,/XTAL1*%
X130150000Y-76470000D02*
X130100000Y-76520000D01*
X130150000Y-74175000D02*
X130150000Y-76470000D01*
X130275000Y-74050000D02*
X137400000Y-74050000D01*
X130150000Y-74175000D02*
X130275000Y-74050000D01*
%TO.N,GND*%
X141250000Y-68885334D02*
X141219985Y-68855319D01*
X141250000Y-70700000D02*
X141250000Y-68885334D01*
X144975000Y-76050000D02*
X146000000Y-75025000D01*
X144100000Y-76050000D02*
X144975000Y-76050000D01*
X146000000Y-73214998D02*
X146000000Y-73500000D01*
X144835002Y-72050000D02*
X146000000Y-73214998D01*
X144100000Y-72050000D02*
X144835002Y-72050000D01*
X141250000Y-73550000D02*
X140750000Y-74050000D01*
X141250000Y-70700000D02*
X141250000Y-73550000D01*
X142750000Y-76050000D02*
X140750000Y-74050000D01*
X144100000Y-76050000D02*
X142750000Y-76050000D01*
X138250000Y-76550000D02*
X140750000Y-74050000D01*
X138250000Y-77400000D02*
X138250000Y-76550000D01*
X139750000Y-73050000D02*
X140750000Y-74050000D01*
X137400000Y-73050000D02*
X139750000Y-73050000D01*
X135575000Y-73050000D02*
X135350000Y-72825000D01*
X137400000Y-73050000D02*
X135575000Y-73050000D01*
X161680000Y-68120000D02*
X162025000Y-67775000D01*
X160675000Y-68120000D02*
X161680000Y-68120000D01*
X168980000Y-67775000D02*
X169325000Y-68120000D01*
X167980000Y-67775000D02*
X168980000Y-67775000D01*
X135350000Y-72825000D02*
X134805000Y-72825000D01*
%TO.N,/XTAL2*%
X130150000Y-70175000D02*
X130150000Y-69662000D01*
X128450000Y-71875000D02*
X130150000Y-70175000D01*
X128450000Y-71975000D02*
X128450000Y-71875000D01*
X134038000Y-73550000D02*
X137400000Y-73550000D01*
X130150000Y-69662000D02*
X134038000Y-73550000D01*
%TO.N,VCC*%
X138750000Y-78450000D02*
X138750000Y-77400000D01*
X138050000Y-79150000D02*
X138750000Y-78450000D01*
X137600000Y-79150000D02*
X138050000Y-79150000D01*
X145600000Y-71550000D02*
X146000000Y-71950000D01*
X144100000Y-71550000D02*
X145600000Y-71550000D01*
X145975000Y-76550000D02*
X146000000Y-76575000D01*
X144100000Y-76550000D02*
X145975000Y-76550000D01*
X167120000Y-69095000D02*
X167125000Y-69100000D01*
X162875000Y-71425000D02*
X162650000Y-71650000D01*
X162650000Y-71650000D02*
X162650000Y-71650000D01*
X167125000Y-69212002D02*
X167125000Y-69100000D01*
X167125000Y-67780000D02*
X167120000Y-67775000D01*
X162850000Y-69125000D02*
X162875000Y-69100000D01*
X162850000Y-71650000D02*
X162850000Y-69125000D01*
X162875000Y-67780000D02*
X162880000Y-67775000D01*
X162875000Y-69100000D02*
X162875000Y-67780000D01*
X167130000Y-69095000D02*
X167125000Y-69100000D01*
X167130000Y-67775000D02*
X167130000Y-69095000D01*
X167130000Y-67315381D02*
X168145381Y-66300000D01*
X167130000Y-67775000D02*
X167130000Y-67315381D01*
X147475000Y-65200000D02*
X148625000Y-66350000D01*
X146350000Y-65200000D02*
X147475000Y-65200000D01*
X141265902Y-67099990D02*
X144450010Y-67099990D01*
X144450010Y-67099990D02*
X146350000Y-65200000D01*
X140044975Y-68320917D02*
X141265902Y-67099990D01*
X140250000Y-69594746D02*
X140044974Y-69389720D01*
X140044974Y-69389720D02*
X140044975Y-68320917D01*
X140250000Y-70700000D02*
X140250000Y-69594746D01*
X136150000Y-72550000D02*
X137400000Y-72550000D01*
X135350000Y-71750000D02*
X136150000Y-72550000D01*
X143924999Y-69874999D02*
X146000000Y-71950000D01*
X142757801Y-69874999D02*
X143924999Y-69874999D01*
X142750000Y-69882800D02*
X142757801Y-69874999D01*
X142750000Y-70700000D02*
X142750000Y-69882800D01*
X172850000Y-66300000D02*
X172950000Y-66400000D01*
X168145381Y-66300000D02*
X172850000Y-66300000D01*
%TO.N,Net-(C9-Pad1)*%
X141102302Y-67900000D02*
X144075000Y-67900000D01*
X140494984Y-69203320D02*
X140494984Y-68507318D01*
X140494984Y-68507318D02*
X141102302Y-67900000D01*
X140750000Y-69458336D02*
X140494984Y-69203320D01*
X140750000Y-70700000D02*
X140750000Y-69458336D01*
%TO.N,/K1*%
X133322834Y-74550000D02*
X131750000Y-76122834D01*
X137400000Y-74550000D02*
X133322834Y-74550000D01*
X131750000Y-76122834D02*
X131750000Y-79250000D01*
X129400000Y-81600000D02*
X125787500Y-81600000D01*
X131750000Y-79250000D02*
X129400000Y-81600000D01*
%TO.N,Net-(D1-Pad2)*%
X124212500Y-85132500D02*
X124200000Y-85145000D01*
X124212500Y-81600000D02*
X124212500Y-85132500D01*
%TO.N,Net-(D2-Pad2)*%
X143300000Y-85095000D02*
X143350000Y-85145000D01*
X143300000Y-81400000D02*
X143300000Y-85095000D01*
%TO.N,/K2*%
X141263590Y-81400000D02*
X141725000Y-81400000D01*
X139750000Y-79886410D02*
X141263590Y-81400000D01*
X139750000Y-77400000D02*
X139750000Y-79886410D01*
%TO.N,/K3*%
X140250000Y-77400000D02*
X140250000Y-79750000D01*
X140250000Y-79750000D02*
X140700000Y-80200000D01*
X162887500Y-80200000D02*
X164087500Y-81400000D01*
X140700000Y-80200000D02*
X162887500Y-80200000D01*
%TO.N,Net-(D3-Pad2)*%
X162512500Y-85107500D02*
X162475000Y-85145000D01*
X162512500Y-81400000D02*
X162512500Y-85107500D01*
%TO.N,Net-(D4-Pad2)*%
X181625000Y-81412500D02*
X181612500Y-81400000D01*
X181625000Y-85145000D02*
X181625000Y-81412500D01*
%TO.N,/K4*%
X141000000Y-79700000D02*
X181487500Y-79700000D01*
X140750000Y-79450000D02*
X141000000Y-79700000D01*
X181487500Y-79700000D02*
X183187500Y-81400000D01*
X140750000Y-77400000D02*
X140750000Y-79450000D01*
%TO.N,/K5*%
X141750000Y-77400000D02*
X141750000Y-78650000D01*
X141750000Y-78650000D02*
X141900000Y-78800000D01*
X199687500Y-78800000D02*
X202287500Y-81400000D01*
X141900000Y-78800000D02*
X199687500Y-78800000D01*
%TO.N,Net-(D5-Pad2)*%
X200765000Y-81452500D02*
X200712500Y-81400000D01*
X200765000Y-85140000D02*
X200765000Y-81452500D01*
%TO.N,Net-(J1-PadA6)*%
X164575000Y-69212002D02*
X164575000Y-69100000D01*
X164575000Y-68987998D02*
X164575000Y-69100000D01*
X165230001Y-68332997D02*
X164575000Y-68987998D01*
X165230001Y-67919999D02*
X165230001Y-68332997D01*
X165375000Y-67775000D02*
X165230001Y-67919999D01*
X165430000Y-67775000D02*
X165375000Y-67775000D01*
X153250000Y-69000000D02*
X153400000Y-69000000D01*
X165430000Y-67315381D02*
X165430000Y-67775000D01*
X164259600Y-66144981D02*
X165430000Y-67315381D01*
X157055020Y-66144980D02*
X164259600Y-66144981D01*
X154200000Y-69000000D02*
X157055020Y-66144980D01*
X153250000Y-69000000D02*
X154200000Y-69000000D01*
%TO.N,Net-(J1-PadA7)*%
X165425000Y-68987998D02*
X165425000Y-69100000D01*
X153225000Y-70900000D02*
X153275010Y-70849990D01*
X153225000Y-70900000D02*
X154374999Y-69750001D01*
X157530010Y-66594990D02*
X154374999Y-69750001D01*
X163859609Y-66594990D02*
X157530010Y-66594990D01*
X164580000Y-67315381D02*
X163859609Y-66594990D01*
X164580000Y-67775000D02*
X164580000Y-67315381D01*
%TO.N,Net-(J1-PadA5)*%
X163725000Y-69559619D02*
X163725000Y-69100000D01*
X168615381Y-74450000D02*
X163725000Y-69559619D01*
X171250000Y-74450000D02*
X168615381Y-74450000D01*
%TO.N,/MISO*%
X137350000Y-69800000D02*
X137350000Y-66150000D01*
X138250000Y-70700000D02*
X137350000Y-69800000D01*
%TO.N,/SCK*%
X139250000Y-66250000D02*
X139350000Y-66150000D01*
X139250000Y-70700000D02*
X139250000Y-66250000D01*
%TO.N,/MOSI*%
X138299847Y-69499847D02*
X138075153Y-69499847D01*
X138750000Y-69950000D02*
X138299847Y-69499847D01*
X138750000Y-70700000D02*
X138750000Y-69950000D01*
%TO.N,/RST*%
X135749990Y-68875010D02*
X136550000Y-68075000D01*
X135749990Y-71134992D02*
X135749990Y-68875010D01*
X136664998Y-72050000D02*
X135749990Y-71134992D01*
X137400000Y-72050000D02*
X136664998Y-72050000D01*
X134425000Y-70200000D02*
X133500000Y-70200000D01*
X135749990Y-68875010D02*
X134425000Y-70200000D01*
X136550000Y-65514998D02*
X136550000Y-68075000D01*
X136664999Y-65399999D02*
X136550000Y-65514998D01*
X140710001Y-65399999D02*
X136664999Y-65399999D01*
X141100001Y-65789999D02*
X140710001Y-65399999D01*
X141100001Y-65900001D02*
X141100001Y-65789999D01*
X141350000Y-66150000D02*
X141100001Y-65900001D01*
%TO.N,/DATA-*%
X142250000Y-69500000D02*
X142299990Y-69450010D01*
X142250000Y-70700000D02*
X142250000Y-69500000D01*
X150125010Y-69450010D02*
X151575000Y-70900000D01*
X149825020Y-69150020D02*
X150125010Y-69450010D01*
X142595190Y-69150020D02*
X149825020Y-69150020D01*
X142250000Y-69495210D02*
X142595190Y-69150020D01*
X142250000Y-69500000D02*
X142250000Y-69495210D01*
%TO.N,/DATA+*%
X141750000Y-70700000D02*
X141750000Y-69350000D01*
X141750000Y-69350000D02*
X142100000Y-69000000D01*
X142100000Y-69000000D02*
X142108800Y-69000000D01*
X151300010Y-68700010D02*
X151600000Y-69000000D01*
X142408790Y-68700010D02*
X151300010Y-68700010D01*
X142108800Y-69000000D02*
X142408790Y-68700010D01*
%TO.N,/KVCC*%
X130555000Y-87680000D02*
X130550000Y-87685000D01*
X139250000Y-77400000D02*
X139250000Y-87610000D01*
X139250000Y-87610000D02*
X139320000Y-87680000D01*
X139320000Y-87680000D02*
X130555000Y-87680000D01*
X207115000Y-87680000D02*
X139320000Y-87680000D01*
%TO.N,Net-(D6-Pad2)*%
X177200000Y-66600000D02*
X177400000Y-66400000D01*
X177200000Y-68025000D02*
X177200000Y-66600000D01*
X177400000Y-66400000D02*
X179750000Y-66400000D01*
X174600000Y-66400000D02*
X177400000Y-66400000D01*
%TD*%
D22*
%TO.N,GND*%
X159721191Y-63807455D02*
X159635624Y-64003767D01*
X159590000Y-64213000D01*
X159590000Y-64613000D01*
X160548000Y-64613000D01*
X160548000Y-64593000D01*
X160802000Y-64593000D01*
X160802000Y-64613000D01*
X161760000Y-64613000D01*
X161760000Y-64213000D01*
X161714376Y-64003767D01*
X161628809Y-63807455D01*
X161526320Y-63660000D01*
X168473680Y-63660000D01*
X168371191Y-63807455D01*
X168285624Y-64003767D01*
X168240000Y-64213000D01*
X168240000Y-64613000D01*
X169198000Y-64613000D01*
X169198000Y-64593000D01*
X169452000Y-64593000D01*
X169452000Y-64613000D01*
X170410000Y-64613000D01*
X170410000Y-64213000D01*
X170364376Y-64003767D01*
X170278809Y-63807455D01*
X170176320Y-63660000D01*
X219315000Y-63660000D01*
X219315001Y-104315000D01*
X110685000Y-104315000D01*
X110685000Y-100737314D01*
X111332905Y-100737314D01*
X111332905Y-101262686D01*
X111435400Y-101777963D01*
X111636451Y-102263343D01*
X111928332Y-102700174D01*
X112299826Y-103071668D01*
X112736657Y-103363549D01*
X113222037Y-103564600D01*
X113737314Y-103667095D01*
X114262686Y-103667095D01*
X114777963Y-103564600D01*
X115263343Y-103363549D01*
X115700174Y-103071668D01*
X116071668Y-102700174D01*
X116363549Y-102263343D01*
X116564600Y-101777963D01*
X116667095Y-101262686D01*
X116667095Y-100737314D01*
X213332905Y-100737314D01*
X213332905Y-101262686D01*
X213435400Y-101777963D01*
X213636451Y-102263343D01*
X213928332Y-102700174D01*
X214299826Y-103071668D01*
X214736657Y-103363549D01*
X215222037Y-103564600D01*
X215737314Y-103667095D01*
X216262686Y-103667095D01*
X216777963Y-103564600D01*
X217263343Y-103363549D01*
X217700174Y-103071668D01*
X218071668Y-102700174D01*
X218363549Y-102263343D01*
X218564600Y-101777963D01*
X218667095Y-101262686D01*
X218667095Y-100737314D01*
X218564600Y-100222037D01*
X218363549Y-99736657D01*
X218071668Y-99299826D01*
X217700174Y-98928332D01*
X217263343Y-98636451D01*
X216777963Y-98435400D01*
X216262686Y-98332905D01*
X215737314Y-98332905D01*
X215222037Y-98435400D01*
X214736657Y-98636451D01*
X214299826Y-98928332D01*
X213928332Y-99299826D01*
X213636451Y-99736657D01*
X213435400Y-100222037D01*
X213332905Y-100737314D01*
X116667095Y-100737314D01*
X116564600Y-100222037D01*
X116363549Y-99736657D01*
X116071668Y-99299826D01*
X115700174Y-98928332D01*
X115263343Y-98636451D01*
X114777963Y-98435400D01*
X114262686Y-98332905D01*
X113737314Y-98332905D01*
X113222037Y-98435400D01*
X112736657Y-98636451D01*
X112299826Y-98928332D01*
X111928332Y-99299826D01*
X111636451Y-99736657D01*
X111435400Y-100222037D01*
X111332905Y-100737314D01*
X110685000Y-100737314D01*
X110685000Y-90076278D01*
X120150000Y-90076278D01*
X120150000Y-90373722D01*
X120208029Y-90665451D01*
X120321856Y-90940253D01*
X120487107Y-91187569D01*
X120697431Y-91397893D01*
X120944747Y-91563144D01*
X121219549Y-91676971D01*
X121511278Y-91735000D01*
X121808722Y-91735000D01*
X122100451Y-91676971D01*
X122375253Y-91563144D01*
X122622569Y-91397893D01*
X122832893Y-91187569D01*
X122998144Y-90940253D01*
X123111971Y-90665451D01*
X123170000Y-90373722D01*
X123170000Y-90076278D01*
X123147960Y-89965475D01*
X124105000Y-89965475D01*
X124105000Y-90484525D01*
X124206261Y-90993601D01*
X124404893Y-91473141D01*
X124693262Y-91904715D01*
X125060285Y-92271738D01*
X125491859Y-92560107D01*
X125971399Y-92758739D01*
X126480475Y-92860000D01*
X126999525Y-92860000D01*
X127508601Y-92758739D01*
X127988141Y-92560107D01*
X128419715Y-92271738D01*
X128786738Y-91904715D01*
X129075107Y-91473141D01*
X129273739Y-90993601D01*
X129375000Y-90484525D01*
X129375000Y-89965475D01*
X129273739Y-89456399D01*
X129075107Y-88976859D01*
X128786738Y-88545285D01*
X128419715Y-88178262D01*
X127988141Y-87889893D01*
X127508601Y-87691261D01*
X126999525Y-87590000D01*
X126480475Y-87590000D01*
X125971399Y-87691261D01*
X125491859Y-87889893D01*
X125060285Y-88178262D01*
X124693262Y-88545285D01*
X124404893Y-88976859D01*
X124206261Y-89456399D01*
X124105000Y-89965475D01*
X123147960Y-89965475D01*
X123111971Y-89784549D01*
X122998144Y-89509747D01*
X122832893Y-89262431D01*
X122622569Y-89052107D01*
X122375253Y-88886856D01*
X122100451Y-88773029D01*
X121808722Y-88715000D01*
X121511278Y-88715000D01*
X121219549Y-88773029D01*
X120944747Y-88886856D01*
X120697431Y-89052107D01*
X120487107Y-89262431D01*
X120321856Y-89509747D01*
X120208029Y-89784549D01*
X120150000Y-90076278D01*
X110685000Y-90076278D01*
X110685000Y-84959344D01*
X122315000Y-84959344D01*
X122315000Y-85330656D01*
X122387439Y-85694834D01*
X122529534Y-86037882D01*
X122735825Y-86346618D01*
X122998382Y-86609175D01*
X123307118Y-86815466D01*
X123650166Y-86957561D01*
X124014344Y-87030000D01*
X124385656Y-87030000D01*
X124749834Y-86957561D01*
X125092882Y-86815466D01*
X125401618Y-86609175D01*
X125664175Y-86346618D01*
X125870466Y-86037882D01*
X126012561Y-85694834D01*
X126085000Y-85330656D01*
X126085000Y-84959344D01*
X126012561Y-84595166D01*
X125870466Y-84252118D01*
X125664175Y-83943382D01*
X125401618Y-83680825D01*
X125092882Y-83474534D01*
X124972500Y-83424670D01*
X124972500Y-82515143D01*
X125000000Y-82492574D01*
X125092725Y-82568671D01*
X125240858Y-82647850D01*
X125401592Y-82696608D01*
X125568750Y-82713072D01*
X126006250Y-82713072D01*
X126173408Y-82696608D01*
X126334142Y-82647850D01*
X126482275Y-82568671D01*
X126612115Y-82462115D01*
X126695918Y-82360000D01*
X129362678Y-82360000D01*
X129400000Y-82363676D01*
X129437322Y-82360000D01*
X129437333Y-82360000D01*
X129548986Y-82349003D01*
X129692247Y-82305546D01*
X129824276Y-82234974D01*
X129940001Y-82140001D01*
X129963804Y-82110997D01*
X132261003Y-79813799D01*
X132290001Y-79790001D01*
X132384974Y-79674276D01*
X132411312Y-79625000D01*
X134961928Y-79625000D01*
X134974188Y-79749482D01*
X135010498Y-79869180D01*
X135069463Y-79979494D01*
X135148815Y-80076185D01*
X135245506Y-80155537D01*
X135355820Y-80214502D01*
X135475518Y-80250812D01*
X135600000Y-80263072D01*
X135764250Y-80260000D01*
X135923000Y-80101250D01*
X135923000Y-79277000D01*
X135123750Y-79277000D01*
X134965000Y-79435750D01*
X134961928Y-79625000D01*
X132411312Y-79625000D01*
X132455546Y-79542247D01*
X132499003Y-79398986D01*
X132510000Y-79287333D01*
X132510000Y-79287323D01*
X132513676Y-79250000D01*
X132510000Y-79212677D01*
X132510000Y-78675000D01*
X134961928Y-78675000D01*
X134965000Y-78864250D01*
X135123750Y-79023000D01*
X135923000Y-79023000D01*
X135923000Y-78198750D01*
X135764250Y-78040000D01*
X135600000Y-78036928D01*
X135475518Y-78049188D01*
X135355820Y-78085498D01*
X135245506Y-78144463D01*
X135148815Y-78223815D01*
X135069463Y-78320506D01*
X135010498Y-78430820D01*
X134974188Y-78550518D01*
X134961928Y-78675000D01*
X132510000Y-78675000D01*
X132510000Y-77861950D01*
X132614250Y-77860000D01*
X132773000Y-77701250D01*
X132773000Y-76877000D01*
X132753000Y-76877000D01*
X132753000Y-76623000D01*
X132773000Y-76623000D01*
X132773000Y-76603000D01*
X133027000Y-76603000D01*
X133027000Y-76623000D01*
X133047000Y-76623000D01*
X133047000Y-76877000D01*
X133027000Y-76877000D01*
X133027000Y-77701250D01*
X133185750Y-77860000D01*
X133350000Y-77863072D01*
X133474482Y-77850812D01*
X133594180Y-77814502D01*
X133704494Y-77755537D01*
X133748649Y-77719300D01*
X133894717Y-77797375D01*
X134056623Y-77846488D01*
X134225000Y-77863072D01*
X134675000Y-77863072D01*
X134843377Y-77846488D01*
X135005283Y-77797375D01*
X135154497Y-77717618D01*
X135285284Y-77610284D01*
X135392618Y-77479497D01*
X135472375Y-77330283D01*
X135521488Y-77168377D01*
X135538072Y-77000000D01*
X135538072Y-76500000D01*
X135521488Y-76331623D01*
X135472375Y-76169717D01*
X135392618Y-76020503D01*
X135285284Y-75889716D01*
X135154497Y-75782382D01*
X135005283Y-75702625D01*
X134843377Y-75653512D01*
X134675000Y-75636928D01*
X134225000Y-75636928D01*
X134056623Y-75653512D01*
X133894717Y-75702625D01*
X133748649Y-75780700D01*
X133704494Y-75744463D01*
X133594180Y-75685498D01*
X133474482Y-75649188D01*
X133350000Y-75636928D01*
X133309959Y-75637677D01*
X133637636Y-75310000D01*
X136270792Y-75310000D01*
X136261928Y-75400000D01*
X136261928Y-75700000D01*
X136271777Y-75800000D01*
X136261928Y-75900000D01*
X136261928Y-76200000D01*
X136271777Y-76300000D01*
X136261928Y-76400000D01*
X136261928Y-76700000D01*
X136274188Y-76824482D01*
X136310498Y-76944180D01*
X136369463Y-77054494D01*
X136448815Y-77151185D01*
X136545506Y-77230537D01*
X136655820Y-77289502D01*
X136775518Y-77325812D01*
X136900000Y-77338072D01*
X137900000Y-77338072D01*
X137961928Y-77331973D01*
X137961928Y-77527000D01*
X137623750Y-77527000D01*
X137465000Y-77685750D01*
X137462048Y-77887612D01*
X137471889Y-78012308D01*
X137478839Y-78036928D01*
X137375000Y-78036928D01*
X137206623Y-78053512D01*
X137044717Y-78102625D01*
X136898649Y-78180700D01*
X136854494Y-78144463D01*
X136744180Y-78085498D01*
X136624482Y-78049188D01*
X136500000Y-78036928D01*
X136335750Y-78040000D01*
X136177000Y-78198750D01*
X136177000Y-79023000D01*
X136197000Y-79023000D01*
X136197000Y-79277000D01*
X136177000Y-79277000D01*
X136177000Y-80101250D01*
X136335750Y-80260000D01*
X136500000Y-80263072D01*
X136624482Y-80250812D01*
X136744180Y-80214502D01*
X136854494Y-80155537D01*
X136898649Y-80119300D01*
X137044717Y-80197375D01*
X137206623Y-80246488D01*
X137375000Y-80263072D01*
X137825000Y-80263072D01*
X137993377Y-80246488D01*
X138155283Y-80197375D01*
X138304497Y-80117618D01*
X138435284Y-80010284D01*
X138490000Y-79943612D01*
X138490001Y-86920000D01*
X132273436Y-86920000D01*
X132220466Y-86792118D01*
X132014175Y-86483382D01*
X131751618Y-86220825D01*
X131442882Y-86014534D01*
X131099834Y-85872439D01*
X130735656Y-85800000D01*
X130364344Y-85800000D01*
X130000166Y-85872439D01*
X129657118Y-86014534D01*
X129348382Y-86220825D01*
X129085825Y-86483382D01*
X128879534Y-86792118D01*
X128737439Y-87135166D01*
X128665000Y-87499344D01*
X128665000Y-87870656D01*
X128737439Y-88234834D01*
X128879534Y-88577882D01*
X129085825Y-88886618D01*
X129348382Y-89149175D01*
X129657118Y-89355466D01*
X130000166Y-89497561D01*
X130364344Y-89570000D01*
X130456898Y-89570000D01*
X130368029Y-89784549D01*
X130310000Y-90076278D01*
X130310000Y-90373722D01*
X130368029Y-90665451D01*
X130481856Y-90940253D01*
X130647107Y-91187569D01*
X130857431Y-91397893D01*
X131104747Y-91563144D01*
X131379549Y-91676971D01*
X131671278Y-91735000D01*
X131968722Y-91735000D01*
X132260451Y-91676971D01*
X132535253Y-91563144D01*
X132782569Y-91397893D01*
X132992893Y-91187569D01*
X133158144Y-90940253D01*
X133271971Y-90665451D01*
X133330000Y-90373722D01*
X133330000Y-90076278D01*
X139300000Y-90076278D01*
X139300000Y-90373722D01*
X139358029Y-90665451D01*
X139471856Y-90940253D01*
X139637107Y-91187569D01*
X139847431Y-91397893D01*
X140094747Y-91563144D01*
X140369549Y-91676971D01*
X140661278Y-91735000D01*
X140958722Y-91735000D01*
X141250451Y-91676971D01*
X141525253Y-91563144D01*
X141772569Y-91397893D01*
X141982893Y-91187569D01*
X142148144Y-90940253D01*
X142261971Y-90665451D01*
X142320000Y-90373722D01*
X142320000Y-90076278D01*
X142261971Y-89784549D01*
X142148144Y-89509747D01*
X141982893Y-89262431D01*
X141772569Y-89052107D01*
X141525253Y-88886856D01*
X141250451Y-88773029D01*
X140958722Y-88715000D01*
X140661278Y-88715000D01*
X140369549Y-88773029D01*
X140094747Y-88886856D01*
X139847431Y-89052107D01*
X139637107Y-89262431D01*
X139471856Y-89509747D01*
X139358029Y-89784549D01*
X139300000Y-90076278D01*
X133330000Y-90076278D01*
X133271971Y-89784549D01*
X133158144Y-89509747D01*
X132992893Y-89262431D01*
X132782569Y-89052107D01*
X132535253Y-88886856D01*
X132260451Y-88773029D01*
X132110061Y-88743114D01*
X132220466Y-88577882D01*
X132277579Y-88440000D01*
X139282678Y-88440000D01*
X139320000Y-88443676D01*
X139357323Y-88440000D01*
X143948547Y-88440000D01*
X143843262Y-88545285D01*
X143554893Y-88976859D01*
X143356261Y-89456399D01*
X143255000Y-89965475D01*
X143255000Y-90484525D01*
X143356261Y-90993601D01*
X143554893Y-91473141D01*
X143843262Y-91904715D01*
X144210285Y-92271738D01*
X144641859Y-92560107D01*
X145121399Y-92758739D01*
X145630475Y-92860000D01*
X146149525Y-92860000D01*
X146658601Y-92758739D01*
X147138141Y-92560107D01*
X147569715Y-92271738D01*
X147936738Y-91904715D01*
X148225107Y-91473141D01*
X148423739Y-90993601D01*
X148525000Y-90484525D01*
X148525000Y-89965475D01*
X148423739Y-89456399D01*
X148225107Y-88976859D01*
X147936738Y-88545285D01*
X147831453Y-88440000D01*
X147972421Y-88440000D01*
X148029534Y-88577882D01*
X148235825Y-88886618D01*
X148498382Y-89149175D01*
X148807118Y-89355466D01*
X149150166Y-89497561D01*
X149514344Y-89570000D01*
X149606898Y-89570000D01*
X149518029Y-89784549D01*
X149460000Y-90076278D01*
X149460000Y-90373722D01*
X149518029Y-90665451D01*
X149631856Y-90940253D01*
X149797107Y-91187569D01*
X150007431Y-91397893D01*
X150254747Y-91563144D01*
X150529549Y-91676971D01*
X150821278Y-91735000D01*
X151118722Y-91735000D01*
X151410451Y-91676971D01*
X151685253Y-91563144D01*
X151932569Y-91397893D01*
X152142893Y-91187569D01*
X152308144Y-90940253D01*
X152421971Y-90665451D01*
X152480000Y-90373722D01*
X152480000Y-90076278D01*
X158425000Y-90076278D01*
X158425000Y-90373722D01*
X158483029Y-90665451D01*
X158596856Y-90940253D01*
X158762107Y-91187569D01*
X158972431Y-91397893D01*
X159219747Y-91563144D01*
X159494549Y-91676971D01*
X159786278Y-91735000D01*
X160083722Y-91735000D01*
X160375451Y-91676971D01*
X160650253Y-91563144D01*
X160897569Y-91397893D01*
X161107893Y-91187569D01*
X161273144Y-90940253D01*
X161386971Y-90665451D01*
X161445000Y-90373722D01*
X161445000Y-90076278D01*
X161386971Y-89784549D01*
X161273144Y-89509747D01*
X161107893Y-89262431D01*
X160897569Y-89052107D01*
X160650253Y-88886856D01*
X160375451Y-88773029D01*
X160083722Y-88715000D01*
X159786278Y-88715000D01*
X159494549Y-88773029D01*
X159219747Y-88886856D01*
X158972431Y-89052107D01*
X158762107Y-89262431D01*
X158596856Y-89509747D01*
X158483029Y-89784549D01*
X158425000Y-90076278D01*
X152480000Y-90076278D01*
X152421971Y-89784549D01*
X152308144Y-89509747D01*
X152142893Y-89262431D01*
X151932569Y-89052107D01*
X151685253Y-88886856D01*
X151410451Y-88773029D01*
X151260061Y-88743114D01*
X151370466Y-88577882D01*
X151427579Y-88440000D01*
X163073547Y-88440000D01*
X162968262Y-88545285D01*
X162679893Y-88976859D01*
X162481261Y-89456399D01*
X162380000Y-89965475D01*
X162380000Y-90484525D01*
X162481261Y-90993601D01*
X162679893Y-91473141D01*
X162968262Y-91904715D01*
X163335285Y-92271738D01*
X163766859Y-92560107D01*
X164246399Y-92758739D01*
X164755475Y-92860000D01*
X165274525Y-92860000D01*
X165783601Y-92758739D01*
X166263141Y-92560107D01*
X166694715Y-92271738D01*
X167061738Y-91904715D01*
X167350107Y-91473141D01*
X167548739Y-90993601D01*
X167650000Y-90484525D01*
X167650000Y-89965475D01*
X167548739Y-89456399D01*
X167350107Y-88976859D01*
X167061738Y-88545285D01*
X166956453Y-88440000D01*
X167097421Y-88440000D01*
X167154534Y-88577882D01*
X167360825Y-88886618D01*
X167623382Y-89149175D01*
X167932118Y-89355466D01*
X168275166Y-89497561D01*
X168639344Y-89570000D01*
X168731898Y-89570000D01*
X168643029Y-89784549D01*
X168585000Y-90076278D01*
X168585000Y-90373722D01*
X168643029Y-90665451D01*
X168756856Y-90940253D01*
X168922107Y-91187569D01*
X169132431Y-91397893D01*
X169379747Y-91563144D01*
X169654549Y-91676971D01*
X169946278Y-91735000D01*
X170243722Y-91735000D01*
X170535451Y-91676971D01*
X170810253Y-91563144D01*
X171057569Y-91397893D01*
X171267893Y-91187569D01*
X171433144Y-90940253D01*
X171546971Y-90665451D01*
X171605000Y-90373722D01*
X171605000Y-90076278D01*
X177575000Y-90076278D01*
X177575000Y-90373722D01*
X177633029Y-90665451D01*
X177746856Y-90940253D01*
X177912107Y-91187569D01*
X178122431Y-91397893D01*
X178369747Y-91563144D01*
X178644549Y-91676971D01*
X178936278Y-91735000D01*
X179233722Y-91735000D01*
X179525451Y-91676971D01*
X179800253Y-91563144D01*
X180047569Y-91397893D01*
X180257893Y-91187569D01*
X180423144Y-90940253D01*
X180536971Y-90665451D01*
X180595000Y-90373722D01*
X180595000Y-90076278D01*
X180536971Y-89784549D01*
X180423144Y-89509747D01*
X180257893Y-89262431D01*
X180047569Y-89052107D01*
X179800253Y-88886856D01*
X179525451Y-88773029D01*
X179233722Y-88715000D01*
X178936278Y-88715000D01*
X178644549Y-88773029D01*
X178369747Y-88886856D01*
X178122431Y-89052107D01*
X177912107Y-89262431D01*
X177746856Y-89509747D01*
X177633029Y-89784549D01*
X177575000Y-90076278D01*
X171605000Y-90076278D01*
X171546971Y-89784549D01*
X171433144Y-89509747D01*
X171267893Y-89262431D01*
X171057569Y-89052107D01*
X170810253Y-88886856D01*
X170535451Y-88773029D01*
X170385061Y-88743114D01*
X170495466Y-88577882D01*
X170552579Y-88440000D01*
X182223547Y-88440000D01*
X182118262Y-88545285D01*
X181829893Y-88976859D01*
X181631261Y-89456399D01*
X181530000Y-89965475D01*
X181530000Y-90484525D01*
X181631261Y-90993601D01*
X181829893Y-91473141D01*
X182118262Y-91904715D01*
X182485285Y-92271738D01*
X182916859Y-92560107D01*
X183396399Y-92758739D01*
X183905475Y-92860000D01*
X184424525Y-92860000D01*
X184933601Y-92758739D01*
X185413141Y-92560107D01*
X185844715Y-92271738D01*
X186211738Y-91904715D01*
X186500107Y-91473141D01*
X186698739Y-90993601D01*
X186800000Y-90484525D01*
X186800000Y-89965475D01*
X186698739Y-89456399D01*
X186500107Y-88976859D01*
X186211738Y-88545285D01*
X186106453Y-88440000D01*
X186247421Y-88440000D01*
X186304534Y-88577882D01*
X186510825Y-88886618D01*
X186773382Y-89149175D01*
X187082118Y-89355466D01*
X187425166Y-89497561D01*
X187789344Y-89570000D01*
X187881898Y-89570000D01*
X187793029Y-89784549D01*
X187735000Y-90076278D01*
X187735000Y-90373722D01*
X187793029Y-90665451D01*
X187906856Y-90940253D01*
X188072107Y-91187569D01*
X188282431Y-91397893D01*
X188529747Y-91563144D01*
X188804549Y-91676971D01*
X189096278Y-91735000D01*
X189393722Y-91735000D01*
X189685451Y-91676971D01*
X189960253Y-91563144D01*
X190207569Y-91397893D01*
X190417893Y-91187569D01*
X190583144Y-90940253D01*
X190696971Y-90665451D01*
X190755000Y-90373722D01*
X190755000Y-90076278D01*
X190754006Y-90071278D01*
X196715000Y-90071278D01*
X196715000Y-90368722D01*
X196773029Y-90660451D01*
X196886856Y-90935253D01*
X197052107Y-91182569D01*
X197262431Y-91392893D01*
X197509747Y-91558144D01*
X197784549Y-91671971D01*
X198076278Y-91730000D01*
X198373722Y-91730000D01*
X198665451Y-91671971D01*
X198940253Y-91558144D01*
X199187569Y-91392893D01*
X199397893Y-91182569D01*
X199563144Y-90935253D01*
X199676971Y-90660451D01*
X199735000Y-90368722D01*
X199735000Y-90071278D01*
X199676971Y-89779549D01*
X199563144Y-89504747D01*
X199397893Y-89257431D01*
X199187569Y-89047107D01*
X198940253Y-88881856D01*
X198665451Y-88768029D01*
X198373722Y-88710000D01*
X198076278Y-88710000D01*
X197784549Y-88768029D01*
X197509747Y-88881856D01*
X197262431Y-89047107D01*
X197052107Y-89257431D01*
X196886856Y-89504747D01*
X196773029Y-89779549D01*
X196715000Y-90071278D01*
X190754006Y-90071278D01*
X190696971Y-89784549D01*
X190583144Y-89509747D01*
X190417893Y-89262431D01*
X190207569Y-89052107D01*
X189960253Y-88886856D01*
X189685451Y-88773029D01*
X189535061Y-88743114D01*
X189645466Y-88577882D01*
X189702579Y-88440000D01*
X201358547Y-88440000D01*
X201258262Y-88540285D01*
X200969893Y-88971859D01*
X200771261Y-89451399D01*
X200670000Y-89960475D01*
X200670000Y-90479525D01*
X200771261Y-90988601D01*
X200969893Y-91468141D01*
X201258262Y-91899715D01*
X201625285Y-92266738D01*
X202056859Y-92555107D01*
X202536399Y-92753739D01*
X203045475Y-92855000D01*
X203564525Y-92855000D01*
X204073601Y-92753739D01*
X204553141Y-92555107D01*
X204984715Y-92266738D01*
X205351738Y-91899715D01*
X205640107Y-91468141D01*
X205838739Y-90988601D01*
X205940000Y-90479525D01*
X205940000Y-89960475D01*
X205838739Y-89451399D01*
X205640107Y-88971859D01*
X205351738Y-88540285D01*
X205251453Y-88440000D01*
X205389493Y-88440000D01*
X205444534Y-88572882D01*
X205650825Y-88881618D01*
X205913382Y-89144175D01*
X206222118Y-89350466D01*
X206565166Y-89492561D01*
X206929344Y-89565000D01*
X207021898Y-89565000D01*
X206933029Y-89779549D01*
X206875000Y-90071278D01*
X206875000Y-90368722D01*
X206933029Y-90660451D01*
X207046856Y-90935253D01*
X207212107Y-91182569D01*
X207422431Y-91392893D01*
X207669747Y-91558144D01*
X207944549Y-91671971D01*
X208236278Y-91730000D01*
X208533722Y-91730000D01*
X208825451Y-91671971D01*
X209100253Y-91558144D01*
X209347569Y-91392893D01*
X209557893Y-91182569D01*
X209723144Y-90935253D01*
X209836971Y-90660451D01*
X209895000Y-90368722D01*
X209895000Y-90071278D01*
X209836971Y-89779549D01*
X209723144Y-89504747D01*
X209557893Y-89257431D01*
X209347569Y-89047107D01*
X209100253Y-88881856D01*
X208825451Y-88768029D01*
X208675061Y-88738114D01*
X208785466Y-88572882D01*
X208927561Y-88229834D01*
X209000000Y-87865656D01*
X209000000Y-87494344D01*
X208927561Y-87130166D01*
X208785466Y-86787118D01*
X208579175Y-86478382D01*
X208316618Y-86215825D01*
X208007882Y-86009534D01*
X207664834Y-85867439D01*
X207300656Y-85795000D01*
X206929344Y-85795000D01*
X206565166Y-85867439D01*
X206222118Y-86009534D01*
X205913382Y-86215825D01*
X205650825Y-86478382D01*
X205444534Y-86787118D01*
X205389493Y-86920000D01*
X201393443Y-86920000D01*
X201657882Y-86810466D01*
X201966618Y-86604175D01*
X202229175Y-86341618D01*
X202435466Y-86032882D01*
X202577561Y-85689834D01*
X202650000Y-85325656D01*
X202650000Y-84954344D01*
X202577561Y-84590166D01*
X202435466Y-84247118D01*
X202229175Y-83938382D01*
X201966618Y-83675825D01*
X201657882Y-83469534D01*
X201525000Y-83414493D01*
X201525000Y-82313091D01*
X201592725Y-82368671D01*
X201740858Y-82447850D01*
X201901592Y-82496608D01*
X202068750Y-82513072D01*
X202506250Y-82513072D01*
X202673408Y-82496608D01*
X202834142Y-82447850D01*
X202982275Y-82368671D01*
X203112115Y-82262115D01*
X203218671Y-82132275D01*
X203297850Y-81984142D01*
X203346608Y-81823408D01*
X203363072Y-81656250D01*
X203363072Y-81143750D01*
X203346608Y-80976592D01*
X203297850Y-80815858D01*
X203218671Y-80667725D01*
X203112115Y-80537885D01*
X202982275Y-80431329D01*
X202834142Y-80352150D01*
X202673408Y-80303392D01*
X202506250Y-80286928D01*
X202249230Y-80286928D01*
X200251304Y-78289003D01*
X200227501Y-78259999D01*
X200111776Y-78165026D01*
X199979747Y-78094454D01*
X199836486Y-78050997D01*
X199724833Y-78040000D01*
X199724822Y-78040000D01*
X199687500Y-78036324D01*
X199650178Y-78040000D01*
X144021105Y-78040000D01*
X144025812Y-78024482D01*
X144038072Y-77900000D01*
X144038072Y-77338072D01*
X144600000Y-77338072D01*
X144724482Y-77325812D01*
X144776607Y-77310000D01*
X145057415Y-77310000D01*
X145139716Y-77410284D01*
X145270503Y-77517618D01*
X145419717Y-77597375D01*
X145581623Y-77646488D01*
X145750000Y-77663072D01*
X146250000Y-77663072D01*
X146418377Y-77646488D01*
X146580283Y-77597375D01*
X146729497Y-77517618D01*
X146860284Y-77410284D01*
X146967618Y-77279497D01*
X147047375Y-77130283D01*
X147096488Y-76968377D01*
X147113072Y-76800000D01*
X147113072Y-76350000D01*
X147096488Y-76181623D01*
X147047375Y-76019717D01*
X146969300Y-75873649D01*
X147005537Y-75829494D01*
X147064502Y-75719180D01*
X147100812Y-75599482D01*
X147113072Y-75475000D01*
X147110000Y-75310750D01*
X146951250Y-75152000D01*
X146127000Y-75152000D01*
X146127000Y-75172000D01*
X145873000Y-75172000D01*
X145873000Y-75152000D01*
X145853000Y-75152000D01*
X145853000Y-74898000D01*
X145873000Y-74898000D01*
X145873000Y-73627000D01*
X146127000Y-73627000D01*
X146127000Y-74898000D01*
X146951250Y-74898000D01*
X147110000Y-74739250D01*
X147113072Y-74575000D01*
X147100812Y-74450518D01*
X147064502Y-74330820D01*
X147027984Y-74262500D01*
X147064502Y-74194180D01*
X147100812Y-74074482D01*
X147113072Y-73950000D01*
X147110000Y-73785750D01*
X146951250Y-73627000D01*
X146127000Y-73627000D01*
X145873000Y-73627000D01*
X145853000Y-73627000D01*
X145853000Y-73373000D01*
X145873000Y-73373000D01*
X145873000Y-73353000D01*
X146127000Y-73353000D01*
X146127000Y-73373000D01*
X146951250Y-73373000D01*
X147110000Y-73214250D01*
X147113072Y-73050000D01*
X147100812Y-72925518D01*
X147064502Y-72805820D01*
X147005537Y-72695506D01*
X146969300Y-72651351D01*
X147047375Y-72505283D01*
X147096488Y-72343377D01*
X147113072Y-72175000D01*
X147113072Y-72125000D01*
X160211928Y-72125000D01*
X160224188Y-72249482D01*
X160260498Y-72369180D01*
X160319463Y-72479494D01*
X160398815Y-72576185D01*
X160495506Y-72655537D01*
X160605820Y-72714502D01*
X160725518Y-72750812D01*
X160850000Y-72763072D01*
X161014250Y-72760000D01*
X161173000Y-72601250D01*
X161173000Y-71777000D01*
X160373750Y-71777000D01*
X160215000Y-71935750D01*
X160211928Y-72125000D01*
X147113072Y-72125000D01*
X147113072Y-71725000D01*
X147096488Y-71556623D01*
X147047375Y-71394717D01*
X146967618Y-71245503D01*
X146860284Y-71114716D01*
X146729497Y-71007382D01*
X146580283Y-70927625D01*
X146418377Y-70878512D01*
X146250000Y-70861928D01*
X145986730Y-70861928D01*
X145034821Y-69910020D01*
X149510219Y-69910020D01*
X149561211Y-69961012D01*
X150536928Y-70936730D01*
X150536928Y-71175000D01*
X150553031Y-71338500D01*
X150600722Y-71495716D01*
X150678169Y-71640608D01*
X150782394Y-71767606D01*
X150909392Y-71871831D01*
X151054284Y-71949278D01*
X151211500Y-71996969D01*
X151375000Y-72013072D01*
X151775000Y-72013072D01*
X151938500Y-71996969D01*
X152095716Y-71949278D01*
X152240608Y-71871831D01*
X152367606Y-71767606D01*
X152400000Y-71728134D01*
X152432394Y-71767606D01*
X152559392Y-71871831D01*
X152704284Y-71949278D01*
X152861500Y-71996969D01*
X153025000Y-72013072D01*
X153425000Y-72013072D01*
X153588500Y-71996969D01*
X153745716Y-71949278D01*
X153890608Y-71871831D01*
X154017606Y-71767606D01*
X154121831Y-71640608D01*
X154199278Y-71495716D01*
X154246969Y-71338500D01*
X154263072Y-71175000D01*
X160211928Y-71175000D01*
X160215000Y-71364250D01*
X160373750Y-71523000D01*
X161173000Y-71523000D01*
X161173000Y-70698750D01*
X161014250Y-70540000D01*
X160850000Y-70536928D01*
X160725518Y-70549188D01*
X160605820Y-70585498D01*
X160495506Y-70644463D01*
X160398815Y-70723815D01*
X160319463Y-70820506D01*
X160260498Y-70930820D01*
X160224188Y-71050518D01*
X160211928Y-71175000D01*
X154263072Y-71175000D01*
X154263072Y-70936729D01*
X154938798Y-70261004D01*
X156952802Y-68247000D01*
X159590000Y-68247000D01*
X159590000Y-68997000D01*
X159635624Y-69206233D01*
X159721191Y-69402545D01*
X159843413Y-69578391D01*
X159997592Y-69727014D01*
X160177803Y-69842702D01*
X160380999Y-69914408D01*
X160548000Y-69787502D01*
X160548000Y-68247000D01*
X159590000Y-68247000D01*
X156952802Y-68247000D01*
X157844812Y-67354990D01*
X159590000Y-67354990D01*
X159590000Y-67993000D01*
X160548000Y-67993000D01*
X160548000Y-67973000D01*
X160802000Y-67973000D01*
X160802000Y-67993000D01*
X161089369Y-67993000D01*
X161100392Y-68050028D01*
X161171813Y-68225126D01*
X161176730Y-68234323D01*
X161359073Y-68247000D01*
X160802000Y-68247000D01*
X160802000Y-69787502D01*
X160969001Y-69914408D01*
X161172197Y-69842702D01*
X161352408Y-69727014D01*
X161506587Y-69578391D01*
X161628809Y-69402545D01*
X161695225Y-69250170D01*
X161845395Y-69100000D01*
X161831253Y-69085858D01*
X161915829Y-69001281D01*
X161915000Y-69005448D01*
X161915000Y-69194552D01*
X161947361Y-69357244D01*
X161552069Y-69752536D01*
X161565677Y-69948270D01*
X161739992Y-70021581D01*
X161925260Y-70059475D01*
X162090001Y-70060365D01*
X162090000Y-70636716D01*
X161994180Y-70585498D01*
X161874482Y-70549188D01*
X161750000Y-70536928D01*
X161585750Y-70540000D01*
X161427000Y-70698750D01*
X161427000Y-71523000D01*
X161447000Y-71523000D01*
X161447000Y-71777000D01*
X161427000Y-71777000D01*
X161427000Y-72601250D01*
X161585750Y-72760000D01*
X161750000Y-72763072D01*
X161874482Y-72750812D01*
X161994180Y-72714502D01*
X162104494Y-72655537D01*
X162148649Y-72619300D01*
X162294717Y-72697375D01*
X162456623Y-72746488D01*
X162625000Y-72763072D01*
X163075000Y-72763072D01*
X163243377Y-72746488D01*
X163405283Y-72697375D01*
X163554497Y-72617618D01*
X163685284Y-72510284D01*
X163792618Y-72379497D01*
X163872375Y-72230283D01*
X163921488Y-72068377D01*
X163938072Y-71900000D01*
X163938072Y-71400000D01*
X163921488Y-71231623D01*
X163872375Y-71069717D01*
X163792618Y-70920503D01*
X163685284Y-70789716D01*
X163610000Y-70727932D01*
X163610000Y-70519420D01*
X168051582Y-74961003D01*
X168075380Y-74990001D01*
X168104378Y-75013799D01*
X168191104Y-75084974D01*
X168314975Y-75151185D01*
X168323134Y-75155546D01*
X168466395Y-75199003D01*
X168578048Y-75210000D01*
X168578057Y-75210000D01*
X168615380Y-75213676D01*
X168652703Y-75210000D01*
X170369084Y-75210000D01*
X170457394Y-75317606D01*
X170584392Y-75421831D01*
X170729284Y-75499278D01*
X170886500Y-75546969D01*
X171050000Y-75563072D01*
X171450000Y-75563072D01*
X171613500Y-75546969D01*
X171770716Y-75499278D01*
X171915608Y-75421831D01*
X172017590Y-75338137D01*
X172048815Y-75376185D01*
X172145506Y-75455537D01*
X172255820Y-75514502D01*
X172375518Y-75550812D01*
X172500000Y-75563072D01*
X172614250Y-75560000D01*
X172773000Y-75401250D01*
X172773000Y-74577000D01*
X173027000Y-74577000D01*
X173027000Y-75401250D01*
X173185750Y-75560000D01*
X173300000Y-75563072D01*
X173424482Y-75550812D01*
X173544180Y-75514502D01*
X173654494Y-75455537D01*
X173751185Y-75376185D01*
X173830537Y-75279494D01*
X173889502Y-75169180D01*
X173925812Y-75049482D01*
X173938072Y-74925000D01*
X173935000Y-74735750D01*
X173776250Y-74577000D01*
X173027000Y-74577000D01*
X172773000Y-74577000D01*
X172753000Y-74577000D01*
X172753000Y-74323000D01*
X172773000Y-74323000D01*
X172773000Y-73498750D01*
X173027000Y-73498750D01*
X173027000Y-74323000D01*
X173776250Y-74323000D01*
X173935000Y-74164250D01*
X173938072Y-73975000D01*
X173925812Y-73850518D01*
X173889502Y-73730820D01*
X173830537Y-73620506D01*
X173751185Y-73523815D01*
X173654494Y-73444463D01*
X173544180Y-73385498D01*
X173424482Y-73349188D01*
X173300000Y-73336928D01*
X173185750Y-73340000D01*
X173027000Y-73498750D01*
X172773000Y-73498750D01*
X172614250Y-73340000D01*
X172500000Y-73336928D01*
X172375518Y-73349188D01*
X172255820Y-73385498D01*
X172145506Y-73444463D01*
X172048815Y-73523815D01*
X172017590Y-73561863D01*
X171915608Y-73478169D01*
X171770716Y-73400722D01*
X171613500Y-73353031D01*
X171450000Y-73336928D01*
X171050000Y-73336928D01*
X170886500Y-73353031D01*
X170729284Y-73400722D01*
X170584392Y-73478169D01*
X170457394Y-73582394D01*
X170369084Y-73690000D01*
X168930183Y-73690000D01*
X166715183Y-71475000D01*
X170211928Y-71475000D01*
X170211928Y-72025000D01*
X170228031Y-72188500D01*
X170275722Y-72345716D01*
X170353169Y-72490608D01*
X170457394Y-72617606D01*
X170584392Y-72721831D01*
X170729284Y-72799278D01*
X170886500Y-72846969D01*
X171050000Y-72863072D01*
X171450000Y-72863072D01*
X171613500Y-72846969D01*
X171770716Y-72799278D01*
X171915608Y-72721831D01*
X172017590Y-72638137D01*
X172048815Y-72676185D01*
X172145506Y-72755537D01*
X172255820Y-72814502D01*
X172375518Y-72850812D01*
X172500000Y-72863072D01*
X172614250Y-72860000D01*
X172773000Y-72701250D01*
X172773000Y-71877000D01*
X173027000Y-71877000D01*
X173027000Y-72701250D01*
X173185750Y-72860000D01*
X173300000Y-72863072D01*
X173424482Y-72850812D01*
X173544180Y-72814502D01*
X173654494Y-72755537D01*
X173751185Y-72676185D01*
X173830537Y-72579494D01*
X173889502Y-72469180D01*
X173925812Y-72349482D01*
X173938072Y-72225000D01*
X173935000Y-72035750D01*
X173776250Y-71877000D01*
X173027000Y-71877000D01*
X172773000Y-71877000D01*
X172753000Y-71877000D01*
X172753000Y-71623000D01*
X172773000Y-71623000D01*
X172773000Y-70798750D01*
X173027000Y-70798750D01*
X173027000Y-71623000D01*
X173776250Y-71623000D01*
X173935000Y-71464250D01*
X173938072Y-71275000D01*
X173925812Y-71150518D01*
X173889502Y-71030820D01*
X173830537Y-70920506D01*
X173751185Y-70823815D01*
X173654494Y-70744463D01*
X173544180Y-70685498D01*
X173424482Y-70649188D01*
X173300000Y-70636928D01*
X173185750Y-70640000D01*
X173027000Y-70798750D01*
X172773000Y-70798750D01*
X172614250Y-70640000D01*
X172500000Y-70636928D01*
X172375518Y-70649188D01*
X172255820Y-70685498D01*
X172145506Y-70744463D01*
X172048815Y-70823815D01*
X172017590Y-70861863D01*
X171915608Y-70778169D01*
X171770716Y-70700722D01*
X171613500Y-70653031D01*
X171450000Y-70636928D01*
X171050000Y-70636928D01*
X170886500Y-70653031D01*
X170729284Y-70700722D01*
X170584392Y-70778169D01*
X170457394Y-70882394D01*
X170353169Y-71009392D01*
X170275722Y-71154284D01*
X170228031Y-71311500D01*
X170211928Y-71475000D01*
X166715183Y-71475000D01*
X165292667Y-70052485D01*
X165330448Y-70060000D01*
X165519552Y-70060000D01*
X165705022Y-70023108D01*
X165850000Y-69963056D01*
X165994978Y-70023108D01*
X166180448Y-70060000D01*
X166369552Y-70060000D01*
X166555022Y-70023108D01*
X166700000Y-69963056D01*
X166844978Y-70023108D01*
X167030448Y-70060000D01*
X167219552Y-70060000D01*
X167405022Y-70023108D01*
X167550420Y-69962882D01*
X167689992Y-70021581D01*
X167875260Y-70059475D01*
X168064361Y-70060497D01*
X168183332Y-70037500D01*
X176086928Y-70037500D01*
X176099188Y-70161982D01*
X176135498Y-70281680D01*
X176194463Y-70391994D01*
X176273815Y-70488685D01*
X176370506Y-70568037D01*
X176480820Y-70627002D01*
X176600518Y-70663312D01*
X176725000Y-70675572D01*
X176914250Y-70672500D01*
X177073000Y-70513750D01*
X177073000Y-69727000D01*
X177327000Y-69727000D01*
X177327000Y-70513750D01*
X177485750Y-70672500D01*
X177675000Y-70675572D01*
X177799482Y-70663312D01*
X177919180Y-70627002D01*
X178029494Y-70568037D01*
X178126185Y-70488685D01*
X178205537Y-70391994D01*
X178264502Y-70281680D01*
X178300812Y-70161982D01*
X178313072Y-70037500D01*
X178310000Y-69885750D01*
X178151250Y-69727000D01*
X177327000Y-69727000D01*
X177073000Y-69727000D01*
X176248750Y-69727000D01*
X176090000Y-69885750D01*
X176086928Y-70037500D01*
X168183332Y-70037500D01*
X168250028Y-70024608D01*
X168425126Y-69953187D01*
X168434323Y-69948270D01*
X168447931Y-69752536D01*
X168052639Y-69357244D01*
X168085000Y-69194552D01*
X168085000Y-69005448D01*
X168084171Y-69001281D01*
X168168748Y-69085858D01*
X168154605Y-69100000D01*
X168304775Y-69250170D01*
X168371191Y-69402545D01*
X168493413Y-69578391D01*
X168647592Y-69727014D01*
X168827803Y-69842702D01*
X169030999Y-69914408D01*
X169198000Y-69787502D01*
X169198000Y-68247000D01*
X169452000Y-68247000D01*
X169452000Y-69787502D01*
X169619001Y-69914408D01*
X169822197Y-69842702D01*
X170002408Y-69727014D01*
X170156587Y-69578391D01*
X170278809Y-69402545D01*
X170364376Y-69206233D01*
X170410000Y-68997000D01*
X170410000Y-68247000D01*
X169452000Y-68247000D01*
X169198000Y-68247000D01*
X168645927Y-68247000D01*
X168828270Y-68234323D01*
X168901581Y-68060008D01*
X168915287Y-67993000D01*
X169198000Y-67993000D01*
X169198000Y-67973000D01*
X169452000Y-67973000D01*
X169452000Y-67993000D01*
X170410000Y-67993000D01*
X170410000Y-67243000D01*
X170370096Y-67060000D01*
X172010083Y-67060000D01*
X172053169Y-67140608D01*
X172157394Y-67267606D01*
X172284392Y-67371831D01*
X172429284Y-67449278D01*
X172586500Y-67496969D01*
X172750000Y-67513072D01*
X173150000Y-67513072D01*
X173313500Y-67496969D01*
X173470716Y-67449278D01*
X173615608Y-67371831D01*
X173742606Y-67267606D01*
X173775000Y-67228134D01*
X173807394Y-67267606D01*
X173934392Y-67371831D01*
X174079284Y-67449278D01*
X174236500Y-67496969D01*
X174400000Y-67513072D01*
X174800000Y-67513072D01*
X174963500Y-67496969D01*
X175120716Y-67449278D01*
X175265608Y-67371831D01*
X175392606Y-67267606D01*
X175480916Y-67160000D01*
X176387095Y-67160000D01*
X176337885Y-67200385D01*
X176231329Y-67330225D01*
X176152150Y-67478358D01*
X176103392Y-67639092D01*
X176086928Y-67806250D01*
X176086928Y-68243750D01*
X176103392Y-68410908D01*
X176152150Y-68571642D01*
X176231329Y-68719775D01*
X176249100Y-68741430D01*
X176194463Y-68808006D01*
X176135498Y-68918320D01*
X176099188Y-69038018D01*
X176086928Y-69162500D01*
X176090000Y-69314250D01*
X176248750Y-69473000D01*
X177073000Y-69473000D01*
X177073000Y-69453000D01*
X177327000Y-69453000D01*
X177327000Y-69473000D01*
X178151250Y-69473000D01*
X178310000Y-69314250D01*
X178313072Y-69162500D01*
X178300812Y-69038018D01*
X178264502Y-68918320D01*
X178205537Y-68808006D01*
X178150900Y-68741430D01*
X178168671Y-68719775D01*
X178247850Y-68571642D01*
X178296608Y-68410908D01*
X178313072Y-68243750D01*
X178313072Y-67806250D01*
X178296608Y-67639092D01*
X178247850Y-67478358D01*
X178168671Y-67330225D01*
X178062115Y-67200385D01*
X178012905Y-67160000D01*
X178869084Y-67160000D01*
X178957394Y-67267606D01*
X179084392Y-67371831D01*
X179229284Y-67449278D01*
X179386500Y-67496969D01*
X179550000Y-67513072D01*
X179950000Y-67513072D01*
X180113500Y-67496969D01*
X180270716Y-67449278D01*
X180415608Y-67371831D01*
X180517590Y-67288137D01*
X180548815Y-67326185D01*
X180645506Y-67405537D01*
X180755820Y-67464502D01*
X180875518Y-67500812D01*
X181000000Y-67513072D01*
X181114250Y-67510000D01*
X181273000Y-67351250D01*
X181273000Y-66527000D01*
X181527000Y-66527000D01*
X181527000Y-67351250D01*
X181685750Y-67510000D01*
X181800000Y-67513072D01*
X181924482Y-67500812D01*
X182044180Y-67464502D01*
X182154494Y-67405537D01*
X182251185Y-67326185D01*
X182330537Y-67229494D01*
X182389502Y-67119180D01*
X182425812Y-66999482D01*
X182438072Y-66875000D01*
X182435838Y-66737314D01*
X213332905Y-66737314D01*
X213332905Y-67262686D01*
X213435400Y-67777963D01*
X213636451Y-68263343D01*
X213928332Y-68700174D01*
X214299826Y-69071668D01*
X214736657Y-69363549D01*
X215222037Y-69564600D01*
X215737314Y-69667095D01*
X216262686Y-69667095D01*
X216777963Y-69564600D01*
X217263343Y-69363549D01*
X217700174Y-69071668D01*
X218071668Y-68700174D01*
X218363549Y-68263343D01*
X218564600Y-67777963D01*
X218667095Y-67262686D01*
X218667095Y-66737314D01*
X218564600Y-66222037D01*
X218363549Y-65736657D01*
X218071668Y-65299826D01*
X217700174Y-64928332D01*
X217263343Y-64636451D01*
X216777963Y-64435400D01*
X216262686Y-64332905D01*
X215737314Y-64332905D01*
X215222037Y-64435400D01*
X214736657Y-64636451D01*
X214299826Y-64928332D01*
X213928332Y-65299826D01*
X213636451Y-65736657D01*
X213435400Y-66222037D01*
X213332905Y-66737314D01*
X182435838Y-66737314D01*
X182435000Y-66685750D01*
X182276250Y-66527000D01*
X181527000Y-66527000D01*
X181273000Y-66527000D01*
X181253000Y-66527000D01*
X181253000Y-66273000D01*
X181273000Y-66273000D01*
X181273000Y-65448750D01*
X181527000Y-65448750D01*
X181527000Y-66273000D01*
X182276250Y-66273000D01*
X182435000Y-66114250D01*
X182438072Y-65925000D01*
X182425812Y-65800518D01*
X182389502Y-65680820D01*
X182330537Y-65570506D01*
X182251185Y-65473815D01*
X182154494Y-65394463D01*
X182044180Y-65335498D01*
X181924482Y-65299188D01*
X181800000Y-65286928D01*
X181685750Y-65290000D01*
X181527000Y-65448750D01*
X181273000Y-65448750D01*
X181114250Y-65290000D01*
X181000000Y-65286928D01*
X180875518Y-65299188D01*
X180755820Y-65335498D01*
X180645506Y-65394463D01*
X180548815Y-65473815D01*
X180517590Y-65511863D01*
X180415608Y-65428169D01*
X180270716Y-65350722D01*
X180113500Y-65303031D01*
X179950000Y-65286928D01*
X179550000Y-65286928D01*
X179386500Y-65303031D01*
X179229284Y-65350722D01*
X179084392Y-65428169D01*
X178957394Y-65532394D01*
X178869084Y-65640000D01*
X177437325Y-65640000D01*
X177400000Y-65636324D01*
X177362675Y-65640000D01*
X175480916Y-65640000D01*
X175392606Y-65532394D01*
X175265608Y-65428169D01*
X175120716Y-65350722D01*
X174963500Y-65303031D01*
X174800000Y-65286928D01*
X174400000Y-65286928D01*
X174236500Y-65303031D01*
X174079284Y-65350722D01*
X173934392Y-65428169D01*
X173807394Y-65532394D01*
X173775000Y-65571866D01*
X173742606Y-65532394D01*
X173615608Y-65428169D01*
X173470716Y-65350722D01*
X173313500Y-65303031D01*
X173150000Y-65286928D01*
X172750000Y-65286928D01*
X172586500Y-65303031D01*
X172429284Y-65350722D01*
X172284392Y-65428169D01*
X172157394Y-65532394D01*
X172151152Y-65540000D01*
X170336582Y-65540000D01*
X170364376Y-65476233D01*
X170410000Y-65267000D01*
X170410000Y-64867000D01*
X169452000Y-64867000D01*
X169452000Y-64887000D01*
X169198000Y-64887000D01*
X169198000Y-64867000D01*
X168240000Y-64867000D01*
X168240000Y-65267000D01*
X168285624Y-65476233D01*
X168313418Y-65540000D01*
X168182714Y-65540000D01*
X168145381Y-65536323D01*
X168108048Y-65540000D01*
X167996395Y-65550997D01*
X167853134Y-65594454D01*
X167721105Y-65665026D01*
X167605380Y-65759999D01*
X167581582Y-65788997D01*
X166618998Y-66751582D01*
X166590000Y-66775380D01*
X166531813Y-66846281D01*
X166374552Y-66815000D01*
X166185448Y-66815000D01*
X166028188Y-66846281D01*
X165970001Y-66775380D01*
X165941004Y-66751583D01*
X164823399Y-65633979D01*
X164799601Y-65604981D01*
X164757593Y-65570506D01*
X164683876Y-65510007D01*
X164551846Y-65439435D01*
X164452042Y-65409161D01*
X164408586Y-65395979D01*
X164296933Y-65384982D01*
X164259600Y-65381305D01*
X164222268Y-65384982D01*
X161734274Y-65384981D01*
X161760000Y-65267000D01*
X161760000Y-64867000D01*
X160802000Y-64867000D01*
X160802000Y-64887000D01*
X160548000Y-64887000D01*
X160548000Y-64867000D01*
X159590000Y-64867000D01*
X159590000Y-65267000D01*
X159615726Y-65384981D01*
X157092342Y-65384980D01*
X157055019Y-65381304D01*
X157017697Y-65384980D01*
X157017688Y-65384980D01*
X156906035Y-65395977D01*
X156814264Y-65423815D01*
X156762773Y-65439434D01*
X156630743Y-65510006D01*
X156544017Y-65581181D01*
X156544013Y-65581185D01*
X156515020Y-65604979D01*
X156491226Y-65633972D01*
X154015253Y-68109946D01*
X153915608Y-68028169D01*
X153770716Y-67950722D01*
X153613500Y-67903031D01*
X153450000Y-67886928D01*
X153050000Y-67886928D01*
X152886500Y-67903031D01*
X152729284Y-67950722D01*
X152584392Y-68028169D01*
X152457394Y-68132394D01*
X152425000Y-68171866D01*
X152392606Y-68132394D01*
X152265608Y-68028169D01*
X152120716Y-67950722D01*
X151963500Y-67903031D01*
X151800000Y-67886928D01*
X151400000Y-67886928D01*
X151236500Y-67903031D01*
X151114597Y-67940010D01*
X145478000Y-67940010D01*
X145478000Y-67773000D01*
X145498000Y-67773000D01*
X145498000Y-67753000D01*
X145752000Y-67753000D01*
X145752000Y-67773000D01*
X146551250Y-67773000D01*
X146710000Y-67614250D01*
X146712481Y-67461436D01*
X146789250Y-67460000D01*
X146948000Y-67301250D01*
X146948000Y-66477000D01*
X146928000Y-66477000D01*
X146928000Y-66223000D01*
X146948000Y-66223000D01*
X146948000Y-66203000D01*
X147202000Y-66203000D01*
X147202000Y-66223000D01*
X147222000Y-66223000D01*
X147222000Y-66477000D01*
X147202000Y-66477000D01*
X147202000Y-67301250D01*
X147360750Y-67460000D01*
X147525000Y-67463072D01*
X147649482Y-67450812D01*
X147769180Y-67414502D01*
X147879494Y-67355537D01*
X147923649Y-67319300D01*
X148069717Y-67397375D01*
X148231623Y-67446488D01*
X148400000Y-67463072D01*
X148850000Y-67463072D01*
X149018377Y-67446488D01*
X149180283Y-67397375D01*
X149329497Y-67317618D01*
X149460284Y-67210284D01*
X149567618Y-67079497D01*
X149647375Y-66930283D01*
X149696488Y-66768377D01*
X149713072Y-66600000D01*
X149713072Y-66100000D01*
X149696488Y-65931623D01*
X149647375Y-65769717D01*
X149567618Y-65620503D01*
X149460284Y-65489716D01*
X149329497Y-65382382D01*
X149180283Y-65302625D01*
X149018377Y-65253512D01*
X148850000Y-65236928D01*
X148586729Y-65236928D01*
X148038804Y-64689003D01*
X148015001Y-64659999D01*
X147899276Y-64565026D01*
X147767247Y-64494454D01*
X147623986Y-64450997D01*
X147512333Y-64440000D01*
X147512322Y-64440000D01*
X147475000Y-64436324D01*
X147437678Y-64440000D01*
X146387333Y-64440000D01*
X146350000Y-64436323D01*
X146312667Y-64440000D01*
X146201014Y-64450997D01*
X146057753Y-64494454D01*
X145925724Y-64565026D01*
X145809999Y-64659999D01*
X145786201Y-64688997D01*
X144135209Y-66339990D01*
X143292265Y-66339990D01*
X143243621Y-66277000D01*
X142477000Y-66277000D01*
X142477000Y-66297000D01*
X142401526Y-66297000D01*
X142410000Y-66254401D01*
X142410000Y-66045599D01*
X142369265Y-65840809D01*
X142289360Y-65647902D01*
X142223000Y-65548587D01*
X142223000Y-65257743D01*
X142477000Y-65257743D01*
X142477000Y-66023000D01*
X143243621Y-66023000D01*
X143369547Y-65859936D01*
X143293368Y-65666606D01*
X143180936Y-65491852D01*
X143036571Y-65342391D01*
X142865822Y-65223966D01*
X142675250Y-65141128D01*
X142640062Y-65130460D01*
X142477000Y-65257743D01*
X142223000Y-65257743D01*
X142059938Y-65130460D01*
X142024750Y-65141128D01*
X141857118Y-65213994D01*
X141852098Y-65210640D01*
X141659191Y-65130735D01*
X141479869Y-65095066D01*
X141273805Y-64889002D01*
X141250002Y-64859998D01*
X141134277Y-64765025D01*
X141002248Y-64694453D01*
X140858987Y-64650996D01*
X140747334Y-64639999D01*
X140747323Y-64639999D01*
X140710001Y-64636323D01*
X140672679Y-64639999D01*
X136702321Y-64639999D01*
X136664998Y-64636323D01*
X136627676Y-64639999D01*
X136627666Y-64639999D01*
X136516013Y-64650996D01*
X136372752Y-64694453D01*
X136240723Y-64765025D01*
X136124998Y-64859998D01*
X136101195Y-64889002D01*
X136039003Y-64951194D01*
X136009999Y-64974997D01*
X135967878Y-65026322D01*
X135915026Y-65090722D01*
X135882807Y-65150999D01*
X135844454Y-65222752D01*
X135800997Y-65366013D01*
X135790000Y-65477666D01*
X135790000Y-65477676D01*
X135786324Y-65514998D01*
X135790000Y-65552321D01*
X135790001Y-67194083D01*
X135682394Y-67282394D01*
X135578169Y-67409392D01*
X135500722Y-67554284D01*
X135453031Y-67711500D01*
X135436928Y-67875000D01*
X135436928Y-68113271D01*
X135238992Y-68311207D01*
X135238987Y-68311211D01*
X135238983Y-68311215D01*
X135209990Y-68335009D01*
X135186196Y-68364002D01*
X134477201Y-69072998D01*
X134392259Y-69072998D01*
X134519540Y-68909938D01*
X134508872Y-68874750D01*
X134426034Y-68684178D01*
X134307609Y-68513429D01*
X134158148Y-68369064D01*
X133983394Y-68256632D01*
X133790064Y-68180453D01*
X133627000Y-68306379D01*
X133627000Y-69073000D01*
X133647000Y-69073000D01*
X133647000Y-69136928D01*
X133075000Y-69136928D01*
X132950518Y-69149188D01*
X132830820Y-69185498D01*
X132720506Y-69244463D01*
X132623815Y-69323815D01*
X132621201Y-69327000D01*
X132607743Y-69327000D01*
X132480460Y-69490062D01*
X132490168Y-69522083D01*
X132485498Y-69530820D01*
X132449188Y-69650518D01*
X132436928Y-69775000D01*
X132436928Y-70625000D01*
X132449188Y-70749482D01*
X132485498Y-70869180D01*
X132544463Y-70979494D01*
X132554383Y-70991581D01*
X131238072Y-69675271D01*
X131238072Y-69412000D01*
X131221488Y-69243623D01*
X131172375Y-69081717D01*
X131092618Y-68932503D01*
X131074100Y-68909938D01*
X132480460Y-68909938D01*
X132607743Y-69073000D01*
X133373000Y-69073000D01*
X133373000Y-68306379D01*
X133209936Y-68180453D01*
X133016606Y-68256632D01*
X132841852Y-68369064D01*
X132692391Y-68513429D01*
X132573966Y-68684178D01*
X132491128Y-68874750D01*
X132480460Y-68909938D01*
X131074100Y-68909938D01*
X130985284Y-68801716D01*
X130854497Y-68694382D01*
X130705283Y-68614625D01*
X130543377Y-68565512D01*
X130375000Y-68548928D01*
X129925000Y-68548928D01*
X129756623Y-68565512D01*
X129594717Y-68614625D01*
X129448649Y-68692700D01*
X129404494Y-68656463D01*
X129294180Y-68597498D01*
X129174482Y-68561188D01*
X129050000Y-68548928D01*
X128885750Y-68552000D01*
X128727000Y-68710750D01*
X128727000Y-69535000D01*
X128747000Y-69535000D01*
X128747000Y-69789000D01*
X128727000Y-69789000D01*
X128727000Y-69809000D01*
X128473000Y-69809000D01*
X128473000Y-69789000D01*
X127673750Y-69789000D01*
X127515000Y-69947750D01*
X127511928Y-70137000D01*
X127524188Y-70261482D01*
X127560498Y-70381180D01*
X127619463Y-70491494D01*
X127698815Y-70588185D01*
X127768044Y-70645000D01*
X127725518Y-70649188D01*
X127605820Y-70685498D01*
X127495506Y-70744463D01*
X127398815Y-70823815D01*
X127319463Y-70920506D01*
X127260498Y-71030820D01*
X127224188Y-71150518D01*
X127211928Y-71275000D01*
X127211928Y-72675000D01*
X127224188Y-72799482D01*
X127260498Y-72919180D01*
X127319463Y-73029494D01*
X127356809Y-73075000D01*
X127319463Y-73120506D01*
X127260498Y-73230820D01*
X127224188Y-73350518D01*
X127211928Y-73475000D01*
X127215000Y-73889250D01*
X127373750Y-74048000D01*
X128323000Y-74048000D01*
X128323000Y-74028000D01*
X128577000Y-74028000D01*
X128577000Y-74048000D01*
X128597000Y-74048000D01*
X128597000Y-74302000D01*
X128577000Y-74302000D01*
X128577000Y-75351250D01*
X128735750Y-75510000D01*
X128677000Y-75568750D01*
X128677000Y-76393000D01*
X128697000Y-76393000D01*
X128697000Y-76647000D01*
X128677000Y-76647000D01*
X128677000Y-77471250D01*
X128835750Y-77630000D01*
X129000000Y-77633072D01*
X129124482Y-77620812D01*
X129244180Y-77584502D01*
X129354494Y-77525537D01*
X129398649Y-77489300D01*
X129544717Y-77567375D01*
X129706623Y-77616488D01*
X129875000Y-77633072D01*
X130325000Y-77633072D01*
X130493377Y-77616488D01*
X130655283Y-77567375D01*
X130804497Y-77487618D01*
X130935284Y-77380284D01*
X130990000Y-77313612D01*
X130990001Y-78935197D01*
X129085199Y-80840000D01*
X126695918Y-80840000D01*
X126612115Y-80737885D01*
X126482275Y-80631329D01*
X126334142Y-80552150D01*
X126173408Y-80503392D01*
X126006250Y-80486928D01*
X125568750Y-80486928D01*
X125401592Y-80503392D01*
X125240858Y-80552150D01*
X125092725Y-80631329D01*
X125000000Y-80707426D01*
X124907275Y-80631329D01*
X124759142Y-80552150D01*
X124598408Y-80503392D01*
X124431250Y-80486928D01*
X123993750Y-80486928D01*
X123826592Y-80503392D01*
X123665858Y-80552150D01*
X123517725Y-80631329D01*
X123387885Y-80737885D01*
X123281329Y-80867725D01*
X123202150Y-81015858D01*
X123153392Y-81176592D01*
X123136928Y-81343750D01*
X123136928Y-81856250D01*
X123153392Y-82023408D01*
X123202150Y-82184142D01*
X123281329Y-82332275D01*
X123387885Y-82462115D01*
X123452500Y-82515143D01*
X123452501Y-83414315D01*
X123307118Y-83474534D01*
X122998382Y-83680825D01*
X122735825Y-83943382D01*
X122529534Y-84252118D01*
X122387439Y-84595166D01*
X122315000Y-84959344D01*
X110685000Y-84959344D01*
X110685000Y-76995000D01*
X127461928Y-76995000D01*
X127474188Y-77119482D01*
X127510498Y-77239180D01*
X127569463Y-77349494D01*
X127648815Y-77446185D01*
X127745506Y-77525537D01*
X127855820Y-77584502D01*
X127975518Y-77620812D01*
X128100000Y-77633072D01*
X128264250Y-77630000D01*
X128423000Y-77471250D01*
X128423000Y-76647000D01*
X127623750Y-76647000D01*
X127465000Y-76805750D01*
X127461928Y-76995000D01*
X110685000Y-76995000D01*
X110685000Y-74875000D01*
X127211928Y-74875000D01*
X127224188Y-74999482D01*
X127260498Y-75119180D01*
X127319463Y-75229494D01*
X127398815Y-75326185D01*
X127495506Y-75405537D01*
X127605820Y-75464502D01*
X127725518Y-75500812D01*
X127763961Y-75504598D01*
X127745506Y-75514463D01*
X127648815Y-75593815D01*
X127569463Y-75690506D01*
X127510498Y-75800820D01*
X127474188Y-75920518D01*
X127461928Y-76045000D01*
X127465000Y-76234250D01*
X127623750Y-76393000D01*
X128423000Y-76393000D01*
X128423000Y-75568750D01*
X128264250Y-75410000D01*
X128323000Y-75351250D01*
X128323000Y-74302000D01*
X127373750Y-74302000D01*
X127215000Y-74460750D01*
X127211928Y-74875000D01*
X110685000Y-74875000D01*
X110685000Y-66737314D01*
X111332905Y-66737314D01*
X111332905Y-67262686D01*
X111435400Y-67777963D01*
X111636451Y-68263343D01*
X111928332Y-68700174D01*
X112299826Y-69071668D01*
X112736657Y-69363549D01*
X113222037Y-69564600D01*
X113737314Y-69667095D01*
X114262686Y-69667095D01*
X114777963Y-69564600D01*
X115263343Y-69363549D01*
X115527567Y-69187000D01*
X127511928Y-69187000D01*
X127515000Y-69376250D01*
X127673750Y-69535000D01*
X128473000Y-69535000D01*
X128473000Y-68710750D01*
X128314250Y-68552000D01*
X128150000Y-68548928D01*
X128025518Y-68561188D01*
X127905820Y-68597498D01*
X127795506Y-68656463D01*
X127698815Y-68735815D01*
X127619463Y-68832506D01*
X127560498Y-68942820D01*
X127524188Y-69062518D01*
X127511928Y-69187000D01*
X115527567Y-69187000D01*
X115700174Y-69071668D01*
X116071668Y-68700174D01*
X116363549Y-68263343D01*
X116564600Y-67777963D01*
X116667095Y-67262686D01*
X116667095Y-66737314D01*
X116564600Y-66222037D01*
X116363549Y-65736657D01*
X116071668Y-65299826D01*
X115700174Y-64928332D01*
X115263343Y-64636451D01*
X114777963Y-64435400D01*
X114262686Y-64332905D01*
X113737314Y-64332905D01*
X113222037Y-64435400D01*
X112736657Y-64636451D01*
X112299826Y-64928332D01*
X111928332Y-65299826D01*
X111636451Y-65736657D01*
X111435400Y-66222037D01*
X111332905Y-66737314D01*
X110685000Y-66737314D01*
X110685000Y-63660000D01*
X159823680Y-63660000D01*
X159721191Y-63807455D01*
%TA.AperFunction,Conductor*%
D23*
G36*
X159721191Y-63807455D02*
G01*
X159635624Y-64003767D01*
X159590000Y-64213000D01*
X159590000Y-64613000D01*
X160548000Y-64613000D01*
X160548000Y-64593000D01*
X160802000Y-64593000D01*
X160802000Y-64613000D01*
X161760000Y-64613000D01*
X161760000Y-64213000D01*
X161714376Y-64003767D01*
X161628809Y-63807455D01*
X161526320Y-63660000D01*
X168473680Y-63660000D01*
X168371191Y-63807455D01*
X168285624Y-64003767D01*
X168240000Y-64213000D01*
X168240000Y-64613000D01*
X169198000Y-64613000D01*
X169198000Y-64593000D01*
X169452000Y-64593000D01*
X169452000Y-64613000D01*
X170410000Y-64613000D01*
X170410000Y-64213000D01*
X170364376Y-64003767D01*
X170278809Y-63807455D01*
X170176320Y-63660000D01*
X219315000Y-63660000D01*
X219315001Y-104315000D01*
X110685000Y-104315000D01*
X110685000Y-100737314D01*
X111332905Y-100737314D01*
X111332905Y-101262686D01*
X111435400Y-101777963D01*
X111636451Y-102263343D01*
X111928332Y-102700174D01*
X112299826Y-103071668D01*
X112736657Y-103363549D01*
X113222037Y-103564600D01*
X113737314Y-103667095D01*
X114262686Y-103667095D01*
X114777963Y-103564600D01*
X115263343Y-103363549D01*
X115700174Y-103071668D01*
X116071668Y-102700174D01*
X116363549Y-102263343D01*
X116564600Y-101777963D01*
X116667095Y-101262686D01*
X116667095Y-100737314D01*
X213332905Y-100737314D01*
X213332905Y-101262686D01*
X213435400Y-101777963D01*
X213636451Y-102263343D01*
X213928332Y-102700174D01*
X214299826Y-103071668D01*
X214736657Y-103363549D01*
X215222037Y-103564600D01*
X215737314Y-103667095D01*
X216262686Y-103667095D01*
X216777963Y-103564600D01*
X217263343Y-103363549D01*
X217700174Y-103071668D01*
X218071668Y-102700174D01*
X218363549Y-102263343D01*
X218564600Y-101777963D01*
X218667095Y-101262686D01*
X218667095Y-100737314D01*
X218564600Y-100222037D01*
X218363549Y-99736657D01*
X218071668Y-99299826D01*
X217700174Y-98928332D01*
X217263343Y-98636451D01*
X216777963Y-98435400D01*
X216262686Y-98332905D01*
X215737314Y-98332905D01*
X215222037Y-98435400D01*
X214736657Y-98636451D01*
X214299826Y-98928332D01*
X213928332Y-99299826D01*
X213636451Y-99736657D01*
X213435400Y-100222037D01*
X213332905Y-100737314D01*
X116667095Y-100737314D01*
X116564600Y-100222037D01*
X116363549Y-99736657D01*
X116071668Y-99299826D01*
X115700174Y-98928332D01*
X115263343Y-98636451D01*
X114777963Y-98435400D01*
X114262686Y-98332905D01*
X113737314Y-98332905D01*
X113222037Y-98435400D01*
X112736657Y-98636451D01*
X112299826Y-98928332D01*
X111928332Y-99299826D01*
X111636451Y-99736657D01*
X111435400Y-100222037D01*
X111332905Y-100737314D01*
X110685000Y-100737314D01*
X110685000Y-90076278D01*
X120150000Y-90076278D01*
X120150000Y-90373722D01*
X120208029Y-90665451D01*
X120321856Y-90940253D01*
X120487107Y-91187569D01*
X120697431Y-91397893D01*
X120944747Y-91563144D01*
X121219549Y-91676971D01*
X121511278Y-91735000D01*
X121808722Y-91735000D01*
X122100451Y-91676971D01*
X122375253Y-91563144D01*
X122622569Y-91397893D01*
X122832893Y-91187569D01*
X122998144Y-90940253D01*
X123111971Y-90665451D01*
X123170000Y-90373722D01*
X123170000Y-90076278D01*
X123147960Y-89965475D01*
X124105000Y-89965475D01*
X124105000Y-90484525D01*
X124206261Y-90993601D01*
X124404893Y-91473141D01*
X124693262Y-91904715D01*
X125060285Y-92271738D01*
X125491859Y-92560107D01*
X125971399Y-92758739D01*
X126480475Y-92860000D01*
X126999525Y-92860000D01*
X127508601Y-92758739D01*
X127988141Y-92560107D01*
X128419715Y-92271738D01*
X128786738Y-91904715D01*
X129075107Y-91473141D01*
X129273739Y-90993601D01*
X129375000Y-90484525D01*
X129375000Y-89965475D01*
X129273739Y-89456399D01*
X129075107Y-88976859D01*
X128786738Y-88545285D01*
X128419715Y-88178262D01*
X127988141Y-87889893D01*
X127508601Y-87691261D01*
X126999525Y-87590000D01*
X126480475Y-87590000D01*
X125971399Y-87691261D01*
X125491859Y-87889893D01*
X125060285Y-88178262D01*
X124693262Y-88545285D01*
X124404893Y-88976859D01*
X124206261Y-89456399D01*
X124105000Y-89965475D01*
X123147960Y-89965475D01*
X123111971Y-89784549D01*
X122998144Y-89509747D01*
X122832893Y-89262431D01*
X122622569Y-89052107D01*
X122375253Y-88886856D01*
X122100451Y-88773029D01*
X121808722Y-88715000D01*
X121511278Y-88715000D01*
X121219549Y-88773029D01*
X120944747Y-88886856D01*
X120697431Y-89052107D01*
X120487107Y-89262431D01*
X120321856Y-89509747D01*
X120208029Y-89784549D01*
X120150000Y-90076278D01*
X110685000Y-90076278D01*
X110685000Y-84959344D01*
X122315000Y-84959344D01*
X122315000Y-85330656D01*
X122387439Y-85694834D01*
X122529534Y-86037882D01*
X122735825Y-86346618D01*
X122998382Y-86609175D01*
X123307118Y-86815466D01*
X123650166Y-86957561D01*
X124014344Y-87030000D01*
X124385656Y-87030000D01*
X124749834Y-86957561D01*
X125092882Y-86815466D01*
X125401618Y-86609175D01*
X125664175Y-86346618D01*
X125870466Y-86037882D01*
X126012561Y-85694834D01*
X126085000Y-85330656D01*
X126085000Y-84959344D01*
X126012561Y-84595166D01*
X125870466Y-84252118D01*
X125664175Y-83943382D01*
X125401618Y-83680825D01*
X125092882Y-83474534D01*
X124972500Y-83424670D01*
X124972500Y-82515143D01*
X125000000Y-82492574D01*
X125092725Y-82568671D01*
X125240858Y-82647850D01*
X125401592Y-82696608D01*
X125568750Y-82713072D01*
X126006250Y-82713072D01*
X126173408Y-82696608D01*
X126334142Y-82647850D01*
X126482275Y-82568671D01*
X126612115Y-82462115D01*
X126695918Y-82360000D01*
X129362678Y-82360000D01*
X129400000Y-82363676D01*
X129437322Y-82360000D01*
X129437333Y-82360000D01*
X129548986Y-82349003D01*
X129692247Y-82305546D01*
X129824276Y-82234974D01*
X129940001Y-82140001D01*
X129963804Y-82110997D01*
X132261003Y-79813799D01*
X132290001Y-79790001D01*
X132384974Y-79674276D01*
X132411312Y-79625000D01*
X134961928Y-79625000D01*
X134974188Y-79749482D01*
X135010498Y-79869180D01*
X135069463Y-79979494D01*
X135148815Y-80076185D01*
X135245506Y-80155537D01*
X135355820Y-80214502D01*
X135475518Y-80250812D01*
X135600000Y-80263072D01*
X135764250Y-80260000D01*
X135923000Y-80101250D01*
X135923000Y-79277000D01*
X135123750Y-79277000D01*
X134965000Y-79435750D01*
X134961928Y-79625000D01*
X132411312Y-79625000D01*
X132455546Y-79542247D01*
X132499003Y-79398986D01*
X132510000Y-79287333D01*
X132510000Y-79287323D01*
X132513676Y-79250000D01*
X132510000Y-79212677D01*
X132510000Y-78675000D01*
X134961928Y-78675000D01*
X134965000Y-78864250D01*
X135123750Y-79023000D01*
X135923000Y-79023000D01*
X135923000Y-78198750D01*
X135764250Y-78040000D01*
X135600000Y-78036928D01*
X135475518Y-78049188D01*
X135355820Y-78085498D01*
X135245506Y-78144463D01*
X135148815Y-78223815D01*
X135069463Y-78320506D01*
X135010498Y-78430820D01*
X134974188Y-78550518D01*
X134961928Y-78675000D01*
X132510000Y-78675000D01*
X132510000Y-77861950D01*
X132614250Y-77860000D01*
X132773000Y-77701250D01*
X132773000Y-76877000D01*
X132753000Y-76877000D01*
X132753000Y-76623000D01*
X132773000Y-76623000D01*
X132773000Y-76603000D01*
X133027000Y-76603000D01*
X133027000Y-76623000D01*
X133047000Y-76623000D01*
X133047000Y-76877000D01*
X133027000Y-76877000D01*
X133027000Y-77701250D01*
X133185750Y-77860000D01*
X133350000Y-77863072D01*
X133474482Y-77850812D01*
X133594180Y-77814502D01*
X133704494Y-77755537D01*
X133748649Y-77719300D01*
X133894717Y-77797375D01*
X134056623Y-77846488D01*
X134225000Y-77863072D01*
X134675000Y-77863072D01*
X134843377Y-77846488D01*
X135005283Y-77797375D01*
X135154497Y-77717618D01*
X135285284Y-77610284D01*
X135392618Y-77479497D01*
X135472375Y-77330283D01*
X135521488Y-77168377D01*
X135538072Y-77000000D01*
X135538072Y-76500000D01*
X135521488Y-76331623D01*
X135472375Y-76169717D01*
X135392618Y-76020503D01*
X135285284Y-75889716D01*
X135154497Y-75782382D01*
X135005283Y-75702625D01*
X134843377Y-75653512D01*
X134675000Y-75636928D01*
X134225000Y-75636928D01*
X134056623Y-75653512D01*
X133894717Y-75702625D01*
X133748649Y-75780700D01*
X133704494Y-75744463D01*
X133594180Y-75685498D01*
X133474482Y-75649188D01*
X133350000Y-75636928D01*
X133309959Y-75637677D01*
X133637636Y-75310000D01*
X136270792Y-75310000D01*
X136261928Y-75400000D01*
X136261928Y-75700000D01*
X136271777Y-75800000D01*
X136261928Y-75900000D01*
X136261928Y-76200000D01*
X136271777Y-76300000D01*
X136261928Y-76400000D01*
X136261928Y-76700000D01*
X136274188Y-76824482D01*
X136310498Y-76944180D01*
X136369463Y-77054494D01*
X136448815Y-77151185D01*
X136545506Y-77230537D01*
X136655820Y-77289502D01*
X136775518Y-77325812D01*
X136900000Y-77338072D01*
X137900000Y-77338072D01*
X137961928Y-77331973D01*
X137961928Y-77527000D01*
X137623750Y-77527000D01*
X137465000Y-77685750D01*
X137462048Y-77887612D01*
X137471889Y-78012308D01*
X137478839Y-78036928D01*
X137375000Y-78036928D01*
X137206623Y-78053512D01*
X137044717Y-78102625D01*
X136898649Y-78180700D01*
X136854494Y-78144463D01*
X136744180Y-78085498D01*
X136624482Y-78049188D01*
X136500000Y-78036928D01*
X136335750Y-78040000D01*
X136177000Y-78198750D01*
X136177000Y-79023000D01*
X136197000Y-79023000D01*
X136197000Y-79277000D01*
X136177000Y-79277000D01*
X136177000Y-80101250D01*
X136335750Y-80260000D01*
X136500000Y-80263072D01*
X136624482Y-80250812D01*
X136744180Y-80214502D01*
X136854494Y-80155537D01*
X136898649Y-80119300D01*
X137044717Y-80197375D01*
X137206623Y-80246488D01*
X137375000Y-80263072D01*
X137825000Y-80263072D01*
X137993377Y-80246488D01*
X138155283Y-80197375D01*
X138304497Y-80117618D01*
X138435284Y-80010284D01*
X138490000Y-79943612D01*
X138490001Y-86920000D01*
X132273436Y-86920000D01*
X132220466Y-86792118D01*
X132014175Y-86483382D01*
X131751618Y-86220825D01*
X131442882Y-86014534D01*
X131099834Y-85872439D01*
X130735656Y-85800000D01*
X130364344Y-85800000D01*
X130000166Y-85872439D01*
X129657118Y-86014534D01*
X129348382Y-86220825D01*
X129085825Y-86483382D01*
X128879534Y-86792118D01*
X128737439Y-87135166D01*
X128665000Y-87499344D01*
X128665000Y-87870656D01*
X128737439Y-88234834D01*
X128879534Y-88577882D01*
X129085825Y-88886618D01*
X129348382Y-89149175D01*
X129657118Y-89355466D01*
X130000166Y-89497561D01*
X130364344Y-89570000D01*
X130456898Y-89570000D01*
X130368029Y-89784549D01*
X130310000Y-90076278D01*
X130310000Y-90373722D01*
X130368029Y-90665451D01*
X130481856Y-90940253D01*
X130647107Y-91187569D01*
X130857431Y-91397893D01*
X131104747Y-91563144D01*
X131379549Y-91676971D01*
X131671278Y-91735000D01*
X131968722Y-91735000D01*
X132260451Y-91676971D01*
X132535253Y-91563144D01*
X132782569Y-91397893D01*
X132992893Y-91187569D01*
X133158144Y-90940253D01*
X133271971Y-90665451D01*
X133330000Y-90373722D01*
X133330000Y-90076278D01*
X139300000Y-90076278D01*
X139300000Y-90373722D01*
X139358029Y-90665451D01*
X139471856Y-90940253D01*
X139637107Y-91187569D01*
X139847431Y-91397893D01*
X140094747Y-91563144D01*
X140369549Y-91676971D01*
X140661278Y-91735000D01*
X140958722Y-91735000D01*
X141250451Y-91676971D01*
X141525253Y-91563144D01*
X141772569Y-91397893D01*
X141982893Y-91187569D01*
X142148144Y-90940253D01*
X142261971Y-90665451D01*
X142320000Y-90373722D01*
X142320000Y-90076278D01*
X142261971Y-89784549D01*
X142148144Y-89509747D01*
X141982893Y-89262431D01*
X141772569Y-89052107D01*
X141525253Y-88886856D01*
X141250451Y-88773029D01*
X140958722Y-88715000D01*
X140661278Y-88715000D01*
X140369549Y-88773029D01*
X140094747Y-88886856D01*
X139847431Y-89052107D01*
X139637107Y-89262431D01*
X139471856Y-89509747D01*
X139358029Y-89784549D01*
X139300000Y-90076278D01*
X133330000Y-90076278D01*
X133271971Y-89784549D01*
X133158144Y-89509747D01*
X132992893Y-89262431D01*
X132782569Y-89052107D01*
X132535253Y-88886856D01*
X132260451Y-88773029D01*
X132110061Y-88743114D01*
X132220466Y-88577882D01*
X132277579Y-88440000D01*
X139282678Y-88440000D01*
X139320000Y-88443676D01*
X139357323Y-88440000D01*
X143948547Y-88440000D01*
X143843262Y-88545285D01*
X143554893Y-88976859D01*
X143356261Y-89456399D01*
X143255000Y-89965475D01*
X143255000Y-90484525D01*
X143356261Y-90993601D01*
X143554893Y-91473141D01*
X143843262Y-91904715D01*
X144210285Y-92271738D01*
X144641859Y-92560107D01*
X145121399Y-92758739D01*
X145630475Y-92860000D01*
X146149525Y-92860000D01*
X146658601Y-92758739D01*
X147138141Y-92560107D01*
X147569715Y-92271738D01*
X147936738Y-91904715D01*
X148225107Y-91473141D01*
X148423739Y-90993601D01*
X148525000Y-90484525D01*
X148525000Y-89965475D01*
X148423739Y-89456399D01*
X148225107Y-88976859D01*
X147936738Y-88545285D01*
X147831453Y-88440000D01*
X147972421Y-88440000D01*
X148029534Y-88577882D01*
X148235825Y-88886618D01*
X148498382Y-89149175D01*
X148807118Y-89355466D01*
X149150166Y-89497561D01*
X149514344Y-89570000D01*
X149606898Y-89570000D01*
X149518029Y-89784549D01*
X149460000Y-90076278D01*
X149460000Y-90373722D01*
X149518029Y-90665451D01*
X149631856Y-90940253D01*
X149797107Y-91187569D01*
X150007431Y-91397893D01*
X150254747Y-91563144D01*
X150529549Y-91676971D01*
X150821278Y-91735000D01*
X151118722Y-91735000D01*
X151410451Y-91676971D01*
X151685253Y-91563144D01*
X151932569Y-91397893D01*
X152142893Y-91187569D01*
X152308144Y-90940253D01*
X152421971Y-90665451D01*
X152480000Y-90373722D01*
X152480000Y-90076278D01*
X158425000Y-90076278D01*
X158425000Y-90373722D01*
X158483029Y-90665451D01*
X158596856Y-90940253D01*
X158762107Y-91187569D01*
X158972431Y-91397893D01*
X159219747Y-91563144D01*
X159494549Y-91676971D01*
X159786278Y-91735000D01*
X160083722Y-91735000D01*
X160375451Y-91676971D01*
X160650253Y-91563144D01*
X160897569Y-91397893D01*
X161107893Y-91187569D01*
X161273144Y-90940253D01*
X161386971Y-90665451D01*
X161445000Y-90373722D01*
X161445000Y-90076278D01*
X161386971Y-89784549D01*
X161273144Y-89509747D01*
X161107893Y-89262431D01*
X160897569Y-89052107D01*
X160650253Y-88886856D01*
X160375451Y-88773029D01*
X160083722Y-88715000D01*
X159786278Y-88715000D01*
X159494549Y-88773029D01*
X159219747Y-88886856D01*
X158972431Y-89052107D01*
X158762107Y-89262431D01*
X158596856Y-89509747D01*
X158483029Y-89784549D01*
X158425000Y-90076278D01*
X152480000Y-90076278D01*
X152421971Y-89784549D01*
X152308144Y-89509747D01*
X152142893Y-89262431D01*
X151932569Y-89052107D01*
X151685253Y-88886856D01*
X151410451Y-88773029D01*
X151260061Y-88743114D01*
X151370466Y-88577882D01*
X151427579Y-88440000D01*
X163073547Y-88440000D01*
X162968262Y-88545285D01*
X162679893Y-88976859D01*
X162481261Y-89456399D01*
X162380000Y-89965475D01*
X162380000Y-90484525D01*
X162481261Y-90993601D01*
X162679893Y-91473141D01*
X162968262Y-91904715D01*
X163335285Y-92271738D01*
X163766859Y-92560107D01*
X164246399Y-92758739D01*
X164755475Y-92860000D01*
X165274525Y-92860000D01*
X165783601Y-92758739D01*
X166263141Y-92560107D01*
X166694715Y-92271738D01*
X167061738Y-91904715D01*
X167350107Y-91473141D01*
X167548739Y-90993601D01*
X167650000Y-90484525D01*
X167650000Y-89965475D01*
X167548739Y-89456399D01*
X167350107Y-88976859D01*
X167061738Y-88545285D01*
X166956453Y-88440000D01*
X167097421Y-88440000D01*
X167154534Y-88577882D01*
X167360825Y-88886618D01*
X167623382Y-89149175D01*
X167932118Y-89355466D01*
X168275166Y-89497561D01*
X168639344Y-89570000D01*
X168731898Y-89570000D01*
X168643029Y-89784549D01*
X168585000Y-90076278D01*
X168585000Y-90373722D01*
X168643029Y-90665451D01*
X168756856Y-90940253D01*
X168922107Y-91187569D01*
X169132431Y-91397893D01*
X169379747Y-91563144D01*
X169654549Y-91676971D01*
X169946278Y-91735000D01*
X170243722Y-91735000D01*
X170535451Y-91676971D01*
X170810253Y-91563144D01*
X171057569Y-91397893D01*
X171267893Y-91187569D01*
X171433144Y-90940253D01*
X171546971Y-90665451D01*
X171605000Y-90373722D01*
X171605000Y-90076278D01*
X177575000Y-90076278D01*
X177575000Y-90373722D01*
X177633029Y-90665451D01*
X177746856Y-90940253D01*
X177912107Y-91187569D01*
X178122431Y-91397893D01*
X178369747Y-91563144D01*
X178644549Y-91676971D01*
X178936278Y-91735000D01*
X179233722Y-91735000D01*
X179525451Y-91676971D01*
X179800253Y-91563144D01*
X180047569Y-91397893D01*
X180257893Y-91187569D01*
X180423144Y-90940253D01*
X180536971Y-90665451D01*
X180595000Y-90373722D01*
X180595000Y-90076278D01*
X180536971Y-89784549D01*
X180423144Y-89509747D01*
X180257893Y-89262431D01*
X180047569Y-89052107D01*
X179800253Y-88886856D01*
X179525451Y-88773029D01*
X179233722Y-88715000D01*
X178936278Y-88715000D01*
X178644549Y-88773029D01*
X178369747Y-88886856D01*
X178122431Y-89052107D01*
X177912107Y-89262431D01*
X177746856Y-89509747D01*
X177633029Y-89784549D01*
X177575000Y-90076278D01*
X171605000Y-90076278D01*
X171546971Y-89784549D01*
X171433144Y-89509747D01*
X171267893Y-89262431D01*
X171057569Y-89052107D01*
X170810253Y-88886856D01*
X170535451Y-88773029D01*
X170385061Y-88743114D01*
X170495466Y-88577882D01*
X170552579Y-88440000D01*
X182223547Y-88440000D01*
X182118262Y-88545285D01*
X181829893Y-88976859D01*
X181631261Y-89456399D01*
X181530000Y-89965475D01*
X181530000Y-90484525D01*
X181631261Y-90993601D01*
X181829893Y-91473141D01*
X182118262Y-91904715D01*
X182485285Y-92271738D01*
X182916859Y-92560107D01*
X183396399Y-92758739D01*
X183905475Y-92860000D01*
X184424525Y-92860000D01*
X184933601Y-92758739D01*
X185413141Y-92560107D01*
X185844715Y-92271738D01*
X186211738Y-91904715D01*
X186500107Y-91473141D01*
X186698739Y-90993601D01*
X186800000Y-90484525D01*
X186800000Y-89965475D01*
X186698739Y-89456399D01*
X186500107Y-88976859D01*
X186211738Y-88545285D01*
X186106453Y-88440000D01*
X186247421Y-88440000D01*
X186304534Y-88577882D01*
X186510825Y-88886618D01*
X186773382Y-89149175D01*
X187082118Y-89355466D01*
X187425166Y-89497561D01*
X187789344Y-89570000D01*
X187881898Y-89570000D01*
X187793029Y-89784549D01*
X187735000Y-90076278D01*
X187735000Y-90373722D01*
X187793029Y-90665451D01*
X187906856Y-90940253D01*
X188072107Y-91187569D01*
X188282431Y-91397893D01*
X188529747Y-91563144D01*
X188804549Y-91676971D01*
X189096278Y-91735000D01*
X189393722Y-91735000D01*
X189685451Y-91676971D01*
X189960253Y-91563144D01*
X190207569Y-91397893D01*
X190417893Y-91187569D01*
X190583144Y-90940253D01*
X190696971Y-90665451D01*
X190755000Y-90373722D01*
X190755000Y-90076278D01*
X190754006Y-90071278D01*
X196715000Y-90071278D01*
X196715000Y-90368722D01*
X196773029Y-90660451D01*
X196886856Y-90935253D01*
X197052107Y-91182569D01*
X197262431Y-91392893D01*
X197509747Y-91558144D01*
X197784549Y-91671971D01*
X198076278Y-91730000D01*
X198373722Y-91730000D01*
X198665451Y-91671971D01*
X198940253Y-91558144D01*
X199187569Y-91392893D01*
X199397893Y-91182569D01*
X199563144Y-90935253D01*
X199676971Y-90660451D01*
X199735000Y-90368722D01*
X199735000Y-90071278D01*
X199676971Y-89779549D01*
X199563144Y-89504747D01*
X199397893Y-89257431D01*
X199187569Y-89047107D01*
X198940253Y-88881856D01*
X198665451Y-88768029D01*
X198373722Y-88710000D01*
X198076278Y-88710000D01*
X197784549Y-88768029D01*
X197509747Y-88881856D01*
X197262431Y-89047107D01*
X197052107Y-89257431D01*
X196886856Y-89504747D01*
X196773029Y-89779549D01*
X196715000Y-90071278D01*
X190754006Y-90071278D01*
X190696971Y-89784549D01*
X190583144Y-89509747D01*
X190417893Y-89262431D01*
X190207569Y-89052107D01*
X189960253Y-88886856D01*
X189685451Y-88773029D01*
X189535061Y-88743114D01*
X189645466Y-88577882D01*
X189702579Y-88440000D01*
X201358547Y-88440000D01*
X201258262Y-88540285D01*
X200969893Y-88971859D01*
X200771261Y-89451399D01*
X200670000Y-89960475D01*
X200670000Y-90479525D01*
X200771261Y-90988601D01*
X200969893Y-91468141D01*
X201258262Y-91899715D01*
X201625285Y-92266738D01*
X202056859Y-92555107D01*
X202536399Y-92753739D01*
X203045475Y-92855000D01*
X203564525Y-92855000D01*
X204073601Y-92753739D01*
X204553141Y-92555107D01*
X204984715Y-92266738D01*
X205351738Y-91899715D01*
X205640107Y-91468141D01*
X205838739Y-90988601D01*
X205940000Y-90479525D01*
X205940000Y-89960475D01*
X205838739Y-89451399D01*
X205640107Y-88971859D01*
X205351738Y-88540285D01*
X205251453Y-88440000D01*
X205389493Y-88440000D01*
X205444534Y-88572882D01*
X205650825Y-88881618D01*
X205913382Y-89144175D01*
X206222118Y-89350466D01*
X206565166Y-89492561D01*
X206929344Y-89565000D01*
X207021898Y-89565000D01*
X206933029Y-89779549D01*
X206875000Y-90071278D01*
X206875000Y-90368722D01*
X206933029Y-90660451D01*
X207046856Y-90935253D01*
X207212107Y-91182569D01*
X207422431Y-91392893D01*
X207669747Y-91558144D01*
X207944549Y-91671971D01*
X208236278Y-91730000D01*
X208533722Y-91730000D01*
X208825451Y-91671971D01*
X209100253Y-91558144D01*
X209347569Y-91392893D01*
X209557893Y-91182569D01*
X209723144Y-90935253D01*
X209836971Y-90660451D01*
X209895000Y-90368722D01*
X209895000Y-90071278D01*
X209836971Y-89779549D01*
X209723144Y-89504747D01*
X209557893Y-89257431D01*
X209347569Y-89047107D01*
X209100253Y-88881856D01*
X208825451Y-88768029D01*
X208675061Y-88738114D01*
X208785466Y-88572882D01*
X208927561Y-88229834D01*
X209000000Y-87865656D01*
X209000000Y-87494344D01*
X208927561Y-87130166D01*
X208785466Y-86787118D01*
X208579175Y-86478382D01*
X208316618Y-86215825D01*
X208007882Y-86009534D01*
X207664834Y-85867439D01*
X207300656Y-85795000D01*
X206929344Y-85795000D01*
X206565166Y-85867439D01*
X206222118Y-86009534D01*
X205913382Y-86215825D01*
X205650825Y-86478382D01*
X205444534Y-86787118D01*
X205389493Y-86920000D01*
X201393443Y-86920000D01*
X201657882Y-86810466D01*
X201966618Y-86604175D01*
X202229175Y-86341618D01*
X202435466Y-86032882D01*
X202577561Y-85689834D01*
X202650000Y-85325656D01*
X202650000Y-84954344D01*
X202577561Y-84590166D01*
X202435466Y-84247118D01*
X202229175Y-83938382D01*
X201966618Y-83675825D01*
X201657882Y-83469534D01*
X201525000Y-83414493D01*
X201525000Y-82313091D01*
X201592725Y-82368671D01*
X201740858Y-82447850D01*
X201901592Y-82496608D01*
X202068750Y-82513072D01*
X202506250Y-82513072D01*
X202673408Y-82496608D01*
X202834142Y-82447850D01*
X202982275Y-82368671D01*
X203112115Y-82262115D01*
X203218671Y-82132275D01*
X203297850Y-81984142D01*
X203346608Y-81823408D01*
X203363072Y-81656250D01*
X203363072Y-81143750D01*
X203346608Y-80976592D01*
X203297850Y-80815858D01*
X203218671Y-80667725D01*
X203112115Y-80537885D01*
X202982275Y-80431329D01*
X202834142Y-80352150D01*
X202673408Y-80303392D01*
X202506250Y-80286928D01*
X202249230Y-80286928D01*
X200251304Y-78289003D01*
X200227501Y-78259999D01*
X200111776Y-78165026D01*
X199979747Y-78094454D01*
X199836486Y-78050997D01*
X199724833Y-78040000D01*
X199724822Y-78040000D01*
X199687500Y-78036324D01*
X199650178Y-78040000D01*
X144021105Y-78040000D01*
X144025812Y-78024482D01*
X144038072Y-77900000D01*
X144038072Y-77338072D01*
X144600000Y-77338072D01*
X144724482Y-77325812D01*
X144776607Y-77310000D01*
X145057415Y-77310000D01*
X145139716Y-77410284D01*
X145270503Y-77517618D01*
X145419717Y-77597375D01*
X145581623Y-77646488D01*
X145750000Y-77663072D01*
X146250000Y-77663072D01*
X146418377Y-77646488D01*
X146580283Y-77597375D01*
X146729497Y-77517618D01*
X146860284Y-77410284D01*
X146967618Y-77279497D01*
X147047375Y-77130283D01*
X147096488Y-76968377D01*
X147113072Y-76800000D01*
X147113072Y-76350000D01*
X147096488Y-76181623D01*
X147047375Y-76019717D01*
X146969300Y-75873649D01*
X147005537Y-75829494D01*
X147064502Y-75719180D01*
X147100812Y-75599482D01*
X147113072Y-75475000D01*
X147110000Y-75310750D01*
X146951250Y-75152000D01*
X146127000Y-75152000D01*
X146127000Y-75172000D01*
X145873000Y-75172000D01*
X145873000Y-75152000D01*
X145853000Y-75152000D01*
X145853000Y-74898000D01*
X145873000Y-74898000D01*
X145873000Y-73627000D01*
X146127000Y-73627000D01*
X146127000Y-74898000D01*
X146951250Y-74898000D01*
X147110000Y-74739250D01*
X147113072Y-74575000D01*
X147100812Y-74450518D01*
X147064502Y-74330820D01*
X147027984Y-74262500D01*
X147064502Y-74194180D01*
X147100812Y-74074482D01*
X147113072Y-73950000D01*
X147110000Y-73785750D01*
X146951250Y-73627000D01*
X146127000Y-73627000D01*
X145873000Y-73627000D01*
X145853000Y-73627000D01*
X145853000Y-73373000D01*
X145873000Y-73373000D01*
X145873000Y-73353000D01*
X146127000Y-73353000D01*
X146127000Y-73373000D01*
X146951250Y-73373000D01*
X147110000Y-73214250D01*
X147113072Y-73050000D01*
X147100812Y-72925518D01*
X147064502Y-72805820D01*
X147005537Y-72695506D01*
X146969300Y-72651351D01*
X147047375Y-72505283D01*
X147096488Y-72343377D01*
X147113072Y-72175000D01*
X147113072Y-72125000D01*
X160211928Y-72125000D01*
X160224188Y-72249482D01*
X160260498Y-72369180D01*
X160319463Y-72479494D01*
X160398815Y-72576185D01*
X160495506Y-72655537D01*
X160605820Y-72714502D01*
X160725518Y-72750812D01*
X160850000Y-72763072D01*
X161014250Y-72760000D01*
X161173000Y-72601250D01*
X161173000Y-71777000D01*
X160373750Y-71777000D01*
X160215000Y-71935750D01*
X160211928Y-72125000D01*
X147113072Y-72125000D01*
X147113072Y-71725000D01*
X147096488Y-71556623D01*
X147047375Y-71394717D01*
X146967618Y-71245503D01*
X146860284Y-71114716D01*
X146729497Y-71007382D01*
X146580283Y-70927625D01*
X146418377Y-70878512D01*
X146250000Y-70861928D01*
X145986730Y-70861928D01*
X145034821Y-69910020D01*
X149510219Y-69910020D01*
X149561211Y-69961012D01*
X150536928Y-70936730D01*
X150536928Y-71175000D01*
X150553031Y-71338500D01*
X150600722Y-71495716D01*
X150678169Y-71640608D01*
X150782394Y-71767606D01*
X150909392Y-71871831D01*
X151054284Y-71949278D01*
X151211500Y-71996969D01*
X151375000Y-72013072D01*
X151775000Y-72013072D01*
X151938500Y-71996969D01*
X152095716Y-71949278D01*
X152240608Y-71871831D01*
X152367606Y-71767606D01*
X152400000Y-71728134D01*
X152432394Y-71767606D01*
X152559392Y-71871831D01*
X152704284Y-71949278D01*
X152861500Y-71996969D01*
X153025000Y-72013072D01*
X153425000Y-72013072D01*
X153588500Y-71996969D01*
X153745716Y-71949278D01*
X153890608Y-71871831D01*
X154017606Y-71767606D01*
X154121831Y-71640608D01*
X154199278Y-71495716D01*
X154246969Y-71338500D01*
X154263072Y-71175000D01*
X160211928Y-71175000D01*
X160215000Y-71364250D01*
X160373750Y-71523000D01*
X161173000Y-71523000D01*
X161173000Y-70698750D01*
X161014250Y-70540000D01*
X160850000Y-70536928D01*
X160725518Y-70549188D01*
X160605820Y-70585498D01*
X160495506Y-70644463D01*
X160398815Y-70723815D01*
X160319463Y-70820506D01*
X160260498Y-70930820D01*
X160224188Y-71050518D01*
X160211928Y-71175000D01*
X154263072Y-71175000D01*
X154263072Y-70936729D01*
X154938798Y-70261004D01*
X156952802Y-68247000D01*
X159590000Y-68247000D01*
X159590000Y-68997000D01*
X159635624Y-69206233D01*
X159721191Y-69402545D01*
X159843413Y-69578391D01*
X159997592Y-69727014D01*
X160177803Y-69842702D01*
X160380999Y-69914408D01*
X160548000Y-69787502D01*
X160548000Y-68247000D01*
X159590000Y-68247000D01*
X156952802Y-68247000D01*
X157844812Y-67354990D01*
X159590000Y-67354990D01*
X159590000Y-67993000D01*
X160548000Y-67993000D01*
X160548000Y-67973000D01*
X160802000Y-67973000D01*
X160802000Y-67993000D01*
X161089369Y-67993000D01*
X161100392Y-68050028D01*
X161171813Y-68225126D01*
X161176730Y-68234323D01*
X161359073Y-68247000D01*
X160802000Y-68247000D01*
X160802000Y-69787502D01*
X160969001Y-69914408D01*
X161172197Y-69842702D01*
X161352408Y-69727014D01*
X161506587Y-69578391D01*
X161628809Y-69402545D01*
X161695225Y-69250170D01*
X161845395Y-69100000D01*
X161831253Y-69085858D01*
X161915829Y-69001281D01*
X161915000Y-69005448D01*
X161915000Y-69194552D01*
X161947361Y-69357244D01*
X161552069Y-69752536D01*
X161565677Y-69948270D01*
X161739992Y-70021581D01*
X161925260Y-70059475D01*
X162090001Y-70060365D01*
X162090000Y-70636716D01*
X161994180Y-70585498D01*
X161874482Y-70549188D01*
X161750000Y-70536928D01*
X161585750Y-70540000D01*
X161427000Y-70698750D01*
X161427000Y-71523000D01*
X161447000Y-71523000D01*
X161447000Y-71777000D01*
X161427000Y-71777000D01*
X161427000Y-72601250D01*
X161585750Y-72760000D01*
X161750000Y-72763072D01*
X161874482Y-72750812D01*
X161994180Y-72714502D01*
X162104494Y-72655537D01*
X162148649Y-72619300D01*
X162294717Y-72697375D01*
X162456623Y-72746488D01*
X162625000Y-72763072D01*
X163075000Y-72763072D01*
X163243377Y-72746488D01*
X163405283Y-72697375D01*
X163554497Y-72617618D01*
X163685284Y-72510284D01*
X163792618Y-72379497D01*
X163872375Y-72230283D01*
X163921488Y-72068377D01*
X163938072Y-71900000D01*
X163938072Y-71400000D01*
X163921488Y-71231623D01*
X163872375Y-71069717D01*
X163792618Y-70920503D01*
X163685284Y-70789716D01*
X163610000Y-70727932D01*
X163610000Y-70519420D01*
X168051582Y-74961003D01*
X168075380Y-74990001D01*
X168104378Y-75013799D01*
X168191104Y-75084974D01*
X168314975Y-75151185D01*
X168323134Y-75155546D01*
X168466395Y-75199003D01*
X168578048Y-75210000D01*
X168578057Y-75210000D01*
X168615380Y-75213676D01*
X168652703Y-75210000D01*
X170369084Y-75210000D01*
X170457394Y-75317606D01*
X170584392Y-75421831D01*
X170729284Y-75499278D01*
X170886500Y-75546969D01*
X171050000Y-75563072D01*
X171450000Y-75563072D01*
X171613500Y-75546969D01*
X171770716Y-75499278D01*
X171915608Y-75421831D01*
X172017590Y-75338137D01*
X172048815Y-75376185D01*
X172145506Y-75455537D01*
X172255820Y-75514502D01*
X172375518Y-75550812D01*
X172500000Y-75563072D01*
X172614250Y-75560000D01*
X172773000Y-75401250D01*
X172773000Y-74577000D01*
X173027000Y-74577000D01*
X173027000Y-75401250D01*
X173185750Y-75560000D01*
X173300000Y-75563072D01*
X173424482Y-75550812D01*
X173544180Y-75514502D01*
X173654494Y-75455537D01*
X173751185Y-75376185D01*
X173830537Y-75279494D01*
X173889502Y-75169180D01*
X173925812Y-75049482D01*
X173938072Y-74925000D01*
X173935000Y-74735750D01*
X173776250Y-74577000D01*
X173027000Y-74577000D01*
X172773000Y-74577000D01*
X172753000Y-74577000D01*
X172753000Y-74323000D01*
X172773000Y-74323000D01*
X172773000Y-73498750D01*
X173027000Y-73498750D01*
X173027000Y-74323000D01*
X173776250Y-74323000D01*
X173935000Y-74164250D01*
X173938072Y-73975000D01*
X173925812Y-73850518D01*
X173889502Y-73730820D01*
X173830537Y-73620506D01*
X173751185Y-73523815D01*
X173654494Y-73444463D01*
X173544180Y-73385498D01*
X173424482Y-73349188D01*
X173300000Y-73336928D01*
X173185750Y-73340000D01*
X173027000Y-73498750D01*
X172773000Y-73498750D01*
X172614250Y-73340000D01*
X172500000Y-73336928D01*
X172375518Y-73349188D01*
X172255820Y-73385498D01*
X172145506Y-73444463D01*
X172048815Y-73523815D01*
X172017590Y-73561863D01*
X171915608Y-73478169D01*
X171770716Y-73400722D01*
X171613500Y-73353031D01*
X171450000Y-73336928D01*
X171050000Y-73336928D01*
X170886500Y-73353031D01*
X170729284Y-73400722D01*
X170584392Y-73478169D01*
X170457394Y-73582394D01*
X170369084Y-73690000D01*
X168930183Y-73690000D01*
X166715183Y-71475000D01*
X170211928Y-71475000D01*
X170211928Y-72025000D01*
X170228031Y-72188500D01*
X170275722Y-72345716D01*
X170353169Y-72490608D01*
X170457394Y-72617606D01*
X170584392Y-72721831D01*
X170729284Y-72799278D01*
X170886500Y-72846969D01*
X171050000Y-72863072D01*
X171450000Y-72863072D01*
X171613500Y-72846969D01*
X171770716Y-72799278D01*
X171915608Y-72721831D01*
X172017590Y-72638137D01*
X172048815Y-72676185D01*
X172145506Y-72755537D01*
X172255820Y-72814502D01*
X172375518Y-72850812D01*
X172500000Y-72863072D01*
X172614250Y-72860000D01*
X172773000Y-72701250D01*
X172773000Y-71877000D01*
X173027000Y-71877000D01*
X173027000Y-72701250D01*
X173185750Y-72860000D01*
X173300000Y-72863072D01*
X173424482Y-72850812D01*
X173544180Y-72814502D01*
X173654494Y-72755537D01*
X173751185Y-72676185D01*
X173830537Y-72579494D01*
X173889502Y-72469180D01*
X173925812Y-72349482D01*
X173938072Y-72225000D01*
X173935000Y-72035750D01*
X173776250Y-71877000D01*
X173027000Y-71877000D01*
X172773000Y-71877000D01*
X172753000Y-71877000D01*
X172753000Y-71623000D01*
X172773000Y-71623000D01*
X172773000Y-70798750D01*
X173027000Y-70798750D01*
X173027000Y-71623000D01*
X173776250Y-71623000D01*
X173935000Y-71464250D01*
X173938072Y-71275000D01*
X173925812Y-71150518D01*
X173889502Y-71030820D01*
X173830537Y-70920506D01*
X173751185Y-70823815D01*
X173654494Y-70744463D01*
X173544180Y-70685498D01*
X173424482Y-70649188D01*
X173300000Y-70636928D01*
X173185750Y-70640000D01*
X173027000Y-70798750D01*
X172773000Y-70798750D01*
X172614250Y-70640000D01*
X172500000Y-70636928D01*
X172375518Y-70649188D01*
X172255820Y-70685498D01*
X172145506Y-70744463D01*
X172048815Y-70823815D01*
X172017590Y-70861863D01*
X171915608Y-70778169D01*
X171770716Y-70700722D01*
X171613500Y-70653031D01*
X171450000Y-70636928D01*
X171050000Y-70636928D01*
X170886500Y-70653031D01*
X170729284Y-70700722D01*
X170584392Y-70778169D01*
X170457394Y-70882394D01*
X170353169Y-71009392D01*
X170275722Y-71154284D01*
X170228031Y-71311500D01*
X170211928Y-71475000D01*
X166715183Y-71475000D01*
X165292667Y-70052485D01*
X165330448Y-70060000D01*
X165519552Y-70060000D01*
X165705022Y-70023108D01*
X165850000Y-69963056D01*
X165994978Y-70023108D01*
X166180448Y-70060000D01*
X166369552Y-70060000D01*
X166555022Y-70023108D01*
X166700000Y-69963056D01*
X166844978Y-70023108D01*
X167030448Y-70060000D01*
X167219552Y-70060000D01*
X167405022Y-70023108D01*
X167550420Y-69962882D01*
X167689992Y-70021581D01*
X167875260Y-70059475D01*
X168064361Y-70060497D01*
X168183332Y-70037500D01*
X176086928Y-70037500D01*
X176099188Y-70161982D01*
X176135498Y-70281680D01*
X176194463Y-70391994D01*
X176273815Y-70488685D01*
X176370506Y-70568037D01*
X176480820Y-70627002D01*
X176600518Y-70663312D01*
X176725000Y-70675572D01*
X176914250Y-70672500D01*
X177073000Y-70513750D01*
X177073000Y-69727000D01*
X177327000Y-69727000D01*
X177327000Y-70513750D01*
X177485750Y-70672500D01*
X177675000Y-70675572D01*
X177799482Y-70663312D01*
X177919180Y-70627002D01*
X178029494Y-70568037D01*
X178126185Y-70488685D01*
X178205537Y-70391994D01*
X178264502Y-70281680D01*
X178300812Y-70161982D01*
X178313072Y-70037500D01*
X178310000Y-69885750D01*
X178151250Y-69727000D01*
X177327000Y-69727000D01*
X177073000Y-69727000D01*
X176248750Y-69727000D01*
X176090000Y-69885750D01*
X176086928Y-70037500D01*
X168183332Y-70037500D01*
X168250028Y-70024608D01*
X168425126Y-69953187D01*
X168434323Y-69948270D01*
X168447931Y-69752536D01*
X168052639Y-69357244D01*
X168085000Y-69194552D01*
X168085000Y-69005448D01*
X168084171Y-69001281D01*
X168168748Y-69085858D01*
X168154605Y-69100000D01*
X168304775Y-69250170D01*
X168371191Y-69402545D01*
X168493413Y-69578391D01*
X168647592Y-69727014D01*
X168827803Y-69842702D01*
X169030999Y-69914408D01*
X169198000Y-69787502D01*
X169198000Y-68247000D01*
X169452000Y-68247000D01*
X169452000Y-69787502D01*
X169619001Y-69914408D01*
X169822197Y-69842702D01*
X170002408Y-69727014D01*
X170156587Y-69578391D01*
X170278809Y-69402545D01*
X170364376Y-69206233D01*
X170410000Y-68997000D01*
X170410000Y-68247000D01*
X169452000Y-68247000D01*
X169198000Y-68247000D01*
X168645927Y-68247000D01*
X168828270Y-68234323D01*
X168901581Y-68060008D01*
X168915287Y-67993000D01*
X169198000Y-67993000D01*
X169198000Y-67973000D01*
X169452000Y-67973000D01*
X169452000Y-67993000D01*
X170410000Y-67993000D01*
X170410000Y-67243000D01*
X170370096Y-67060000D01*
X172010083Y-67060000D01*
X172053169Y-67140608D01*
X172157394Y-67267606D01*
X172284392Y-67371831D01*
X172429284Y-67449278D01*
X172586500Y-67496969D01*
X172750000Y-67513072D01*
X173150000Y-67513072D01*
X173313500Y-67496969D01*
X173470716Y-67449278D01*
X173615608Y-67371831D01*
X173742606Y-67267606D01*
X173775000Y-67228134D01*
X173807394Y-67267606D01*
X173934392Y-67371831D01*
X174079284Y-67449278D01*
X174236500Y-67496969D01*
X174400000Y-67513072D01*
X174800000Y-67513072D01*
X174963500Y-67496969D01*
X175120716Y-67449278D01*
X175265608Y-67371831D01*
X175392606Y-67267606D01*
X175480916Y-67160000D01*
X176387095Y-67160000D01*
X176337885Y-67200385D01*
X176231329Y-67330225D01*
X176152150Y-67478358D01*
X176103392Y-67639092D01*
X176086928Y-67806250D01*
X176086928Y-68243750D01*
X176103392Y-68410908D01*
X176152150Y-68571642D01*
X176231329Y-68719775D01*
X176249100Y-68741430D01*
X176194463Y-68808006D01*
X176135498Y-68918320D01*
X176099188Y-69038018D01*
X176086928Y-69162500D01*
X176090000Y-69314250D01*
X176248750Y-69473000D01*
X177073000Y-69473000D01*
X177073000Y-69453000D01*
X177327000Y-69453000D01*
X177327000Y-69473000D01*
X178151250Y-69473000D01*
X178310000Y-69314250D01*
X178313072Y-69162500D01*
X178300812Y-69038018D01*
X178264502Y-68918320D01*
X178205537Y-68808006D01*
X178150900Y-68741430D01*
X178168671Y-68719775D01*
X178247850Y-68571642D01*
X178296608Y-68410908D01*
X178313072Y-68243750D01*
X178313072Y-67806250D01*
X178296608Y-67639092D01*
X178247850Y-67478358D01*
X178168671Y-67330225D01*
X178062115Y-67200385D01*
X178012905Y-67160000D01*
X178869084Y-67160000D01*
X178957394Y-67267606D01*
X179084392Y-67371831D01*
X179229284Y-67449278D01*
X179386500Y-67496969D01*
X179550000Y-67513072D01*
X179950000Y-67513072D01*
X180113500Y-67496969D01*
X180270716Y-67449278D01*
X180415608Y-67371831D01*
X180517590Y-67288137D01*
X180548815Y-67326185D01*
X180645506Y-67405537D01*
X180755820Y-67464502D01*
X180875518Y-67500812D01*
X181000000Y-67513072D01*
X181114250Y-67510000D01*
X181273000Y-67351250D01*
X181273000Y-66527000D01*
X181527000Y-66527000D01*
X181527000Y-67351250D01*
X181685750Y-67510000D01*
X181800000Y-67513072D01*
X181924482Y-67500812D01*
X182044180Y-67464502D01*
X182154494Y-67405537D01*
X182251185Y-67326185D01*
X182330537Y-67229494D01*
X182389502Y-67119180D01*
X182425812Y-66999482D01*
X182438072Y-66875000D01*
X182435838Y-66737314D01*
X213332905Y-66737314D01*
X213332905Y-67262686D01*
X213435400Y-67777963D01*
X213636451Y-68263343D01*
X213928332Y-68700174D01*
X214299826Y-69071668D01*
X214736657Y-69363549D01*
X215222037Y-69564600D01*
X215737314Y-69667095D01*
X216262686Y-69667095D01*
X216777963Y-69564600D01*
X217263343Y-69363549D01*
X217700174Y-69071668D01*
X218071668Y-68700174D01*
X218363549Y-68263343D01*
X218564600Y-67777963D01*
X218667095Y-67262686D01*
X218667095Y-66737314D01*
X218564600Y-66222037D01*
X218363549Y-65736657D01*
X218071668Y-65299826D01*
X217700174Y-64928332D01*
X217263343Y-64636451D01*
X216777963Y-64435400D01*
X216262686Y-64332905D01*
X215737314Y-64332905D01*
X215222037Y-64435400D01*
X214736657Y-64636451D01*
X214299826Y-64928332D01*
X213928332Y-65299826D01*
X213636451Y-65736657D01*
X213435400Y-66222037D01*
X213332905Y-66737314D01*
X182435838Y-66737314D01*
X182435000Y-66685750D01*
X182276250Y-66527000D01*
X181527000Y-66527000D01*
X181273000Y-66527000D01*
X181253000Y-66527000D01*
X181253000Y-66273000D01*
X181273000Y-66273000D01*
X181273000Y-65448750D01*
X181527000Y-65448750D01*
X181527000Y-66273000D01*
X182276250Y-66273000D01*
X182435000Y-66114250D01*
X182438072Y-65925000D01*
X182425812Y-65800518D01*
X182389502Y-65680820D01*
X182330537Y-65570506D01*
X182251185Y-65473815D01*
X182154494Y-65394463D01*
X182044180Y-65335498D01*
X181924482Y-65299188D01*
X181800000Y-65286928D01*
X181685750Y-65290000D01*
X181527000Y-65448750D01*
X181273000Y-65448750D01*
X181114250Y-65290000D01*
X181000000Y-65286928D01*
X180875518Y-65299188D01*
X180755820Y-65335498D01*
X180645506Y-65394463D01*
X180548815Y-65473815D01*
X180517590Y-65511863D01*
X180415608Y-65428169D01*
X180270716Y-65350722D01*
X180113500Y-65303031D01*
X179950000Y-65286928D01*
X179550000Y-65286928D01*
X179386500Y-65303031D01*
X179229284Y-65350722D01*
X179084392Y-65428169D01*
X178957394Y-65532394D01*
X178869084Y-65640000D01*
X177437325Y-65640000D01*
X177400000Y-65636324D01*
X177362675Y-65640000D01*
X175480916Y-65640000D01*
X175392606Y-65532394D01*
X175265608Y-65428169D01*
X175120716Y-65350722D01*
X174963500Y-65303031D01*
X174800000Y-65286928D01*
X174400000Y-65286928D01*
X174236500Y-65303031D01*
X174079284Y-65350722D01*
X173934392Y-65428169D01*
X173807394Y-65532394D01*
X173775000Y-65571866D01*
X173742606Y-65532394D01*
X173615608Y-65428169D01*
X173470716Y-65350722D01*
X173313500Y-65303031D01*
X173150000Y-65286928D01*
X172750000Y-65286928D01*
X172586500Y-65303031D01*
X172429284Y-65350722D01*
X172284392Y-65428169D01*
X172157394Y-65532394D01*
X172151152Y-65540000D01*
X170336582Y-65540000D01*
X170364376Y-65476233D01*
X170410000Y-65267000D01*
X170410000Y-64867000D01*
X169452000Y-64867000D01*
X169452000Y-64887000D01*
X169198000Y-64887000D01*
X169198000Y-64867000D01*
X168240000Y-64867000D01*
X168240000Y-65267000D01*
X168285624Y-65476233D01*
X168313418Y-65540000D01*
X168182714Y-65540000D01*
X168145381Y-65536323D01*
X168108048Y-65540000D01*
X167996395Y-65550997D01*
X167853134Y-65594454D01*
X167721105Y-65665026D01*
X167605380Y-65759999D01*
X167581582Y-65788997D01*
X166618998Y-66751582D01*
X166590000Y-66775380D01*
X166531813Y-66846281D01*
X166374552Y-66815000D01*
X166185448Y-66815000D01*
X166028188Y-66846281D01*
X165970001Y-66775380D01*
X165941004Y-66751583D01*
X164823399Y-65633979D01*
X164799601Y-65604981D01*
X164757593Y-65570506D01*
X164683876Y-65510007D01*
X164551846Y-65439435D01*
X164452042Y-65409161D01*
X164408586Y-65395979D01*
X164296933Y-65384982D01*
X164259600Y-65381305D01*
X164222268Y-65384982D01*
X161734274Y-65384981D01*
X161760000Y-65267000D01*
X161760000Y-64867000D01*
X160802000Y-64867000D01*
X160802000Y-64887000D01*
X160548000Y-64887000D01*
X160548000Y-64867000D01*
X159590000Y-64867000D01*
X159590000Y-65267000D01*
X159615726Y-65384981D01*
X157092342Y-65384980D01*
X157055019Y-65381304D01*
X157017697Y-65384980D01*
X157017688Y-65384980D01*
X156906035Y-65395977D01*
X156814264Y-65423815D01*
X156762773Y-65439434D01*
X156630743Y-65510006D01*
X156544017Y-65581181D01*
X156544013Y-65581185D01*
X156515020Y-65604979D01*
X156491226Y-65633972D01*
X154015253Y-68109946D01*
X153915608Y-68028169D01*
X153770716Y-67950722D01*
X153613500Y-67903031D01*
X153450000Y-67886928D01*
X153050000Y-67886928D01*
X152886500Y-67903031D01*
X152729284Y-67950722D01*
X152584392Y-68028169D01*
X152457394Y-68132394D01*
X152425000Y-68171866D01*
X152392606Y-68132394D01*
X152265608Y-68028169D01*
X152120716Y-67950722D01*
X151963500Y-67903031D01*
X151800000Y-67886928D01*
X151400000Y-67886928D01*
X151236500Y-67903031D01*
X151114597Y-67940010D01*
X145478000Y-67940010D01*
X145478000Y-67773000D01*
X145498000Y-67773000D01*
X145498000Y-67753000D01*
X145752000Y-67753000D01*
X145752000Y-67773000D01*
X146551250Y-67773000D01*
X146710000Y-67614250D01*
X146712481Y-67461436D01*
X146789250Y-67460000D01*
X146948000Y-67301250D01*
X146948000Y-66477000D01*
X146928000Y-66477000D01*
X146928000Y-66223000D01*
X146948000Y-66223000D01*
X146948000Y-66203000D01*
X147202000Y-66203000D01*
X147202000Y-66223000D01*
X147222000Y-66223000D01*
X147222000Y-66477000D01*
X147202000Y-66477000D01*
X147202000Y-67301250D01*
X147360750Y-67460000D01*
X147525000Y-67463072D01*
X147649482Y-67450812D01*
X147769180Y-67414502D01*
X147879494Y-67355537D01*
X147923649Y-67319300D01*
X148069717Y-67397375D01*
X148231623Y-67446488D01*
X148400000Y-67463072D01*
X148850000Y-67463072D01*
X149018377Y-67446488D01*
X149180283Y-67397375D01*
X149329497Y-67317618D01*
X149460284Y-67210284D01*
X149567618Y-67079497D01*
X149647375Y-66930283D01*
X149696488Y-66768377D01*
X149713072Y-66600000D01*
X149713072Y-66100000D01*
X149696488Y-65931623D01*
X149647375Y-65769717D01*
X149567618Y-65620503D01*
X149460284Y-65489716D01*
X149329497Y-65382382D01*
X149180283Y-65302625D01*
X149018377Y-65253512D01*
X148850000Y-65236928D01*
X148586729Y-65236928D01*
X148038804Y-64689003D01*
X148015001Y-64659999D01*
X147899276Y-64565026D01*
X147767247Y-64494454D01*
X147623986Y-64450997D01*
X147512333Y-64440000D01*
X147512322Y-64440000D01*
X147475000Y-64436324D01*
X147437678Y-64440000D01*
X146387333Y-64440000D01*
X146350000Y-64436323D01*
X146312667Y-64440000D01*
X146201014Y-64450997D01*
X146057753Y-64494454D01*
X145925724Y-64565026D01*
X145809999Y-64659999D01*
X145786201Y-64688997D01*
X144135209Y-66339990D01*
X143292265Y-66339990D01*
X143243621Y-66277000D01*
X142477000Y-66277000D01*
X142477000Y-66297000D01*
X142401526Y-66297000D01*
X142410000Y-66254401D01*
X142410000Y-66045599D01*
X142369265Y-65840809D01*
X142289360Y-65647902D01*
X142223000Y-65548587D01*
X142223000Y-65257743D01*
X142477000Y-65257743D01*
X142477000Y-66023000D01*
X143243621Y-66023000D01*
X143369547Y-65859936D01*
X143293368Y-65666606D01*
X143180936Y-65491852D01*
X143036571Y-65342391D01*
X142865822Y-65223966D01*
X142675250Y-65141128D01*
X142640062Y-65130460D01*
X142477000Y-65257743D01*
X142223000Y-65257743D01*
X142059938Y-65130460D01*
X142024750Y-65141128D01*
X141857118Y-65213994D01*
X141852098Y-65210640D01*
X141659191Y-65130735D01*
X141479869Y-65095066D01*
X141273805Y-64889002D01*
X141250002Y-64859998D01*
X141134277Y-64765025D01*
X141002248Y-64694453D01*
X140858987Y-64650996D01*
X140747334Y-64639999D01*
X140747323Y-64639999D01*
X140710001Y-64636323D01*
X140672679Y-64639999D01*
X136702321Y-64639999D01*
X136664998Y-64636323D01*
X136627676Y-64639999D01*
X136627666Y-64639999D01*
X136516013Y-64650996D01*
X136372752Y-64694453D01*
X136240723Y-64765025D01*
X136124998Y-64859998D01*
X136101195Y-64889002D01*
X136039003Y-64951194D01*
X136009999Y-64974997D01*
X135967878Y-65026322D01*
X135915026Y-65090722D01*
X135882807Y-65150999D01*
X135844454Y-65222752D01*
X135800997Y-65366013D01*
X135790000Y-65477666D01*
X135790000Y-65477676D01*
X135786324Y-65514998D01*
X135790000Y-65552321D01*
X135790001Y-67194083D01*
X135682394Y-67282394D01*
X135578169Y-67409392D01*
X135500722Y-67554284D01*
X135453031Y-67711500D01*
X135436928Y-67875000D01*
X135436928Y-68113271D01*
X135238992Y-68311207D01*
X135238987Y-68311211D01*
X135238983Y-68311215D01*
X135209990Y-68335009D01*
X135186196Y-68364002D01*
X134477201Y-69072998D01*
X134392259Y-69072998D01*
X134519540Y-68909938D01*
X134508872Y-68874750D01*
X134426034Y-68684178D01*
X134307609Y-68513429D01*
X134158148Y-68369064D01*
X133983394Y-68256632D01*
X133790064Y-68180453D01*
X133627000Y-68306379D01*
X133627000Y-69073000D01*
X133647000Y-69073000D01*
X133647000Y-69136928D01*
X133075000Y-69136928D01*
X132950518Y-69149188D01*
X132830820Y-69185498D01*
X132720506Y-69244463D01*
X132623815Y-69323815D01*
X132621201Y-69327000D01*
X132607743Y-69327000D01*
X132480460Y-69490062D01*
X132490168Y-69522083D01*
X132485498Y-69530820D01*
X132449188Y-69650518D01*
X132436928Y-69775000D01*
X132436928Y-70625000D01*
X132449188Y-70749482D01*
X132485498Y-70869180D01*
X132544463Y-70979494D01*
X132554383Y-70991581D01*
X131238072Y-69675271D01*
X131238072Y-69412000D01*
X131221488Y-69243623D01*
X131172375Y-69081717D01*
X131092618Y-68932503D01*
X131074100Y-68909938D01*
X132480460Y-68909938D01*
X132607743Y-69073000D01*
X133373000Y-69073000D01*
X133373000Y-68306379D01*
X133209936Y-68180453D01*
X133016606Y-68256632D01*
X132841852Y-68369064D01*
X132692391Y-68513429D01*
X132573966Y-68684178D01*
X132491128Y-68874750D01*
X132480460Y-68909938D01*
X131074100Y-68909938D01*
X130985284Y-68801716D01*
X130854497Y-68694382D01*
X130705283Y-68614625D01*
X130543377Y-68565512D01*
X130375000Y-68548928D01*
X129925000Y-68548928D01*
X129756623Y-68565512D01*
X129594717Y-68614625D01*
X129448649Y-68692700D01*
X129404494Y-68656463D01*
X129294180Y-68597498D01*
X129174482Y-68561188D01*
X129050000Y-68548928D01*
X128885750Y-68552000D01*
X128727000Y-68710750D01*
X128727000Y-69535000D01*
X128747000Y-69535000D01*
X128747000Y-69789000D01*
X128727000Y-69789000D01*
X128727000Y-69809000D01*
X128473000Y-69809000D01*
X128473000Y-69789000D01*
X127673750Y-69789000D01*
X127515000Y-69947750D01*
X127511928Y-70137000D01*
X127524188Y-70261482D01*
X127560498Y-70381180D01*
X127619463Y-70491494D01*
X127698815Y-70588185D01*
X127768044Y-70645000D01*
X127725518Y-70649188D01*
X127605820Y-70685498D01*
X127495506Y-70744463D01*
X127398815Y-70823815D01*
X127319463Y-70920506D01*
X127260498Y-71030820D01*
X127224188Y-71150518D01*
X127211928Y-71275000D01*
X127211928Y-72675000D01*
X127224188Y-72799482D01*
X127260498Y-72919180D01*
X127319463Y-73029494D01*
X127356809Y-73075000D01*
X127319463Y-73120506D01*
X127260498Y-73230820D01*
X127224188Y-73350518D01*
X127211928Y-73475000D01*
X127215000Y-73889250D01*
X127373750Y-74048000D01*
X128323000Y-74048000D01*
X128323000Y-74028000D01*
X128577000Y-74028000D01*
X128577000Y-74048000D01*
X128597000Y-74048000D01*
X128597000Y-74302000D01*
X128577000Y-74302000D01*
X128577000Y-75351250D01*
X128735750Y-75510000D01*
X128677000Y-75568750D01*
X128677000Y-76393000D01*
X128697000Y-76393000D01*
X128697000Y-76647000D01*
X128677000Y-76647000D01*
X128677000Y-77471250D01*
X128835750Y-77630000D01*
X129000000Y-77633072D01*
X129124482Y-77620812D01*
X129244180Y-77584502D01*
X129354494Y-77525537D01*
X129398649Y-77489300D01*
X129544717Y-77567375D01*
X129706623Y-77616488D01*
X129875000Y-77633072D01*
X130325000Y-77633072D01*
X130493377Y-77616488D01*
X130655283Y-77567375D01*
X130804497Y-77487618D01*
X130935284Y-77380284D01*
X130990000Y-77313612D01*
X130990001Y-78935197D01*
X129085199Y-80840000D01*
X126695918Y-80840000D01*
X126612115Y-80737885D01*
X126482275Y-80631329D01*
X126334142Y-80552150D01*
X126173408Y-80503392D01*
X126006250Y-80486928D01*
X125568750Y-80486928D01*
X125401592Y-80503392D01*
X125240858Y-80552150D01*
X125092725Y-80631329D01*
X125000000Y-80707426D01*
X124907275Y-80631329D01*
X124759142Y-80552150D01*
X124598408Y-80503392D01*
X124431250Y-80486928D01*
X123993750Y-80486928D01*
X123826592Y-80503392D01*
X123665858Y-80552150D01*
X123517725Y-80631329D01*
X123387885Y-80737885D01*
X123281329Y-80867725D01*
X123202150Y-81015858D01*
X123153392Y-81176592D01*
X123136928Y-81343750D01*
X123136928Y-81856250D01*
X123153392Y-82023408D01*
X123202150Y-82184142D01*
X123281329Y-82332275D01*
X123387885Y-82462115D01*
X123452500Y-82515143D01*
X123452501Y-83414315D01*
X123307118Y-83474534D01*
X122998382Y-83680825D01*
X122735825Y-83943382D01*
X122529534Y-84252118D01*
X122387439Y-84595166D01*
X122315000Y-84959344D01*
X110685000Y-84959344D01*
X110685000Y-76995000D01*
X127461928Y-76995000D01*
X127474188Y-77119482D01*
X127510498Y-77239180D01*
X127569463Y-77349494D01*
X127648815Y-77446185D01*
X127745506Y-77525537D01*
X127855820Y-77584502D01*
X127975518Y-77620812D01*
X128100000Y-77633072D01*
X128264250Y-77630000D01*
X128423000Y-77471250D01*
X128423000Y-76647000D01*
X127623750Y-76647000D01*
X127465000Y-76805750D01*
X127461928Y-76995000D01*
X110685000Y-76995000D01*
X110685000Y-74875000D01*
X127211928Y-74875000D01*
X127224188Y-74999482D01*
X127260498Y-75119180D01*
X127319463Y-75229494D01*
X127398815Y-75326185D01*
X127495506Y-75405537D01*
X127605820Y-75464502D01*
X127725518Y-75500812D01*
X127763961Y-75504598D01*
X127745506Y-75514463D01*
X127648815Y-75593815D01*
X127569463Y-75690506D01*
X127510498Y-75800820D01*
X127474188Y-75920518D01*
X127461928Y-76045000D01*
X127465000Y-76234250D01*
X127623750Y-76393000D01*
X128423000Y-76393000D01*
X128423000Y-75568750D01*
X128264250Y-75410000D01*
X128323000Y-75351250D01*
X128323000Y-74302000D01*
X127373750Y-74302000D01*
X127215000Y-74460750D01*
X127211928Y-74875000D01*
X110685000Y-74875000D01*
X110685000Y-66737314D01*
X111332905Y-66737314D01*
X111332905Y-67262686D01*
X111435400Y-67777963D01*
X111636451Y-68263343D01*
X111928332Y-68700174D01*
X112299826Y-69071668D01*
X112736657Y-69363549D01*
X113222037Y-69564600D01*
X113737314Y-69667095D01*
X114262686Y-69667095D01*
X114777963Y-69564600D01*
X115263343Y-69363549D01*
X115527567Y-69187000D01*
X127511928Y-69187000D01*
X127515000Y-69376250D01*
X127673750Y-69535000D01*
X128473000Y-69535000D01*
X128473000Y-68710750D01*
X128314250Y-68552000D01*
X128150000Y-68548928D01*
X128025518Y-68561188D01*
X127905820Y-68597498D01*
X127795506Y-68656463D01*
X127698815Y-68735815D01*
X127619463Y-68832506D01*
X127560498Y-68942820D01*
X127524188Y-69062518D01*
X127511928Y-69187000D01*
X115527567Y-69187000D01*
X115700174Y-69071668D01*
X116071668Y-68700174D01*
X116363549Y-68263343D01*
X116564600Y-67777963D01*
X116667095Y-67262686D01*
X116667095Y-66737314D01*
X116564600Y-66222037D01*
X116363549Y-65736657D01*
X116071668Y-65299826D01*
X115700174Y-64928332D01*
X115263343Y-64636451D01*
X114777963Y-64435400D01*
X114262686Y-64332905D01*
X113737314Y-64332905D01*
X113222037Y-64435400D01*
X112736657Y-64636451D01*
X112299826Y-64928332D01*
X111928332Y-65299826D01*
X111636451Y-65736657D01*
X111435400Y-66222037D01*
X111332905Y-66737314D01*
X110685000Y-66737314D01*
X110685000Y-63660000D01*
X159823680Y-63660000D01*
X159721191Y-63807455D01*
G37*
%TD.AperFunction*%
D22*
X140877000Y-73923000D02*
X140897000Y-73923000D01*
X140897000Y-74177000D01*
X140877000Y-74177000D01*
X140877000Y-74197000D01*
X140623000Y-74197000D01*
X140623000Y-74177000D01*
X140603000Y-74177000D01*
X140603000Y-73923000D01*
X140623000Y-73923000D01*
X140623000Y-73903000D01*
X140877000Y-73903000D01*
X140877000Y-73923000D01*
%TA.AperFunction,Conductor*%
D23*
G36*
X140877000Y-73923000D02*
G01*
X140897000Y-73923000D01*
X140897000Y-74177000D01*
X140877000Y-74177000D01*
X140877000Y-74197000D01*
X140623000Y-74197000D01*
X140623000Y-74177000D01*
X140603000Y-74177000D01*
X140603000Y-73923000D01*
X140623000Y-73923000D01*
X140623000Y-73903000D01*
X140877000Y-73903000D01*
X140877000Y-73923000D01*
G37*
%TD.AperFunction*%
D22*
X130277000Y-71848000D02*
X131226250Y-71848000D01*
X131243724Y-71830526D01*
X132703198Y-73290000D01*
X131357454Y-73290000D01*
X131339502Y-73230820D01*
X131280537Y-73120506D01*
X131243191Y-73075000D01*
X131280537Y-73029494D01*
X131339502Y-72919180D01*
X131375812Y-72799482D01*
X131388072Y-72675000D01*
X131385000Y-72260750D01*
X131226250Y-72102000D01*
X130277000Y-72102000D01*
X130277000Y-72122000D01*
X130023000Y-72122000D01*
X130023000Y-72102000D01*
X130003000Y-72102000D01*
X130003000Y-71848000D01*
X130023000Y-71848000D01*
X130023000Y-71828000D01*
X130277000Y-71828000D01*
X130277000Y-71848000D01*
%TA.AperFunction,Conductor*%
D23*
G36*
X130277000Y-71848000D02*
G01*
X131226250Y-71848000D01*
X131243724Y-71830526D01*
X132703198Y-73290000D01*
X131357454Y-73290000D01*
X131339502Y-73230820D01*
X131280537Y-73120506D01*
X131243191Y-73075000D01*
X131280537Y-73029494D01*
X131339502Y-72919180D01*
X131375812Y-72799482D01*
X131388072Y-72675000D01*
X131385000Y-72260750D01*
X131226250Y-72102000D01*
X130277000Y-72102000D01*
X130277000Y-72122000D01*
X130023000Y-72122000D01*
X130023000Y-72102000D01*
X130003000Y-72102000D01*
X130003000Y-71848000D01*
X130023000Y-71848000D01*
X130023000Y-71828000D01*
X130277000Y-71828000D01*
X130277000Y-71848000D01*
G37*
%TD.AperFunction*%
D22*
X134989990Y-70778845D02*
X134859744Y-70832795D01*
X134690226Y-70946063D01*
X134546063Y-71090226D01*
X134432795Y-71259744D01*
X134354774Y-71448102D01*
X134315000Y-71648061D01*
X134315000Y-71851939D01*
X134354774Y-72051898D01*
X134432795Y-72240256D01*
X134546063Y-72409774D01*
X134690226Y-72553937D01*
X134859744Y-72667205D01*
X135048102Y-72745226D01*
X135248061Y-72785000D01*
X135310198Y-72785000D01*
X135315198Y-72790000D01*
X134352802Y-72790000D01*
X132708419Y-71145618D01*
X132720506Y-71155537D01*
X132830820Y-71214502D01*
X132950518Y-71250812D01*
X133075000Y-71263072D01*
X133925000Y-71263072D01*
X134049482Y-71250812D01*
X134169180Y-71214502D01*
X134279494Y-71155537D01*
X134376185Y-71076185D01*
X134455537Y-70979494D01*
X134466158Y-70959623D01*
X134573986Y-70949003D01*
X134717247Y-70905546D01*
X134849276Y-70834974D01*
X134965001Y-70740001D01*
X134988804Y-70710997D01*
X134989990Y-70709811D01*
X134989990Y-70778845D01*
%TA.AperFunction,Conductor*%
D23*
G36*
X134989990Y-70778845D02*
G01*
X134859744Y-70832795D01*
X134690226Y-70946063D01*
X134546063Y-71090226D01*
X134432795Y-71259744D01*
X134354774Y-71448102D01*
X134315000Y-71648061D01*
X134315000Y-71851939D01*
X134354774Y-72051898D01*
X134432795Y-72240256D01*
X134546063Y-72409774D01*
X134690226Y-72553937D01*
X134859744Y-72667205D01*
X135048102Y-72745226D01*
X135248061Y-72785000D01*
X135310198Y-72785000D01*
X135315198Y-72790000D01*
X134352802Y-72790000D01*
X132708419Y-71145618D01*
X132720506Y-71155537D01*
X132830820Y-71214502D01*
X132950518Y-71250812D01*
X133075000Y-71263072D01*
X133925000Y-71263072D01*
X134049482Y-71250812D01*
X134169180Y-71214502D01*
X134279494Y-71155537D01*
X134376185Y-71076185D01*
X134455537Y-70979494D01*
X134466158Y-70959623D01*
X134573986Y-70949003D01*
X134717247Y-70905546D01*
X134849276Y-70834974D01*
X134965001Y-70740001D01*
X134988804Y-70710997D01*
X134989990Y-70709811D01*
X134989990Y-70778845D01*
G37*
%TD.AperFunction*%
D22*
X161920000Y-67680448D02*
X161920000Y-67869552D01*
X161922070Y-67879960D01*
X161831253Y-67789143D01*
X161845395Y-67775000D01*
X161831253Y-67760858D01*
X161922070Y-67670040D01*
X161920000Y-67680448D01*
%TA.AperFunction,Conductor*%
D23*
G36*
X161920000Y-67680448D02*
G01*
X161920000Y-67869552D01*
X161922070Y-67879960D01*
X161831253Y-67789143D01*
X161845395Y-67775000D01*
X161831253Y-67760858D01*
X161922070Y-67670040D01*
X161920000Y-67680448D01*
G37*
%TD.AperFunction*%
D22*
X168173748Y-67760858D02*
X168159605Y-67775000D01*
X168173748Y-67789143D01*
X168089171Y-67873719D01*
X168090000Y-67869552D01*
X168090000Y-67680448D01*
X168089171Y-67676281D01*
X168173748Y-67760858D01*
%TA.AperFunction,Conductor*%
D23*
G36*
X168173748Y-67760858D02*
G01*
X168159605Y-67775000D01*
X168173748Y-67789143D01*
X168089171Y-67873719D01*
X168090000Y-67869552D01*
X168090000Y-67680448D01*
X168089171Y-67676281D01*
X168173748Y-67760858D01*
G37*
%TD.AperFunction*%
%TD*%
M02*
