%TF.GenerationSoftware,KiCad,Pcbnew,(5.1.7)-1*%
%TF.CreationDate,2021-01-12T02:41:31-08:00*%
%TF.ProjectId,pain5,7061696e-352e-46b6-9963-61645f706362,rev?*%
%TF.SameCoordinates,Original*%
%TF.FileFunction,Soldermask,Bot*%
%TF.FilePolarity,Negative*%
%FSLAX46Y46*%
G04 Gerber Fmt 4.6, Leading zero omitted, Abs format (unit mm)*
G04 Created by KiCad (PCBNEW (5.1.7)-1) date 2021-01-12 02:41:31*
%MOMM*%
%LPD*%
G01*
G04 APERTURE LIST*
%ADD10O,0.900000X1.700000*%
%ADD11O,0.900000X2.400000*%
%ADD12C,0.650000*%
%ADD13O,0.850000X0.850000*%
%ADD14R,0.850000X0.850000*%
%ADD15C,4.000000*%
%ADD16C,1.750000*%
G04 APERTURE END LIST*
D10*
%TO.C,J1*%
X169325000Y-64740000D03*
X160675000Y-64740000D03*
D11*
X169325000Y-68120000D03*
X160675000Y-68120000D03*
D12*
X167980000Y-67775000D03*
X167130000Y-67775000D03*
X166280000Y-67775000D03*
X165430000Y-67775000D03*
X164580000Y-67775000D03*
X163730000Y-67775000D03*
X162880000Y-67775000D03*
X162025000Y-67775000D03*
X167975000Y-69100000D03*
X167125000Y-69100000D03*
X166275000Y-69100000D03*
X165425000Y-69100000D03*
X164575000Y-69100000D03*
X162875000Y-69100000D03*
X162025000Y-69100000D03*
X163725000Y-69100000D03*
%TD*%
D13*
%TO.C,J2*%
X142350000Y-66150000D03*
X141350000Y-66150000D03*
X140350000Y-66150000D03*
X139350000Y-66150000D03*
X138350000Y-66150000D03*
D14*
X137350000Y-66150000D03*
%TD*%
%TO.C,J3*%
X133500000Y-70200000D03*
D13*
X133500000Y-69200000D03*
%TD*%
D15*
%TO.C,K1*%
X126740000Y-90225000D03*
D16*
X131820000Y-90225000D03*
X121660000Y-90225000D03*
%TD*%
%TO.C,K2*%
X140810000Y-90225000D03*
X150970000Y-90225000D03*
D15*
X145890000Y-90225000D03*
%TD*%
%TO.C,K3*%
X165015000Y-90225000D03*
D16*
X170095000Y-90225000D03*
X159935000Y-90225000D03*
%TD*%
%TO.C,K4*%
X179085000Y-90225000D03*
X189245000Y-90225000D03*
D15*
X184165000Y-90225000D03*
%TD*%
%TO.C,K5*%
X203305000Y-90220000D03*
D16*
X208385000Y-90220000D03*
X198225000Y-90220000D03*
%TD*%
M02*
