M48
; DRILL file {KiCad (5.1.7)-1} date 01/12/21 02:41:32
; FORMAT={-:-/ absolute / inch / decimal}
; #@! TF.CreationDate,2021-01-12T02:41:32-08:00
; #@! TF.GenerationSoftware,Kicad,Pcbnew,(5.1.7)-1
; #@! TF.FileFunction,Plated,1,2,PTH
FMAT,2
INCH
T1C0.0157
T2C0.0197
T3C0.0236
T4C0.0591
%
G90
G05
T1
X5.1244Y-2.832
X5.2933Y-3.0217
X5.3287Y-2.8248
X5.3287Y-2.8671
X5.376Y-2.7451
X5.4173Y-3.1161
X5.436Y-2.7362
X5.5598Y-2.7108
X5.748Y-2.8327
X5.748Y-3.0148
X5.7904Y-2.6112
X6.4114Y-2.8209
X6.7421Y-2.8248
X6.7421Y-2.9311
X6.3789Y-2.6683
X6.3789Y-2.7205
X6.4124Y-2.7205
X6.4126Y-2.6683
X6.4459Y-2.7205
X6.4461Y-2.6683
X6.4793Y-2.7205
X6.4795Y-2.6683
X6.5128Y-2.7205
X6.513Y-2.6683
X6.5463Y-2.7205
X6.5465Y-2.6683
X6.5797Y-2.7205
X6.5799Y-2.6683
X6.6132Y-2.7205
X6.6134Y-2.6683
T2
X5.4075Y-2.6043
X5.4469Y-2.6043
X5.4862Y-2.6043
X5.5256Y-2.6043
X5.565Y-2.6043
X5.6043Y-2.6043
X5.2559Y-2.7244
X5.2559Y-2.7638
T4
X6.3967Y-3.3522
X6.6467Y-3.4522
X7.1506Y-3.3522
X7.4006Y-3.4522
X5.6437Y-3.3522
X5.8937Y-3.4522
X4.8898Y-3.3522
X5.1398Y-3.4522
X7.9041Y-3.352
X8.1541Y-3.452
T3
G00X6.3258Y-2.5331
M15
G01X6.3258Y-2.5646
M16
G05
G00X6.3258Y-2.6524
M15
G01X6.3258Y-2.7114
M16
G05
G00X6.6663Y-2.5331
M15
G01X6.6663Y-2.5646
M16
G05
G00X6.6663Y-2.6524
M15
G01X6.6663Y-2.7114
M16
G05
T0
M30
