%TF.GenerationSoftware,KiCad,Pcbnew,(5.1.7)-1*%
%TF.CreationDate,2021-01-12T02:41:31-08:00*%
%TF.ProjectId,pain5,7061696e-352e-46b6-9963-61645f706362,rev?*%
%TF.SameCoordinates,Original*%
%TF.FileFunction,Legend,Top*%
%TF.FilePolarity,Positive*%
%FSLAX46Y46*%
G04 Gerber Fmt 4.6, Leading zero omitted, Abs format (unit mm)*
G04 Created by KiCad (PCBNEW (5.1.7)-1) date 2021-01-12 02:41:31*
%MOMM*%
%LPD*%
G01*
G04 APERTURE LIST*
%ADD10C,0.250000*%
%ADD11C,0.120000*%
%ADD12C,0.100000*%
%ADD13C,0.127000*%
%ADD14C,0.150000*%
%ADD15C,0.015000*%
G04 APERTURE END LIST*
D10*
X149214285Y-77202380D02*
X149214285Y-77916666D01*
X149166666Y-78059523D01*
X149071428Y-78154761D01*
X148928571Y-78202380D01*
X148833333Y-78202380D01*
X150119047Y-78202380D02*
X150119047Y-77678571D01*
X150071428Y-77583333D01*
X149976190Y-77535714D01*
X149785714Y-77535714D01*
X149690476Y-77583333D01*
X150119047Y-78154761D02*
X150023809Y-78202380D01*
X149785714Y-78202380D01*
X149690476Y-78154761D01*
X149642857Y-78059523D01*
X149642857Y-77964285D01*
X149690476Y-77869047D01*
X149785714Y-77821428D01*
X150023809Y-77821428D01*
X150119047Y-77773809D01*
X150595238Y-77535714D02*
X150595238Y-78202380D01*
X150595238Y-77630952D02*
X150642857Y-77583333D01*
X150738095Y-77535714D01*
X150880952Y-77535714D01*
X150976190Y-77583333D01*
X151023809Y-77678571D01*
X151023809Y-78202380D01*
X151500000Y-78107142D02*
X151547619Y-78154761D01*
X151500000Y-78202380D01*
X151452380Y-78154761D01*
X151500000Y-78107142D01*
X151500000Y-78202380D01*
X152690476Y-77297619D02*
X152738095Y-77250000D01*
X152833333Y-77202380D01*
X153071428Y-77202380D01*
X153166666Y-77250000D01*
X153214285Y-77297619D01*
X153261904Y-77392857D01*
X153261904Y-77488095D01*
X153214285Y-77630952D01*
X152642857Y-78202380D01*
X153261904Y-78202380D01*
X153880952Y-77202380D02*
X153976190Y-77202380D01*
X154071428Y-77250000D01*
X154119047Y-77297619D01*
X154166666Y-77392857D01*
X154214285Y-77583333D01*
X154214285Y-77821428D01*
X154166666Y-78011904D01*
X154119047Y-78107142D01*
X154071428Y-78154761D01*
X153976190Y-78202380D01*
X153880952Y-78202380D01*
X153785714Y-78154761D01*
X153738095Y-78107142D01*
X153690476Y-78011904D01*
X153642857Y-77821428D01*
X153642857Y-77583333D01*
X153690476Y-77392857D01*
X153738095Y-77297619D01*
X153785714Y-77250000D01*
X153880952Y-77202380D01*
X154595238Y-77297619D02*
X154642857Y-77250000D01*
X154738095Y-77202380D01*
X154976190Y-77202380D01*
X155071428Y-77250000D01*
X155119047Y-77297619D01*
X155166666Y-77392857D01*
X155166666Y-77488095D01*
X155119047Y-77630952D01*
X154547619Y-78202380D01*
X155166666Y-78202380D01*
X156119047Y-78202380D02*
X155547619Y-78202380D01*
X155833333Y-78202380D02*
X155833333Y-77202380D01*
X155738095Y-77345238D01*
X155642857Y-77440476D01*
X155547619Y-77488095D01*
X150254761Y-75702380D02*
X149921428Y-75226190D01*
X149683333Y-75702380D02*
X149683333Y-74702380D01*
X150064285Y-74702380D01*
X150159523Y-74750000D01*
X150207142Y-74797619D01*
X150254761Y-74892857D01*
X150254761Y-75035714D01*
X150207142Y-75130952D01*
X150159523Y-75178571D01*
X150064285Y-75226190D01*
X149683333Y-75226190D01*
X151064285Y-75654761D02*
X150969047Y-75702380D01*
X150778571Y-75702380D01*
X150683333Y-75654761D01*
X150635714Y-75559523D01*
X150635714Y-75178571D01*
X150683333Y-75083333D01*
X150778571Y-75035714D01*
X150969047Y-75035714D01*
X151064285Y-75083333D01*
X151111904Y-75178571D01*
X151111904Y-75273809D01*
X150635714Y-75369047D01*
X151445238Y-75035714D02*
X151683333Y-75702380D01*
X151921428Y-75035714D01*
X152302380Y-75607142D02*
X152350000Y-75654761D01*
X152302380Y-75702380D01*
X152254761Y-75654761D01*
X152302380Y-75607142D01*
X152302380Y-75702380D01*
X153540476Y-75702380D02*
X153540476Y-74702380D01*
X153921428Y-74702380D01*
X154016666Y-74750000D01*
X154064285Y-74797619D01*
X154111904Y-74892857D01*
X154111904Y-75035714D01*
X154064285Y-75130952D01*
X154016666Y-75178571D01*
X153921428Y-75226190D01*
X153540476Y-75226190D01*
X155064285Y-75702380D02*
X154492857Y-75702380D01*
X154778571Y-75702380D02*
X154778571Y-74702380D01*
X154683333Y-74845238D01*
X154588095Y-74940476D01*
X154492857Y-74988095D01*
X132527514Y-70632580D02*
X131956085Y-70632580D01*
X132241800Y-70632580D02*
X132241800Y-69632580D01*
X132146561Y-69775438D01*
X132051323Y-69870676D01*
X131956085Y-69918295D01*
X141541476Y-63612780D02*
X141351000Y-63612780D01*
X141255761Y-63660400D01*
X141208142Y-63708019D01*
X141112904Y-63850876D01*
X141065285Y-64041352D01*
X141065285Y-64422304D01*
X141112904Y-64517542D01*
X141160523Y-64565161D01*
X141255761Y-64612780D01*
X141446238Y-64612780D01*
X141541476Y-64565161D01*
X141589095Y-64517542D01*
X141636714Y-64422304D01*
X141636714Y-64184209D01*
X141589095Y-64088971D01*
X141541476Y-64041352D01*
X141446238Y-63993733D01*
X141255761Y-63993733D01*
X141160523Y-64041352D01*
X141112904Y-64088971D01*
X141065285Y-64184209D01*
X136632914Y-64561980D02*
X136061485Y-64561980D01*
X136347200Y-64561980D02*
X136347200Y-63561980D01*
X136251961Y-63704838D01*
X136156723Y-63800076D01*
X136061485Y-63847695D01*
D11*
%TO.C,J2*%
X142910000Y-66845000D02*
X142910000Y-66544493D01*
X142910000Y-65755507D02*
X142910000Y-65455000D01*
X138035000Y-66845000D02*
X142910000Y-66845000D01*
X138035000Y-65455000D02*
X142910000Y-65455000D01*
X138035000Y-66845000D02*
X138035000Y-66758276D01*
X138035000Y-65541724D02*
X138035000Y-65455000D01*
X137350000Y-66845000D02*
X136665000Y-66845000D01*
X136665000Y-66845000D02*
X136665000Y-66150000D01*
%TO.C,C1*%
X129465580Y-77030000D02*
X129184420Y-77030000D01*
X129465580Y-76010000D02*
X129184420Y-76010000D01*
%TO.C,C2*%
X129515580Y-70172000D02*
X129234420Y-70172000D01*
X129515580Y-69152000D02*
X129234420Y-69152000D01*
%TO.C,C3*%
X133815580Y-76240000D02*
X133534420Y-76240000D01*
X133815580Y-77260000D02*
X133534420Y-77260000D01*
%TO.C,C4*%
X136965580Y-79660000D02*
X136684420Y-79660000D01*
X136965580Y-78640000D02*
X136684420Y-78640000D01*
%TO.C,C5*%
X145490000Y-72584420D02*
X145490000Y-72865580D01*
X146510000Y-72584420D02*
X146510000Y-72865580D01*
%TO.C,C6*%
X145490000Y-75940580D02*
X145490000Y-75659420D01*
X146510000Y-75940580D02*
X146510000Y-75659420D01*
%TO.C,C7*%
X147990580Y-65840000D02*
X147709420Y-65840000D01*
X147990580Y-66860000D02*
X147709420Y-66860000D01*
%TO.C,C8*%
X162215580Y-72160000D02*
X161934420Y-72160000D01*
X162215580Y-71140000D02*
X161934420Y-71140000D01*
%TO.C,C9*%
X144709420Y-68410000D02*
X144990580Y-68410000D01*
X144709420Y-67390000D02*
X144990580Y-67390000D01*
%TO.C,D1*%
X124200000Y-82335000D02*
X126485000Y-82335000D01*
X126485000Y-82335000D02*
X126485000Y-80865000D01*
X126485000Y-80865000D02*
X124200000Y-80865000D01*
%TO.C,D2*%
X143312500Y-80665000D02*
X141027500Y-80665000D01*
X141027500Y-80665000D02*
X141027500Y-82135000D01*
X141027500Y-82135000D02*
X143312500Y-82135000D01*
%TO.C,D3*%
X164785000Y-80665000D02*
X162500000Y-80665000D01*
X164785000Y-82135000D02*
X164785000Y-80665000D01*
X162500000Y-82135000D02*
X164785000Y-82135000D01*
%TO.C,D4*%
X181600000Y-82135000D02*
X183885000Y-82135000D01*
X183885000Y-82135000D02*
X183885000Y-80665000D01*
X183885000Y-80665000D02*
X181600000Y-80665000D01*
%TO.C,D5*%
X202985000Y-80665000D02*
X200700000Y-80665000D01*
X202985000Y-82135000D02*
X202985000Y-80665000D01*
X200700000Y-82135000D02*
X202985000Y-82135000D01*
%TO.C,D6*%
X176465000Y-68012500D02*
X176465000Y-70297500D01*
X176465000Y-70297500D02*
X177935000Y-70297500D01*
X177935000Y-70297500D02*
X177935000Y-68012500D01*
%TO.C,J3*%
X134195000Y-68640000D02*
X133894493Y-68640000D01*
X133105507Y-68640000D02*
X132805000Y-68640000D01*
X134195000Y-69515000D02*
X134195000Y-68640000D01*
X132805000Y-69515000D02*
X132805000Y-68640000D01*
X134195000Y-69515000D02*
X134108276Y-69515000D01*
X132891724Y-69515000D02*
X132805000Y-69515000D01*
X134195000Y-70200000D02*
X134195000Y-70885000D01*
X134195000Y-70885000D02*
X133500000Y-70885000D01*
%TO.C,R1*%
X152162742Y-70377500D02*
X152637258Y-70377500D01*
X152162742Y-71422500D02*
X152637258Y-71422500D01*
%TO.C,R2*%
X152187742Y-68477500D02*
X152662258Y-68477500D01*
X152187742Y-69522500D02*
X152662258Y-69522500D01*
%TO.C,R3*%
X171837742Y-74972500D02*
X172312258Y-74972500D01*
X171837742Y-73927500D02*
X172312258Y-73927500D01*
%TO.C,R4*%
X171837742Y-71227500D02*
X172312258Y-71227500D01*
X171837742Y-72272500D02*
X172312258Y-72272500D01*
%TO.C,R5*%
X137072500Y-69137258D02*
X137072500Y-68662742D01*
X136027500Y-69137258D02*
X136027500Y-68662742D01*
D12*
%TO.C,U1*%
X144306000Y-70240000D02*
G75*
G03*
X144306000Y-70240000I-381000J0D01*
G01*
D13*
X137950000Y-70550000D02*
X137250000Y-70550000D01*
X137250000Y-70550000D02*
X137250000Y-71250000D01*
X137250000Y-76850000D02*
X137250000Y-77550000D01*
X137250000Y-77550000D02*
X137950000Y-77550000D01*
X143550000Y-77550000D02*
X144250000Y-77550000D01*
X144250000Y-77550000D02*
X144250000Y-76850000D01*
D11*
%TO.C,Y1*%
X127650000Y-75075000D02*
X130950000Y-75075000D01*
X130950000Y-75075000D02*
X130950000Y-71075000D01*
%TO.C,R6*%
X173537742Y-65877500D02*
X174012258Y-65877500D01*
X173537742Y-66922500D02*
X174012258Y-66922500D01*
%TO.C,R7*%
X180337742Y-66922500D02*
X180812258Y-66922500D01*
X180337742Y-65877500D02*
X180812258Y-65877500D01*
%TO.C,J2*%
D14*
X135242380Y-65983333D02*
X135956666Y-65983333D01*
X136099523Y-66030952D01*
X136194761Y-66126190D01*
X136242380Y-66269047D01*
X136242380Y-66364285D01*
X135337619Y-65554761D02*
X135290000Y-65507142D01*
X135242380Y-65411904D01*
X135242380Y-65173809D01*
X135290000Y-65078571D01*
X135337619Y-65030952D01*
X135432857Y-64983333D01*
X135528095Y-64983333D01*
X135670952Y-65030952D01*
X136242380Y-65602380D01*
X136242380Y-64983333D01*
%TO.C,C1*%
X129158333Y-78307142D02*
X129110714Y-78354761D01*
X128967857Y-78402380D01*
X128872619Y-78402380D01*
X128729761Y-78354761D01*
X128634523Y-78259523D01*
X128586904Y-78164285D01*
X128539285Y-77973809D01*
X128539285Y-77830952D01*
X128586904Y-77640476D01*
X128634523Y-77545238D01*
X128729761Y-77450000D01*
X128872619Y-77402380D01*
X128967857Y-77402380D01*
X129110714Y-77450000D01*
X129158333Y-77497619D01*
X130110714Y-78402380D02*
X129539285Y-78402380D01*
X129825000Y-78402380D02*
X129825000Y-77402380D01*
X129729761Y-77545238D01*
X129634523Y-77640476D01*
X129539285Y-77688095D01*
%TO.C,C2*%
X129183333Y-68707142D02*
X129135714Y-68754761D01*
X128992857Y-68802380D01*
X128897619Y-68802380D01*
X128754761Y-68754761D01*
X128659523Y-68659523D01*
X128611904Y-68564285D01*
X128564285Y-68373809D01*
X128564285Y-68230952D01*
X128611904Y-68040476D01*
X128659523Y-67945238D01*
X128754761Y-67850000D01*
X128897619Y-67802380D01*
X128992857Y-67802380D01*
X129135714Y-67850000D01*
X129183333Y-67897619D01*
X129564285Y-67897619D02*
X129611904Y-67850000D01*
X129707142Y-67802380D01*
X129945238Y-67802380D01*
X130040476Y-67850000D01*
X130088095Y-67897619D01*
X130135714Y-67992857D01*
X130135714Y-68088095D01*
X130088095Y-68230952D01*
X129516666Y-68802380D01*
X130135714Y-68802380D01*
%TO.C,C3*%
X132808333Y-78557142D02*
X132760714Y-78604761D01*
X132617857Y-78652380D01*
X132522619Y-78652380D01*
X132379761Y-78604761D01*
X132284523Y-78509523D01*
X132236904Y-78414285D01*
X132189285Y-78223809D01*
X132189285Y-78080952D01*
X132236904Y-77890476D01*
X132284523Y-77795238D01*
X132379761Y-77700000D01*
X132522619Y-77652380D01*
X132617857Y-77652380D01*
X132760714Y-77700000D01*
X132808333Y-77747619D01*
X133141666Y-77652380D02*
X133760714Y-77652380D01*
X133427380Y-78033333D01*
X133570238Y-78033333D01*
X133665476Y-78080952D01*
X133713095Y-78128571D01*
X133760714Y-78223809D01*
X133760714Y-78461904D01*
X133713095Y-78557142D01*
X133665476Y-78604761D01*
X133570238Y-78652380D01*
X133284523Y-78652380D01*
X133189285Y-78604761D01*
X133141666Y-78557142D01*
%TO.C,C4*%
X134233333Y-79682142D02*
X134185714Y-79729761D01*
X134042857Y-79777380D01*
X133947619Y-79777380D01*
X133804761Y-79729761D01*
X133709523Y-79634523D01*
X133661904Y-79539285D01*
X133614285Y-79348809D01*
X133614285Y-79205952D01*
X133661904Y-79015476D01*
X133709523Y-78920238D01*
X133804761Y-78825000D01*
X133947619Y-78777380D01*
X134042857Y-78777380D01*
X134185714Y-78825000D01*
X134233333Y-78872619D01*
X135090476Y-79110714D02*
X135090476Y-79777380D01*
X134852380Y-78729761D02*
X134614285Y-79444047D01*
X135233333Y-79444047D01*
%TO.C,C5*%
X147787142Y-72891666D02*
X147834761Y-72939285D01*
X147882380Y-73082142D01*
X147882380Y-73177380D01*
X147834761Y-73320238D01*
X147739523Y-73415476D01*
X147644285Y-73463095D01*
X147453809Y-73510714D01*
X147310952Y-73510714D01*
X147120476Y-73463095D01*
X147025238Y-73415476D01*
X146930000Y-73320238D01*
X146882380Y-73177380D01*
X146882380Y-73082142D01*
X146930000Y-72939285D01*
X146977619Y-72891666D01*
X146882380Y-71986904D02*
X146882380Y-72463095D01*
X147358571Y-72510714D01*
X147310952Y-72463095D01*
X147263333Y-72367857D01*
X147263333Y-72129761D01*
X147310952Y-72034523D01*
X147358571Y-71986904D01*
X147453809Y-71939285D01*
X147691904Y-71939285D01*
X147787142Y-71986904D01*
X147834761Y-72034523D01*
X147882380Y-72129761D01*
X147882380Y-72367857D01*
X147834761Y-72463095D01*
X147787142Y-72510714D01*
%TO.C,C6*%
X147807142Y-75666666D02*
X147854761Y-75714285D01*
X147902380Y-75857142D01*
X147902380Y-75952380D01*
X147854761Y-76095238D01*
X147759523Y-76190476D01*
X147664285Y-76238095D01*
X147473809Y-76285714D01*
X147330952Y-76285714D01*
X147140476Y-76238095D01*
X147045238Y-76190476D01*
X146950000Y-76095238D01*
X146902380Y-75952380D01*
X146902380Y-75857142D01*
X146950000Y-75714285D01*
X146997619Y-75666666D01*
X146902380Y-74809523D02*
X146902380Y-75000000D01*
X146950000Y-75095238D01*
X146997619Y-75142857D01*
X147140476Y-75238095D01*
X147330952Y-75285714D01*
X147711904Y-75285714D01*
X147807142Y-75238095D01*
X147854761Y-75190476D01*
X147902380Y-75095238D01*
X147902380Y-74904761D01*
X147854761Y-74809523D01*
X147807142Y-74761904D01*
X147711904Y-74714285D01*
X147473809Y-74714285D01*
X147378571Y-74761904D01*
X147330952Y-74809523D01*
X147283333Y-74904761D01*
X147283333Y-75095238D01*
X147330952Y-75190476D01*
X147378571Y-75238095D01*
X147473809Y-75285714D01*
%TO.C,C7*%
X150183333Y-66757142D02*
X150135714Y-66804761D01*
X149992857Y-66852380D01*
X149897619Y-66852380D01*
X149754761Y-66804761D01*
X149659523Y-66709523D01*
X149611904Y-66614285D01*
X149564285Y-66423809D01*
X149564285Y-66280952D01*
X149611904Y-66090476D01*
X149659523Y-65995238D01*
X149754761Y-65900000D01*
X149897619Y-65852380D01*
X149992857Y-65852380D01*
X150135714Y-65900000D01*
X150183333Y-65947619D01*
X150516666Y-65852380D02*
X151183333Y-65852380D01*
X150754761Y-66852380D01*
%TO.C,C8*%
X161908333Y-73437142D02*
X161860714Y-73484761D01*
X161717857Y-73532380D01*
X161622619Y-73532380D01*
X161479761Y-73484761D01*
X161384523Y-73389523D01*
X161336904Y-73294285D01*
X161289285Y-73103809D01*
X161289285Y-72960952D01*
X161336904Y-72770476D01*
X161384523Y-72675238D01*
X161479761Y-72580000D01*
X161622619Y-72532380D01*
X161717857Y-72532380D01*
X161860714Y-72580000D01*
X161908333Y-72627619D01*
X162479761Y-72960952D02*
X162384523Y-72913333D01*
X162336904Y-72865714D01*
X162289285Y-72770476D01*
X162289285Y-72722857D01*
X162336904Y-72627619D01*
X162384523Y-72580000D01*
X162479761Y-72532380D01*
X162670238Y-72532380D01*
X162765476Y-72580000D01*
X162813095Y-72627619D01*
X162860714Y-72722857D01*
X162860714Y-72770476D01*
X162813095Y-72865714D01*
X162765476Y-72913333D01*
X162670238Y-72960952D01*
X162479761Y-72960952D01*
X162384523Y-73008571D01*
X162336904Y-73056190D01*
X162289285Y-73151428D01*
X162289285Y-73341904D01*
X162336904Y-73437142D01*
X162384523Y-73484761D01*
X162479761Y-73532380D01*
X162670238Y-73532380D01*
X162765476Y-73484761D01*
X162813095Y-73437142D01*
X162860714Y-73341904D01*
X162860714Y-73151428D01*
X162813095Y-73056190D01*
X162765476Y-73008571D01*
X162670238Y-72960952D01*
%TO.C,C9*%
X147233333Y-68357142D02*
X147185714Y-68404761D01*
X147042857Y-68452380D01*
X146947619Y-68452380D01*
X146804761Y-68404761D01*
X146709523Y-68309523D01*
X146661904Y-68214285D01*
X146614285Y-68023809D01*
X146614285Y-67880952D01*
X146661904Y-67690476D01*
X146709523Y-67595238D01*
X146804761Y-67500000D01*
X146947619Y-67452380D01*
X147042857Y-67452380D01*
X147185714Y-67500000D01*
X147233333Y-67547619D01*
X147709523Y-68452380D02*
X147900000Y-68452380D01*
X147995238Y-68404761D01*
X148042857Y-68357142D01*
X148138095Y-68214285D01*
X148185714Y-68023809D01*
X148185714Y-67642857D01*
X148138095Y-67547619D01*
X148090476Y-67500000D01*
X147995238Y-67452380D01*
X147804761Y-67452380D01*
X147709523Y-67500000D01*
X147661904Y-67547619D01*
X147614285Y-67642857D01*
X147614285Y-67880952D01*
X147661904Y-67976190D01*
X147709523Y-68023809D01*
X147804761Y-68071428D01*
X147995238Y-68071428D01*
X148090476Y-68023809D01*
X148138095Y-67976190D01*
X148185714Y-67880952D01*
%TO.C,D1*%
X121811904Y-82052380D02*
X121811904Y-81052380D01*
X122050000Y-81052380D01*
X122192857Y-81100000D01*
X122288095Y-81195238D01*
X122335714Y-81290476D01*
X122383333Y-81480952D01*
X122383333Y-81623809D01*
X122335714Y-81814285D01*
X122288095Y-81909523D01*
X122192857Y-82004761D01*
X122050000Y-82052380D01*
X121811904Y-82052380D01*
X123335714Y-82052380D02*
X122764285Y-82052380D01*
X123050000Y-82052380D02*
X123050000Y-81052380D01*
X122954761Y-81195238D01*
X122859523Y-81290476D01*
X122764285Y-81338095D01*
%TO.C,D2*%
X144311904Y-81952380D02*
X144311904Y-80952380D01*
X144550000Y-80952380D01*
X144692857Y-81000000D01*
X144788095Y-81095238D01*
X144835714Y-81190476D01*
X144883333Y-81380952D01*
X144883333Y-81523809D01*
X144835714Y-81714285D01*
X144788095Y-81809523D01*
X144692857Y-81904761D01*
X144550000Y-81952380D01*
X144311904Y-81952380D01*
X145264285Y-81047619D02*
X145311904Y-81000000D01*
X145407142Y-80952380D01*
X145645238Y-80952380D01*
X145740476Y-81000000D01*
X145788095Y-81047619D01*
X145835714Y-81142857D01*
X145835714Y-81238095D01*
X145788095Y-81380952D01*
X145216666Y-81952380D01*
X145835714Y-81952380D01*
%TO.C,D3*%
X159861904Y-82052380D02*
X159861904Y-81052380D01*
X160100000Y-81052380D01*
X160242857Y-81100000D01*
X160338095Y-81195238D01*
X160385714Y-81290476D01*
X160433333Y-81480952D01*
X160433333Y-81623809D01*
X160385714Y-81814285D01*
X160338095Y-81909523D01*
X160242857Y-82004761D01*
X160100000Y-82052380D01*
X159861904Y-82052380D01*
X160766666Y-81052380D02*
X161385714Y-81052380D01*
X161052380Y-81433333D01*
X161195238Y-81433333D01*
X161290476Y-81480952D01*
X161338095Y-81528571D01*
X161385714Y-81623809D01*
X161385714Y-81861904D01*
X161338095Y-81957142D01*
X161290476Y-82004761D01*
X161195238Y-82052380D01*
X160909523Y-82052380D01*
X160814285Y-82004761D01*
X160766666Y-81957142D01*
%TO.C,D4*%
X179011904Y-81852380D02*
X179011904Y-80852380D01*
X179250000Y-80852380D01*
X179392857Y-80900000D01*
X179488095Y-80995238D01*
X179535714Y-81090476D01*
X179583333Y-81280952D01*
X179583333Y-81423809D01*
X179535714Y-81614285D01*
X179488095Y-81709523D01*
X179392857Y-81804761D01*
X179250000Y-81852380D01*
X179011904Y-81852380D01*
X180440476Y-81185714D02*
X180440476Y-81852380D01*
X180202380Y-80804761D02*
X179964285Y-81519047D01*
X180583333Y-81519047D01*
%TO.C,D5*%
X198161904Y-81952380D02*
X198161904Y-80952380D01*
X198400000Y-80952380D01*
X198542857Y-81000000D01*
X198638095Y-81095238D01*
X198685714Y-81190476D01*
X198733333Y-81380952D01*
X198733333Y-81523809D01*
X198685714Y-81714285D01*
X198638095Y-81809523D01*
X198542857Y-81904761D01*
X198400000Y-81952380D01*
X198161904Y-81952380D01*
X199638095Y-80952380D02*
X199161904Y-80952380D01*
X199114285Y-81428571D01*
X199161904Y-81380952D01*
X199257142Y-81333333D01*
X199495238Y-81333333D01*
X199590476Y-81380952D01*
X199638095Y-81428571D01*
X199685714Y-81523809D01*
X199685714Y-81761904D01*
X199638095Y-81857142D01*
X199590476Y-81904761D01*
X199495238Y-81952380D01*
X199257142Y-81952380D01*
X199161904Y-81904761D01*
X199114285Y-81857142D01*
%TO.C,D6*%
X176222380Y-69550595D02*
X175222380Y-69550595D01*
X175222380Y-69312500D01*
X175270000Y-69169642D01*
X175365238Y-69074404D01*
X175460476Y-69026785D01*
X175650952Y-68979166D01*
X175793809Y-68979166D01*
X175984285Y-69026785D01*
X176079523Y-69074404D01*
X176174761Y-69169642D01*
X176222380Y-69312500D01*
X176222380Y-69550595D01*
X175222380Y-68122023D02*
X175222380Y-68312500D01*
X175270000Y-68407738D01*
X175317619Y-68455357D01*
X175460476Y-68550595D01*
X175650952Y-68598214D01*
X176031904Y-68598214D01*
X176127142Y-68550595D01*
X176174761Y-68502976D01*
X176222380Y-68407738D01*
X176222380Y-68217261D01*
X176174761Y-68122023D01*
X176127142Y-68074404D01*
X176031904Y-68026785D01*
X175793809Y-68026785D01*
X175698571Y-68074404D01*
X175650952Y-68122023D01*
X175603333Y-68217261D01*
X175603333Y-68407738D01*
X175650952Y-68502976D01*
X175698571Y-68550595D01*
X175793809Y-68598214D01*
%TO.C,J3*%
X133166666Y-71212380D02*
X133166666Y-71926666D01*
X133119047Y-72069523D01*
X133023809Y-72164761D01*
X132880952Y-72212380D01*
X132785714Y-72212380D01*
X133547619Y-71212380D02*
X134166666Y-71212380D01*
X133833333Y-71593333D01*
X133976190Y-71593333D01*
X134071428Y-71640952D01*
X134119047Y-71688571D01*
X134166666Y-71783809D01*
X134166666Y-72021904D01*
X134119047Y-72117142D01*
X134071428Y-72164761D01*
X133976190Y-72212380D01*
X133690476Y-72212380D01*
X133595238Y-72164761D01*
X133547619Y-72117142D01*
%TO.C,R1*%
X149733333Y-71352380D02*
X149400000Y-70876190D01*
X149161904Y-71352380D02*
X149161904Y-70352380D01*
X149542857Y-70352380D01*
X149638095Y-70400000D01*
X149685714Y-70447619D01*
X149733333Y-70542857D01*
X149733333Y-70685714D01*
X149685714Y-70780952D01*
X149638095Y-70828571D01*
X149542857Y-70876190D01*
X149161904Y-70876190D01*
X150685714Y-71352380D02*
X150114285Y-71352380D01*
X150400000Y-71352380D02*
X150400000Y-70352380D01*
X150304761Y-70495238D01*
X150209523Y-70590476D01*
X150114285Y-70638095D01*
%TO.C,R2*%
X154733333Y-69452380D02*
X154400000Y-68976190D01*
X154161904Y-69452380D02*
X154161904Y-68452380D01*
X154542857Y-68452380D01*
X154638095Y-68500000D01*
X154685714Y-68547619D01*
X154733333Y-68642857D01*
X154733333Y-68785714D01*
X154685714Y-68880952D01*
X154638095Y-68928571D01*
X154542857Y-68976190D01*
X154161904Y-68976190D01*
X155114285Y-68547619D02*
X155161904Y-68500000D01*
X155257142Y-68452380D01*
X155495238Y-68452380D01*
X155590476Y-68500000D01*
X155638095Y-68547619D01*
X155685714Y-68642857D01*
X155685714Y-68738095D01*
X155638095Y-68880952D01*
X155066666Y-69452380D01*
X155685714Y-69452380D01*
%TO.C,R3*%
X171908333Y-73472380D02*
X171575000Y-72996190D01*
X171336904Y-73472380D02*
X171336904Y-72472380D01*
X171717857Y-72472380D01*
X171813095Y-72520000D01*
X171860714Y-72567619D01*
X171908333Y-72662857D01*
X171908333Y-72805714D01*
X171860714Y-72900952D01*
X171813095Y-72948571D01*
X171717857Y-72996190D01*
X171336904Y-72996190D01*
X172241666Y-72472380D02*
X172860714Y-72472380D01*
X172527380Y-72853333D01*
X172670238Y-72853333D01*
X172765476Y-72900952D01*
X172813095Y-72948571D01*
X172860714Y-73043809D01*
X172860714Y-73281904D01*
X172813095Y-73377142D01*
X172765476Y-73424761D01*
X172670238Y-73472380D01*
X172384523Y-73472380D01*
X172289285Y-73424761D01*
X172241666Y-73377142D01*
%TO.C,R4*%
X171908333Y-70772380D02*
X171575000Y-70296190D01*
X171336904Y-70772380D02*
X171336904Y-69772380D01*
X171717857Y-69772380D01*
X171813095Y-69820000D01*
X171860714Y-69867619D01*
X171908333Y-69962857D01*
X171908333Y-70105714D01*
X171860714Y-70200952D01*
X171813095Y-70248571D01*
X171717857Y-70296190D01*
X171336904Y-70296190D01*
X172765476Y-70105714D02*
X172765476Y-70772380D01*
X172527380Y-69724761D02*
X172289285Y-70439047D01*
X172908333Y-70439047D01*
%TO.C,R5*%
X135652380Y-67991666D02*
X135176190Y-68325000D01*
X135652380Y-68563095D02*
X134652380Y-68563095D01*
X134652380Y-68182142D01*
X134700000Y-68086904D01*
X134747619Y-68039285D01*
X134842857Y-67991666D01*
X134985714Y-67991666D01*
X135080952Y-68039285D01*
X135128571Y-68086904D01*
X135176190Y-68182142D01*
X135176190Y-68563095D01*
X134652380Y-67086904D02*
X134652380Y-67563095D01*
X135128571Y-67610714D01*
X135080952Y-67563095D01*
X135033333Y-67467857D01*
X135033333Y-67229761D01*
X135080952Y-67134523D01*
X135128571Y-67086904D01*
X135223809Y-67039285D01*
X135461904Y-67039285D01*
X135557142Y-67086904D01*
X135604761Y-67134523D01*
X135652380Y-67229761D01*
X135652380Y-67467857D01*
X135604761Y-67563095D01*
X135557142Y-67610714D01*
%TO.C,U1*%
D15*
X144516304Y-70166406D02*
X144516304Y-70733457D01*
X144549660Y-70800169D01*
X144583016Y-70833525D01*
X144649728Y-70866881D01*
X144783152Y-70866881D01*
X144849864Y-70833525D01*
X144883220Y-70800169D01*
X144916576Y-70733457D01*
X144916576Y-70166406D01*
X145617051Y-70866881D02*
X145216779Y-70866881D01*
X145416915Y-70866881D02*
X145416915Y-70166406D01*
X145350203Y-70266474D01*
X145283491Y-70333186D01*
X145216779Y-70366542D01*
%TO.C,Y1*%
D14*
X126826190Y-73551190D02*
X127302380Y-73551190D01*
X126302380Y-73884523D02*
X126826190Y-73551190D01*
X126302380Y-73217857D01*
X127302380Y-72360714D02*
X127302380Y-72932142D01*
X127302380Y-72646428D02*
X126302380Y-72646428D01*
X126445238Y-72741666D01*
X126540476Y-72836904D01*
X126588095Y-72932142D01*
%TO.C,R6*%
X173608333Y-65422380D02*
X173275000Y-64946190D01*
X173036904Y-65422380D02*
X173036904Y-64422380D01*
X173417857Y-64422380D01*
X173513095Y-64470000D01*
X173560714Y-64517619D01*
X173608333Y-64612857D01*
X173608333Y-64755714D01*
X173560714Y-64850952D01*
X173513095Y-64898571D01*
X173417857Y-64946190D01*
X173036904Y-64946190D01*
X174465476Y-64422380D02*
X174275000Y-64422380D01*
X174179761Y-64470000D01*
X174132142Y-64517619D01*
X174036904Y-64660476D01*
X173989285Y-64850952D01*
X173989285Y-65231904D01*
X174036904Y-65327142D01*
X174084523Y-65374761D01*
X174179761Y-65422380D01*
X174370238Y-65422380D01*
X174465476Y-65374761D01*
X174513095Y-65327142D01*
X174560714Y-65231904D01*
X174560714Y-64993809D01*
X174513095Y-64898571D01*
X174465476Y-64850952D01*
X174370238Y-64803333D01*
X174179761Y-64803333D01*
X174084523Y-64850952D01*
X174036904Y-64898571D01*
X173989285Y-64993809D01*
%TO.C,R7*%
X180408333Y-65422380D02*
X180075000Y-64946190D01*
X179836904Y-65422380D02*
X179836904Y-64422380D01*
X180217857Y-64422380D01*
X180313095Y-64470000D01*
X180360714Y-64517619D01*
X180408333Y-64612857D01*
X180408333Y-64755714D01*
X180360714Y-64850952D01*
X180313095Y-64898571D01*
X180217857Y-64946190D01*
X179836904Y-64946190D01*
X180741666Y-64422380D02*
X181408333Y-64422380D01*
X180979761Y-65422380D01*
%TD*%
M02*
