<svg id="svg" xmlns="http://www.w3.org/2000/svg" xmlns:xlink="http://www.w3.org/1999/xlink" width="400" height="400" viewBox="0, 0, 400,400"><g id="svgg"><path id="path0" d="M159.277 43.609 C 149.471 44.960,142.715 49.900,138.766 58.610 C 136.123 64.440,135.628 74.287,135.327 127.000 L 135.090 168.600 138.787 176.000 C 150.140 198.725,149.842 198.610,201.671 200.409 C 233.512 201.515,240.771 203.200,249.013 211.400 C 260.321 222.649,262.044 245.092,252.346 254.790 C 244.908 262.228,222.021 266.619,202.800 264.296 C 201.590 264.150,198.080 263.814,195.000 263.550 C 191.743 263.270,189.233 262.871,189.000 262.595 C 188.459 261.952,184.657 260.523,182.200 260.038 C 181.100 259.821,178.490 259.276,176.400 258.827 C 167.343 256.880,140.930 258.660,135.947 261.554 C 135.206 261.984,133.826 262.540,132.879 262.789 C 130.708 263.361,130.222 263.860,127.595 268.208 L 125.455 271.751 125.909 275.813 C 128.139 295.768,149.548 312.523,182.877 320.398 C 196.228 323.552,231.870 323.667,245.000 320.599 C 275.301 313.517,297.794 298.909,307.596 279.945 C 318.544 258.762,320.639 213.591,311.635 192.831 C 297.615 160.506,257.211 142.499,198.496 142.409 L 192.791 142.400 192.896 125.700 L 193.000 109.000 201.000 108.913 C 274.881 108.106,291.184 107.254,297.909 103.846 C 316.285 94.534,317.499 66.633,300.033 55.022 C 292.493 50.009,289.577 49.735,238.200 49.205 C 194.161 48.751,182.382 48.129,176.465 45.947 C 170.260 43.659,164.551 42.883,159.277 43.609 M176.600 201.813 C 172.255 203.969,171.891 211.675,176.033 213.817 C 180.276 216.011,184.778 212.795,184.793 207.559 C 184.807 202.868,180.527 199.866,176.600 201.813 M198.385 210.100 C 195.385 211.613,195.115 212.605,195.154 221.969 C 195.239 242.645,198.675 254.400,204.634 254.400 C 209.543 254.400,211.857 250.987,213.831 240.837 C 216.822 225.450,217.179 224.552,218.734 228.500 C 220.442 232.836,221.196 238.967,221.199 248.540 C 221.200 254.875,221.604 256.243,223.891 257.656 C 226.606 259.334,229.700 258.624,231.775 255.847 C 233.271 253.845,233.015 237.366,231.365 229.400 C 228.386 215.019,215.601 209.182,208.901 219.144 C 206.986 221.990,206.950 221.957,206.653 217.102 C 206.246 210.439,203.061 207.742,198.385 210.100 M154.126 213.978 C 153.205 214.396,151.945 215.112,151.326 215.570 L 150.200 216.401 147.400 215.560 C 140.325 213.435,131.563 214.418,127.717 217.768 C 120.026 224.466,122.759 241.957,132.255 246.806 C 134.790 248.101,141.737 248.270,143.900 247.089 L 145.200 246.379 145.201 248.090 C 145.208 255.014,155.044 255.672,156.419 248.840 C 156.667 247.608,157.685 243.000,158.681 238.600 C 162.827 220.280,161.077 210.822,154.126 213.978 M80.600 215.577 C 79.494 216.028,77.580 218.006,77.145 219.147 C 76.914 219.753,77.072 223.573,77.583 229.747 C 78.023 235.056,78.655 243.360,78.988 248.200 C 80.266 266.776,80.403 268.131,81.114 269.345 C 83.424 273.289,89.425 273.105,91.225 269.037 C 91.918 267.470,91.949 266.828,91.600 261.165 C 91.392 257.774,91.216 253.854,91.210 252.453 L 91.200 249.907 92.300 250.172 C 103.039 252.762,111.486 245.507,112.623 232.717 C 113.738 220.169,104.369 213.724,91.448 218.150 C 89.714 218.743,88.265 219.178,88.227 219.115 C 86.385 216.056,83.128 214.546,80.600 215.577 M175.379 219.021 C 172.789 220.299,172.386 222.413,171.412 239.835 C 170.765 251.410,170.884 252.611,172.869 254.464 C 175.637 257.051,179.806 256.313,181.549 252.928 C 182.052 251.951,182.936 242.519,183.615 230.879 C 184.064 223.165,184.064 223.157,183.132 221.279 C 181.739 218.470,178.441 217.510,175.379 219.021 M144.550 226.804 L 146.100 227.265 145.845 229.122 C 145.066 234.810,136.952 237.749,134.598 233.196 C 131.900 227.979,137.159 224.602,144.550 226.804 M100.126 229.260 C 101.951 230.220,102.064 231.712,100.544 234.761 C 98.634 238.595,96.357 239.258,93.327 236.863 C 92.258 236.018,90.982 235.111,90.492 234.849 C 89.333 234.229,89.231 231.826,90.338 231.233 C 93.688 229.440,98.591 228.452,100.126 229.260 " stroke="none" fill="#000000" fill-rule="evenodd"></path></g></svg>